<svg xmlns="http://www.w3.org/2000/svg" xmlns:xlink="http://www.w3.org/1999/xlink" width="73" height="73" version="1.1" viewBox="0 0 73 73"><title>algorithms-and-data-structures/algorithms/quicksort</title><desc>Created with Sketch.</desc><g id="algorithms-and-data-structures/algorithms/quicksort" fill="none" fill-rule="evenodd" stroke="none" stroke-width="1"><g id="container" fill="#FFF" fill-rule="nonzero" stroke="#333437" stroke-width="2" transform="translate(2.000000, 2.000000)"><rect id="mask" width="71" height="71" x="-1" y="-1" rx="14"/></g><g id="robotic-arm" fill-rule="nonzero" transform="translate(13.000000, 14.000000)"><polygon id="Shape" fill="#FFB655" points="42.204 33.763 42.204 30.694 32.612 30.694 32.612 33.763 32.612 38.367 42.204 38.367"/><polygon id="Shape" fill="#FFB655" points="14.388 33.763 14.388 30.694 4.796 30.694 4.796 33.763 4.796 38.367 14.388 38.367"/><path id="Shape" fill="#FF3051" d="M25.4183673,23.9795918 L25.4183673,16.3061224 C24.5330514,16.9144944 23.4261323,16.9144944 22.5408163,16.3061224 L22.5408163,23.9795918 C23.3544962,23.1257468 24.6046875,23.1257468 25.4183673,23.9795918 Z"/><polygon id="Shape" fill="#57A4FF" points="0 1.918 47 1.918 47 4.796 0 4.796"/><path id="Shape" fill="#FF3051" d="M23.9795918,10.3591837 C25.7454002,10.3591837 27.1768707,11.7333954 27.1768707,13.4285714 L28.7755102,5.75510204 L19.1836735,5.75510204 L20.7823129,13.4285714 C20.7823129,11.7333954 22.2137835,10.3591837 23.9795918,10.3591837 Z"/><circle id="Oval" cx="23.98" cy="13.429" r="3.837" fill="#FFCD00"/><polygon id="Shape" fill="#006DF0" points="29.735 5.755 29.735 0 17.265 0 17.265 5.755 18.824 5.755 28.176 5.755"/><path id="Shape" fill="#6D6E71" d="M46.0408163,42.2040816 C46.0408163,43.7933092 44.6488346,45.0816327 42.9317382,45.0816327 L4.06826179,45.0816327 C2.35116536,45.0816327 0.959183673,43.7933092 0.959183673,42.2040816 C0.959183673,40.6148541 2.35116536,39.3265306 4.06826179,39.3265306 L42.9317382,39.3265306 C44.6488346,39.3265306 46.0408163,40.6148541 46.0408163,42.2040816 Z"/><path id="Shape" fill="#58595B" d="M4.06845645,40.8613549 L42.9315436,40.8613549 C44.3462514,40.8632645 45.5802465,41.8102859 45.9309966,43.1632653 C46.1866824,42.2445802 45.9902592,41.2606825 45.4005986,40.5064639 C44.8109379,39.7522452 43.8965686,39.315359 42.9315436,39.3267479 L4.06845645,39.3267479 C3.10343137,39.315359 2.18906208,39.7522452 1.59940142,40.5064639 C1.00974076,41.2606825 0.813317569,42.2445802 1.06900339,43.1632653 C1.41975348,41.8102859 2.65374859,40.8632645 4.06845645,40.8613549 Z"/><circle id="Oval" cx="42.204" cy="42.204" r="1" fill="#6D6E71"/><polygon id="Shape" fill="#7ED63E" points="9.592 34.69 11.031 35.49 11.031 30.694 8.153 30.694 8.153 35.49"/><polygon id="Shape" fill="#7ED63E" points="37.408 34.69 38.847 35.49 38.847 30.694 35.969 30.694 35.969 35.49"/><circle id="Oval" cx="23.98" cy="42.204" r="1" fill="#6D6E71"/><circle id="Oval" cx="32.612" cy="42.204" r="1" fill="#6D6E71"/><circle id="Oval" cx="4.796" cy="42.204" r="1" fill="#6D6E71"/><circle id="Oval" cx="14.388" cy="42.204" r="1" fill="#6D6E71"/><polygon id="Shape" fill="#DF2A47" points="19.184 5.755 19.503 7.673 28.456 7.673 28.776 5.755"/><circle id="Oval" cx="41.724" cy="42.204" r="1.439" fill="#FFCD00"/><polygon id="Shape" fill="#F1F2F2" points="7.673 41.245 10.551 41.245 10.551 43.163 7.673 43.163"/><polygon id="Shape" fill="#F1F2F2" points="17.265 41.245 20.143 41.245 20.143 43.163 17.265 43.163"/><polygon id="Shape" fill="#F1F2F2" points="36.449 41.245 39.327 41.245 39.327 43.163 36.449 43.163"/><polygon id="Shape" fill="#F1F2F2" points="26.857 41.245 29.735 41.245 29.735 43.163 26.857 43.163"/><g id="Group" fill="#FFCD00" transform="translate(2.877551, 40.285714)"><ellipse id="Oval" cx="20.574" cy="1.918" rx="1.583" ry="1.439"/><ellipse id="Oval" cx="30.07" cy="1.918" rx="1.583" ry="1.439"/><ellipse id="Oval" cx="1.583" cy="1.918" rx="1.583" ry="1.439"/><ellipse id="Oval" cx="11.079" cy="1.918" rx="1.583" ry="1.439"/></g><path id="Shape" fill="#006DF0" d="M31.1703902,29.927697 C31.1744958,29.8769344 31.1744958,29.8258784 31.1703902,29.7751157 C31.1779609,29.6733642 31.1562959,29.5715663 31.1083808,29.4837504 C31.0887857,29.4300264 31.0637269,29.3788485 31.0336708,29.3311692 C31.0269469,29.3206183 31.0254527,29.3084443 31.0179816,29.2978935 L28.0295784,25.2398811 C27.8874701,25.0490795 27.6735144,24.9383854 27.4475869,24.9387765 L25.2062845,24.9387765 C24.7936721,24.9387765 24.4591837,25.3021434 24.4591837,25.750379 C24.4591837,26.1986147 24.7936721,26.5619815 25.2062845,26.5619815 L27.0889785,26.5619815 L29.5110793,29.852218 L26.825999,34.227567 C26.5969992,34.600499 26.6896524,35.1044888 27.0329459,35.3532596 C27.3762395,35.6020304 27.8401749,35.5013778 28.0691748,35.1284457 L31.057578,30.2588308 C31.0643019,30.24828 31.0643019,30.2352943 31.0702787,30.2247435 C31.0955233,30.1731323 31.1155622,30.1187098 31.1300468,30.062423 C31.1472022,30.0189259 31.1607049,29.9738339 31.1703902,29.927697 Z"/><path id="Shape" fill="#006DF0" d="M15.8296098,29.927697 C15.8255042,29.8769344 15.8255042,29.8258784 15.8296098,29.7751158 C15.8220391,29.6733642 15.8437041,29.5715663 15.8916192,29.4837505 C15.9112143,29.4300264 15.9362731,29.3788486 15.9663292,29.3311692 C15.9730531,29.3206184 15.9745473,29.3084443 15.9820184,29.2978935 L18.9704216,25.2398811 C19.1125299,25.0490795 19.3264856,24.9383854 19.5524131,24.9387765 L21.7937155,24.9387765 C22.2063279,24.9387765 22.5408163,25.3021434 22.5408163,25.750379 C22.5408163,26.1986147 22.2063279,26.5619815 21.7937155,26.5619815 L19.9110215,26.5619815 L17.4889207,29.852218 L20.174001,34.227567 C20.4030008,34.6004991 20.3103475,35.1044888 19.967054,35.3532596 C19.6237605,35.6020304 19.1598251,35.5013778 18.9308252,35.1284457 L15.942422,30.2588308 C15.9356981,30.24828 15.9356981,30.2352944 15.9297213,30.2247435 C15.9044767,30.1731323 15.8844378,30.1187098 15.8699532,30.062423 C15.8527978,30.0189259 15.8392951,29.973834 15.8296098,29.927697 Z"/><circle id="Oval" cx="23.98" cy="25.418" r="2.398" fill="#FFCD00"/><polygon id="Shape" fill="#FFB655" points="28.776 33.763 28.776 30.694 19.184 30.694 19.184 33.763 19.184 38.367 28.776 38.367"/><polygon id="Shape" fill="#7ED63E" points="22.541 35.49 23.98 34.69 25.418 35.49 25.418 30.694 22.541 30.694"/></g></g></svg>