<svg xmlns="http://www.w3.org/2000/svg" xmlns:xlink="http://www.w3.org/1999/xlink" width="73" height="73" version="1.1" viewBox="0 0 73 73"><title>algorithms-and-data-structures/algorithms/sorting</title><desc>Created with Sketch.</desc><g id="algorithms-and-data-structures/algorithms/sorting" fill="none" fill-rule="evenodd" stroke="none" stroke-width="1"><g id="container" fill="#FFF" fill-rule="nonzero" stroke="#4A130F" stroke-width="2" transform="translate(2.000000, 2.000000)"><rect id="mask" width="71" height="71" x="-1" y="-1" rx="14"/></g><g id="waste" fill-rule="nonzero" transform="translate(16.000000, 16.000000)"><rect id="Rectangle-path" width="18.379" height="2.828" x="22.621" y="9.897" fill="#FF675B" rx="1.414"/><rect id="Rectangle-path" width="2.828" height="4.241" x="33.93" y="36.759" fill="#898989" rx="1" transform="translate(35.344121, 38.879310) rotate(-180.000000) translate(-35.344121, -38.879310)"/><path id="Shape" fill="#E65D52" d="M39.5859595,12.7241379 L39.5859595,31.1034483 L38.4398893,35.6877219 C38.2825465,36.317095 37.7170549,36.758619 37.0683121,36.7586207 L34.6377684,36.7586207 C34.4502731,36.7586207 34.2704584,36.8331087 34.1378871,36.9656959 C34.0053159,37.0982831 33.9308494,37.2781067 33.9308719,37.4656021 L33.9310345,38.8792255 C33.931057,39.0667208 33.8565905,39.2465445 33.7240193,39.3791317 C33.591448,39.5117189 33.4116333,39.5862069 33.2241379,39.5862069 L27.5686333,39.5862069 L27.5689655,36.7586207 L26.5521302,36.7586207 C25.9033873,36.758619 25.3378958,36.317095 25.1805529,35.6877219 L24.0344828,31.1034483 L24.0344828,12.7241379 L39.5859595,12.7241379 Z"/><path id="Shape" fill="#CC5249" d="M34.9478698,7.06896552 L28.6728198,7.06896552 C28.024077,7.06896724 27.4585854,7.5104912 27.3012426,8.13986431 L26.862069,9.89655172 L36.7586207,9.89655172 L36.3194471,8.13986431 C36.1621042,7.5104912 35.5966127,7.06896724 34.9478698,7.06896552 Z"/><rect id="Rectangle-path" width="2.828" height="4.241" x="4.241" y="36.759" fill="#898989" rx="1"/><rect id="Rectangle-path" width="18.379" height="2.828" x="0" y="9.897" fill="#82E28C" rx="1.414"/><path id="Shape" fill="#73C97C" d="M16.96539,12.7241379 L16.96539,31.1034483 L15.8193269,35.6877219 C15.6619834,36.3170976 15.0964881,36.7586222 14.4477426,36.7586207 L13.4309072,36.7586207 L13.4312395,39.5862069 L7.77573483,39.5862069 C7.58823951,39.5862069 7.40842475,39.5117189 7.27585349,39.3791317 C7.14328223,39.2465445 7.06881578,39.0667208 7.06883828,38.8792255 L7.06900793,37.4656021 C7.06903043,37.2781067 6.99456398,37.0982831 6.86199272,36.9656959 C6.72942146,36.8331087 6.5496067,36.7586207 6.36211138,36.7586207 L3.93156776,36.7586207 C3.28282228,36.7586222 2.71732693,36.3170976 2.55998345,35.6877219 L1.41392034,31.1034483 L1.41392034,12.7241379 L16.96539,12.7241379 Z"/><path id="Shape" fill="#73C97C" d="M12.3273003,7.06896552 L6.05225741,7.06896552 C5.40351193,7.068964 4.83801659,7.51048864 4.6806731,8.13986431 L4.24150655,9.89655172 L14.1380583,9.89655172 L13.6988847,8.13986431 C13.5415412,7.51048864 12.9760458,7.068964 12.3273003,7.06896552 Z"/><rect id="Rectangle-path" width="26.862" height="2.828" x="7.069" y="2.828" fill="#FFDE7E" rx="1.414"/><rect id="Rectangle-path" width="2.828" height="4.241" x="12.017" y="36.759" fill="#A3A3A3" rx="1"/><path id="Shape" fill="#FFD04A" d="M31.8103448,5.65517241 L31.8103448,25.4482759 L30.4739569,36.1393793 C30.4297493,36.493141 30.1290308,36.7586199 29.7725176,36.7586207 L26.8621538,36.7586207 C26.6746585,36.7586207 26.4948437,36.8331087 26.3622725,36.9656959 C26.2297012,37.0982831 26.1552347,37.2781067 26.1552572,37.4656021 L26.1554198,38.8792255 C26.1554423,39.0667208 26.0809759,39.2465445 25.9484046,39.3791317 C25.8158334,39.5117189 25.6360186,39.5862069 25.4485233,39.5862069 L15.5514767,39.5862069 C15.3639814,39.5862069 15.1841666,39.5117189 15.0515954,39.3791317 C14.9190241,39.2465445 14.8445577,39.0667208 14.8445802,38.8792255 L14.8447428,37.4656021 C14.8447653,37.2781067 14.7702988,37.0982831 14.6377275,36.9656959 C14.5051563,36.8331087 14.3253415,36.7586207 14.1378462,36.7586207 L11.2274824,36.7586207 C10.8709692,36.7586199 10.5702507,36.493141 10.5260431,36.1393793 L9.18965517,25.4482759 L9.18965517,5.65517241 L31.8103448,5.65517241 Z"/><rect id="Rectangle-path" width="2.828" height="4.241" x="26.155" y="36.759" fill="#A3A3A3" rx="1" transform="translate(27.568966, 38.879310) rotate(-180.000000) translate(-27.568966, -38.879310)"/><path id="Shape" fill="#E6BB43" d="M27.4020884,0 L13.5979116,0 C13.0624052,-1.88029568e-06 12.572859,0.30255259 12.3333726,0.781523621 L11.3103448,2.82758621 L29.6896552,2.82758621 L28.6666274,0.781523621 C28.427141,0.30255259 27.9375948,-1.88029568e-06 27.4020884,0 Z"/><g id="Group" fill="#EFEFEF" transform="translate(14.844828, 12.724138)"><path id="Shape" d="M1.4137931,9.89655172 L0,9.89655172 L0,7.77586207 C0.00318641327,5.04432572 2.21673951,2.83077262 4.94827586,2.82758621 L8.48275862,2.82758621 L8.48275862,4.24137931 L4.94827586,4.24137931 C2.99718446,4.24366976 1.41608355,5.82477066 1.4137931,7.77586207 L1.4137931,9.89655172 Z"/><polygon id="Shape" points="6.155 6.862 5.155 5.862 7.483 3.534 5.155 1.207 6.155 .207 9.482 3.534"/><path id="Shape" d="M7.06896552,12.7241379 L3.53448276,12.7241379 L3.53448276,11.3103448 L7.06896552,11.3103448 C9.02005692,11.3080544 10.6011578,9.72695347 10.6034483,7.77586207 L10.6034483,5.65517241 L12.0172414,5.65517241 L12.0172414,7.77586207 C12.014055,10.5073984 9.80050187,12.7209515 7.06896552,12.7241379 Z"/><polygon id="Shape" points="5.862 15.345 2.535 12.017 5.862 8.69 6.862 9.689 4.534 12.017 6.862 14.345"/></g></g></g></svg>