<svg xmlns="http://www.w3.org/2000/svg" xmlns:xlink="http://www.w3.org/1999/xlink" width="73" height="73" version="1.1" viewBox="0 0 73 73"><title>fundamentals/css/calc</title><desc>Created with Sketch.</desc><g id="fundamentals/css/calc" fill="none" fill-rule="evenodd" stroke="none" stroke-width="1"><g id="container" fill-rule="nonzero" transform="translate(2.000000, 2.000000)"><rect id="mask" width="71" height="71" x="-1" y="-1" fill="#FFF" stroke="#333832" stroke-width="2" rx="14"/><g id="calculator" transform="translate(16.000000, 11.000000)"><rect id="Rectangle-path" width="37.174" height="46.261" x=".413" y="0" fill="#C9C9BA"/><rect id="Rectangle-path" width="32.217" height="9.913" x="2.891" y="4.13" fill="#98A5A8"/><rect id="Rectangle-path" width="7.435" height="16.522" x="27.674" y="26.435" fill="#F29C1F"/><rect id="Rectangle-path" width="6.609" height="7.435" x="2.891" y="17.348" fill="#575C55"/><rect id="Rectangle-path" width="6.609" height="7.435" x="11.152" y="17.348" fill="#575C55"/><rect id="Rectangle-path" width="6.609" height="7.435" x="19.413" y="17.348" fill="#575C55"/><rect id="Rectangle-path" width="7.435" height="7.435" x="27.674" y="17.348" fill="#FFFEF9"/><rect id="Rectangle-path" width="6.609" height="7.435" x="2.891" y="26.435" fill="#575C55"/><rect id="Rectangle-path" width="6.609" height="7.435" x="11.152" y="26.435" fill="#575C55"/><rect id="Rectangle-path" width="6.609" height="7.435" x="19.413" y="26.435" fill="#575C55"/><rect id="Rectangle-path" width="6.609" height="7.435" x="2.891" y="35.522" fill="#575C55"/><rect id="Rectangle-path" width="6.609" height="7.435" x="11.152" y="35.522" fill="#575C55"/><rect id="Rectangle-path" width="6.609" height="7.435" x="19.413" y="35.522" fill="#575C55"/><path id="Shape" fill="#49686D" d="M28.8155652,6.25926087 C28.614,6.17582609 28.386,6.17582609 28.1844348,6.25926087 C28.0828261,6.3013913 27.9919565,6.36169565 27.9151304,6.43852174 L27.0898696,7.26378261 C26.7668696,7.58678261 26.7668696,8.10886957 27.0898696,8.43186957 C27.2509565,8.59295652 27.4624348,8.67391304 27.673913,8.67391304 L27.673913,11.1521739 C27.673913,11.609 28.044,11.9782609 28.5,11.9782609 C28.956,11.9782609 29.326087,11.609 29.326087,11.1521739 L29.326087,7.02173913 C29.326087,6.91434783 29.3037826,6.80695652 29.2624783,6.70617391 C29.1790435,6.50378261 29.0179565,6.34269565 28.8155652,6.25926087 Z"/><path id="Shape" fill="#49686D" d="M32.5668261,6.70617391 C32.4833913,6.50378261 32.3223043,6.34269565 32.119913,6.25926087 C31.9183478,6.17582609 31.6903478,6.17582609 31.4887826,6.25926087 C31.3871739,6.3013913 31.2963043,6.36169565 31.2194783,6.43852174 L30.3942174,7.26378261 C30.0712174,7.58678261 30.0712174,8.10886957 30.3942174,8.43186957 C30.5553043,8.59295652 30.7667826,8.67391304 30.9782609,8.67391304 L30.9782609,11.1521739 C30.9782609,11.609 31.3483478,11.9782609 31.8043478,11.9782609 C32.2603478,11.9782609 32.6304348,11.609 32.6304348,11.1521739 L32.6304348,7.02173913 C32.6304348,6.91434783 32.6081304,6.80695652 32.5668261,6.70617391 Z"/></g></g></g></svg>