<svg xmlns="http://www.w3.org/2000/svg" xmlns:xlink="http://www.w3.org/1999/xlink" width="73" height="73" version="1.1" viewBox="0 0 73 73"><title>fundamentals/css/margin-collapsing</title><desc>Created with Sketch.</desc><g id="fundamentals/css/margin-collapsing" fill="none" fill-rule="evenodd" stroke="none" stroke-width="1"><g id="container" fill-rule="nonzero" transform="translate(0.000000, 2.000000)"><rect id="mask" width="71" height="71" x="1" y="-1" fill="#FFF" stroke="#53565C" stroke-width="2" rx="14"/><g id="rocks" transform="translate(0.000000, 4.000000)"><path id="Shape" fill="#C8AD92" d="M53.890625,60.9595759 L53.890625,66.0133605 L14.6129279,66.0133605 C6.00409007,64.3635345 1.41770458,59.0308518 0.853771431,50.0153125 C0.898001482,36.1149465 1.06578231,21.6188008 1.35711392,6.5268756 L4.39104719,0.16790312 L16.7608713,7.98451309 L23.5312019,14.115772 L26.7987667,23 L28.1952818,31.0328544 L28.3359124,31.8419252 L29.8383454,33.2010575 L33.9940681,36.9607003 L34.7248131,39.1280134 L35.640692,41.8453878 L36.2014342,43.5080329 L37.2810854,44.0580943 L48.9845759,50.0153125 L49.7028599,55.6601172 L49.903125,57.2355357 L50.8243443,58.0953404 L53.890625,60.9595759 Z"/><g id="Group" fill="#A17852" transform="translate(16.570871, 2.146763)"><polygon id="Shape" points="25.287 31.001 21.259 35.788 26.472 40.49 31.854 35.073"/><polygon id="Shape" points="3.888 2 1 5.069 4.737 8.085 8.595 4.611" transform="translate(4.797723, 5.042616) rotate(-60.000000) translate(-4.797723, -5.042616)"/><rect id="Rectangle-path" width="2.555" height="2.568" x="30.075" y="40.55" transform="translate(31.352375, 41.834346) rotate(139.928850) translate(-31.352375, -41.834346)"/><rect id="Rectangle-path" width="2.555" height="2.568" x="8.075" y="8.55" transform="translate(9.352375, 9.834346) rotate(102.928848) translate(-9.352375, -9.834346)"/><rect id="Rectangle-path" width="2.555" height="2.568" x="9.075" y="1.55" transform="translate(10.352375, 2.834346) rotate(115.928848) translate(-10.352375, -2.834346)"/><polygon id="Shape" points="18.154 45.039 16.843 46.644 17.345 49.875 14.707 50.285 14.021 45.877 18.154 40.819 19.07 39.699 19.631 41.361 20.71 41.911"/></g><polygon id="Shape" fill="#715539" points="50.824 58.095 46.799 60.43 45.423 63.684 42.964 62.645 44.023 60.137 40.927 58.603 42.112 56.21 45.693 57.985 49.703 55.66 49.903 57.236"/><polygon id="Shape" fill="#A17852" points="26.905 36.485 27.144 39.286 24.484 39.513 24.146 35.564 28.195 31.033 28.336 31.842 29.838 33.201"/><polygon id="Shape" fill="#A17852" points="19.758 16.643 19.998 19.444 17.337 19.671 17 15.722 21.19 12 22.692 13.359"/><polygon id="Shape" fill="#B38A65" points="53.891 60.96 53.891 68.571 34.725 68.571 34.725 39.128 35.641 41.845 36.201 43.508 37.281 44.058 48.985 50.015 49.703 55.66 49.903 57.236 50.824 58.095"/><g id="Group" fill="#715539" transform="translate(34.665179, 41.780413)"><polygon id="Shape" points="1.536 1.728 2.616 2.278 .06 5.405 .06 1.186 .976 .065"/><polygon id="Shape" points="16.159 16.315 12.133 18.65 10.758 21.904 8.299 20.865 9.358 18.357 6.262 16.822 7.447 14.43 11.028 16.205 15.038 13.88 15.238 15.455"/></g></g><rect id="mask" width="71" height="71" x="1" y="-1" stroke="#53565C" stroke-width="2" rx="14"/></g></g></svg>