<svg xmlns="http://www.w3.org/2000/svg" xmlns:xlink="http://www.w3.org/1999/xlink" width="73" height="73" version="1.1" viewBox="0 0 73 73"><title>fundamentals/javascript/dom</title><desc>Created with Sketch.</desc><g id="fundamentals/javascript/dom" fill="none" fill-rule="evenodd" stroke="none" stroke-width="1"><g id="Bitmap" fill-rule="nonzero" transform="translate(2.000000, 2.000000)"><rect id="Mask" width="71" height="71" x="-1" y="-1" fill="#FFF" stroke="#363644" stroke-width="2" rx="14"/><g id="diagram" transform="translate(15.000000, 17.000000)"><rect id="Rectangle-path" width="1" height="16" x="19" y="9" fill="#1C1C2C"/><polygon id="Shape" fill="#1C1C2C" points="35 26 33.652 26 33.652 18.385 5.348 18.385 5.348 26 4 26 4 17 35 17"/><path id="Shape" fill="#FF7163" d="M4.5,35 C2.01471429,35 0,32.9852857 0,30.5 C0,28.0147143 2.01471429,26 4.5,26 C6.98528571,26 9,28.0147143 9,30.5 C9,32.9852857 6.98528571,35 4.5,35 Z"/><path id="Shape" fill="#FF7163" d="M34.5,35 C32.0147143,35 30,32.9852857 30,30.5 C30,28.0147143 32.0147143,26 34.5,26 C36.9852857,26 39,28.0147143 39,30.5 C39,32.9852857 36.9852857,35 34.5,35 Z"/><path id="Shape" fill="#FF7163" d="M19.5,35 C17.0147143,35 15,32.9852857 15,30.5 C15,28.0147143 17.0147143,26 19.5,26 C21.9852857,26 24,28.0147143 24,30.5 C24,32.9852857 21.9852857,35 19.5,35 Z"/><rect id="Rectangle-path" width="9" height="9" x="15" y="0" fill="#36F"/></g></g></g></svg>