<svg xmlns="http://www.w3.org/2000/svg" xmlns:xlink="http://www.w3.org/1999/xlink" width="73" height="73" version="1.1" viewBox="0 0 73 73"><title>fundamentals/javascript/prototype</title><desc>Created with Sketch.</desc><g id="fundamentals/javascript/prototype" fill="none" fill-rule="evenodd" stroke="none" stroke-width="1"><g id="container" fill="#42C3FF" fill-rule="nonzero" stroke="#155293" stroke-width="2" transform="translate(2.000000, 2.000000)"><rect id="mask" width="71" height="71" x="-1" y="-1" rx="14"/></g><g id="flip" fill-rule="nonzero" transform="translate(14.000000, 14.000000)"><path id="Shape" fill="#FFF" d="M20.125,4.3125 L0,4.3125 L0,41.6875 L20.125,41.6875 L20.125,46 L23,46 L23,0 L20.125,0 L20.125,4.3125 Z M20.125,38.8125 L2.875,38.8125 L2.875,7.1875 L20.125,7.1875 L20.125,38.8125 Z"/><rect id="Rectangle-path" width="2.875" height="2.875" x="31.625" y="4.313" fill="#155293"/><rect id="Rectangle-path" width="2.875" height="2.875" x="25.875" y="4.313" fill="#155293"/><rect id="Rectangle-path" width="2.875" height="2.875" x="37.375" y="4.313" fill="#155293"/><rect id="Rectangle-path" width="2.875" height="2.875" x="43.125" y="4.313" fill="#155293"/><rect id="Rectangle-path" width="2.875" height="2.875" x="31.625" y="38.813" fill="#155293"/><rect id="Rectangle-path" width="2.875" height="2.875" x="25.875" y="38.813" fill="#155293"/><rect id="Rectangle-path" width="2.875" height="2.875" x="37.375" y="38.813" fill="#155293"/><rect id="Rectangle-path" width="2.875" height="2.875" x="43.125" y="38.813" fill="#155293"/><rect id="Rectangle-path" width="2.875" height="2.875" x="43.125" y="33.063" fill="#155293"/><rect id="Rectangle-path" width="2.875" height="2.875" x="43.125" y="27.313" fill="#155293"/><rect id="Rectangle-path" width="2.875" height="2.875" x="43.125" y="21.563" fill="#155293"/><rect id="Rectangle-path" width="2.875" height="2.875" x="43.125" y="15.813" fill="#155293"/><rect id="Rectangle-path" width="2.875" height="2.875" x="43.125" y="10.063" fill="#155293"/></g></g></svg>