<svg xmlns="http://www.w3.org/2000/svg" xmlns:xlink="http://www.w3.org/1999/xlink" width="73" height="73" version="1.1" viewBox="0 0 73 73"><title>fundamentals/javascript/spread</title><desc>Created with Sketch.</desc><g id="fundamentals/javascript/spread" fill="none" fill-rule="evenodd" stroke="none" stroke-width="1"><g id="Bitmap" fill="#FFF" fill-rule="nonzero" stroke="#4D221D" stroke-width="2" transform="translate(2.000000, 2.000000)"><rect id="Mask" width="71" height="71" x="-1" y="-1" rx="14"/></g><g id="saw" fill-rule="nonzero" transform="translate(13.000000, 16.000000)"><path id="Shape" fill="#AD6327" d="M46.3448276,4.96551724 L38.8965517,4.96551724 L37.2413793,3.31034483 L33.9310345,3.31034483 L32.2758621,4.96551724 L21.5172414,4.96551724 L21.5172414,0 L46.3448276,0 C47.2589541,0 48,0.741045931 48,1.65517241 L48,3.31034483 C48,4.22447131 47.2589541,4.96551724 46.3448276,4.96551724 Z"/><path id="Shape" fill="#AD6327" d="M7.44827586,0 L9.93103448,0 L9.93103448,3.31034483 L7.44827586,3.31034483 C6.53414938,3.31034483 5.79310345,2.5692989 5.79310345,1.65517241 C5.79310345,0.741045931 6.53414938,0 7.44827586,0 Z"/><path id="Shape" fill="#CFDFE8" d="M24.8275862,13.2413793 L6.62068966,13.2413793 C7.24635983,12.1961745 7.75692627,11.0862475 8.14344828,9.93103448 C8.71162616,8.33363632 9.03527642,6.65958324 9.10344828,4.96551724 L9.10344828,3.55271368e-15 L22.3448276,3.55271368e-15 L22.3448276,4.96551724 C22.4129994,6.65958324 22.7366497,8.33363632 23.3048276,9.93103448 C23.6913496,11.0862475 24.201916,12.1961745 24.8275862,13.2413793 Z"/><polygon id="Shape" fill="#D3843D" points="27.31 38.069 27.31 13.241 4.138 13.241 4.138 38.069 0 41.379 31.448 41.379"/><g id="Group" fill="#66342E" transform="translate(6.620690, 13.241379)"><path id="Shape" d="M15.7241379,19.0344828 L14.0689655,19.0344828 L14.0689655,12.4137931 C14.0690124,12.1943215 14.156235,11.9838561 14.3114483,11.8286897 L16.5517241,9.58841379 L16.5517241,0 L18.2068966,0 L18.2068966,9.93103448 C18.2068497,10.1505061 18.1196271,10.3609715 17.9644138,10.5161379 L15.7241379,12.7564138 L15.7241379,19.0344828 Z"/><path id="Shape" d="M4.13793103,21.5172414 L2.48275862,21.5172414 L2.48275862,17.721931 L0.242482759,15.4816552 C0.0872694829,15.3264888 4.68723356e-05,15.1160233 0,14.8965517 L0,0 L1.65517241,0 L1.65517241,14.553931 L3.89544828,16.7942069 C4.05066155,16.9493733 4.13788416,17.1598388 4.13793103,17.3793103 L4.13793103,21.5172414 Z"/><path id="Shape" d="M4.96551724,12.4137931 L3.31034483,12.4137931 L3.31034483,9.10344828 C3.3103917,8.88397671 3.39761431,8.67351123 3.55282759,8.51834483 L5.79310345,6.27806897 L5.79310345,0 L7.44827586,0 L7.44827586,6.62068966 C7.44822899,6.84016122 7.36100638,7.05062671 7.2057931,7.2057931 L4.96551724,9.44606897 L4.96551724,12.4137931 Z"/><path id="Shape" d="M12.4137931,13.2413793 L10.7586207,13.2413793 L10.7586207,10.2736552 L9.34593103,8.86096552 C9.19071776,8.70579912 9.10349515,8.49533364 9.10344828,8.27586207 L9.10344828,0 L10.7586207,0 L10.7586207,7.93324138 L12.1713103,9.34593103 C12.3265236,9.50109743 12.4137462,9.71156291 12.4137931,9.93103448 L12.4137931,13.2413793 Z"/><path id="Shape" d="M15.7241379,28.137931 L14.0689655,28.137931 L14.0689655,24.3426207 L11.0011034,21.2747586 C10.8458902,21.1195922 10.7586676,20.9091267 10.7586207,20.6896552 L10.7586207,18.2068966 L12.4137931,18.2068966 L12.4137931,20.3470345 L15.4816552,23.4148966 C15.6368684,23.570063 15.7240911,23.7805284 15.7241379,24 L15.7241379,28.137931 Z"/><path id="Shape" d="M6.62068966,28.137931 L4.96551724,28.137931 L4.96551724,24.8275862 C4.96556411,24.6081146 5.05278672,24.3976492 5.208,24.2424828 L7.44827586,22.0022069 L7.44827586,19.862069 L9.10344828,19.862069 L9.10344828,22.3448276 C9.1034014,22.5642992 9.01617879,22.7747646 8.86096552,22.929931 L6.62068966,25.1702069 L6.62068966,28.137931 Z"/><polygon id="Shape" points="7.448 14.069 9.103 14.069 9.103 17.379 7.448 17.379"/></g><path id="Shape" fill="#BC3542" d="M24.8275862,13.2413793 L6.62068966,13.2413793 C7.24635983,12.1961745 7.75692627,11.0862475 8.14344828,9.93103448 L23.3048276,9.93103448 C23.6913496,11.0862475 24.201916,12.1961745 24.8275862,13.2413793 Z"/><polygon id="Shape" fill="#F4F4E6" points="13.241 6.621 11.586 6.621 11.586 2.483 16.552 2.483 16.552 4.138 13.241 4.138"/><polygon id="Shape" fill="#F4F4E6" points="18.207 2.483 19.862 2.483 19.862 4.138 18.207 4.138"/><polygon id="Shape" fill="#66342E" points="43.862 2.483 45.517 2.483 45.517 4.966 43.862 4.966"/><polygon id="Shape" fill="#66342E" points="40.552 2.483 42.207 2.483 42.207 4.966 40.552 4.966"/><polygon id="Shape" fill="#FCF05A" points="3.313 4.712 4.969 4.712 4.969 7.697 3.313 7.697" transform="translate(4.140828, 6.204414) rotate(-33.705957) translate(-4.140828, -6.204414)"/><polygon id="Shape" fill="#FCF05A" points=".828 9.103 4.138 9.103 4.138 10.759 .828 10.759"/></g></g></svg>