<svg xmlns="http://www.w3.org/2000/svg" xmlns:xlink="http://www.w3.org/1999/xlink" width="73" height="73" version="1.1" viewBox="0 0 73 73"><title>team-collaboration/management/waterfall-development</title><desc>Created with Sketch.</desc><defs><rect id="path-1" width="69" height="69" x="0" y="0" rx="14"/></defs><g id="team-collaboration/management/waterfall-development" fill="none" fill-rule="evenodd" stroke="none" stroke-width="1"><g id="container" transform="translate(2.000000, 2.000000)"><rect id="mask" width="71" height="71" x="-1" y="-1" fill="#FFF" fill-rule="nonzero" stroke="#16161D" stroke-width="2" rx="14"/><mask id="mask-2" fill="#fff"><use xlink:href="#path-1"/></mask><rect width="71" height="71" x="-1" y="-1" stroke="#16161D" stroke-width="2" rx="14"/><g id="waterfalls" mask="url(#mask-2)"><g transform="translate(-5.000000, 7.000000)"><polygon id="Shape" fill="#76E2F8" fill-rule="nonzero" points="28.09 3.067 51.91 3.067 51.91 19.768 28.09 19.768"/><polygon id="Shape" fill="#00C0F1" fill-rule="nonzero" points="40 3.067 51.91 3.067 51.91 19.768 40 19.768"/><path id="Shape" fill="#725D57" fill-rule="nonzero" d="M24.1849609,0.0866015625 L0,0.0866015625 L0,19.7675391 L32.8125391,19.7675391 L32.8125391,8.71417969 C32.8125391,3.95695312 28.9421875,0.0866015625 24.1849609,0.0866015625 Z"/><path id="Shape" fill="#725D57" fill-rule="nonzero" d="M55.8150391,0.0866015625 C51.0576953,0.0866015625 47.1874609,3.95695312 47.1874609,8.71417969 L47.1874609,19.7675391 L70,19.7675391 L70,0.0866015625 L55.8150391,0.0866015625 Z"/><path id="Shape" fill="#504541" fill-rule="nonzero" d="M55.8150391,0.0866015625 C51.0576953,0.0866015625 47.1874609,3.95695312 47.1874609,8.71417969 L47.1874609,19.7675391 L80,19.7675391 L80,0.0866015625 L55.8150391,0.0866015625 Z"/><polygon id="Shape" fill="#B2F1FA" fill-rule="nonzero" points="24.574 16.252 55.426 16.252 55.426 41.397 24.574 41.397"/><polygon id="Shape" fill="#76E2F8" fill-rule="nonzero" points="40 16.252 55.426 16.252 55.426 41.397 40 41.397"/><path id="Shape" fill="#504541" fill-rule="nonzero" d="M20.6691016,13.2714844 L1.77635684e-15,13.2714844 L1.77635684e-15,41.3968359 L29.2966797,41.3968359 L29.2966797,21.8991797 C29.2966797,17.1418359 25.4263281,13.2714844 20.6691016,13.2714844 Z"/><path id="Shape" fill="#504541" fill-rule="nonzero" d="M59.3308984,13.2714844 C54.5735547,13.2714844 50.7033203,17.1418359 50.7033203,21.8990625 L50.7033203,41.3968359 L70,41.3968359 L70,13.2714844 L59.3308984,13.2714844 Z"/><path id="Shape" fill="#3D3532" fill-rule="nonzero" d="M59.3308984,13.2714844 C54.5735547,13.2714844 50.7033203,17.1418359 50.7033203,21.8990625 L50.7033203,41.3968359 L80,41.3968359 L80,13.2714844 L59.3308984,13.2714844 Z"/><polygon id="Shape" fill="#76E2F8" fill-rule="nonzero" points="0 37.881 80 37.881 80 65.46 0 65.46"/><polygon id="Shape" fill="#00C0F1" fill-rule="nonzero" points="40 37.881 80 37.881 80 65.46 40 65.46"/><polygon id="Shape" fill="#B2F1FA" fill-rule="nonzero" points="61.407 44.913 70 44.913 70 48.429 61.407 48.429"/><polygon id="Shape" fill="#B2F1FA" fill-rule="nonzero" points="0 44.913 15.077 44.913 15.077 48.429 0 48.429"/><polygon id="Shape" fill="#B2F1FA" fill-rule="nonzero" points="20.703 44.913 55.938 44.913 55.938 48.429 20.703 48.429"/><g id="Group" fill="none" fill-rule="evenodd" stroke-width="1" transform="translate(33.437500, 23.437500)"><polygon id="Shape" fill="#76E2F8" fill-rule="nonzero" points=".117 .08 3.633 .08 3.633 6.827 .117 6.827"/><polygon id="Shape" fill="#76E2F8" fill-rule="nonzero" points="9.493 6.292 13.008 6.292 13.008 11.514 9.493 11.514"/><polygon id="Shape" fill="#76E2F8" fill-rule="nonzero" points="27.969 21.475 46.563 21.475 46.563 24.991 27.969 24.991"/></g><polygon id="Shape" fill="#00C0F1" fill-rule="nonzero" points="42.93 29.729 46.446 29.729 46.446 34.952 42.93 34.952"/><polygon id="Shape" fill="#76E2F8" fill-rule="nonzero" points="40 44.913 55.938 44.913 55.938 48.429 40 48.429"/><polygon id="Shape" fill="#B2F1FA" fill-rule="nonzero" points="3 52.913 18.077 52.913 18.077 56.429 3 56.429"/><polygon id="Shape" fill="#B2F1FA" fill-rule="nonzero" points="23.703 52.913 58.938 52.913 58.938 56.429 23.703 56.429"/><polygon id="Shape" fill="#76E2F8" fill-rule="nonzero" points="64.407 52.913 83 52.913 83 56.429 64.407 56.429"/><polygon id="Shape" fill="#76E2F8" fill-rule="nonzero" points="43 52.913 58.938 52.913 58.938 56.429 43 56.429"/></g></g></g></g></svg>