<svg xmlns="http://www.w3.org/2000/svg" xmlns:xlink="http://www.w3.org/1999/xlink" width="73" height="73" version="1.1" viewBox="0 0 73 73"><title>databases-and-servers/servers/crud</title><desc>Created with Sketch.</desc><g id="databases-and-servers/servers/crud" fill="none" fill-rule="evenodd" stroke="none" stroke-width="1"><g id="container" fill="#FFF" fill-rule="nonzero" stroke="#292337" stroke-width="2" transform="translate(2.000000, 2.000000)"><rect id="mask" width="71" height="71" x="-1" y="-1" rx="14"/></g><g id="database-(2)" fill-rule="nonzero" transform="translate(12.000000, 12.000000)"><polygon id="Shape" fill="#68607C" points="42.305 24.407 39.051 24.407 39.051 22.78 40.678 22.78 40.678 16.271 42.305 16.271"/><polygon id="Shape" fill="#68607C" points="27.661 24.407 4.881 24.407 4.881 16.271 6.508 16.271 6.508 22.78 27.661 22.78"/><ellipse id="Oval" cx="23.593" cy="31.729" fill="#ED6571" rx="9.763" ry="2.441"/><path id="Shape" fill="#FFE5CA" d="M33.3559322,31.7288136 L33.3559322,36.6101695 C33.3559322,37.960678 28.9871186,39.0508475 23.5932203,39.0508475 C18.199322,39.0508475 13.8305085,37.960678 13.8305085,36.6101695 L13.8305085,31.7288136 C13.8305085,33.079322 18.199322,34.1694915 23.5932203,34.1694915 C28.9871186,34.1694915 33.3559322,33.079322 33.3559322,31.7288136 Z"/><path id="Shape" fill="#FFE5CA" d="M33.3559322,36.6101695 L33.3559322,41.4915254 C33.3559322,42.8420339 28.9871186,43.9322034 23.5932203,43.9322034 C18.199322,43.9322034 13.8305085,42.8420339 13.8305085,41.4915254 L13.8305085,36.6101695 C13.8305085,37.960678 18.199322,39.0508475 23.5932203,39.0508475 C28.9871186,39.0508475 33.3559322,37.960678 33.3559322,36.6101695 Z"/><path id="Shape" fill="#FFE5CA" d="M33.3559322,41.4915254 L33.3559322,46.3728814 C33.3559322,47.7233898 28.9871186,48.8135593 23.5932203,48.8135593 C18.199322,48.8135593 13.8305085,47.7233898 13.8305085,46.3728814 L13.8305085,41.4915254 C13.8305085,42.8420339 18.199322,43.9322034 23.5932203,43.9322034 C28.9871186,43.9322034 33.3559322,42.8420339 33.3559322,41.4915254 Z"/><polygon id="Shape" fill="#68607C" points="22.78 16.271 24.407 16.271 24.407 31.729 22.78 31.729"/><polygon id="Shape" fill="#68607C" points="35.797 22.78 37.424 22.78 37.424 24.407 35.797 24.407"/><polygon id="Shape" fill="#68607C" points="32.542 22.78 34.169 22.78 34.169 24.407 32.542 24.407"/><polygon id="Shape" fill="#68607C" points="29.288 22.78 30.915 22.78 30.915 24.407 29.288 24.407"/><ellipse id="Oval" cx="23.593" cy="2.441" fill="#7BC2CC" rx="6.508" ry="2.441"/><ellipse id="Oval" cx="40.678" cy="2.441" fill="#7BC2CC" rx="6.508" ry="2.441"/><ellipse id="Oval" cx="6.508" cy="2.441" fill="#7BC2CC" rx="6.508" ry="2.441"/><path id="Shape" fill="#FFE5CA" d="M47.1864407,6.50847458 L47.1864407,10.5762712 C47.1864407,11.9267797 44.2738983,13.0169492 40.6779661,13.0169492 C37.0820339,13.0169492 34.1694915,11.9267797 34.1694915,10.5762712 L34.1694915,6.50847458 C34.1694915,7.85898305 37.0820339,8.94915254 40.6779661,8.94915254 C44.2738983,8.94915254 47.1864407,7.85898305 47.1864407,6.50847458 Z"/><path id="Shape" fill="#FFE5CA" d="M47.1864407,10.5762712 L47.1864407,14.6440678 C47.1864407,15.9945763 44.2738983,17.0847458 40.6779661,17.0847458 C37.0820339,17.0847458 34.1694915,15.9945763 34.1694915,14.6440678 L34.1694915,10.5762712 C34.1694915,11.9267797 37.0820339,13.0169492 40.6779661,13.0169492 C44.2738983,13.0169492 47.1864407,11.9267797 47.1864407,10.5762712 Z"/><path id="Shape" fill="#FFE5CA" d="M47.1864407,2.44067797 L47.1864407,6.50847458 C47.1864407,7.85898305 44.2738983,8.94915254 40.6779661,8.94915254 C37.0820339,8.94915254 34.1694915,7.85898305 34.1694915,6.50847458 L34.1694915,2.44067797 C34.1694915,3.79118644 37.0820339,4.88135593 40.6779661,4.88135593 C44.2738983,4.88135593 47.1864407,3.79118644 47.1864407,2.44067797 Z"/><path id="Shape" fill="#FFE5CA" d="M23.5932203,4.88135593 C27.1891525,4.88135593 30.1016949,3.79118644 30.1016949,2.44067797 L30.1016949,6.50847458 C30.1016949,7.85898305 27.1891525,8.94915254 23.5932203,8.94915254 C19.9972881,8.94915254 17.0847458,7.85898305 17.0847458,6.50847458 L17.0847458,2.44067797 C17.0847458,3.79118644 19.9972881,4.88135593 23.5932203,4.88135593 Z"/><path id="Shape" fill="#FFE5CA" d="M30.1016949,10.5762712 L30.1016949,14.6440678 C30.1016949,15.9945763 27.1891525,17.0847458 23.5932203,17.0847458 C19.9972881,17.0847458 17.0847458,15.9945763 17.0847458,14.6440678 L17.0847458,10.5762712 C17.0847458,11.9267797 19.9972881,13.0169492 23.5932203,13.0169492 C27.1891525,13.0169492 30.1016949,11.9267797 30.1016949,10.5762712 Z"/><path id="Shape" fill="#FFE5CA" d="M30.1016949,6.50847458 L30.1016949,10.5762712 C30.1016949,11.9267797 27.1891525,13.0169492 23.5932203,13.0169492 C19.9972881,13.0169492 17.0847458,11.9267797 17.0847458,10.5762712 L17.0847458,6.50847458 C17.0847458,7.85898305 19.9972881,8.94915254 23.5932203,8.94915254 C27.1891525,8.94915254 30.1016949,7.85898305 30.1016949,6.50847458 Z"/><path id="Shape" fill="#FFE5CA" d="M13.0169492,2.44067797 L13.0169492,6.50847458 C13.0169492,7.85898305 10.1044068,8.94915254 6.50847458,8.94915254 C2.91254237,8.94915254 0,7.85898305 0,6.50847458 L0,2.44067797 C0,3.79118644 2.91254237,4.88135593 6.50847458,4.88135593 C10.1044068,4.88135593 13.0169492,3.79118644 13.0169492,2.44067797 Z"/><path id="Shape" fill="#FFE5CA" d="M13.0169492,6.50847458 L13.0169492,10.5762712 C13.0169492,11.9267797 10.1044068,13.0169492 6.50847458,13.0169492 C2.91254237,13.0169492 0,11.9267797 0,10.5762712 L0,6.50847458 C0,7.85898305 2.91254237,8.94915254 6.50847458,8.94915254 C10.1044068,8.94915254 13.0169492,7.85898305 13.0169492,6.50847458 Z"/><path id="Shape" fill="#FFE5CA" d="M13.0169492,10.5762712 L13.0169492,14.6440678 C13.0169492,15.9945763 10.1044068,17.0847458 6.50847458,17.0847458 C2.91254237,17.0847458 0,15.9945763 0,14.6440678 L0,10.5762712 C0,11.9267797 2.91254237,13.0169492 6.50847458,13.0169492 C10.1044068,13.0169492 13.0169492,11.9267797 13.0169492,10.5762712 Z"/><g id="Group" fill="#FAC7A4" transform="translate(0.813559, 4.067797)"><path id="Shape" d="M34.9399322,4.03444068 C36.1334237,4.55267797 37.8939661,4.88135593 39.8644068,4.88135593 C43.460339,4.88135593 46.3728814,3.79118644 46.3728814,2.44067797 L46.3728814,0 C46.3728814,2.08027119 41.3849492,3.79037288 34.9399322,4.03444068 Z"/><path id="Shape" d="M34.9399322,8.10223729 C36.1334237,8.62047458 37.8939661,8.94915254 39.8644068,8.94915254 C43.460339,8.94915254 46.3728814,7.85898305 46.3728814,6.50847458 L46.3728814,4.06779661 C46.3728814,6.1480678 41.3849492,7.85816949 34.9399322,8.10223729 Z"/><path id="Shape" d="M34.9399322,12.1700339 C36.1334237,12.6882712 37.8939661,13.0169492 39.8644068,13.0169492 C43.460339,13.0169492 46.3728814,11.9267797 46.3728814,10.5762712 L46.3728814,8.13559322 C46.3728814,10.2158644 41.3849492,11.9259661 34.9399322,12.1700339 Z"/><path id="Shape" d="M15.3111864,34.1141695 C17.0595254,34.6332203 19.6572203,34.9651525 22.5705763,34.9806102 C28.0987119,34.9521356 32.5423729,33.8749831 32.5423729,32.5423729 L32.5423729,30.1016949 C32.5423729,32.1355932 25.0722712,33.8115254 15.3111864,34.1141695 Z"/><path id="Shape" d="M15.3111864,38.9955254 C17.0595254,39.5145763 19.6572203,39.8465085 22.5705763,39.8619661 C28.0987119,39.8334915 32.5423729,38.756339 32.5423729,37.4237288 L32.5423729,34.9830508 C32.5423729,37.0169492 25.0722712,38.6928814 15.3111864,38.9955254 Z"/><path id="Shape" d="M15.3111864,43.8768814 C17.0595254,44.3959322 19.6572203,44.7278644 22.5705763,44.743322 C28.0987119,44.7148475 32.5423729,43.6376949 32.5423729,42.3050847 L32.5423729,39.8644068 C32.5423729,41.8983051 25.0722712,43.5742373 15.3111864,43.8768814 Z"/><path id="Shape" d="M17.8551864,4.03444068 C19.048678,4.55267797 20.8092203,4.88135593 22.779661,4.88135593 C26.3755932,4.88135593 29.2881356,3.79118644 29.2881356,2.44067797 L29.2881356,0 C29.2881356,2.08027119 24.3002034,3.79037288 17.8551864,4.03444068 Z"/><path id="Shape" d="M17.8551864,8.10223729 C19.048678,8.62047458 20.8092203,8.94915254 22.779661,8.94915254 C26.3755932,8.94915254 29.2881356,7.85898305 29.2881356,6.50847458 L29.2881356,4.06779661 C29.2881356,6.1480678 24.3002034,7.85816949 17.8551864,8.10223729 Z"/><path id="Shape" d="M17.8551864,12.1700339 C19.048678,12.6882712 20.8092203,13.0169492 22.779661,13.0169492 C26.3755932,13.0169492 29.2881356,11.9267797 29.2881356,10.5762712 L29.2881356,8.13559322 C29.2881356,10.2158644 24.3002034,11.9259661 17.8551864,12.1700339 Z"/><path id="Shape" d="M0.770440678,4.03444068 C1.9639322,4.55267797 3.72447458,4.88135593 5.69491525,4.88135593 C9.29084746,4.88135593 12.2033898,3.79118644 12.2033898,2.44067797 L12.2033898,0 C12.2033898,2.08027119 7.21545763,3.79037288 0.770440678,4.03444068 Z"/><path id="Shape" d="M0.770440678,8.10223729 C1.9639322,8.62047458 3.72447458,8.94915254 5.69491525,8.94915254 C9.29084746,8.94915254 12.2033898,7.85898305 12.2033898,6.50847458 L12.2033898,4.06779661 C12.2033898,6.1480678 7.21545763,7.85816949 0.770440678,8.10223729 Z"/><path id="Shape" d="M0.770440678,12.1700339 C1.9639322,12.6882712 3.72447458,13.0169492 5.69491525,13.0169492 C9.29084746,13.0169492 12.2033898,11.9267797 12.2033898,10.5762712 L12.2033898,8.13559322 C12.2033898,10.2158644 7.21545763,11.9259661 0.770440678,12.1700339 Z"/></g></g></g></svg>