<svg xmlns="http://www.w3.org/2000/svg" xmlns:xlink="http://www.w3.org/1999/xlink" width="73" height="73" version="1.1" viewBox="0 0 73 73"><title>databases-and-servers/servers/docker</title><desc>Created with Sketch.</desc><g id="databases-and-servers/servers/docker" fill="none" fill-rule="evenodd" stroke="none" stroke-width="1"><g id="container" fill="#FFF" fill-rule="nonzero" stroke="#022A4A" stroke-width="2" transform="translate(2.000000, 2.000000)"><rect id="mask" width="71" height="71" x="-1" y="-1" rx="14"/></g><g id="docker" fill-rule="nonzero" transform="translate(11.000000, 11.000000)"><path id="Shape" fill="#006BC0" d="M51,25.5 C51,39.5832715 39.5832715,51 25.5,51 C11.4167285,51 0,39.5832715 0,25.5 C0,11.4167285 11.4167285,0 25.5,0 C38.4987246,0 49.2253594,9.72645703 50.8001836,22.2984551 C50.9146348,23.2070918 50.9812734,24.1302715 50.9958164,25.066002 C50.9990039,25.2106348 51,25.3553672 51,25.5 Z"/><g id="Group" fill="#F2F2F2" transform="translate(5.378906, 10.060547)"><path id="Shape" d="M45.6169102,15.0054551 C43.4395488,17.6574551 39.1731797,17.4503672 39.1731797,17.4503672 C36.541998,28.7859141 20.6518125,34.5551895 9.61917773,31.7210039 C-1.41236133,28.8878145 0.1051875,15.7298145 0.1051875,15.7298145 L32.3923711,15.7298145 C35.0568223,15.7298145 35.2598262,14.9200898 35.2598262,14.9200898 C32.8981875,9.31945313 36.5420977,6.31672852 36.5420977,6.31672852 C39.3762832,6.82364063 40.0840078,11.6810918 40.0840078,11.6810918 C42.4101855,11.2637285 44.278459,11.7601816 45.4212773,12.2379082 C45.5357285,13.1465449 45.6023672,14.0697246 45.6169102,15.0054551 Z"/><rect id="Rectangle-path" width="4.521" height="4.116" x="3.546" y="10.602"/><rect id="Rectangle-path" width="4.521" height="4.116" x="9.228" y="10.602"/><rect id="Rectangle-path" width="4.521" height="4.116" x="26.271" y="10.602"/><rect id="Rectangle-path" width="4.521" height="4.116" x="20.59" y="10.602"/><rect id="Rectangle-path" width="4.521" height="4.116" x="20.59" y=".076"/><rect id="Rectangle-path" width="4.521" height="4.116" x="14.909" y="10.602"/><rect id="Rectangle-path" width="4.521" height="4.116" x="9.228" y="5.338"/><rect id="Rectangle-path" width="4.521" height="4.116" x="20.59" y="5.338"/><rect id="Rectangle-path" width="4.521" height="4.116" x="14.909" y="5.338"/></g></g></g></svg>