<svg xmlns="http://www.w3.org/2000/svg" xmlns:xlink="http://www.w3.org/1999/xlink" width="73" height="73" version="1.1" viewBox="0 0 73 73"><title>databases-and-servers/servers/graphql</title><desc>Created with Sketch.</desc><g id="databases-and-servers/servers/graphql" fill="none" fill-rule="evenodd" stroke="none" stroke-width="1"><g id="container" fill="#FFF" fill-rule="nonzero" stroke="#640B47" stroke-width="2" transform="translate(2.000000, 2.000000)"><rect id="mask" width="71" height="71" x="-1" y="-1" rx="14"/></g><g id="GraphQL_Logo" fill="#E535AB" fill-rule="nonzero" transform="translate(13.000000, 11.000000)"><rect id="Rectangle-path" width="2.19" height="42.259" x="12.805" y="-.571" transform="translate(13.900383, 20.558713) rotate(-149.999272) translate(-13.900383, -20.558713)"/><rect id="Rectangle-path" width="42.26" height="2.19" x="1.953" y="35.386"/><rect id="Rectangle-path" width="24.408" height="2.19" x="1.701" y="40.675" transform="translate(13.905410, 41.770219) rotate(-149.999272) translate(-13.905410, -41.770219)"/><rect id="Rectangle-path" width="24.408" height="2.19" x="20.064" y="8.867" transform="translate(32.267910, 9.962552) rotate(-149.999272) translate(-32.267910, -9.962552)"/><rect id="Rectangle-path" width="2.19" height="24.408" x="12.816" y="-2.25" transform="translate(13.911268, 9.954213) rotate(-120.000728) translate(-13.911268, -9.954213)"/><rect id="Rectangle-path" width="42.259" height="2.19" x="11.153" y="19.464" transform="translate(32.282938, 20.559109) rotate(-120.000728) translate(-32.282938, -20.559109)"/><rect id="Rectangle-path" width="2.19" height="24.409" x="3.628" y="13.656"/><rect id="Rectangle-path" width="2.19" height="24.409" x="40.36" y="13.656"/><rect id="Rectangle-path" width="1.913" height="21.228" x="31.311" y="31.144" transform="translate(32.267817, 41.758042) rotate(-120.000728) translate(-32.267817, -41.758042)"/><path id="Shape" d="M45.4529077,38.7768058 C44.1862955,40.9801833 41.3628057,41.7322343 39.1594282,40.4656221 C36.9560507,39.1990098 36.2039997,36.3755201 37.4706119,34.1721425 C38.7372241,31.968765 41.5607139,31.216714 43.7640914,32.4833262 C45.9806628,33.7631323 46.7327139,36.5734282 45.4529077,38.7768058"/><path id="Shape" d="M8.69476523,17.547857 C7.42815299,19.7512345 4.60466322,20.5032855 2.40128569,19.2366733 C0.197908161,17.9700611 -0.554142852,15.1465713 0.712469381,12.9431938 C1.97908161,10.7398162 4.80257138,9.98776521 7.00594891,11.2543774 C9.20932645,12.5341836 9.96137746,15.3444794 8.69476523,17.547857"/><path id="Shape" d="M0.725663259,38.7768058 C-0.540948975,36.5734282 0.211102039,33.7631323 2.41447957,32.4833262 C4.6178571,31.216714 7.42815299,31.968765 8.7079591,34.1721425 C9.97457134,36.3755201 9.22252032,39.185816 7.01914279,40.4656221 C4.80257138,41.7322343 1.99227549,40.9801833 0.725663259,38.7768058"/><path id="Shape" d="M37.4838058,17.547857 C36.2171935,15.3444794 36.9692446,12.5341836 39.1726221,11.2543774 C41.3759996,9.98776521 44.1862955,10.7398162 45.4661016,12.9431938 C46.7327139,15.1465713 45.9806628,17.9568672 43.7772853,19.2366733 C41.5739078,20.5032855 38.750418,19.7512345 37.4838058,17.547857"/><path id="Shape" d="M23.0892855,51.6936118 C20.5428672,51.6936118 18.4846223,49.6353669 18.4846223,47.0889485 C18.4846223,44.5425302 20.5428672,42.4842853 23.0892855,42.4842853 C25.6357038,42.4842853 27.6939487,44.5425302 27.6939487,47.0889485 C27.6939487,49.622173 25.6357038,51.6936118 23.0892855,51.6936118"/><path id="Shape" d="M23.0892855,9.2357142 C20.5428672,9.2357142 18.4846223,7.17746932 18.4846223,4.63105098 C18.4846223,2.08463263 20.5428672,0.0263877549 23.0892855,0.0263877549 C25.6357038,0.0263877549 27.6939487,2.08463263 27.6939487,4.63105098 C27.6939487,7.17746932 25.6357038,9.2357142 23.0892855,9.2357142"/></g></g></svg>