<svg xmlns="http://www.w3.org/2000/svg" xmlns:xlink="http://www.w3.org/1999/xlink" width="73" height="73" version="1.1" viewBox="0 0 73 73"><title>databases-and-servers/servers/tcp</title><desc>Created with Sketch.</desc><defs><rect id="path-1" width="69" height="69" x="5" y="0" rx="14"/></defs><g id="databases-and-servers/servers/tcp" fill="none" fill-rule="evenodd" stroke="none" stroke-width="1"><g id="container" transform="translate(-3.000000, 2.000000)"><rect id="mask" width="71" height="71" x="4" y="-1" fill="#FFF" fill-rule="nonzero" stroke="#06203B" stroke-width="2" rx="14"/><mask id="mask-2" fill="#fff"><use xlink:href="#path-1"/></mask><rect width="71" height="71" x="4" y="-1" stroke="#06203B" stroke-width="2" rx="14"/><g id="pipeline" mask="url(#mask-2)"><g transform="translate(0.000000, 6.000000)"><polygon id="Shape" fill="#2D75BB" fill-rule="nonzero" points="23.448 16.069 27.862 16.069 27.862 35.931 23.448 35.931"/><polygon id="Shape" fill="#2D75BB" fill-rule="nonzero" points="45.517 16.069 49.931 16.069 49.931 35.931 45.517 35.931"/><polygon id="Shape" fill="#92CDDE" fill-rule="nonzero" points="27.862 18.276 45.517 18.276 45.517 33.724 27.862 33.724"/><polygon id="Shape" fill="#2D75BB" fill-rule="nonzero" points="67.586 16.069 72 16.069 72 35.931 67.586 35.931"/><polygon id="Shape" fill="#92CDDE" fill-rule="nonzero" points="49.931 18.276 67.586 18.276 67.586 33.724 49.931 33.724"/><rect id="Rectangle" width="76" height="19" x="0" y="49" fill="#D3843D" fill-rule="nonzero"/><polygon id="Rectangle-2" fill="#9AE3EF" fill-rule="nonzero" points="0 49 26 49 20.053 68 0 68"/><polygon id="Shape" fill="#FFD782" fill-rule="nonzero" points="28.966 52.483 31.172 52.483 31.172 54.69 28.966 54.69"/><polygon id="Shape" fill="#FFD782" fill-rule="nonzero" points="55.448 52.483 62.069 52.483 62.069 54.69 55.448 54.69"/><polygon id="Shape" fill="#FFD782" fill-rule="nonzero" points="37.793 52.483 42.207 52.483 42.207 54.69 37.793 54.69"/><polygon id="Shape" fill="#FFD782" fill-rule="nonzero" points="47.724 52.483 49.931 52.483 49.931 54.69 47.724 54.69"/><path id="Shape" fill="#CDEEF6" fill-rule="nonzero" d="M23.4482759,33.7241379 L21.2413793,33.7241379 C20.0226292,33.7241379 19.0344828,34.7122844 19.0344828,35.9310345 L19.0344828,49.1724138 L10.2068966,49.1724138 L10.2068966,33.7241379 C10.2068966,28.8485992 14.158944,24.8965517 19.0344828,24.8965517 L23.4482759,24.8965517 L23.4482759,33.7241379 Z"/><polygon id="Shape" fill="#87CEE9" fill-rule="nonzero" points="13.517 45.862 15.724 45.862 15.724 49.172 13.517 49.172"/><polygon id="Shape" fill="#87CEE9" fill-rule="nonzero" points="13.517 38.138 15.724 38.138 15.724 42.552 13.517 42.552"/><path id="Shape" fill="#87CEE9" fill-rule="nonzero" d="M15.7241379,35.9310345 L13.5172414,35.9310345 L13.5172414,33.7241379 C13.521013,30.6783406 15.9886854,28.2106681 19.0344828,28.2068966 L20.137931,28.2068966 L20.137931,30.4137931 L19.0344828,30.4137931 C17.2063578,30.4137931 15.7241379,31.896013 15.7241379,33.7241379 L15.7241379,35.9310345 Z"/><polygon id="Shape" fill="#CDEEF6" fill-rule="nonzero" points="11.31 52.483 13.517 52.483 13.517 54.69 11.31 54.69"/><polygon id="Shape" fill="#CDEEF6" fill-rule="nonzero" points="15.724 52.483 17.931 52.483 17.931 54.69 15.724 54.69"/><polygon id="Shape" fill="#B11E48" fill-rule="nonzero" points="38.897 29.31 38.897 37.034 34.483 37.034 34.483 33.724 32.276 33.724 32.276 49.172 34.483 49.172 34.483 39.241 38.897 39.241 38.897 49.172 41.103 49.172 41.103 29.31"/><polygon id="Shape" fill="#B11E48" fill-rule="nonzero" points="60.966 29.31 60.966 37.034 56.552 37.034 56.552 33.724 54.345 33.724 54.345 49.172 56.552 49.172 56.552 39.241 60.966 39.241 60.966 49.172 63.172 49.172 63.172 29.31"/><g id="Group" fill="none" fill-rule="evenodd" stroke-width="1" transform="translate(11.793103, 0.000000)"><polygon id="Shape" fill="#CDEEF6" fill-rule="nonzero" points="28.207 21.586 33.724 21.586 33.724 23.793 28.207 23.793"/><polygon id="Shape" fill="#CDEEF6" fill-rule="nonzero" points="23.793 21.586 26 21.586 26 23.793 23.793 23.793"/><polygon id="Shape" fill="#CDEEF6" fill-rule="nonzero" points="39.241 21.586 48.069 21.586 48.069 23.793 39.241 23.793"/><path id="Shape" fill="#CDEEF6" fill-rule="nonzero" d="M52.2758621,7.72413793 L52.2758621,6.62068966 C52.3550647,5.7209051 52.0317888,4.83189655 51.3927801,4.19342676 C50.7543103,3.55441807 49.8653018,3.23114221 48.9655172,3.31034483 L47.862069,3.31034483 C47.2079741,1.21390083 45.6551724,0 42.3448276,0 C39.8873923,0 37.359375,1.028556 36.8275862,3.31034483 L35.7241379,3.31034483 C34.8389008,3.28556028 33.9822199,3.62607752 33.3561422,4.25269393 C32.7295258,4.87877159 32.3890086,5.73545255 32.4137931,6.62068966 L32.4137931,7.72413793 L52.2758621,7.72413793 Z"/><path id="Shape" fill="#CDEEF6" fill-rule="nonzero" d="M20,10.3448276 L20,9.24137931 C20.0792026,8.34159476 19.7559268,7.45258621 19.1169181,6.81411641 C18.4784483,6.17510772 17.5894397,5.85183186 16.6896552,5.93103448 L15.5862069,5.93103448 C14.932112,3.83459048 13.3793103,2.62068966 10.0689655,2.62068966 C7.61153021,2.62068966 5.08351297,3.64924566 4.55172414,5.93103448 L3.44827586,5.93103448 C2.56303876,5.90624993 1.70635779,6.24676717 1.08028014,6.87338359 C0.453663724,7.49946124 0.113146483,8.35614221 0.137931034,9.24137931 L0.137931034,10.3448276 L20,10.3448276 Z"/></g></g></g></g></g></svg>