<?xml version="1.0" encoding="UTF-8"?>
<svg width="107px" height="36px" viewBox="0 0 107 36" version="1.1" xmlns="http://www.w3.org/2000/svg" xmlns:xlink="http://www.w3.org/1999/xlink">
    <g id="logo" stroke="none" stroke-width="1" fill="none" fill-rule="evenodd">
        <path d="M33.932,8.008 L38.328,8.008 L38.328,24.304 L48.072,24.304 L48.072,28 L33.932,28 L33.932,8.008 Z M54.204,11.284 L50.228,11.284 L50.228,8.008 L54.204,8.008 L54.204,11.284 Z M50.228,13.524 L54.204,13.524 L54.204,28 L50.228,28 L50.228,13.524 Z M67.952,20.776 C67.952,20.1599969 67.8866673,19.5720028 67.756,19.012 C67.6253327,18.4519972 67.4200014,17.9573355 67.14,17.528 C66.8599986,17.0986645 66.5100021,16.7580013 66.09,16.506 C65.6699979,16.2539987 65.1613363,16.128 64.564,16.128 C63.9853304,16.128 63.4813355,16.2539987 63.052,16.506 C62.6226645,16.7580013 62.2680014,17.0986645 61.988,17.528 C61.7079986,17.9573355 61.5026673,18.4519972 61.372,19.012 C61.2413327,19.5720028 61.176,20.1599969 61.176,20.776 C61.176,21.3733363 61.2413327,21.9519972 61.372,22.512 C61.5026673,23.0720028 61.7079986,23.5666645 61.988,23.996 C62.2680014,24.4253355 62.6226645,24.7659987 63.052,25.018 C63.4813355,25.2700013 63.9853304,25.396 64.564,25.396 C65.1613363,25.396 65.6699979,25.2700013 66.09,25.018 C66.5100021,24.7659987 66.8599986,24.4253355 67.14,23.996 C67.4200014,23.5666645 67.6253327,23.0720028 67.756,22.512 C67.8866673,21.9519972 67.952,21.3733363 67.952,20.776 Z M57.34,8.008 L61.316,8.008 L61.316,15.288 L61.372,15.288 C61.8573358,14.5413296 62.5153292,13.9953351 63.346,13.65 C64.1766708,13.3046649 65.0399955,13.132 65.936,13.132 C66.6640036,13.132 67.3826631,13.2813318 68.092,13.58 C68.8013369,13.8786682 69.4406638,14.3359969 70.01,14.952 C70.5793362,15.5680031 71.0413316,16.3566619 71.396,17.318 C71.7506684,18.2793381 71.928,19.42266 71.928,20.748 C71.928,22.07334 71.7506684,23.2166619 71.396,24.178 C71.0413316,25.1393381 70.5793362,25.9279969 70.01,26.544 C69.4406638,27.1600031 68.8013369,27.6173318 68.092,27.916 C67.3826631,28.2146682 66.6640036,28.364 65.936,28.364 C64.8719947,28.364 63.9200042,28.1960017 63.08,27.86 C62.2399958,27.5239983 61.6053355,26.9546707 61.176,26.152 L61.12,26.152 L61.12,28 L57.34,28 L57.34,8.008 Z M74.448,13.524 L78.228,13.524 L78.228,16.212 L78.284,16.212 C78.4706676,15.7639978 78.7226651,15.3486686 79.04,14.966 C79.3573349,14.5833314 79.7213313,14.256668 80.132,13.986 C80.5426687,13.715332 80.981331,13.5053341 81.448,13.356 C81.914669,13.2066659 82.3999975,13.132 82.904,13.132 C83.1653346,13.132 83.4546651,13.1786662 83.772,13.272 L83.772,16.968 C83.5853324,16.9306665 83.3613346,16.8980001 83.1,16.87 C82.8386654,16.8419999 82.5866679,16.828 82.344,16.828 C81.6159964,16.828 81.0000025,16.9493321 80.496,17.192 C79.9919975,17.4346679 79.5860015,17.7659979 79.278,18.186 C78.9699985,18.6060021 78.7506673,19.0959972 78.62,19.656 C78.4893327,20.2160028 78.424,20.8226634 78.424,21.476 L78.424,28 L74.448,28 L74.448,13.524 Z M89.428,11.284 L85.452,11.284 L85.452,8.008 L89.428,8.008 L89.428,11.284 Z M85.452,13.524 L89.428,13.524 L89.428,28 L85.452,28 L85.452,13.524 Z M95.644,23.296 C95.644,23.7253355 95.7326658,24.0939985 95.91,24.402 C96.0873342,24.7100015 96.3159986,24.961999 96.596,25.158 C96.8760014,25.354001 97.1979982,25.4986662 97.562,25.592 C97.9260018,25.6853338 98.303998,25.732 98.696,25.732 C98.9760014,25.732 99.2699985,25.6993337 99.578,25.634 C99.8860015,25.5686663 100.165999,25.4660007 100.418,25.326 C100.670001,25.1859993 100.879999,24.9993345 101.048,24.766 C101.216001,24.5326655 101.3,24.2386684 101.3,23.884 C101.3,23.2866637 100.903337,22.8386682 100.11,22.54 C99.3166627,22.2413318 98.2106738,21.9426682 96.792,21.644 C96.2133304,21.5133327 95.6486694,21.3593342 95.098,21.182 C94.5473306,21.0046658 94.0573355,20.7713348 93.628,20.482 C93.1986645,20.1926652 92.8533346,19.8286689 92.592,19.39 C92.3306654,18.9513311 92.2,18.4146698 92.2,17.78 C92.2,16.846662 92.3819982,16.0813363 92.746,15.484 C93.1100018,14.8866637 93.5906637,14.4153351 94.188,14.07 C94.7853363,13.7246649 95.4573296,13.4820007 96.204,13.342 C96.9506704,13.2019993 97.7159961,13.132 98.5,13.132 C99.2840039,13.132 100.044663,13.2066659 100.782,13.356 C101.519337,13.5053341 102.17733,13.7573316 102.756,14.112 C103.33467,14.4666684 103.815331,14.9379971 104.198,15.526 C104.580669,16.1140029 104.809333,16.8559955 104.884,17.752 L101.104,17.752 C101.048,16.9866628 100.758669,16.468668 100.236,16.198 C99.7133307,15.927332 99.0973369,15.792 98.388,15.792 C98.1639989,15.792 97.9213346,15.8059999 97.66,15.834 C97.3986654,15.8620001 97.1606677,15.9226662 96.946,16.016 C96.7313323,16.1093338 96.5493341,16.2446658 96.4,16.422 C96.2506659,16.5993342 96.176,16.8373318 96.176,17.136 C96.176,17.4906684 96.3066654,17.7799989 96.568,18.004 C96.8293346,18.2280011 97.1699979,18.4099993 97.59,18.55 C98.0100021,18.6900007 98.490664,18.8159994 99.032,18.928 C99.573336,19.0400006 100.123997,19.1613327 100.684,19.292 C101.26267,19.4226673 101.827331,19.5813324 102.378,19.768 C102.928669,19.9546676 103.418665,20.2019985 103.848,20.51 C104.277335,20.8180015 104.622665,21.2006644 104.884,21.658 C105.145335,22.1153356 105.276,22.6799966 105.276,23.352 C105.276,24.3040048 105.084669,25.1019968 104.702,25.746 C104.319331,26.3900032 103.820003,26.907998 103.204,27.3 C102.587997,27.692002 101.883337,27.9673325 101.09,28.126 C100.296663,28.2846675 99.4893374,28.364 98.668,28.364 C97.8279958,28.364 97.0066707,28.2800008 96.204,28.112 C95.4013293,27.9439992 94.6873365,27.664002 94.062,27.272 C93.4366635,26.879998 92.9233353,26.3620032 92.522,25.718 C92.1206647,25.0739968 91.9013335,24.2666715 91.864,23.296 L95.644,23.296 Z" id="Libris" fill="#283040" fill-rule="nonzero"></path>
        <g id="check-form" transform="translate(2.000000, 4.000000)" fill-rule="nonzero">
            <path d="M21.6414904,15.3758084 L21.6414904,2.3356005 L2.31875717,2.3356005 L2.31875717,26.6644663 L11.2071826,26.6644663 C11.8448458,26.6644663 12.3665281,27.189938 12.3665281,27.8322331 C12.3665281,28.4745283 11.8448458,29 11.2071826,29 L1.15934543,29 C0.521682233,29 0,28.4745283 0,27.8322331 L0,1.16776686 C0,0.525471707 0.521748546,0 1.15934543,0 L22.8007695,0 C23.4384327,0 23.960115,0.525471707 23.960115,1.16776686 L23.960115,15.3758084 C23.960115,16.0181036 23.4384327,16.5435753 22.8007695,16.5435753 C22.1631063,16.5435753 21.6414904,16.0181036 21.6414904,15.3758084 Z" id="Path" fill="#283040"></path>
            <path d="M27.6122222,18.2174435 C27.1291339,17.7892244 26.3949194,17.8281656 25.9697885,18.3147629 L19.6125862,25.4382543 L16.4243365,22.343602 C15.9606116,21.8959458 15.2263308,21.915383 14.7819029,22.3825432 C14.337475,22.8497033 14.356772,23.5892512 14.8205632,24.0369074 L18.8783053,27.968427 C19.0908376,28.1825031 19.3806906,28.2993265 19.6898405,28.2993265 C19.7091375,28.2993265 19.7091375,28.2993265 19.7285008,28.2993265 C20.0376508,28.2798894 20.3468007,28.1436287 20.540036,27.9100486 L27.6894765,19.8912449 C28.1339044,19.3852103 28.0952441,18.6456625 27.6122222,18.2174435 Z" id="Path" fill="#00ACFF"></path>
            <path d="M17.3904467,6.81209578 L6.95620519,6.81209578 C6.318542,6.81209578 5.79685976,7.33756749 5.79685976,7.97986263 C5.79685976,8.62215778 6.318542,9.14762949 6.95620519,9.14762949 L17.3904467,9.14762949 C18.0281099,9.14762949 18.5497921,8.62215778 18.5497921,7.97986263 C18.5497921,7.33756749 18.0281099,6.81209578 17.3904467,6.81209578 Z" id="Path" fill="#283040"></path>
            <path d="M18.5498584,14.4026805 C18.5498584,13.7603854 18.0281762,13.2349137 17.390513,13.2349137 L6.95620519,13.2349137 C6.318542,13.2349137 5.79685976,13.7603854 5.79685976,14.4026805 C5.79685976,15.0449757 6.318542,15.5704474 6.95620519,15.5704474 L17.3904467,15.5704474 C18.0281099,15.5704474 18.5498584,15.0449757 18.5498584,14.4026805 Z" id="Path" fill="#97A4BA"></path>
            <path d="M6.95620519,19.4630926 C6.318542,19.4630926 5.79685976,19.9885643 5.79685976,20.6308595 C5.79685976,21.2731546 6.318542,21.7986263 6.95620519,21.7986263 L10.0478372,21.7986263 C10.6855004,21.7986263 11.2071826,21.2731546 11.2071826,20.6308595 C11.2071826,19.9885643 10.6855004,19.4630926 10.0478372,19.4630926 L6.95620519,19.4630926 Z" id="Path" fill="#67758D"></path>
        </g>
    </g>
</svg>