<svg xmlns="http://www.w3.org/2000/svg" xmlns:xlink="http://www.w3.org/1999/xlink" width="73" height="73" version="1.1" viewBox="0 0 73 73"><title>progressive-webapps/loading-performance/compression</title><desc>Created with Sketch.</desc><g id="progressive-webapps/loading-performance/compression" fill="none" fill-rule="evenodd" stroke="none" stroke-width="1"><g id="container" fill="#FFF" fill-rule="nonzero" stroke="#7E3B08" stroke-width="2" transform="translate(2.000000, 2.000000)"><rect id="mask" width="71" height="71" x="-1" y="-1" rx="14"/></g><g id="zip" fill-rule="nonzero" transform="translate(19.000000, 14.000000)"><polygon id="Shape" fill="#FFB730" points="0 45.261 35.897 45.261 35.897 0 7.804 0 0 7.804"/><polygon id="Shape" fill="#FFD991" points="7.804 7.804 7.804 0 0 7.804"/><path id="Shape" fill="#F79D1E" d="M23.3825982,33.9799455 L22.240255,26.5322341 L23.0206149,26.5322341 L23.0206149,21.8500751 L16.7777363,21.8500751 L16.7777363,26.5322341 L17.5580961,26.5322341 L16.4127046,33.9799455 C16.3086821,34.6543777 16.5045341,35.3406218 16.94844,35.8588295 C17.3927269,36.3774183 18.0408675,36.6761498 18.7233013,36.6769118 L21.0697153,36.6769118 C21.7525302,36.6765308 22.4014329,36.3781803 22.8457197,35.8599726 C23.2903877,35.3413839 23.4866208,34.6547587 23.3825982,33.9799455 Z"/><path id="Shape" fill="#DEDEDE" d="M21.434747,33.9799455 L20.2893555,26.5322341 L21.0697153,26.5322341 L21.0697153,21.8500751 L14.8268367,21.8500751 L14.8268367,26.5322341 L15.6071965,26.5322341 L14.461805,33.9799455 C14.3577825,34.6555208 14.5543966,35.342527 14.9994456,35.8611158 C15.4448756,36.3797045 16.0941594,36.6776738 16.7777363,36.6769118 L19.1188157,36.6769118 C19.8023926,36.6776738 20.4516764,36.3797045 20.8971064,35.8611158 C21.3421554,35.342527 21.5387695,34.6555208 21.434747,33.9799455 Z"/><polygon id="Shape" fill="#FD882F" points="21.07 3.902 21.07 2.341 18.729 2.341 18.729 0 17.168 0 17.168 2.341 14.827 2.341 14.827 3.902 17.168 3.902 17.168 5.463 14.827 5.463 14.827 7.023 17.168 7.023 17.168 8.584 14.827 8.584 14.827 10.145 17.168 10.145 17.168 11.705 14.827 11.705 14.827 13.266 17.168 13.266 17.168 14.827 14.827 14.827 14.827 16.388 17.168 16.388 17.168 17.948 14.827 17.948 14.827 19.509 17.168 19.509 17.168 24.191 18.729 24.191 18.729 19.509 21.07 19.509 21.07 17.948 18.729 17.948 18.729 16.388 21.07 16.388 21.07 14.827 18.729 14.827 18.729 13.266 21.07 13.266 21.07 11.705 18.729 11.705 18.729 10.145 21.07 10.145 21.07 8.584 18.729 8.584 18.729 7.023 21.07 7.023 21.07 5.463 18.729 5.463 18.729 3.902"/><polygon id="Shape" fill="#C7C7C7" points="17.168 32.775 18.729 32.775 18.729 34.336 17.168 34.336"/><polygon id="Shape" fill="#F79D1E" points="0 7.804 6.243 7.804 6.243 9.364 0 9.364"/><polygon id="Shape" fill="#C7C7C7" points="20.53 28.093 20.289 26.532 15.607 26.532 15.367 28.093"/><polygon id="Shape" fill="#F79D1E" points="17.168 21.85 18.729 21.85 18.729 24.191 17.168 24.191"/></g></g></svg>