<svg xmlns="http://www.w3.org/2000/svg" xmlns:xlink="http://www.w3.org/1999/xlink" width="73" height="73" version="1.1" viewBox="0 0 73 73"><title>progressive-webapps/loading-performance/largest-contentful-paint</title><desc>Created with Sketch.</desc><defs><rect id="path-1" width="69" height="69" x="0" y="0" rx="14"/></defs><g id="progressive-webapps/loading-performance/largest-contentful-paint" fill="none" fill-rule="evenodd" stroke="none" stroke-width="1"><g id="container" fill-rule="nonzero" stroke-width="2" transform="translate(2.000000, 2.000000)"><g id="mask"><rect width="71" height="71" x="-1" y="-1" fill="#FFF" fill-rule="evenodd" rx="14"/><rect width="71" height="71" x="-1" y="-1" stroke="#EBD1B6" rx="14"/></g></g><g id="palette" fill-rule="nonzero" transform="translate(16.000000, 13.000000)"><path id="Shape" fill="#E6BE94" d="M38.7410457,20.4451637 C34.3873121,15.3685429 29.8435806,14.1883701 29.8435806,8.59032606 C29.8435806,2.4890679 24.8078935,-2.18970458 15.9942129,1.06762545 C6.54408553,4.56015545 0,12.9844876 0,23.4800021 C0,36.4696797 10.2907525,47 22.985118,47 C25.0729638,47 27.0959322,46.7151045 29.0186188,46.1813523 L29.0180627,46.1788865 C38.7410457,43.3012907 46.7116914,29.7393564 38.7410457,20.4451637 Z M28.963195,17.9899794 C27.6192144,19.7497115 23.8964594,18.7209013 22.4597042,16.231006 C21.1932983,14.0364385 21.6567079,10.8980362 23.8488209,9.51433952 C25.1194901,8.71228863 26.795272,9.5015363 27.1140979,10.9940129 C27.3736073,12.2085173 27.9058796,13.7131333 28.9898874,15.0898119 C29.6505242,15.9291344 29.6117831,17.1407937 28.963195,17.9899794 Z"/><circle id="Oval" cx="13.5" cy="12.5" r="4.5" fill="#FF4F19"/><circle id="Oval" cx="14.5" cy="12.5" r="1.5" fill="#FF8C62"/><circle id="Oval" cx="9.5" cy="23.5" r="4.5" fill="#FFCD00"/><circle id="Oval" cx="9.5" cy="22.5" r="1.5" fill="#FFE671"/><circle id="Oval" cx="13.5" cy="35.5" r="4.5" fill="#00C37A"/><circle id="Oval" cx="15.5" cy="33.5" r="1.5" fill="#60DC4D"/><circle id="Oval" cx="25.5" cy="37.5" r="4.5" fill="#4CD7FF"/><circle id="Oval" cx="27.5" cy="36.5" r="1.5" fill="#AEEFFF"/><circle id="Oval" cx="33.5" cy="30.5" r="4.5" fill="#009BCA"/><circle id="Oval" cx="34.5" cy="29.5" r="1.5" fill="#4CD7FF"/></g></g></svg>