<svg xmlns="http://www.w3.org/2000/svg" xmlns:xlink="http://www.w3.org/1999/xlink" width="73" height="73" version="1.1" viewBox="0 0 73 73"><title>progressive-webapps/loading-performance/offscreen-images</title><desc>Created with Sketch.</desc><g id="progressive-webapps/loading-performance/offscreen-images" fill="none" fill-rule="evenodd" stroke="none" stroke-width="1"><g id="container" fill="#FFF" fill-rule="nonzero" stroke="#092339" stroke-width="2" transform="translate(2.000000, 2.000000)"><rect id="mask" width="71" height="71" x="-1" y="-1" rx="14"/></g><g id="invisible-man" fill-rule="nonzero" transform="translate(12.000000, 12.000000)"><path id="Shape" fill="#FA9647" d="M36.1647754,7.17773438 L35.8096211,5.59786719 L35.5560078,4.47718359 L35.4559023,4.47718359 C35.0009297,3.36099805 34.265834,2.36367578 33.3207656,1.59785938 C32.0491582,0.567519531 30.4460352,0 28.8066406,0 C27.2420859,0 25.7328477,0.512394531 24.5,1.43746094 L21.6289062,10.0488281 L36.1647754,7.17773438 Z"/><path id="Shape" fill="#F9B233" d="M24.5,1.43746094 C23.2671523,0.512394531 21.7579141,0 20.1933594,0 C18.5540605,0 16.9508418,0.567519531 15.6792344,1.59785938 C14.734166,2.36367578 13.9990703,3.36090234 13.5441934,4.47718359 L13.4423652,4.47718359 L12.8352246,7.17773438 L24.5,10.0488281 L24.5,1.43746094 Z"/><polygon id="Shape" fill="#B440A1" points="24.5 7.178 21.629 12.92 37.456 12.92 36.165 7.178"/><polygon id="Shape" fill="#FF2796" points="12.835 7.178 11.544 12.92 24.5 12.92 24.5 7.178"/><path id="Shape" fill="#FB7A5B" d="M49,47.46875 C49,40.3447051 43.204123,34.5488281 36.0800781,34.5488281 L24.5,34.5488281 L18.7578125,41.7744141 L24.5,49 L49,49 L49,47.46875 Z"/><path id="Shape" fill="#FA9647" d="M12.9199219,34.5488281 C5.79587695,34.5488281 0,40.3447051 0,47.46875 L0,49 L24.5,49 L24.5,34.5488281 L12.9199219,34.5488281 Z"/><polygon id="Shape" fill="#FD5F6E" points="24.5 43.258 37.42 43.258 37.42 30.146 28.089 36.702"/><polygon id="Shape" fill="#FB7A5B" points="24.5 43.258 11.58 43.258 11.58 30.146 20.911 36.702"/><polygon id="Shape" fill="#FCD999" points="24.5 30.146 22.586 36.702 24.5 43.258 37.42 30.146"/><polygon id="Shape" fill="#FEECCC" points="11.58 30.146 24.5 43.258 24.5 30.146"/><polygon id="Shape" fill="#FB7A5B" points="43.162 11.484 24.5 11.484 21.629 12.92 24.5 14.355 43.162 14.355"/><rect id="Rectangle-path" width="18.662" height="2.871" x="5.838" y="11.484" fill="#FA9647"/><polygon id="Shape" fill="#293560" points="28.807 20.815 24.5 20.815 23.543 22.251 24.5 23.687 28.807 23.687"/><rect id="Rectangle-path" width="4.307" height="2.871" x="20.193" y="20.815" fill="#484686"/><path id="Shape" fill="#092339" d="M30.9599609,17.2265625 C28.1895469,17.2265625 25.9355469,19.4805625 25.9355469,22.2509766 C25.9355469,25.0213906 28.1895469,27.2753906 30.9599609,27.2753906 C33.730375,27.2753906 35.984375,25.0213906 35.984375,22.2509766 C35.984375,19.4805625 33.730375,17.2265625 30.9599609,17.2265625 Z"/><path id="Shape" fill="#293560" d="M18.0400391,17.2265625 C15.2695293,17.2265625 13.015625,19.4805625 13.015625,22.2509766 C13.015625,25.0213906 15.2695293,27.2753906 18.0400391,27.2753906 C20.8105488,27.2753906 23.0644531,25.0213906 23.0644531,22.2509766 C23.0644531,19.4805625 20.8105488,17.2265625 18.0400391,17.2265625 Z"/></g></g></svg>