<svg xmlns="http://www.w3.org/2000/svg" xmlns:xlink="http://www.w3.org/1999/xlink" width="73" height="73" version="1.1" viewBox="0 0 73 73"><title>fundamentals/html/seo</title><desc>Created with Sketch.</desc><g id="fundamentals/html/seo" fill="none" fill-rule="evenodd" stroke="none" stroke-width="1"><rect id="Mask" width="71" height="71" x="1" y="1" fill="#FFF" fill-rule="nonzero" stroke="#313B5E" stroke-width="2" rx="14"/><g id="file" transform="translate(18.000000, 13.000000)"><polygon id="Shape" fill="#EDEADA" fill-rule="nonzero" points="35.522 16.522 23.13 4.13 4.13 4.13 4.13 45.435 35.522 45.435"/><circle id="Oval" cx="21.026" cy="30.939" r="8.945" fill="#FFF" fill-rule="nonzero" stroke="#7383BF" stroke-linecap="round" stroke-width="2"/><path id="Shape" stroke="#7383BF" stroke-linecap="round" stroke-width="2" d="M27.4624348,37.3754783 L38,47.9130435"/><path id="Shape" fill="#CEC9AE" fill-rule="nonzero" d="M21.1684783,28.9130435 L16.2119565,28.9130435 C15.7551304,28.9130435 15.3858696,28.5437826 15.3858696,28.0869565 C15.3858696,27.6301304 15.7551304,27.2608696 16.2119565,27.2608696 L21.1684783,27.2608696 C21.6253043,27.2608696 21.9945652,27.6301304 21.9945652,28.0869565 C21.9945652,28.5437826 21.6253043,28.9130435 21.1684783,28.9130435 Z"/><path id="Shape" fill="#CEC9AE" fill-rule="nonzero" d="M26.125,33.8695652 L16.2119565,33.8695652 C15.7551304,33.8695652 15.3858696,33.5003043 15.3858696,33.0434783 C15.3858696,32.5866522 15.7551304,32.2173913 16.2119565,32.2173913 L26.125,32.2173913 C26.5818261,32.2173913 26.951087,32.5866522 26.951087,33.0434783 C26.951087,33.5003043 26.5818261,33.8695652 26.125,33.8695652 Z"/><polygon id="Shape" fill="#E2DBBF" fill-rule="nonzero" points="4.13 4.13 23.13 4.13 31.391 12.391 31.391 0 0 0 0 41.304 4.13 41.304"/><path id="Shape" fill="#CEC9AE" fill-rule="nonzero" d="M35.2838261,16.5217391 L23.1304348,16.5217391 L23.1304348,4.36834783 C23.1304348,4.28078261 23.237,4.23617391 23.2989565,4.29895652 L35.3532174,16.3532174 C35.4151739,16.4151739 35.3713913,16.5217391 35.2838261,16.5217391 Z"/></g></g></svg>