<svg viewBox="0 0 257 80" fill="none" xmlns="http://www.w3.org/2000/svg"><g clip-path="url(#clip0)"><rect x=".5" width="80" height="80" rx="16" fill="#F9F9F9"/><g filter="url(#filter0_dd)"><path d="M21.813 22.223h-.017a1.302 1.302 0 00-1.28 1.503l5.502 33.398c.141.84.872 1.464 1.724 1.47h26.393a1.3 1.3 0 001.296-1.088l5.502-33.774a1.302 1.302 0 00-1.28-1.503h-.016l-37.824-.006zM44.979 46.36h-8.424l-2.281-11.917H47.02L44.979 46.36z" fill="#2684FF"/><path d="M59.181 34.444H47.018l-2.04 11.917h-8.425l-9.947 11.806c.315.273.718.425 1.134.428h26.4a1.3 1.3 0 001.296-1.089l3.745-23.062z" fill="url(#paint0_linear)"/></g></g><g clip-path="url(#clip1)"><rect x="88.5" width="80" height="80" rx="16" fill="#F9F9F9"/><g filter="url(#filter1_dd)"><path fill-rule="evenodd" clip-rule="evenodd" d="M128.604 18.889c-5.301-.005-10.43 1.821-14.469 5.152-4.039 3.332-6.723 7.95-7.572 13.027a21.114 21.114 0 002.941 14.681c2.746 4.4 7.018 7.706 12.048 9.326 1.123.2 1.52-.478 1.52-1.05v-3.68c-6.23 1.316-7.545-2.91-7.545-2.91a5.814 5.814 0 00-2.478-3.175c-2.013-1.329.164-1.329.164-1.329a4.783 4.783 0 011.97.735 4.619 4.619 0 011.44 1.497 4.655 4.655 0 001.202 1.383c.49.38 1.053.66 1.656.829a4.906 4.906 0 003.632-.405 4.539 4.539 0 011.37-2.896c-4.957-.545-10.161-2.405-10.161-10.63a8.233 8.233 0 012.287-5.806 7.675 7.675 0 01.219-5.727s1.876-.585 6.135 2.219a21.722 21.722 0 0111.173 0c4.259-2.804 6.121-2.22 6.121-2.22a7.638 7.638 0 01.274 5.688 8.233 8.233 0 012.287 5.806c0 8.318-5.218 10.138-10.188 10.63a5.11 5.11 0 011.207 1.833c.262.687.369 1.422.313 2.153v5.94c0 .703.397 1.248 1.533 1.036 4.974-1.664 9.181-4.98 11.879-9.362a21.104 21.104 0 002.867-14.586c-.847-5.038-3.502-9.624-7.496-12.947-3.993-3.322-9.068-5.169-14.329-5.212z" fill="#12100C"/></g></g><g clip-path="url(#clip2)"><rect x="176.5" width="80" height="80" rx="16" fill="#F9F9F9"/><g filter="url(#filter2_dd)"><path d="M216.746 59.835l-8.1-24.509h16.187l-8.087 24.51z" fill="#E24329"/><path d="M236.176 35.326l2.466 7.447a1.634 1.634 0 01-.606 1.843l-21.292 15.22 19.432-24.51z" fill="#FCA326"/><path d="M236.178 35.327h-11.345l4.883-14.76c.25-.756 1.339-.756 1.597 0l4.865 14.76z" fill="#E24329"/><path d="M197.301 35.326l-2.457 7.447a1.636 1.636 0 00.607 1.843l21.294 15.22-19.444-24.51z" fill="#FCA326"/><path d="M197.302 35.327h11.344l-4.873-14.76c-.25-.756-1.339-.756-1.598 0l-4.873 14.76z" fill="#E24329"/><path d="M216.745 59.835l-8.099-24.509h-11.345l19.444 24.51zM216.746 59.835l19.432-24.509h-11.345l-8.087 24.51z" fill="#FC6D26"/></g></g><defs><clipPath id="clip0"><rect x=".5" width="80" height="80" rx="16" fill="#fff"/></clipPath><clipPath id="clip1"><rect x="88.5" width="80" height="80" rx="16" fill="#fff"/></clipPath><clipPath id="clip2"><rect x="176.5" width="80" height="80" rx="16" fill="#fff"/></clipPath><filter id="filter0_dd" x=".5" y="7.223" width="80.449" height="76.372" filterUnits="userSpaceOnUse" color-interpolation-filters="sRGB"><feFlood flood-opacity="0" result="BackgroundImageFix"/><feColorMatrix in="SourceAlpha" values="0 0 0 0 0 0 0 0 0 0 0 0 0 0 0 0 0 0 127 0"/><feOffset dy="5"/><feGaussianBlur stdDeviation="10"/><feColorMatrix values="0 0 0 0 0 0 0 0 0 0 0 0 0 0 0 0 0 0 0.12 0"/><feBlend in2="BackgroundImageFix" result="effect1_dropShadow"/><feColorMatrix in="SourceAlpha" values="0 0 0 0 0 0 0 0 0 0 0 0 0 0 0 0 0 0 127 0"/><feOffset dy="2"/><feGaussianBlur stdDeviation="2.5"/><feColorMatrix values="0 0 0 0 0 0 0 0 0 0 0 0 0 0 0 0 0 0 0.08 0"/><feBlend in2="effect1_dropShadow" result="effect2_dropShadow"/><feBlend in="SourceGraphic" in2="effect2_dropShadow" result="shape"/></filter><filter id="filter1_dd" x="86.275" y="3.889" width="84.445" height="82.222" filterUnits="userSpaceOnUse" color-interpolation-filters="sRGB"><feFlood flood-opacity="0" result="BackgroundImageFix"/><feColorMatrix in="SourceAlpha" values="0 0 0 0 0 0 0 0 0 0 0 0 0 0 0 0 0 0 127 0"/><feOffset dy="5"/><feGaussianBlur stdDeviation="10"/><feColorMatrix values="0 0 0 0 0 0 0 0 0 0 0 0 0 0 0 0 0 0 0.12 0"/><feBlend in2="BackgroundImageFix" result="effect1_dropShadow"/><feColorMatrix in="SourceAlpha" values="0 0 0 0 0 0 0 0 0 0 0 0 0 0 0 0 0 0 127 0"/><feOffset dy="2"/><feGaussianBlur stdDeviation="2.5"/><feColorMatrix values="0 0 0 0 0 0 0 0 0 0 0 0 0 0 0 0 0 0 0.08 0"/><feBlend in2="effect1_dropShadow" result="effect2_dropShadow"/><feBlend in="SourceGraphic" in2="effect2_dropShadow" result="shape"/></filter><filter id="filter2_dd" x="174.762" y="5" width="83.963" height="79.835" filterUnits="userSpaceOnUse" color-interpolation-filters="sRGB"><feFlood flood-opacity="0" result="BackgroundImageFix"/><feColorMatrix in="SourceAlpha" values="0 0 0 0 0 0 0 0 0 0 0 0 0 0 0 0 0 0 127 0"/><feOffset dy="5"/><feGaussianBlur stdDeviation="10"/><feColorMatrix values="0 0 0 0 0 0 0 0 0 0 0 0 0 0 0 0 0 0 0.12 0"/><feBlend in2="BackgroundImageFix" result="effect1_dropShadow"/><feColorMatrix in="SourceAlpha" values="0 0 0 0 0 0 0 0 0 0 0 0 0 0 0 0 0 0 127 0"/><feOffset dy="2"/><feGaussianBlur stdDeviation="2.5"/><feColorMatrix values="0 0 0 0 0 0 0 0 0 0 0 0 0 0 0 0 0 0 0.08 0"/><feBlend in2="effect1_dropShadow" result="effect2_dropShadow"/><feBlend in="SourceGraphic" in2="effect2_dropShadow" result="shape"/></filter><linearGradient id="paint0_linear" x1="61.994" y1="37.781" x2="41.893" y2="53.469" gradientUnits="userSpaceOnUse"><stop stop-color="#0052CC"/><stop offset=".18" stop-color="#0052CC"/><stop offset="1" stop-color="#2684FF"/></linearGradient></defs></svg>