<svg xmlns="http://www.w3.org/2000/svg" class="svg" width="1008" height="671" style="display: block;">
<defs><style type="text/css"><![CDATA[
:root { overflow: hidden; }
.svg { background-color: rgb(255, 255, 255); }
.node text { font-size: 12px; font-family: Arial; font-weight: normal; font-style: normal; fill: rgb(0, 0, 0); }
.node circle { fill: rgb(69, 113, 24); stroke: rgb(69, 113, 24); stroke-width: 1px; }
path { fill: none; stroke: rgb(144, 144, 144); stroke-width: 1px; }]]></style></defs>
    <g transform="translate(114.44414392382583,333.76284157821533) scale(0.9632618940201482)"><path class="link" d="M200,-393.75C100,-393.75 100,0 0,0"/><path class="link" d="M200,-378.74999999999994C100,-378.74999999999994 100,0 0,0"/><path class="link" d="M200,-363.75C100,-363.75 100,0 0,0"/><path class="link" d="M200,-56.25C100,-56.25 100,0 0,0"/><path class="link" d="M200,3.75C100,3.75 100,0 0,0"/><path class="link" d="M200,48.75C100,48.75 100,0 0,0"/><path class="link" d="M200,93.75C100,93.75 100,0 0,0"/><path class="link" d="M200,138.75C100,138.75 100,0 0,0"/><path class="link" d="M200,183.75C100,183.75 100,0 0,0"/><path class="link" d="M200,228.75C100,228.75 100,0 0,0"/><path class="link" d="M200,273.75C100,273.75 100,0 0,0"/><path class="link" d="M200,303.75C100,303.75 100,0 0,0"/><path class="link" d="M200,333.75C100,333.75 100,0 0,0"/><path class="link" d="M200,348.75C100,348.75 100,0 0,0"/><path class="link" d="M200,363.75C100,363.75 100,0 0,0"/><path class="link" d="M200,378.75C100,378.75 100,0 0,0"/><path class="link" d="M200,393.75C100,393.75 100,0 0,0"/><path class="link" d="M400,-408.75000000000006C300,-408.75000000000006 300,-363.75 200,-363.75"/><path class="link" d="M400,-393.75C300,-393.75 300,-363.75 200,-363.75"/><path class="link" d="M400,-378.74999999999994C300,-378.74999999999994 300,-363.75 200,-363.75"/><path class="link" d="M400,-363.75C300,-363.75 300,-363.75 200,-363.75"/><path class="link" d="M400,-348.75C300,-348.75 300,-363.75 200,-363.75"/><path class="link" d="M400,-333.75000000000006C300,-333.75000000000006 300,-363.75 200,-363.75"/><path class="link" d="M400,-318.75C300,-318.75 300,-363.75 200,-363.75"/><path class="link" d="M400,-56.25C300,-56.25 300,-56.25 200,-56.25"/><path class="link" d="M400,3.75C300,3.75 300,3.75 200,3.75"/><path class="link" d="M400,273.75C300,273.75 300,273.75 200,273.75"/><path class="link" d="M400,333.75C300,333.75 300,333.75 200,333.75"/><path class="link" d="M400,378.75C300,378.75 300,378.75 200,378.75"/><path class="link" d="M600,-408.75000000000006C500,-408.75000000000006 500,-393.75 400,-393.75"/><path class="link" d="M600,-393.75C500,-393.75 500,-393.75 400,-393.75"/><path class="link" d="M600,-378.74999999999994C500,-378.74999999999994 500,-393.75 400,-393.75"/><path class="link" d="M600,-348.75C500,-348.75 500,-56.25 400,-56.25"/><path class="link" d="M600,-333.75000000000006C500,-333.75000000000006 500,-56.25 400,-56.25"/><path class="link" d="M600,-318.75C500,-318.75 500,-56.25 400,-56.25"/><path class="link" d="M600,-303.75C500,-303.75 500,-56.25 400,-56.25"/><path class="link" d="M600,-288.74999999999994C500,-288.74999999999994 500,-56.25 400,-56.25"/><path class="link" d="M600,-273.75C500,-273.75 500,-56.25 400,-56.25"/><path class="link" d="M600,-258.75000000000006C500,-258.75000000000006 500,-56.25 400,-56.25"/><path class="link" d="M600,-243.75000000000006C500,-243.75000000000006 500,-56.25 400,-56.25"/><path class="link" d="M600,-228.75C500,-228.75 500,-56.25 400,-56.25"/><path class="link" d="M600,-213.74999999999994C500,-213.74999999999994 500,-56.25 400,-56.25"/><path class="link" d="M600,-198.75C500,-198.75 500,-56.25 400,-56.25"/><path class="link" d="M600,-183.75C500,-183.75 500,-56.25 400,-56.25"/><path class="link" d="M600,-168.75C500,-168.75 500,-56.25 400,-56.25"/><path class="link" d="M600,-153.75C500,-153.75 500,-56.25 400,-56.25"/><path class="link" d="M600,-138.75C500,-138.75 500,-56.25 400,-56.25"/><path class="link" d="M600,-123.75C500,-123.75 500,-56.25 400,-56.25"/><path class="link" d="M600,-108.75C500,-108.75 500,-56.25 400,-56.25"/><path class="link" d="M600,-93.75C500,-93.75 500,-56.25 400,-56.25"/><path class="link" d="M600,-78.75C500,-78.75 500,-56.25 400,-56.25"/><path class="link" d="M600,-63.75C500,-63.75 500,-56.25 400,-56.25"/><path class="link" d="M600,-48.75C500,-48.75 500,-56.25 400,-56.25"/><path class="link" d="M600,-33.75C500,-33.75 500,-56.25 400,-56.25"/><path class="link" d="M600,-18.75C500,-18.75 500,-56.25 400,-56.25"/><path class="link" d="M600,-3.75C500,-3.75 500,-56.25 400,-56.25"/><path class="link" d="M600,11.25C500,11.25 500,-56.25 400,-56.25"/><path class="link" d="M600,26.25C500,26.25 500,-56.25 400,-56.25"/><path class="link" d="M600,41.25C500,41.25 500,-56.25 400,-56.25"/><path class="link" d="M600,56.25C500,56.25 500,-56.25 400,-56.25"/><path class="link" d="M600,71.25C500,71.25 500,-56.25 400,-56.25"/><path class="link" d="M600,86.25C500,86.25 500,-56.25 400,-56.25"/><path class="link" d="M600,101.25C500,101.25 500,-56.25 400,-56.25"/><path class="link" d="M600,116.25C500,116.25 500,-56.25 400,-56.25"/><path class="link" d="M600,131.25C500,131.25 500,-56.25 400,-56.25"/><path class="link" d="M600,146.25C500,146.25 500,-56.25 400,-56.25"/><path class="link" d="M600,161.25C500,161.25 500,-56.25 400,-56.25"/><path class="link" d="M600,176.25C500,176.25 500,-56.25 400,-56.25"/><path class="link" d="M600,191.25C500,191.25 500,-56.25 400,-56.25"/><path class="link" d="M600,206.25C500,206.25 500,-56.25 400,-56.25"/><path class="link" d="M600,221.25C500,221.25 500,-56.25 400,-56.25"/><path class="link" d="M600,236.25C500,236.25 500,-56.25 400,-56.25"/><path class="link" d="M600,266.25C500,266.25 500,273.75 400,273.75"/><path class="link" d="M600,281.25C500,281.25 500,273.75 400,273.75"/><path class="link" d="M600,311.25C500,311.25 500,333.75 400,333.75"/><path class="link" d="M600,326.25C500,326.25 500,333.75 400,333.75"/><path class="link" d="M600,341.25C500,341.25 500,333.75 400,333.75"/><path class="link" d="M600,356.25C500,356.25 500,333.75 400,333.75"/><path class="link" d="M800,-303.75C700,-303.75 700,-303.75 600,-303.75"/><g class="node" transform="translate(0, 0)"><circle r="4.5" cursor="pointer" style="fill: rgb(69, 113, 24); stroke: rgb(69, 113, 24);"/><text dy=".35em" x="-13" text-anchor="end" style="fill-opacity: 1;">bgoonz-blog.netlify.app</text></g><g class="node" transform="translate(200, -393.75)"><circle r="4.5" cursor="pointer" style="fill: rgb(201, 45, 45); stroke: rgb(201, 45, 45);"/><text dy=".35em" x="13" text-anchor="start" style="fill-opacity: 1;">blogWcomments</text></g><g class="node" transform="translate(200, -378.75)"><circle r="4.5" cursor="pointer" style="fill: rgb(201, 45, 45); stroke: rgb(201, 45, 45);"/><text dy=".35em" x="13" text-anchor="start" style="fill-opacity: 1;">neural%20networks</text></g><g class="node" transform="translate(200, -363.75)"><circle r="4.5" cursor="pointer" style="fill: rgb(69, 113, 24); stroke: rgb(69, 113, 24);"/><text dy=".35em" x="-13" text-anchor="end" style="fill-opacity: 1;">blog</text></g><g class="node" transform="translate(200, -56.25)"><circle r="4.5" cursor="pointer" style="fill: rgb(201, 45, 45); stroke: rgb(201, 45, 45);"/><text dy=".35em" x="-13" text-anchor="end" style="fill-opacity: 1;">tools</text></g><g class="node" transform="translate(200, 3.75)"><circle r="4.5" cursor="pointer" style="fill: rgb(201, 45, 45); stroke: rgb(201, 45, 45);"/><text dy=".35em" x="-13" text-anchor="end" style="fill-opacity: 1;">contact</text></g><g class="node" transform="translate(200, 48.75)"><circle r="4.5" cursor="pointer" style="fill: rgb(201, 45, 45); stroke: rgb(201, 45, 45);"/><text dy=".35em" x="13" text-anchor="start" style="fill-opacity: 1;">angolia</text></g><g class="node" transform="translate(200, 93.75)"><circle r="4.5" cursor="pointer" style="fill: rgb(201, 45, 45); stroke: rgb(201, 45, 45);"/><text dy=".35em" x="13" text-anchor="start" style="fill-opacity: 1;">gallery</text></g><g class="node" transform="translate(200, 138.75)"><circle r="4.5" cursor="pointer" style="fill: rgb(201, 45, 45); stroke: rgb(201, 45, 45);"/><text dy=".35em" x="13" text-anchor="start" style="fill-opacity: 1;">lambda-demo1.gif</text></g><g class="node" transform="translate(200, 183.75)"><circle r="4.5" cursor="pointer" style="fill: rgb(201, 45, 45); stroke: rgb(201, 45, 45);"/><text dy=".35em" x="13" text-anchor="start" style="fill-opacity: 1;">ds-algo-overview</text></g><g class="node" transform="translate(200, 228.75)"><circle r="4.5" cursor="pointer" style="fill: rgb(69, 113, 24); stroke: rgb(69, 113, 24);"/><text dy=".35em" x="13" text-anchor="start" style="fill-opacity: 1;">platform-docs</text></g><g class="node" transform="translate(200, 273.75)"><circle r="4.5" cursor="pointer" style="fill: rgb(201, 45, 45); stroke: rgb(201, 45, 45);"/><text dy=".35em" x="-13" text-anchor="end" style="fill-opacity: 1;">showcase</text></g><g class="node" transform="translate(200, 303.75)"><circle r="4.5" cursor="pointer" style="fill: rgb(201, 45, 45); stroke: rgb(201, 45, 45);"/><text dy=".35em" x="13" text-anchor="start" style="fill-opacity: 1;">mailto:bryan.guner@gmail.com</text></g><g class="node" transform="translate(200, 333.75)"><circle r="4.5" cursor="pointer" style="fill: rgb(201, 45, 45); stroke: rgb(201, 45, 45);"/><text dy=".35em" x="-13" text-anchor="end" style="fill-opacity: 1;">sitemap</text></g><g class="node" transform="translate(200, 348.75)"><circle r="4.5" cursor="pointer" style="fill: rgb(201, 45, 45); stroke: rgb(201, 45, 45);"/><text dy=".35em" x="13" text-anchor="start" style="fill-opacity: 1;">nodejs</text></g><g class="node" transform="translate(200, 363.75)"><circle r="4.5" cursor="pointer" style="fill: rgb(201, 45, 45); stroke: rgb(201, 45, 45);"/><text dy=".35em" x="13" text-anchor="start" style="fill-opacity: 1;">neural.PNG</text></g><g class="node" transform="translate(200, 378.75)"><circle r="4.5" cursor="pointer" style="fill: rgb(201, 45, 45); stroke: rgb(201, 45, 45);"/><text dy=".35em" x="-13" text-anchor="end" style="fill-opacity: 1;">docs</text></g><g class="node" transform="translate(200, 393.75)"><circle r="4.5" cursor="pointer" style="fill: rgb(201, 45, 45); stroke: rgb(201, 45, 45);"/><text dy=".35em" x="13" text-anchor="start" style="fill-opacity: 1;">jamstack</text></g><g class="node" transform="translate(400, -408.75)"><circle r="4.5" cursor="pointer" style="fill: rgb(69, 113, 24); stroke: rgb(69, 113, 24);"/><text dy=".35em" x="13" text-anchor="start" style="fill-opacity: 1;">blog-archive</text></g><g class="node" transform="translate(400, -393.75)"><circle r="4.5" cursor="pointer" style="fill: rgb(69, 113, 24); stroke: rgb(69, 113, 24);"/><text dy=".35em" x="-13" text-anchor="end" style="fill-opacity: 1;">data-structures</text></g><g class="node" transform="translate(400, -378.75)"><circle r="4.5" cursor="pointer" style="fill: rgb(69, 113, 24); stroke: rgb(69, 113, 24);"/><text dy=".35em" x="13" text-anchor="start" style="fill-opacity: 1;">blogwcomments</text></g><g class="node" transform="translate(400, -363.75)"><circle r="4.5" cursor="pointer" style="fill: rgb(69, 113, 24); stroke: rgb(69, 113, 24);"/><text dy=".35em" x="13" text-anchor="start" style="fill-opacity: 1;">my-medium</text></g><g class="node" transform="translate(400, -348.75)"><circle r="4.5" cursor="pointer" style="fill: rgb(69, 113, 24); stroke: rgb(69, 113, 24);"/><text dy=".35em" x="13" text-anchor="start" style="fill-opacity: 1;">python-for-js-dev</text></g><g class="node" transform="translate(400, -333.75)"><circle r="4.5" cursor="pointer" style="fill: rgb(69, 113, 24); stroke: rgb(69, 113, 24);"/><text dy=".35em" x="13" text-anchor="start" style="fill-opacity: 1;">python-resources</text></g><g class="node" transform="translate(400, -318.75)"><circle r="4.5" cursor="pointer" style="fill: rgb(69, 113, 24); stroke: rgb(69, 113, 24);"/><text dy=".35em" x="13" text-anchor="start" style="fill-opacity: 1;">web-scraping</text></g><g class="node" transform="translate(400, -56.25)"><circle r="4.5" cursor="pointer" style="fill: rgb(69, 113, 24); stroke: rgb(69, 113, 24);"/><text dy=".35em" x="-13" text-anchor="end" style="fill-opacity: 1;">tools</text></g><g class="node" transform="translate(400, 3.75)"><circle r="4.5" cursor="pointer" style="fill: rgb(69, 113, 24); stroke: rgb(69, 113, 24);"/><text dy=".35em" x="13" text-anchor="start" style="fill-opacity: 1;">contact</text></g><g class="node" transform="translate(400, 273.75)"><circle r="4.5" cursor="pointer" style="fill: rgb(69, 113, 24); stroke: rgb(69, 113, 24);"/><text dy=".35em" x="-13" text-anchor="end" style="fill-opacity: 1;">showcase</text></g><g class="node" transform="translate(400, 333.75)"><circle r="4.5" cursor="pointer" style="fill: rgb(69, 113, 24); stroke: rgb(69, 113, 24);"/><text dy=".35em" x="-13" text-anchor="end" style="fill-opacity: 1;">sitemap</text></g><g class="node" transform="translate(400, 378.75)"><circle r="4.5" cursor="pointer" style="fill: rgb(69, 113, 24); stroke: rgb(69, 113, 24);"/><text dy=".35em" x="13" text-anchor="start" style="fill-opacity: 1;">docs</text></g><g class="node" transform="translate(600, -408.75)"><circle r="4.5" cursor="pointer" style="fill: rgb(201, 45, 45); stroke: rgb(201, 45, 45);"/><text dy=".35em" x="13" text-anchor="start" style="fill-opacity: 1;">121.%20Best%20Time%20to%20Buy%20and%20Sell%20Stock.md</text></g><g class="node" transform="translate(600, -393.75)"><circle r="4.5" cursor="pointer" style="fill: rgb(201, 45, 45); stroke: rgb(201, 45, 45);"/><text dy=".35em" x="13" text-anchor="start" style="fill-opacity: 1;">116.%20Populating%20Next%20Right%20Pointers%20in%20Each%20Node.md</text></g><g class="node" transform="translate(600, -378.75)"><circle r="4.5" cursor="pointer" style="fill: rgb(201, 45, 45); stroke: rgb(201, 45, 45);"/><text dy=".35em" x="13" text-anchor="start" style="fill-opacity: 1;">127.%20Word%20Ladder</text></g><g class="node" transform="translate(600, -348.75)"><circle r="4.5" cursor="pointer" style="fill: rgb(69, 113, 24); stroke: rgb(69, 113, 24);"/><text dy=".35em" x="13" text-anchor="start" style="fill-opacity: 1;">resources</text></g><g class="node" transform="translate(600, -333.75)"><circle r="4.5" cursor="pointer" style="fill: rgb(69, 113, 24); stroke: rgb(69, 113, 24);"/><text dy=".35em" x="13" text-anchor="start" style="fill-opacity: 1;">reading-files</text></g><g class="node" transform="translate(600, -318.75)"><circle r="4.5" cursor="pointer" style="fill: rgb(69, 113, 24); stroke: rgb(69, 113, 24);"/><text dy=".35em" x="13" text-anchor="start" style="fill-opacity: 1;">python</text></g><g class="node" transform="translate(600, -303.75)"><circle r="4.5" cursor="pointer" style="fill: rgb(201, 45, 45); stroke: rgb(201, 45, 45);"/><text dy=".35em" x="-13" text-anchor="end" style="fill-opacity: 1;">Emmet</text></g><g class="node" transform="translate(600, -288.75)"><circle r="4.5" cursor="pointer" style="fill: rgb(69, 113, 24); stroke: rgb(69, 113, 24);"/><text dy=".35em" x="13" text-anchor="start" style="fill-opacity: 1;">new-repo-instructions</text></g><g class="node" transform="translate(600, -273.75)"><circle r="4.5" cursor="pointer" style="fill: rgb(69, 113, 24); stroke: rgb(69, 113, 24);"/><text dy=".35em" x="13" text-anchor="start" style="fill-opacity: 1;">reading-files</text></g><g class="node" transform="translate(600, -258.75)"><circle r="4.5" cursor="pointer" style="fill: rgb(69, 113, 24); stroke: rgb(69, 113, 24);"/><text dy=".35em" x="13" text-anchor="start" style="fill-opacity: 1;">article-compilation</text></g><g class="node" transform="translate(600, -243.75)"><circle r="4.5" cursor="pointer" style="fill: rgb(69, 113, 24); stroke: rgb(69, 113, 24);"/><text dy=".35em" x="13" text-anchor="start" style="fill-opacity: 1;">medium-links</text></g><g class="node" transform="translate(600, -228.75)"><circle r="4.5" cursor="pointer" style="fill: rgb(69, 113, 24); stroke: rgb(69, 113, 24);"/><text dy=".35em" x="13" text-anchor="start" style="fill-opacity: 1;">install</text></g><g class="node" transform="translate(600, -213.75)"><circle r="4.5" cursor="pointer" style="fill: rgb(69, 113, 24); stroke: rgb(69, 113, 24);"/><text dy=".35em" x="13" text-anchor="start" style="fill-opacity: 1;">react</text></g><g class="node" transform="translate(600, -198.75)"><circle r="4.5" cursor="pointer" style="fill: rgb(69, 113, 24); stroke: rgb(69, 113, 24);"/><text dy=".35em" x="13" text-anchor="start" style="fill-opacity: 1;">intro</text></g><g class="node" transform="translate(600, -183.75)"><circle r="4.5" cursor="pointer" style="fill: rgb(69, 113, 24); stroke: rgb(69, 113, 24);"/><text dy=".35em" x="13" text-anchor="start" style="fill-opacity: 1;">my-websites</text></g><g class="node" transform="translate(600, -168.75)"><circle r="4.5" cursor="pointer" style="fill: rgb(69, 113, 24); stroke: rgb(69, 113, 24);"/><text dy=".35em" x="13" text-anchor="start" style="fill-opacity: 1;">links</text></g><g class="node" transform="translate(600, -153.75)"><circle r="4.5" cursor="pointer" style="fill: rgb(69, 113, 24); stroke: rgb(69, 113, 24);"/><text dy=".35em" x="13" text-anchor="start" style="fill-opacity: 1;">install</text></g><g class="node" transform="translate(600, -138.75)"><circle r="4.5" cursor="pointer" style="fill: rgb(69, 113, 24); stroke: rgb(69, 113, 24);"/><text dy=".35em" x="13" text-anchor="start" style="fill-opacity: 1;">faq</text></g><g class="node" transform="translate(600, -123.75)"><circle r="4.5" cursor="pointer" style="fill: rgb(69, 113, 24); stroke: rgb(69, 113, 24);"/><text dy=".35em" x="13" text-anchor="start" style="fill-opacity: 1;">nodejs</text></g><g class="node" transform="translate(600, -108.75)"><circle r="4.5" cursor="pointer" style="fill: rgb(69, 113, 24); stroke: rgb(69, 113, 24);"/><text dy=".35em" x="13" text-anchor="start" style="fill-opacity: 1;">intro</text></g><g class="node" transform="translate(600, -93.75)"><circle r="4.5" cursor="pointer" style="fill: rgb(69, 113, 24); stroke: rgb(69, 113, 24);"/><text dy=".35em" x="13" text-anchor="start" style="fill-opacity: 1;">ten-jamstack-apis-to-checkout</text></g><g class="node" transform="translate(600, -78.75)"><circle r="4.5" cursor="pointer" style="fill: rgb(69, 113, 24); stroke: rgb(69, 113, 24);"/><text dy=".35em" x="13" text-anchor="start" style="fill-opacity: 1;">algo</text></g><g class="node" transform="translate(600, -63.75)"><circle r="4.5" cursor="pointer" style="fill: rgb(69, 113, 24); stroke: rgb(69, 113, 24);"/><text dy=".35em" x="13" text-anchor="start" style="fill-opacity: 1;">basic-web-dev</text></g><g class="node" transform="translate(600, -48.75)"><circle r="4.5" cursor="pointer" style="fill: rgb(69, 113, 24); stroke: rgb(69, 113, 24);"/><text dy=".35em" x="13" text-anchor="start" style="fill-opacity: 1;">writing-files</text></g><g class="node" transform="translate(600, -33.75)"><circle r="4.5" cursor="pointer" style="fill: rgb(69, 113, 24); stroke: rgb(69, 113, 24);"/><text dy=".35em" x="13" text-anchor="start" style="fill-opacity: 1;">interact</text></g><g class="node" transform="translate(600, -18.75)"><circle r="4.5" cursor="pointer" style="fill: rgb(69, 113, 24); stroke: rgb(69, 113, 24);"/><text dy=".35em" x="13" text-anchor="start" style="fill-opacity: 1;">resume</text></g><g class="node" transform="translate(600, -3.75)"><circle r="4.5" cursor="pointer" style="fill: rgb(69, 113, 24); stroke: rgb(69, 113, 24);"/><text dy=".35em" x="13" text-anchor="start" style="fill-opacity: 1;">writing-files</text></g><g class="node" transform="translate(600, 11.25)"><circle r="4.5" cursor="pointer" style="fill: rgb(201, 45, 45); stroke: rgb(201, 45, 45);"/><text dy=".35em" x="13" text-anchor="start" style="fill-opacity: 1;">createReactApp</text></g><g class="node" transform="translate(600, 26.25)"><circle r="4.5" cursor="pointer" style="fill: rgb(69, 113, 24); stroke: rgb(69, 113, 24);"/><text dy=".35em" x="13" text-anchor="start" style="fill-opacity: 1;">about</text></g><g class="node" transform="translate(600, 41.25)"><circle r="4.5" cursor="pointer" style="fill: rgb(69, 113, 24); stroke: rgb(69, 113, 24);"/><text dy=".35em" x="13" text-anchor="start" style="fill-opacity: 1;">plug-ins</text></g><g class="node" transform="translate(600, 56.25)"><circle r="4.5" cursor="pointer" style="fill: rgb(69, 113, 24); stroke: rgb(69, 113, 24);"/><text dy=".35em" x="13" text-anchor="start" style="fill-opacity: 1;">notes-template</text></g><g class="node" transform="translate(600, 71.25)"><circle r="4.5" cursor="pointer" style="fill: rgb(69, 113, 24); stroke: rgb(69, 113, 24);"/><text dy=".35em" x="13" text-anchor="start" style="fill-opacity: 1;">installation</text></g><g class="node" transform="translate(600, 86.25)"><circle r="4.5" cursor="pointer" style="fill: rgb(69, 113, 24); stroke: rgb(69, 113, 24);"/><text dy=".35em" x="13" text-anchor="start" style="fill-opacity: 1;">articles</text></g><g class="node" transform="translate(600, 101.25)"><circle r="4.5" cursor="pointer" style="fill: rgb(69, 113, 24); stroke: rgb(69, 113, 24);"/><text dy=".35em" x="13" text-anchor="start" style="fill-opacity: 1;">jupyter-notebooks</text></g><g class="node" transform="translate(600, 116.25)"><circle r="4.5" cursor="pointer" style="fill: rgb(69, 113, 24); stroke: rgb(69, 113, 24);"/><text dy=".35em" x="13" text-anchor="start" style="fill-opacity: 1;">react2</text></g><g class="node" transform="translate(600, 131.25)"><circle r="4.5" cursor="pointer" style="fill: rgb(69, 113, 24); stroke: rgb(69, 113, 24);"/><text dy=".35em" x="13" text-anchor="start" style="fill-opacity: 1;">npm</text></g><g class="node" transform="translate(600, 146.25)"><circle r="4.5" cursor="pointer" style="fill: rgb(69, 113, 24); stroke: rgb(69, 113, 24);"/><text dy=".35em" x="13" text-anchor="start" style="fill-opacity: 1;">social</text></g><g class="node" transform="translate(600, 161.25)"><circle r="4.5" cursor="pointer" style="fill: rgb(69, 113, 24); stroke: rgb(69, 113, 24);"/><text dy=".35em" x="13" text-anchor="start" style="fill-opacity: 1;">quick-reference</text></g><g class="node" transform="translate(600, 176.25)"><circle r="4.5" cursor="pointer" style="fill: rgb(69, 113, 24); stroke: rgb(69, 113, 24);"/><text dy=".35em" x="13" text-anchor="start" style="fill-opacity: 1;">docs</text></g><g class="node" transform="translate(600, 191.25)"><circle r="4.5" cursor="pointer" style="fill: rgb(69, 113, 24); stroke: rgb(69, 113, 24);"/><text dy=".35em" x="13" text-anchor="start" style="fill-opacity: 1;">me</text></g><g class="node" transform="translate(600, 206.25)"><circle r="4.5" cursor="pointer" style="fill: rgb(69, 113, 24); stroke: rgb(69, 113, 24);"/><text dy=".35em" x="13" text-anchor="start" style="fill-opacity: 1;">vscode</text></g><g class="node" transform="translate(600, 221.25)"><circle r="4.5" cursor="pointer" style="fill: rgb(69, 113, 24); stroke: rgb(69, 113, 24);"/><text dy=".35em" x="13" text-anchor="start" style="fill-opacity: 1;">clock</text></g><g class="node" transform="translate(600, 236.25)"><circle r="4.5" cursor="pointer" style="fill: rgb(69, 113, 24); stroke: rgb(69, 113, 24);"/><text dy=".35em" x="13" text-anchor="start" style="fill-opacity: 1;">nodevsbrowser</text></g><g class="node" transform="translate(600, 266.25)"><circle r="4.5" cursor="pointer" style="fill: rgb(201, 45, 45); stroke: rgb(201, 45, 45);"/><text dy=".35em" x="13" text-anchor="start" style="fill-opacity: 1;">ds-algo-official-c3dw6uapg-bgoonz.vercel.app</text></g><g class="node" transform="translate(600, 281.25)"><circle r="4.5" cursor="pointer" style="fill: rgb(201, 45, 45); stroke: rgb(201, 45, 45);"/><text dy=".35em" x="13" text-anchor="start" style="fill-opacity: 1;">lorem-ipsum</text></g><g class="node" transform="translate(600, 311.25)"><circle r="4.5" cursor="pointer" style="fill: rgb(201, 45, 45); stroke: rgb(201, 45, 45);"/><text dy=".35em" x="13" text-anchor="start" style="fill-opacity: 1;">Social</text></g><g class="node" transform="translate(600, 326.25)"><circle r="4.5" cursor="pointer" style="fill: rgb(201, 45, 45); stroke: rgb(201, 45, 45);"/><text dy=".35em" x="13" text-anchor="start" style="fill-opacity: 1;">default-readme</text></g><g class="node" transform="translate(600, 341.25)"><circle r="4.5" cursor="pointer" style="fill: rgb(69, 113, 24); stroke: rgb(69, 113, 24);"/><text dy=".35em" x="13" text-anchor="start" style="fill-opacity: 1;">notes-template</text></g><g class="node" transform="translate(600, 356.25)"><circle r="4.5" cursor="pointer" style="fill: rgb(201, 45, 45); stroke: rgb(201, 45, 45);"/><text dy=".35em" x="13" text-anchor="start" style="fill-opacity: 1;">gallery</text></g><g class="node" transform="translate(800, -303.75)"><circle r="4.5" cursor="pointer" style="fill: rgb(69, 113, 24); stroke: rgb(69, 113, 24);"/><text dy=".35em" x="13" text-anchor="start" style="fill-opacity: 1;">emmet</text></g></g>
  </svg>