<svg xmlns="http://www.w3.org/2000/svg" class="svg" width="1008" height="671" style="display: block;">
<defs><style type="text/css"><![CDATA[
:root { overflow: hidden; }
.svg { background-color: rgb(255, 255, 255); }
.node circle { cursor: pointer; stroke: rgb(255, 255, 255); stroke-width: 1.5px; }
.node text { font-size: 10px; font-family: Arial; pointer-events: none; text-anchor: middle; font-weight: normal; font-style: normal; fill: rgb(0, 0, 0); }
line { fill: none; stroke: rgb(128, 128, 128); stroke-width: 0.5px; }]]></style></defs>
    <g><line class="link" x1="250.43815562043648" y1="463.2781709768995" x2="322.5733669301903" y2="399.6201278556621"/><line class="link" x1="322.5733669301903" y1="399.6201278556621" x2="402.3750483335059" y2="338.9464486151037"/><line class="link" x1="402.3750483335059" y1="338.9464486151037" x2="398.15314341817225" y2="244.0970804177153"/><line class="link" x1="402.3750483335059" y1="338.9464486151037" x2="307.60447364198865" y2="319.9607703993328"/><line class="link" x1="402.3750483335059" y1="338.9464486151037" x2="532.1814788001375" y2="360.5566021870731"/><line class="link" x1="402.3750483335059" y1="338.9464486151037" x2="343.49712738606956" y2="414.4879977090606"/><line class="link" x1="402.3750483335059" y1="338.9464486151037" x2="499.39806804464814" y2="260.6285632268802"/><line class="link" x1="402.3750483335059" y1="338.9464486151037" x2="344.33171442350425" y2="261.6624266699716"/><line class="link" x1="402.3750483335059" y1="338.9464486151037" x2="306.4188422353978" y2="337.97895501251975"/><line class="link" x1="402.3750483335059" y1="338.9464486151037" x2="320.47091046522945" y2="287.1502512876199"/><line class="link" x1="402.3750483335059" y1="338.9464486151037" x2="370.0304521440813" y2="428.71349683416344"/><line class="link" x1="402.3750483335059" y1="338.9464486151037" x2="304.89353102885553" y2="376.12187451276014"/><line class="link" x1="402.3750483335059" y1="338.9464486151037" x2="330.97962389391864" y2="273.49576182176327"/><line class="link" x1="402.3750483335059" y1="338.9464486151037" x2="501.1472532119039" y2="308.5119970159503"/><line class="link" x1="402.3750483335059" y1="338.9464486151037" x2="312.7493374466391" y2="302.29812537950465"/><line class="link" x1="402.3750483335059" y1="338.9464486151037" x2="362.78957892551955" y2="251.2683401804536"/><line class="link" x1="402.3750483335059" y1="338.9464486151037" x2="301.14765831846154" y2="353.40490231465736"/><line class="link" x1="532.1814788001375" y1="360.5566021870731" x2="626.650068335974" y2="350.4787054061557"/><line class="link" x1="532.1814788001375" y1="360.5566021870731" x2="557.605366993607" y2="467.38398419799336"/><line class="link" x1="532.1814788001375" y1="360.5566021870731" x2="482.8670594630777" y2="209.25498959918696"/><line class="link" x1="532.1814788001375" y1="360.5566021870731" x2="659.0628149101028" y2="380.78183176552136"/><line class="link" x1="532.1814788001375" y1="360.5566021870731" x2="497.0516967488713" y2="481.7690106261401"/><line class="link" x1="532.1814788001375" y1="360.5566021870731" x2="641.7845395440816" y2="314.88706022190877"/><line class="link" x1="532.1814788001375" y1="360.5566021870731" x2="595.5981564020869" y2="437.64878226387015"/><line class="link" x1="532.1814788001375" y1="360.5566021870731" x2="463.2816866367094" y2="436.2072472846772"/><line class="link" x1="532.1814788001375" y1="360.5566021870731" x2="620.3194496985956" y2="395.9386248325973"/><line class="link" x1="499.39806804464814" y1="260.6285632268802" x2="456.28243026090587" y2="344.640784290017"/><line class="link" x1="499.39806804464814" y1="260.6285632268802" x2="522.2319388488359" y2="168.2757359516122"/><line class="link" x1="499.39806804464814" y1="260.6285632268802" x2="595.6632265556626" y2="258.64107188568687"/><line class="link" x1="499.39806804464814" y1="260.6285632268802" x2="411.60627999388277" y2="294.7080328270149"/><line class="link" x1="499.39806804464814" y1="260.6285632268802" x2="557.3506638900773" y2="184.25188437814566"/><line class="link" x1="499.39806804464814" y1="260.6285632268802" x2="585.4863005151432" y2="300.29398621010705"/><line class="link" x1="499.39806804464814" y1="260.6285632268802" x2="420.1627420687991" y2="207.99145281689684"/><line class="link" x1="499.39806804464814" y1="260.6285632268802" x2="599.2931858344447" y2="198.7978811106857"/><line class="link" x1="304.89353102885553" y1="376.12187451276014" x2="204.8804682284865" y2="392.6989097802582"/><line class="link" x1="501.1472532119039" y1="308.5119970159503" x2="557.662744392033" y2="219.79354931966475"/><line class="link" x1="501.1472532119039" y1="308.5119970159503" x2="563.253215898853" y2="387.05192339277164"/><line class="link" x1="501.1472532119039" y1="308.5119970159503" x2="467.10780880756073" y2="396.9019010100497"/><line class="link" x1="501.1472532119039" y1="308.5119970159503" x2="575.526580649864" y2="249.84175378083532"/><line class="link" x1="301.14765831846154" y1="353.40490231465736" x2="211.5896442488182" y2="315.94929731681856"/><line class="link" x1="557.605366993607" y1="467.38398419799336" x2="572.9173038761257" y2="562.7479448617717"/><line class="link" x1="557.605366993607" y1="467.38398419799336" x2="629.0111100157524" y2="532.9880732025161"/><line class="link" x1="557.605366993607" y1="467.38398419799336" x2="607.0954134240739" y2="550.9195090504697"/><line class="link" x1="557.605366993607" y1="467.38398419799336" x2="644.8249745566558" y2="508.4211135733173"/><line class="link" x1="482.8670594630777" y1="209.25498959918696" x2="390.33527336956445" y2="180.3122448316643"/><line class="link" x1="482.8670594630777" y1="209.25498959918696" x2="437.91535689139334" y2="122.79811129095425"/><line class="link" x1="482.8670594630777" y1="209.25498959918696" x2="506.2706441564294" y2="114.68555423932467"/><line class="link" x1="482.8670594630777" y1="209.25498959918696" x2="410.2495327066211" y2="144.51864769219864"/><line class="link" x1="482.8670594630777" y1="209.25498959918696" x2="470.94189653108674" y2="112.56484351878318"/><line class="link" x1="482.8670594630777" y1="209.25498959918696" x2="544.0632915698658" y2="133.8848368431884"/><line class="link" x1="482.8670594630777" y1="209.25498959918696" x2="423.31075757304785" y2="132.2129694689651"/><line class="link" x1="482.8670594630777" y1="209.25498959918696" x2="488.1528170344644" y2="111.95146308702259"/><line class="link" x1="482.8670594630777" y1="209.25498959918696" x2="399.08853217015064" y2="159.9670247170923"/><line class="link" x1="482.8670594630777" y1="209.25498959918696" x2="453.9313193891845" y2="116.1432823094458"/><line class="link" x1="482.8670594630777" y1="209.25498959918696" x2="524.6811876722004" y2="121.34145566751344"/><line class="link" x1="659.0628149101028" y1="380.78183176552136" x2="743.6453136878883" y2="427.66947556425515"/><line class="link" x1="659.0628149101028" y1="380.78183176552136" x2="751.1474342202663" y2="351.9634408125842"/><line class="link" x1="659.0628149101028" y1="380.78183176552136" x2="753.1437024488309" y2="403.2462518976408"/><line class="link" x1="659.0628149101028" y1="380.78183176552136" x2="726.1030418936195" y2="450.28692447060394"/><line class="link" x1="659.0628149101028" y1="380.78183176552136" x2="755.728837601052" y2="377.9552602809911"/><line class="link" x1="497.0516967488713" y1="481.7690106261401" x2="471.5535920067432" y2="596.3826256613612"/><line class="link" x1="497.0516967488713" y1="481.7690106261401" x2="423.93282138031714" y2="543.2525276098871"/><line class="link" x1="497.0516967488713" y1="481.7690106261401" x2="515.2122612481664" y2="575.3614756156892"/><line class="link" x1="497.0516967488713" y1="481.7690106261401" x2="451.11606259218803" y2="565.035079554886"/><line class="link" x1="641.7845395440816" y1="314.88706022190877" x2="723.2848793291054" y2="262.75907972286063"/><line class="link" x1="641.7845395440816" y1="314.88706022190877" x2="738.1595163525158" y2="311.4367836698659"/><line class="link" x1="641.7845395440816" y1="314.88706022190877" x2="705.3407366676352" y2="242.38923226895164"/><line class="link" x1="641.7845395440816" y1="314.88706022190877" x2="733.9275672348894" y2="285.28770235054856"/><line class="link" x1="595.5981564020869" y1="437.64878226387015" x2="677.4444908032402" y2="490.1760349515653"/><line class="link" x1="595.5981564020869" y1="437.64878226387015" x2="581.8424955885793" y2="531.8221313406673"/><line class="link" x1="463.2816866367094" y1="436.2072472846772" x2="399.358201592648" y2="507.726301508298"/><line class="link" x1="463.2816866367094" y1="436.2072472846772" x2="379.4064459731577" y2="483.3912388325054"/><line class="link" x1="599.2931858344447" y1="198.7978811106857" x2="679.0510710747697" y2="142.87418002216017"/><line class="link" x1="599.2931858344447" y1="198.7978811106857" x2="692.6472671953416" y2="172.67981187846829"/><line class="link" x1="599.2931858344447" y1="198.7978811106857" x2="654.1205552358472" y2="117.99716412454656"/><line class="link" x1="204.8804682284865" y1="392.6989097802582" x2="163.80453422091063" y2="477.8726310322411"/><line class="link" x1="204.8804682284865" y1="392.6989097802582" x2="111.92279298698301" y2="407.9014363086919"/><line class="link" x1="557.662744392033" y1="219.79354931966475" x2="598.8343457160154" y2="131.07456907293135"/><line class="link" x1="557.662744392033" y1="219.79354931966475" x2="628.7489842709506" y2="153.81444841398368"/><line class="link" x1="563.253215898853" y1="387.05192339277164" x2="595.765367879528" y2="476.9365348710079"/><line class="link" x1="563.253215898853" y1="387.05192339277164" x2="646.9045031708356" y2="434.54447358546133"/><line class="link" x1="471.5535920067432" y1="596.3826256613612" x2="419.9139939117107" y2="676.3116869916028"/><line class="link" x1="471.5535920067432" y1="596.3826256613612" x2="377.58351003460103" y2="614.0876034205633"/><line class="link" x1="471.5535920067432" y1="596.3826256613612" x2="506.2633208877535" y2="684.9605474594284"/><line class="link" x1="471.5535920067432" y1="596.3826256613612" x2="391.59133645524304" y2="648.503965776868"/><line class="link" x1="471.5535920067432" y1="596.3826256613612" x2="541.8652453341895" y2="660.8522801410353"/><line class="link" x1="471.5535920067432" y1="596.3826256613612" x2="461.24256442762015" y2="690.828158259123"/><g class="node" transform="translate(250.43815562043648, 463.2781709768995)"><circle r="20" style="fill: rgb(69, 114, 24);"/><text dy=".15em">/</text></g><g class="node" transform="translate(322.5733669301903, 399.6201278556621)"><circle r="17.5" style="fill: rgb(97, 160, 34);"/><text dy=".15em">https/</text></g><g class="node" transform="translate(402.3750483335059, 338.9464486151037)"><circle r="15" style="fill: rgb(122, 202, 43);"/><text dy=".15em">bgoonz-blog.netlify.app/</text></g><g class="node" transform="translate(398.15314341817225, 244.0970804177153)"><circle r="12.5" style="fill: rgb(226, 126, 126);"/><text dy=".15em"/></g><g class="node" transform="translate(307.60447364198865, 319.9607703993328)"><circle r="12.5" style="fill: rgb(226, 126, 126);"/><text dy=".15em"/></g><g class="node" transform="translate(532.1814788001375, 360.5566021870731)"><circle r="12.5" style="fill: rgb(226, 126, 126);"/><text dy=".15em"/></g><g class="node" transform="translate(343.49712738606956, 414.4879977090606)"><circle r="12.5" style="fill: rgb(226, 126, 126);"/><text dy=".15em"/></g><g class="node" transform="translate(499.39806804464814, 260.6285632268802)"><circle r="12.5" style="fill: rgb(151, 219, 82);"/><text dy=".15em"/></g><g class="node" transform="translate(344.33171442350425, 261.6624266699716)"><circle r="12.5" style="fill: rgb(226, 126, 126);"/><text dy=".15em"/></g><g class="node" transform="translate(306.4188422353978, 337.97895501251975)"><circle r="12.5" style="fill: rgb(226, 126, 126);"/><text dy=".15em"/></g><g class="node" transform="translate(370.0304521440813, 428.71349683416344)"><circle r="12.5" style="fill: rgb(226, 126, 126);"/><text dy=".15em"/></g><g class="node" transform="translate(304.89353102885553, 376.12187451276014)"><circle r="12.5" style="fill: rgb(151, 219, 82);"/><text dy=".15em"/></g><g class="node" transform="translate(330.97962389391864, 273.49576182176327)"><circle r="12.5" style="fill: rgb(151, 219, 82);"/><text dy=".15em"/></g><g class="node" transform="translate(501.1472532119039, 308.5119970159503)"><circle r="12.5" style="fill: rgb(151, 219, 82);"/><text dy=".15em"/></g><g class="node" transform="translate(312.7493374466391, 302.29812537950465)"><circle r="12.5" style="fill: rgb(226, 126, 126);"/><text dy=".15em"/></g><g class="node" transform="translate(362.78957892551955, 251.2683401804536)"><circle r="12.5" style="fill: rgb(151, 219, 82);"/><text dy=".15em"/></g><g class="node" transform="translate(301.14765831846154, 353.40490231465736)"><circle r="12.5" style="fill: rgb(151, 219, 82);"/><text dy=".15em"/></g><g class="node" transform="translate(626.650068335974, 350.4787054061557)"><circle r="10" style="fill: rgb(176, 228, 125);"/><text dy=".15em"/></g><g class="node" transform="translate(557.605366993607, 467.38398419799336)"><circle r="10" style="fill: rgb(176, 228, 125);"/><text dy=".15em"/></g><g class="node" transform="translate(482.8670594630777, 209.25498959918696)"><circle r="10" style="fill: rgb(176, 228, 125);"/><text dy=".15em"/></g><g class="node" transform="translate(659.0628149101028, 380.78183176552136)"><circle r="10" style="fill: rgb(176, 228, 125);"/><text dy=".15em"/></g><g class="node" transform="translate(497.0516967488713, 481.7690106261401)"><circle r="10" style="fill: rgb(176, 228, 125);"/><text dy=".15em"/></g><g class="node" transform="translate(641.7845395440816, 314.88706022190877)"><circle r="10" style="fill: rgb(176, 228, 125);"/><text dy=".15em"/></g><g class="node" transform="translate(595.5981564020869, 437.64878226387015)"><circle r="10" style="fill: rgb(176, 228, 125);"/><text dy=".15em"/></g><g class="node" transform="translate(463.2816866367094, 436.2072472846772)"><circle r="10" style="fill: rgb(176, 228, 125);"/><text dy=".15em"/></g><g class="node" transform="translate(620.3194496985956, 395.9386248325973)"><circle r="10" style="fill: rgb(176, 228, 125);"/><text dy=".15em"/></g><g class="node" transform="translate(456.28243026090587, 344.640784290017)"><circle r="10" style="fill: rgb(176, 228, 125);"/><text dy=".15em"/></g><g class="node" transform="translate(522.2319388488359, 168.2757359516122)"><circle r="10" style="fill: rgb(176, 228, 125);"/><text dy=".15em"/></g><g class="node" transform="translate(595.6632265556626, 258.64107188568687)"><circle r="10" style="fill: rgb(176, 228, 125);"/><text dy=".15em"/></g><g class="node" transform="translate(411.60627999388277, 294.7080328270149)"><circle r="10" style="fill: rgb(176, 228, 125);"/><text dy=".15em"/></g><g class="node" transform="translate(585.4863005151432, 300.29398621010705)"><circle r="10" style="fill: rgb(176, 228, 125);"/><text dy=".15em"/></g><g class="node" transform="translate(420.1627420687991, 207.99145281689684)"><circle r="10" style="fill: rgb(176, 228, 125);"/><text dy=".15em"/></g><g class="node" transform="translate(599.2931858344447, 198.7978811106857)"><circle r="10" style="fill: rgb(176, 228, 125);"/><text dy=".15em"/></g><g class="node" transform="translate(204.8804682284865, 392.6989097802582)"><circle r="10" style="fill: rgb(176, 228, 125);"/><text dy=".15em"/></g><g class="node" transform="translate(563.253215898853, 387.05192339277164)"><circle r="10" style="fill: rgb(176, 228, 125);"/><text dy=".15em"/></g><g class="node" transform="translate(467.10780880756073, 396.9019010100497)"><circle r="10" style="fill: rgb(233, 155, 155);"/><text dy=".15em"/></g><g class="node" transform="translate(211.5896442488182, 315.94929731681856)"><circle r="10" style="fill: rgb(233, 155, 155);"/><text dy=".15em"/></g><g class="node" transform="translate(572.9173038761257, 562.7479448617717)"><circle r="7.5" style="fill: rgb(204, 238, 171);"/><text dy=".15em"/></g><g class="node" transform="translate(629.0111100157524, 532.9880732025161)"><circle r="7.5" style="fill: rgb(239, 185, 185);"/><text dy=".15em"/></g><g class="node" transform="translate(607.0954134240739, 550.9195090504697)"><circle r="7.5" style="fill: rgb(204, 238, 171);"/><text dy=".15em"/></g><g class="node" transform="translate(644.8249745566558, 508.4211135733173)"><circle r="7.5" style="fill: rgb(204, 238, 171);"/><text dy=".15em"/></g><g class="node" transform="translate(390.33527336956445, 180.3122448316643)"><circle r="7.5" style="fill: rgb(204, 238, 171);"/><text dy=".15em"/></g><g class="node" transform="translate(437.91535689139334, 122.79811129095425)"><circle r="7.5" style="fill: rgb(204, 238, 171);"/><text dy=".15em"/></g><g class="node" transform="translate(506.2706441564294, 114.68555423932467)"><circle r="7.5" style="fill: rgb(204, 238, 171);"/><text dy=".15em"/></g><g class="node" transform="translate(410.2495327066211, 144.51864769219864)"><circle r="7.5" style="fill: rgb(204, 238, 171);"/><text dy=".15em"/></g><g class="node" transform="translate(470.94189653108674, 112.56484351878318)"><circle r="7.5" style="fill: rgb(204, 238, 171);"/><text dy=".15em"/></g><g class="node" transform="translate(544.0632915698658, 133.8848368431884)"><circle r="7.5" style="fill: rgb(204, 238, 171);"/><text dy=".15em"/></g><g class="node" transform="translate(423.31075757304785, 132.2129694689651)"><circle r="7.5" style="fill: rgb(204, 238, 171);"/><text dy=".15em"/></g><g class="node" transform="translate(488.1528170344644, 111.95146308702259)"><circle r="7.5" style="fill: rgb(204, 238, 171);"/><text dy=".15em"/></g><g class="node" transform="translate(399.08853217015064, 159.9670247170923)"><circle r="7.5" style="fill: rgb(239, 185, 185);"/><text dy=".15em"/></g><g class="node" transform="translate(453.9313193891845, 116.1432823094458)"><circle r="7.5" style="fill: rgb(204, 238, 171);"/><text dy=".15em"/></g><g class="node" transform="translate(524.6811876722004, 121.34145566751344)"><circle r="7.5" style="fill: rgb(204, 238, 171);"/><text dy=".15em"/></g><g class="node" transform="translate(743.6453136878883, 427.66947556425515)"><circle r="7.5" style="fill: rgb(239, 185, 185);"/><text dy=".15em"/></g><g class="node" transform="translate(751.1474342202663, 351.9634408125842)"><circle r="7.5" style="fill: rgb(204, 238, 171);"/><text dy=".15em"/></g><g class="node" transform="translate(753.1437024488309, 403.2462518976408)"><circle r="7.5" style="fill: rgb(204, 238, 171);"/><text dy=".15em"/></g><g class="node" transform="translate(726.1030418936195, 450.28692447060394)"><circle r="7.5" style="fill: rgb(204, 238, 171);"/><text dy=".15em"/></g><g class="node" transform="translate(755.728837601052, 377.9552602809911)"><circle r="7.5" style="fill: rgb(204, 238, 171);"/><text dy=".15em"/></g><g class="node" transform="translate(471.5535920067432, 596.3826256613612)"><circle r="7.5" style="fill: rgb(204, 238, 171);"/><text dy=".15em"/></g><g class="node" transform="translate(423.93282138031714, 543.2525276098871)"><circle r="7.5" style="fill: rgb(204, 238, 171);"/><text dy=".15em"/></g><g class="node" transform="translate(515.2122612481664, 575.3614756156892)"><circle r="7.5" style="fill: rgb(204, 238, 171);"/><text dy=".15em"/></g><g class="node" transform="translate(451.11606259218803, 565.035079554886)"><circle r="7.5" style="fill: rgb(204, 238, 171);"/><text dy=".15em"/></g><g class="node" transform="translate(723.2848793291054, 262.75907972286063)"><circle r="7.5" style="fill: rgb(204, 238, 171);"/><text dy=".15em"/></g><g class="node" transform="translate(738.1595163525158, 311.4367836698659)"><circle r="7.5" style="fill: rgb(239, 185, 185);"/><text dy=".15em"/></g><g class="node" transform="translate(705.3407366676352, 242.38923226895164)"><circle r="7.5" style="fill: rgb(204, 238, 171);"/><text dy=".15em"/></g><g class="node" transform="translate(733.9275672348894, 285.28770235054856)"><circle r="7.5" style="fill: rgb(204, 238, 171);"/><text dy=".15em"/></g><g class="node" transform="translate(677.4444908032402, 490.1760349515653)"><circle r="7.5" style="fill: rgb(204, 238, 171);"/><text dy=".15em"/></g><g class="node" transform="translate(581.8424955885793, 531.8221313406673)"><circle r="7.5" style="fill: rgb(204, 238, 171);"/><text dy=".15em"/></g><g class="node" transform="translate(399.358201592648, 507.726301508298)"><circle r="7.5" style="fill: rgb(239, 185, 185);"/><text dy=".15em"/></g><g class="node" transform="translate(379.4064459731577, 483.3912388325054)"><circle r="7.5" style="fill: rgb(204, 238, 171);"/><text dy=".15em"/></g><g class="node" transform="translate(654.1205552358472, 117.99716412454656)"><circle r="7.5" style="fill: rgb(239, 185, 185);"/><text dy=".15em"/></g><g class="node" transform="translate(163.80453422091063, 477.8726310322411)"><circle r="7.5" style="fill: rgb(239, 185, 185);"/><text dy=".15em"/></g><g class="node" transform="translate(111.92279298698301, 407.9014363086919)"><circle r="7.5" style="fill: rgb(239, 185, 185);"/><text dy=".15em"/></g><g class="node" transform="translate(598.8343457160154, 131.07456907293135)"><circle r="7.5" style="fill: rgb(239, 185, 185);"/><text dy=".15em"/></g><g class="node" transform="translate(628.7489842709506, 153.81444841398368)"><circle r="7.5" style="fill: rgb(239, 185, 185);"/><text dy=".15em"/></g><g class="node" transform="translate(595.765367879528, 476.9365348710079)"><circle r="7.5" style="fill: rgb(239, 185, 185);"/><text dy=".15em"/></g><g class="node" transform="translate(646.9045031708356, 434.54447358546133)"><circle r="7.5" style="fill: rgb(204, 238, 171);"/><text dy=".15em"/></g><g class="node" transform="translate(419.9139939117107, 676.3116869916028)"><circle r="5" style="fill: rgb(230, 247, 213);"/><text dy=".15em"/></g><g class="node" transform="translate(377.58351003460103, 614.0876034205633)"><circle r="5" style="fill: rgb(230, 247, 213);"/><text dy=".15em"/></g><g class="node" transform="translate(506.2633208877535, 684.9605474594284)"><circle r="5" style="fill: rgb(230, 247, 213);"/><text dy=".15em"/></g><g class="node" transform="translate(391.59133645524304, 648.503965776868)"><circle r="5" style="fill: rgb(230, 247, 213);"/><text dy=".15em"/></g><g class="node" transform="translate(541.8652453341895, 660.8522801410353)"><circle r="5" style="fill: rgb(230, 247, 213);"/><text dy=".15em"/></g><g class="node" transform="translate(461.24256442762015, 690.828158259123)"><circle r="5" style="fill: rgb(230, 247, 213);"/><text dy=".15em"/></g><g class="node" transform="translate(679.0510710747697, 142.87418002216017)"><circle r="7.5" style="fill: rgb(239, 185, 185);"/><text dy=".15em"/></g><g class="node" transform="translate(320.47091046522945, 287.1502512876199)"><circle r="12.5" style="fill: rgb(226, 126, 126);"/><text dy=".15em"/></g><g class="node" transform="translate(557.3506638900773, 184.25188437814566)"><circle r="10" style="fill: rgb(176, 228, 125);"/><text dy=".15em"/></g><g class="node" transform="translate(557.662744392033, 219.79354931966475)"><circle r="10" style="fill: rgb(176, 228, 125);"/><text dy=".15em"/></g><g class="node" transform="translate(575.526580649864, 249.84175378083532)"><circle r="10" style="fill: rgb(233, 155, 155);"/><text dy=".15em"/></g><g class="node" transform="translate(692.6472671953416, 172.67981187846829)"><circle r="7.5" style="fill: rgb(239, 185, 185);"/><text dy=".15em"/></g></g>
  </svg>