<svg xmlns="http://www.w3.org/2000/svg" class="svg" width="1008" height="671" style="display: block;">
<defs><style type="text/css"><![CDATA[
:root { overflow: hidden; }
.svg { background-color: rgb(255, 255, 255); }
.node circle { cursor: pointer; stroke: rgb(255, 255, 255); stroke-width: 1.5px; }
.node text { font-size: 10px; font-family: Arial; pointer-events: none; text-anchor: middle; font-weight: normal; font-style: normal; fill: rgb(0, 0, 0); }
line { fill: none; stroke: rgb(128, 128, 128); stroke-width: 0.5px; }]]></style></defs>
    <g><line class="link" x1="600.2451263461041" y1="381.2618304825957" x2="583.4538418244863" y2="439.8915919537796"/><line class="link" x1="600.2451263461041" y1="381.2618304825957" x2="632.531905046523" y2="329.00992595146755"/><line class="link" x1="600.2451263461041" y1="381.2618304825957" x2="626.3272207633048" y2="467.0031812306162"/><line class="link" x1="600.2451263461041" y1="381.2618304825957" x2="520.5680753012634" y2="340.4019057444924"/><line class="link" x1="600.2451263461041" y1="381.2618304825957" x2="664.4099187247447" y2="359.63025805013916"/><line class="link" x1="600.2451263461041" y1="381.2618304825957" x2="654.5764010260115" y2="409.84807480361286"/><line class="link" x1="600.2451263461041" y1="381.2618304825957" x2="612.223071271017" y2="321.0209879670773"/><line class="link" x1="600.2451263461041" y1="381.2618304825957" x2="661.5506328112651" y2="377.43376609996994"/><line class="link" x1="600.2451263461041" y1="381.2618304825957" x2="607.3599011543686" y2="441.594861667238"/><line class="link" x1="600.2451263461041" y1="381.2618304825957" x2="653.526297120675" y2="350.19617645279686"/><line class="link" x1="600.2451263461041" y1="381.2618304825957" x2="558.6382531563437" y2="439.4895534402495"/><line class="link" x1="600.2451263461041" y1="381.2618304825957" x2="591.621236226087" y2="320.76019191264726"/><line class="link" x1="600.2451263461041" y1="381.2618304825957" x2="633.2683883291141" y2="310.21541487021943"/><line class="link" x1="600.2451263461041" y1="381.2618304825957" x2="639.1169166982797" y2="428.25370415802786"/><line class="link" x1="600.2451263461041" y1="381.2618304825957" x2="645.1964627477671" y2="338.6951880145148"/><line class="link" x1="600.2451263461041" y1="381.2618304825957" x2="665.8572408109991" y2="392.1665668899768"/><line class="link" x1="600.2451263461041" y1="381.2618304825957" x2="551.1249751688953" y2="417.2801962032229"/><line class="link" x1="626.3272207633048" y1="467.0031812306162" x2="678.5556127990328" y2="499.8560984372363"/><line class="link" x1="626.3272207633048" y1="467.0031812306162" x2="611.3425583229771" y2="536.4068301241914"/><line class="link" x1="626.3272207633048" y1="467.0031812306162" x2="687.5286130101085" y2="458.3128260431375"/><line class="link" x1="626.3272207633048" y1="467.0031812306162" x2="663.5076582638391" y2="516.0076967127291"/><line class="link" x1="626.3272207633048" y1="467.0031812306162" x2="587.1451289472451" y2="514.2478288558967"/><line class="link" x1="626.3272207633048" y1="467.0031812306162" x2="686.6680966263192" y2="480.3272093365307"/><line class="link" x1="626.3272207633048" y1="467.0031812306162" x2="641.3729608856877" y2="526.3824735304448"/><line class="link" x1="520.5680753012634" y1="340.4019057444924" x2="438.89522761074136" y2="297.7563366523388"/><line class="link" x1="664.4099187247447" y1="359.63025805013916" x2="718.7129515785274" y2="327.8171262988609"/><line class="link" x1="558.6382531563437" y1="439.4895534402495" x2="515.0511548492427" y2="496.3132326310103"/><line class="link" x1="633.2683883291141" y1="310.21541487021943" x2="664.1949928666043" y2="242.003424063933"/><line class="link" x1="665.8572408109991" y1="392.1665668899768" x2="727.762533908351" y2="382.80155311477364"/><line class="link" x1="611.3425583229771" y1="536.4068301241914" x2="567.1711093646126" y2="579.1829450664358"/><line class="link" x1="611.3425583229771" y1="536.4068301241914" x2="638.5171538674153" y2="591.0590545845488"/><line class="link" x1="611.3425583229771" y1="536.4068301241914" x2="596.2060274972662" y2="595.749108608261"/><line class="link" x1="438.89522761074136" y1="297.7563366523388" x2="389.6205432560808" y2="256.34942054965506"/><line class="link" x1="438.89522761074136" y1="297.7563366523388" x2="490.6828793211568" y2="261.6745635609022"/><line class="link" x1="438.89522761074136" y1="297.7563366523388" x2="384.8043243646267" y2="332.27389472931236"/><line class="link" x1="438.89522761074136" y1="297.7563366523388" x2="506.97164609030807" y2="291.3294402191135"/><line class="link" x1="438.89522761074136" y1="297.7563366523388" x2="455.99940955029956" y2="358.279747510195"/><line class="link" x1="438.89522761074136" y1="297.7563366523388" x2="375.91488481211644" y2="285.6225984103365"/><line class="link" x1="438.89522761074136" y1="297.7563366523388" x2="468.53803294122866" y2="241.24997985691664"/><line class="link" x1="438.89522761074136" y1="297.7563366523388" x2="408.79002091536415" y2="354.19541607389607"/><line class="link" x1="438.89522761074136" y1="297.7563366523388" x2="402.15824641667126" y2="245.06385345113122"/><line class="link" x1="438.89522761074136" y1="297.7563366523388" x2="498.25462767642415" y2="314.6054654196094"/><line class="link" x1="438.89522761074136" y1="297.7563366523388" x2="377.8989701578274" y2="317.59827355555547"/><line class="link" x1="438.89522761074136" y1="297.7563366523388" x2="442.9417776845878" y2="233.83001535031562"/><line class="link" x1="438.89522761074136" y1="297.7563366523388" x2="425.8184832446151" y2="360.01227338556265"/><line class="link" x1="438.89522761074136" y1="297.7563366523388" x2="380.6430006073984" y2="270.3248093961027"/><line class="link" x1="438.89522761074136" y1="297.7563366523388" x2="476.7072964443311" y2="246.59239231413432"/><line class="link" x1="438.89522761074136" y1="297.7563366523388" x2="394.74317274074116" y2="344.38583275562183"/><line class="link" x1="438.89522761074136" y1="297.7563366523388" x2="417.2633817559141" y2="237.2038974531246"/><line class="link" x1="438.89522761074136" y1="297.7563366523388" x2="477.61004715918403" y2="346.5816581429825"/><line class="link" x1="438.89522761074136" y1="297.7563366523388" x2="374.87034177600236" y2="301.49403407677704"/><line class="link" x1="438.89522761074136" y1="297.7563366523388" x2="451.5558631370595" y2="234.93326609164046"/><line class="link" x1="438.89522761074136" y1="297.7563366523388" x2="416.9359380227687" y2="357.6823511783604"/><line class="link" x1="438.89522761074136" y1="297.7563366523388" x2="395.5123263533829" y2="250.36252239105897"/><line class="link" x1="438.89522761074136" y1="297.7563366523388" x2="496.0604585888417" y2="271.84455647313825"/><line class="link" x1="438.89522761074136" y1="297.7563366523388" x2="380.8170964722512" y2="325.4946799359249"/><line class="link" x1="438.89522761074136" y1="297.7563366523388" x2="434.0648954829483" y2="233.79546328081585"/><line class="link" x1="438.89522761074136" y1="297.7563366523388" x2="466.8786810770877" y2="353.7302863174701"/><line class="link" x1="438.89522761074136" y1="297.7563366523388" x2="377.8058463167175" y2="277.8514154669641"/><line class="link" x1="438.89522761074136" y1="297.7563366523388" x2="484.08893268184113" y2="253.3160345652"/><line class="link" x1="438.89522761074136" y1="297.7563366523388" x2="401.41314828437424" y2="349.6333452057104"/><line class="link" x1="438.89522761074136" y1="297.7563366523388" x2="409.51218784834765" y2="240.61496744019064"/><line class="link" x1="438.89522761074136" y1="297.7563366523388" x2="488.9512423282736" y2="333.94785549510937"/><line class="link" x1="438.89522761074136" y1="297.7563366523388" x2="375.6480386814511" y2="309.8057968685371"/><line class="link" x1="438.89522761074136" y1="297.7563366523388" x2="460.08543155460137" y2="237.45010639856164"/><line class="link" x1="438.89522761074136" y1="297.7563366523388" x2="435.37906652552056" y2="361.07274290580347"/><line class="link" x1="438.89522761074136" y1="297.7563366523388" x2="384.6994364910352" y2="263.0572413109819"/><line class="link" x1="438.89522761074136" y1="297.7563366523388" x2="499.0166550390677" y2="283.6375593398608"/><line class="link" x1="438.89522761074136" y1="297.7563366523388" x2="389.58974735103857" y2="338.76672769849176"/><line class="link" x1="438.89522761074136" y1="297.7563366523388" x2="425.5149280920563" y2="235.0029880692074"/><line class="link" x1="438.89522761074136" y1="297.7563366523388" x2="445.4897011437862" y2="360.5767801134033"/><line class="link" x1="438.89522761074136" y1="297.7563366523388" x2="374.60656107195905" y2="293.3774658897757"/><line class="link" x1="515.0511548492427" y1="496.3132326310103" x2="487.3877992113348" y2="551.5181738745936"/><line class="link" x1="515.0511548492427" y1="496.3132326310103" x2="464.87558107836776" y2="532.6097606756656"/><line class="link" x1="664.1949928666043" y1="242.003424063933" x2="672.2800544026771" y2="180.80682922251893"/><line class="link" x1="664.1949928666043" y1="242.003424063933" x2="717.7970025746939" y2="212.31458434250357"/><line class="link" x1="664.1949928666043" y1="242.003424063933" x2="646.5880480999958" y2="182.8429602830773"/><line class="link" x1="664.1949928666043" y1="242.003424063933" x2="695.8320943284313" y2="189.23675951602934"/><line class="link" x1="506.97164609030807" y1="291.3294402191135" x2="556.3676409745829" y2="251.24081590995803"/><g class="node" transform="translate(600.2451263461041, 381.2618304825957)"><circle r="20" style="fill: rgb(69, 114, 24);"/><text dy=".15em">bgoonz-blog.netlify.app</text></g><g class="node" transform="translate(583.4538418244863, 439.8915919537796)"><circle r="16.25" style="fill: rgb(217, 84, 84);"/><text dy=".15em">blogWcomments</text></g><g class="node" transform="translate(632.531905046523, 329.00992595146755)"><circle r="16.25" style="fill: rgb(217, 84, 84);"/><text dy=".15em">neural%20networks</text></g><g class="node" transform="translate(626.3272207633048, 467.0031812306162)"><circle r="16.25" style="fill: rgb(110, 181, 38);"/><text dy=".15em">blog</text></g><g class="node" transform="translate(520.5680753012634, 340.4019057444924)"><circle r="16.25" style="fill: rgb(217, 84, 84);"/><text dy=".15em">tools</text></g><g class="node" transform="translate(661.5506328112651, 377.43376609996994)"><circle r="16.25" style="fill: rgb(217, 84, 84);"/><text dy=".15em">lambda-demo1.gif</text></g><g class="node" transform="translate(607.3599011543686, 441.594861667238)"><circle r="16.25" style="fill: rgb(217, 84, 84);"/><text dy=".15em">ds-algo-overview</text></g><g class="node" transform="translate(558.6382531563437, 439.4895534402495)"><circle r="16.25" style="fill: rgb(217, 84, 84);"/><text dy=".15em">showcase</text></g><g class="node" transform="translate(591.621236226087, 320.76019191264726)"><circle r="16.25" style="fill: rgb(217, 84, 84);"/><text dy=".15em">mailto:bryan.guner@gmail.com</text></g><g class="node" transform="translate(639.1169166982797, 428.25370415802786)"><circle r="16.25" style="fill: rgb(217, 84, 84);"/><text dy=".15em">nodejs</text></g><g class="node" transform="translate(551.1249751688953, 417.2801962032229)"><circle r="16.25" style="fill: rgb(217, 84, 84);"/><text dy=".15em">jamstack</text></g><g class="node" transform="translate(678.5556127990328, 499.8560984372363)"><circle r="12.5" style="fill: rgb(151, 219, 82);"/><text dy=".15em"/></g><g class="node" transform="translate(611.3425583229771, 536.4068301241914)"><circle r="12.5" style="fill: rgb(151, 219, 82);"/><text dy=".15em"/></g><g class="node" transform="translate(687.5286130101085, 458.3128260431375)"><circle r="12.5" style="fill: rgb(151, 219, 82);"/><text dy=".15em"/></g><g class="node" transform="translate(663.5076582638391, 516.0076967127291)"><circle r="12.5" style="fill: rgb(151, 219, 82);"/><text dy=".15em"/></g><g class="node" transform="translate(587.1451289472451, 514.2478288558967)"><circle r="12.5" style="fill: rgb(151, 219, 82);"/><text dy=".15em"/></g><g class="node" transform="translate(686.6680966263192, 480.3272093365307)"><circle r="12.5" style="fill: rgb(151, 219, 82);"/><text dy=".15em"/></g><g class="node" transform="translate(641.3729608856877, 526.3824735304448)"><circle r="12.5" style="fill: rgb(151, 219, 82);"/><text dy=".15em"/></g><g class="node" transform="translate(438.89522761074136, 297.7563366523388)"><circle r="12.5" style="fill: rgb(151, 219, 82);"/><text dy=".15em"/></g><g class="node" transform="translate(718.7129515785274, 327.8171262988609)"><circle r="12.5" style="fill: rgb(151, 219, 82);"/><text dy=".15em"/></g><g class="node" transform="translate(515.0511548492427, 496.3132326310103)"><circle r="12.5" style="fill: rgb(151, 219, 82);"/><text dy=".15em"/></g><g class="node" transform="translate(664.1949928666043, 242.003424063933)"><circle r="12.5" style="fill: rgb(151, 219, 82);"/><text dy=".15em"/></g><g class="node" transform="translate(727.762533908351, 382.80155311477364)"><circle r="12.5" style="fill: rgb(151, 219, 82);"/><text dy=".15em"/></g><g class="node" transform="translate(567.1711093646126, 579.1829450664358)"><circle r="8.75" style="fill: rgb(237, 172, 172);"/><text dy=".15em"/></g><g class="node" transform="translate(638.5171538674153, 591.0590545845488)"><circle r="8.75" style="fill: rgb(237, 172, 172);"/><text dy=".15em"/></g><g class="node" transform="translate(596.2060274972662, 595.749108608261)"><circle r="8.75" style="fill: rgb(237, 172, 172);"/><text dy=".15em"/></g><g class="node" transform="translate(389.6205432560808, 256.34942054965506)"><circle r="8.75" style="fill: rgb(189, 232, 146);"/><text dy=".15em"/></g><g class="node" transform="translate(490.6828793211568, 261.6745635609022)"><circle r="8.75" style="fill: rgb(189, 232, 146);"/><text dy=".15em"/></g><g class="node" transform="translate(384.8043243646267, 332.27389472931236)"><circle r="8.75" style="fill: rgb(189, 232, 146);"/><text dy=".15em"/></g><g class="node" transform="translate(506.97164609030807, 291.3294402191135)"><circle r="8.75" style="fill: rgb(237, 172, 172);"/><text dy=".15em"/></g><g class="node" transform="translate(455.99940955029956, 358.279747510195)"><circle r="8.75" style="fill: rgb(189, 232, 146);"/><text dy=".15em"/></g><g class="node" transform="translate(375.91488481211644, 285.6225984103365)"><circle r="8.75" style="fill: rgb(189, 232, 146);"/><text dy=".15em"/></g><g class="node" transform="translate(468.53803294122866, 241.24997985691664)"><circle r="8.75" style="fill: rgb(189, 232, 146);"/><text dy=".15em"/></g><g class="node" transform="translate(408.79002091536415, 354.19541607389607)"><circle r="8.75" style="fill: rgb(189, 232, 146);"/><text dy=".15em"/></g><g class="node" transform="translate(402.15824641667126, 245.06385345113122)"><circle r="8.75" style="fill: rgb(189, 232, 146);"/><text dy=".15em"/></g><g class="node" transform="translate(498.25462767642415, 314.6054654196094)"><circle r="8.75" style="fill: rgb(189, 232, 146);"/><text dy=".15em"/></g><g class="node" transform="translate(377.8989701578274, 317.59827355555547)"><circle r="8.75" style="fill: rgb(189, 232, 146);"/><text dy=".15em"/></g><g class="node" transform="translate(442.9417776845878, 233.83001535031562)"><circle r="8.75" style="fill: rgb(189, 232, 146);"/><text dy=".15em"/></g><g class="node" transform="translate(425.8184832446151, 360.01227338556265)"><circle r="8.75" style="fill: rgb(189, 232, 146);"/><text dy=".15em"/></g><g class="node" transform="translate(380.6430006073984, 270.3248093961027)"><circle r="8.75" style="fill: rgb(189, 232, 146);"/><text dy=".15em"/></g><g class="node" transform="translate(476.7072964443311, 246.59239231413432)"><circle r="8.75" style="fill: rgb(189, 232, 146);"/><text dy=".15em"/></g><g class="node" transform="translate(394.74317274074116, 344.38583275562183)"><circle r="8.75" style="fill: rgb(189, 232, 146);"/><text dy=".15em"/></g><g class="node" transform="translate(417.2633817559141, 237.2038974531246)"><circle r="8.75" style="fill: rgb(189, 232, 146);"/><text dy=".15em"/></g><g class="node" transform="translate(477.61004715918403, 346.5816581429825)"><circle r="8.75" style="fill: rgb(189, 232, 146);"/><text dy=".15em"/></g><g class="node" transform="translate(374.87034177600236, 301.49403407677704)"><circle r="8.75" style="fill: rgb(189, 232, 146);"/><text dy=".15em"/></g><g class="node" transform="translate(451.5558631370595, 234.93326609164046)"><circle r="8.75" style="fill: rgb(189, 232, 146);"/><text dy=".15em"/></g><g class="node" transform="translate(416.9359380227687, 357.6823511783604)"><circle r="8.75" style="fill: rgb(189, 232, 146);"/><text dy=".15em"/></g><g class="node" transform="translate(395.5123263533829, 250.36252239105897)"><circle r="8.75" style="fill: rgb(189, 232, 146);"/><text dy=".15em"/></g><g class="node" transform="translate(496.0604585888417, 271.84455647313825)"><circle r="8.75" style="fill: rgb(189, 232, 146);"/><text dy=".15em"/></g><g class="node" transform="translate(380.8170964722512, 325.4946799359249)"><circle r="8.75" style="fill: rgb(189, 232, 146);"/><text dy=".15em"/></g><g class="node" transform="translate(434.0648954829483, 233.79546328081585)"><circle r="8.75" style="fill: rgb(237, 172, 172);"/><text dy=".15em"/></g><g class="node" transform="translate(466.8786810770877, 353.7302863174701)"><circle r="8.75" style="fill: rgb(189, 232, 146);"/><text dy=".15em"/></g><g class="node" transform="translate(377.8058463167175, 277.8514154669641)"><circle r="8.75" style="fill: rgb(189, 232, 146);"/><text dy=".15em"/></g><g class="node" transform="translate(484.08893268184113, 253.3160345652)"><circle r="8.75" style="fill: rgb(189, 232, 146);"/><text dy=".15em"/></g><g class="node" transform="translate(401.41314828437424, 349.6333452057104)"><circle r="8.75" style="fill: rgb(189, 232, 146);"/><text dy=".15em"/></g><g class="node" transform="translate(409.51218784834765, 240.61496744019064)"><circle r="8.75" style="fill: rgb(189, 232, 146);"/><text dy=".15em"/></g><g class="node" transform="translate(488.9512423282736, 333.94785549510937)"><circle r="8.75" style="fill: rgb(189, 232, 146);"/><text dy=".15em"/></g><g class="node" transform="translate(375.6480386814511, 309.8057968685371)"><circle r="8.75" style="fill: rgb(189, 232, 146);"/><text dy=".15em"/></g><g class="node" transform="translate(460.08543155460137, 237.45010639856164)"><circle r="8.75" style="fill: rgb(189, 232, 146);"/><text dy=".15em"/></g><g class="node" transform="translate(435.37906652552056, 361.07274290580347)"><circle r="8.75" style="fill: rgb(189, 232, 146);"/><text dy=".15em"/></g><g class="node" transform="translate(384.6994364910352, 263.0572413109819)"><circle r="8.75" style="fill: rgb(189, 232, 146);"/><text dy=".15em"/></g><g class="node" transform="translate(499.0166550390677, 283.6375593398608)"><circle r="8.75" style="fill: rgb(189, 232, 146);"/><text dy=".15em"/></g><g class="node" transform="translate(389.58974735103857, 338.76672769849176)"><circle r="8.75" style="fill: rgb(189, 232, 146);"/><text dy=".15em"/></g><g class="node" transform="translate(425.5149280920563, 235.0029880692074)"><circle r="8.75" style="fill: rgb(189, 232, 146);"/><text dy=".15em"/></g><g class="node" transform="translate(445.4897011437862, 360.5767801134033)"><circle r="8.75" style="fill: rgb(189, 232, 146);"/><text dy=".15em"/></g><g class="node" transform="translate(374.60656107195905, 293.3774658897757)"><circle r="8.75" style="fill: rgb(189, 232, 146);"/><text dy=".15em"/></g><g class="node" transform="translate(487.3877992113348, 551.5181738745936)"><circle r="8.75" style="fill: rgb(237, 172, 172);"/><text dy=".15em"/></g><g class="node" transform="translate(464.87558107836776, 532.6097606756656)"><circle r="8.75" style="fill: rgb(237, 172, 172);"/><text dy=".15em"/></g><g class="node" transform="translate(672.2800544026771, 180.80682922251893)"><circle r="8.75" style="fill: rgb(237, 172, 172);"/><text dy=".15em"/></g><g class="node" transform="translate(646.5880480999958, 182.8429602830773)"><circle r="8.75" style="fill: rgb(189, 232, 146);"/><text dy=".15em"/></g><g class="node" transform="translate(695.8320943284313, 189.23675951602934)"><circle r="8.75" style="fill: rgb(237, 172, 172);"/><text dy=".15em"/></g><g class="node" transform="translate(556.3676409745829, 251.24081590995803)"><circle r="5" style="fill: rgb(230, 247, 213);"/><text dy=".15em"/></g><g class="node" transform="translate(717.7970025746939, 212.31458434250357)"><circle r="8.75" style="fill: rgb(237, 172, 172);"/><text dy=".15em"/></g><g class="node" transform="translate(612.223071271017, 321.0209879670773)"><circle r="16.25" style="fill: rgb(217, 84, 84);"/><text dy=".15em">gallery</text></g><g class="node" transform="translate(633.2683883291141, 310.21541487021943)"><circle r="16.25" style="fill: rgb(217, 84, 84);"/><text dy=".15em">sitemap</text></g><g class="node" transform="translate(645.1964627477671, 338.6951880145148)"><circle r="16.25" style="fill: rgb(217, 84, 84);"/><text dy=".15em">neural.PNG</text></g><g class="node" transform="translate(653.526297120675, 350.19617645279686)"><circle r="16.25" style="fill: rgb(110, 181, 38);"/><text dy=".15em">platform-docs</text></g><g class="node" transform="translate(664.4099187247447, 359.63025805013916)"><circle r="16.25" style="fill: rgb(217, 84, 84);"/><text dy=".15em">contact</text></g><g class="node" transform="translate(654.5764010260115, 409.84807480361286)"><circle r="16.25" style="fill: rgb(217, 84, 84);"/><text dy=".15em">angolia</text></g><g class="node" transform="translate(665.8572408109991, 392.1665668899768)"><circle r="16.25" style="fill: rgb(217, 84, 84);"/><text dy=".15em">docs</text></g></g>
  </svg>