<svg width="500" height="400" xmlns="http://www.w3.org/2000/svg"><g fill="none" fill-rule="evenodd"><path d="M297.221 193.242c0 36.347 29.568 65.916 65.915 65.916 36.347 0 65.917-29.569 65.917-65.916 0-36.347-29.57-65.916-65.917-65.916s-65.915 29.569-65.915 65.916zm-7.345 0c0-40.396 32.864-73.262 73.26-73.262 40.396 0 73.261 32.866 73.261 73.262s-32.865 73.261-73.261 73.261c-40.396 0-73.26-32.865-73.26-73.261zm93.76 84.299l2.112-.57a86.244 86.244 0 0020.593-8.539l1.893-1.094 18.957 11.655 21.697-21.696-11.652-18.957 1.087-1.894a86.322 86.322 0 008.542-20.589l.571-2.113 21.628-5.157V177.9l-21.628-5.158-.571-2.112a86.242 86.242 0 00-8.539-20.588l-1.09-1.895 11.652-18.959-21.697-21.698-18.957 11.659-1.893-1.094a86.286 86.286 0 00-20.593-8.542l-2.112-.57-5.157-21.629H347.79l-5.156 21.629-2.112.57a86.241 86.241 0 00-20.589 8.542l-1.894 1.094-18.957-11.659-21.697 21.698 11.655 18.959-1.094 1.895a86.26 86.26 0 00-8.539 20.588l-.569 2.112-21.63 5.158v30.687l21.63 5.157.569 2.113a86.404 86.404 0 008.539 20.589l1.091 1.894-11.652 18.957 21.697 21.696 18.957-11.655 1.894 1.094a86.322 86.322 0 0020.589 8.539l2.112.57 5.156 21.633h30.689l5.157-21.633zm-47.142 5.924a93.568 93.568 0 01-18.308-7.595l-20.194 12.419-29.902-29.894 12.419-20.203a93.47 93.47 0 01-7.596-18.308l-23.049-5.501v-42.279l23.049-5.501a93.403 93.403 0 017.596-18.309l-12.419-20.197 29.902-29.902 20.194 12.422a93.613 93.613 0 0118.308-7.599l5.501-23.049h42.286l5.494 23.049a93.673 93.673 0 0118.312 7.599l20.194-12.422 29.903 29.902-12.419 20.197a93.632 93.632 0 017.595 18.309l23.049 5.501v42.279l-23.049 5.501a93.776 93.776 0 01-7.595 18.308l12.419 20.203-29.903 29.894-20.194-12.419a93.476 93.476 0 01-18.312 7.595l-5.494 23.054h-42.286l-5.501-23.054zM60.289 116.208c0 26.13 21.257 47.387 47.387 47.387 26.131 0 47.388-21.257 47.388-47.387S133.807 68.82 107.676 68.82c-26.13 0-47.387 21.258-47.387 47.388zm-5.28 0c0-29.041 23.626-52.668 52.667-52.668s52.668 23.627 52.668 52.668-23.627 52.667-52.668 52.667-52.667-23.626-52.667-52.667zm67.404 60.603l1.519-.41a61.994 61.994 0 0014.804-6.139l1.361-.786 13.629 8.379 15.598-15.598-8.377-13.629.782-1.361a62.121 62.121 0 006.141-14.801l.41-1.519 15.549-3.708v-22.061l-15.549-3.708-.41-1.518a62.068 62.068 0 00-6.139-14.802l-.784-1.361 8.377-13.631-15.598-15.598-13.629 8.381-1.361-.786a62.064 62.064 0 00-14.804-6.141l-1.519-.41-3.707-15.549H96.644l-3.707 15.549-1.519.41a62.026 62.026 0 00-14.801 6.141l-1.362.786-13.628-8.381-15.599 15.598 8.38 13.631-.786 1.361a62.018 62.018 0 00-6.139 14.802l-.41 1.518-15.55 3.708v22.061l15.55 3.708.41 1.519a62.113 62.113 0 006.139 14.801l.783 1.361-8.377 13.629 15.599 15.598 13.628-8.379 1.362.786a62.055 62.055 0 0014.801 6.139l1.519.41 3.707 15.552h22.062l3.707-15.552zm-33.891 4.259a67.25 67.25 0 01-13.161-5.461l-14.518 8.929-21.497-21.492 8.928-14.523a67.306 67.306 0 01-5.461-13.162l-16.569-3.955v-30.394l16.569-3.955a67.204 67.204 0 015.461-13.162l-8.928-14.521 21.497-21.497 14.518 8.931a67.288 67.288 0 0113.161-5.463l3.956-16.57h30.399l3.95 16.57a67.323 67.323 0 0113.165 5.463l14.517-8.931 21.498 21.497-8.929 14.521a67.239 67.239 0 015.461 13.162l16.57 3.955v30.394l-16.57 3.955a67.366 67.366 0 01-5.461 13.162l8.929 14.523-21.498 21.492-14.517-8.929a67.235 67.235 0 01-13.165 5.461l-3.95 16.573H92.478l-3.956-16.573z" fill="#C0C7D4"/><path d="M240.949 76.506l-.459-.004a.873.873 0 01-.867-.882l.051-6.368a.876.876 0 01.883-.868l.458.004a.875.875 0 01.868.883l-.052 6.367a.875.875 0 01-.882.868" fill="#C8CDD5"/><path d="M236.692 72.641l.004-.458a.875.875 0 01.882-.868l6.368.052a.875.875 0 01.867.882l-.003.459a.875.875 0 01-.882.868l-6.368-.053a.874.874 0 01-.868-.882M426.34 46.087a3.152 3.152 0 00-3.147 3.147 3.15 3.15 0 003.147 3.146 3.15 3.15 0 003.146-3.146 3.151 3.151 0 00-3.146-3.147zm0 9.079a5.939 5.939 0 01-5.932-5.932 5.939 5.939 0 015.932-5.932 5.94 5.94 0 015.932 5.932 5.94 5.94 0 01-5.932 5.932zM465.409 63.918c-1.19 0-2.159.969-2.159 2.16 0 1.19.969 2.159 2.159 2.159 1.191 0 2.16-.969 2.16-2.159 0-1.191-.969-2.16-2.16-2.16zm0 6.23a4.075 4.075 0 01-4.07-4.07 4.076 4.076 0 014.07-4.072 4.076 4.076 0 014.071 4.072 4.075 4.075 0 01-4.071 4.07zM71.051 248.085l.258-.053a.874.874 0 00.682-1.032l-1.129-5.534a.875.875 0 00-1.032-.683l-.257.053a.876.876 0 00-.683 1.032l1.129 5.534a.875.875 0 001.032.683" fill="#C8CDD5"/><path d="M74.091 243.823l-.052-.257a.875.875 0 00-1.032-.682l-5.534 1.129a.874.874 0 00-.683 1.032l.053.257a.874.874 0 001.032.682l5.534-1.129a.873.873 0 00.682-1.032M34.957 152.228l1.191.123c.48.049.911-.3.96-.781l.934-9.033a.876.876 0 00-.78-.961l-1.191-.123a.874.874 0 00-.96.78l-.934 9.035c-.05.48.3.91.78.96" fill="#C8CDD5"/><path d="M41.435 148.054l.123-1.191a.875.875 0 00-.78-.96l-9.034-.934a.875.875 0 00-.96.781l-.123 1.19a.875.875 0 00.78.961l9.034.933a.873.873 0 00.96-.78M31.248 353.15l1.893.197c.48.049.91-.3.96-.782l1.2-11.613a.875.875 0 00-.78-.96l-1.893-.196c-.48-.05-.91.3-.96.78l-1.201 11.614c-.049.481.3.911.781.96" fill="#C8CDD5"/><path d="M39.464 348.208l.195-1.893a.875.875 0 00-.78-.961l-11.613-1.2a.875.875 0 00-.961.781l-.196 1.892c-.049.481.3.911.781.961l11.613 1.2c.481.05.911-.3.961-.78M456.428 240.798l1.892.195a.873.873 0 00.96-.78l1.201-11.613a.873.873 0 00-.78-.96l-1.892-.197a.875.875 0 00-.961.781l-1.201 11.614c-.049.48.3.91.781.96" fill="#C8CDD5"/><path d="M464.644 235.855l.196-1.892a.876.876 0 00-.781-.961l-11.614-1.2a.875.875 0 00-.96.78l-.196 1.893c-.05.48.3.911.78.96l11.615 1.201c.48.05.91-.3.96-.781M266.514 61.234a3.15 3.15 0 003.146 3.146 3.15 3.15 0 003.147-3.146 3.152 3.152 0 00-3.147-3.147 3.151 3.151 0 00-3.146 3.147zm-2.785 0a5.938 5.938 0 015.931-5.932 5.939 5.939 0 015.932 5.932 5.939 5.939 0 01-5.932 5.932 5.938 5.938 0 01-5.931-5.932zM27.425 211.113a3.15 3.15 0 003.146 3.147 3.15 3.15 0 003.146-3.147 3.15 3.15 0 00-3.146-3.146 3.15 3.15 0 00-3.146 3.146zm-2.786 0a5.938 5.938 0 015.932-5.931 5.939 5.939 0 015.932 5.931 5.939 5.939 0 01-5.932 5.932 5.938 5.938 0 01-5.932-5.932zM459.964 342.981l.636-.129a.875.875 0 00.682-1.033l-1.413-6.924a.874.874 0 00-1.032-.683l-.636.13a.875.875 0 00-.682 1.032l1.413 6.925a.874.874 0 001.032.682" fill="#C8CDD5"/><path d="M463.785 338.034l-.13-.637a.874.874 0 00-1.032-.681l-6.925 1.412a.875.875 0 00-.682 1.032l.13.636a.875.875 0 001.032.683l6.925-1.413a.874.874 0 00.682-1.032M419.53 286.56a3.15 3.15 0 003.147 3.146 3.15 3.15 0 003.146-3.146 3.15 3.15 0 00-3.146-3.147 3.15 3.15 0 00-3.147 3.147zm-2.785 0a5.939 5.939 0 015.932-5.932 5.938 5.938 0 015.931 5.932 5.938 5.938 0 01-5.931 5.931 5.938 5.938 0 01-5.932-5.931zM24.431 66.078c0 1.19.969 2.159 2.159 2.159a2.161 2.161 0 002.159-2.159c0-1.191-.968-2.16-2.159-2.16-1.19 0-2.159.969-2.159 2.16zm-1.911 0a4.076 4.076 0 014.07-4.072 4.076 4.076 0 014.071 4.072 4.075 4.075 0 01-4.071 4.07 4.075 4.075 0 01-4.07-4.07z" fill="#C8CDD5"/><path fill="#283040" d="M218.45 310.811l-13.627 48.796h83.364l-13.627-48.796h-56.11"/><path d="M293.762 366.168h-94.653a.469.469 0 01-.469-.469v-6.288c0-.259.21-.469.469-.469h94.653c.259 0 .468.21.468.469v6.288a.468.468 0 01-.468.469M100.637 314.804c-7.337 0-13.283-5.948-13.283-13.283V113.016c0-7.337 5.946-13.284 13.283-13.284h291.596c7.336 0 13.284 5.947 13.284 13.284v188.505c0 7.335-5.948 13.283-13.284 13.283H100.637z" fill="#283040"/><path d="M105.296 304.94a9.185 9.185 0 01-9.185-9.185V118.781a9.185 9.185 0 019.185-9.185h282.277a9.185 9.185 0 019.186 9.185v176.974a9.185 9.185 0 01-9.186 9.185H105.296z" fill="#E7E9EC"/><path fill="#FFFFFE" d="M96.111 238.2h300.648v-65.332H96.111z"/><path d="M193.193 231.35h-88.807a2.834 2.834 0 01-2.834-2.834v-.609a2.834 2.834 0 012.834-2.834h88.807a2.834 2.834 0 012.835 2.834v.609a2.834 2.834 0 01-2.835 2.834M190.058 219.642h-87.012c-.825 0-1.494-1.269-1.494-2.834v-.609c0-1.565.67-2.834 1.494-2.834h87.012c.824 0 1.494 1.269 1.494 2.834v.609c0 1.565-.67 2.834-1.494 2.834M202.842 207.934h-99.58c-.944 0-1.71-1.269-1.71-2.834v-.609c0-1.565.766-2.834 1.71-2.834h99.58c.944 0 1.71 1.269 1.71 2.834v.609c0 1.565-.766 2.834-1.71 2.834M202.842 196.226h-99.58c-.944 0-1.71-1.269-1.71-2.834v-.609c0-1.565.766-2.835 1.71-2.835h99.58c.944 0 1.71 1.27 1.71 2.835v.609c0 1.565-.766 2.834-1.71 2.834M214.642 184.518h-111.18c-1.055 0-1.91-1.27-1.91-2.834v-.61c0-1.564.855-2.834 1.91-2.834h111.18c1.054 0 1.91 1.27 1.91 2.834v.61c0 1.564-.856 2.834-1.91 2.834" fill="#D4D6D9" opacity=".5"/><path d="M305.124 219.642H221.98c-.789 0-1.428-1.269-1.428-2.834v-.609c0-1.565.64-2.834 1.428-2.834h83.144c.788 0 1.428 1.269 1.428 2.834v.609c0 1.565-.64 2.834-1.428 2.834M300.224 230.642H222.88c-.733 0-1.328-1.269-1.328-2.834v-.609c0-1.565.595-2.834 1.328-2.834h77.344c.733 0 1.328 1.269 1.328 2.834v.609c0 1.565-.595 2.834-1.328 2.834M349.377 207.934h-126.65c-1.201 0-2.175-1.269-2.175-2.834v-.609c0-1.565.974-2.834 2.175-2.834h126.65c1.2 0 2.175 1.269 2.175 2.834v.609c0 1.565-.975 2.834-2.175 2.834M349.377 196.226h-126.65c-1.201 0-2.175-1.269-2.175-2.834v-.609c0-1.565.974-2.835 2.175-2.835h126.65c1.2 0 2.175 1.27 2.175 2.835v.609c0 1.565-.975 2.834-2.175 2.834M349.377 184.518h-126.65c-1.201 0-2.175-1.27-2.175-2.834v-.61c0-1.564.974-2.834 2.175-2.834h126.65c1.2 0 2.175 1.27 2.175 2.834v.61c0 1.564-.975 2.834-2.175 2.834" fill="#D4D6D9" opacity=".4"/><path d="M155.935 161.329h-51.549a2.834 2.834 0 01-2.834-2.834v-.609a2.834 2.834 0 012.834-2.834h51.549a2.834 2.834 0 012.835 2.834v.609a2.834 2.834 0 01-2.835 2.834M202.084 150.425h-97.698a2.834 2.834 0 01-2.834-2.834v-.608a2.834 2.834 0 012.834-2.835h97.698a2.834 2.834 0 012.833 2.835v.608a2.833 2.833 0 01-2.833 2.834M202.084 139.522h-97.698a2.834 2.834 0 01-2.834-2.834v-.608a2.834 2.834 0 012.834-2.834h97.698a2.833 2.833 0 012.833 2.834v.608a2.834 2.834 0 01-2.833 2.834M202.084 128.619h-97.698a2.834 2.834 0 01-2.834-2.834v-.609a2.834 2.834 0 012.834-2.834h97.698a2.834 2.834 0 012.833 2.834v.609a2.833 2.833 0 01-2.833 2.834M281.576 161.329h-51.548a2.834 2.834 0 01-2.835-2.834v-.609a2.834 2.834 0 012.835-2.834h51.548a2.834 2.834 0 012.835 2.834v.609a2.834 2.834 0 01-2.835 2.834M327.725 150.425h-97.697a2.834 2.834 0 01-2.835-2.834v-.608a2.835 2.835 0 012.835-2.835h97.697a2.834 2.834 0 012.834 2.835v.608a2.834 2.834 0 01-2.834 2.834M327.725 139.522h-97.697a2.834 2.834 0 01-2.835-2.834v-.608a2.834 2.834 0 012.835-2.834h97.697a2.834 2.834 0 012.834 2.834v.608a2.834 2.834 0 01-2.834 2.834M327.725 128.619h-97.697a2.834 2.834 0 01-2.835-2.834v-.609a2.834 2.834 0 012.835-2.834h97.697a2.834 2.834 0 012.834 2.834v.609a2.834 2.834 0 01-2.834 2.834M145.804 290.957h-27.5a2.98 2.98 0 01-2.979-2.979v-.319a2.98 2.98 0 012.979-2.979h27.5a2.98 2.98 0 012.979 2.979v.319a2.98 2.98 0 01-2.979 2.979M196.168 290.957h-27.5a2.98 2.98 0 01-2.979-2.979v-.319a2.98 2.98 0 012.979-2.979h27.5a2.98 2.98 0 012.98 2.979v.319a2.98 2.98 0 01-2.98 2.979M246.533 290.957h-27.5a2.98 2.98 0 01-2.979-2.979v-.319a2.98 2.98 0 012.979-2.979h27.5a2.98 2.98 0 012.98 2.979v.319a2.98 2.98 0 01-2.98 2.979" fill="#FFFFFE"/><path d="M117.715 264.14c0-7.92 6.42-14.339 14.339-14.339 7.919 0 14.339 6.419 14.339 14.339 0 7.919-6.42 14.339-14.339 14.339-7.919 0-14.339-6.42-14.339-14.339M168.08 263.671c0-7.919 6.42-14.339 14.338-14.339 7.92 0 14.339 6.42 14.339 14.339 0 7.919-6.419 14.339-14.339 14.339-7.918 0-14.338-6.42-14.338-14.339M218.444 263.671c0-7.919 6.42-14.339 14.339-14.339 7.919 0 14.339 6.42 14.339 14.339 0 7.919-6.42 14.339-14.339 14.339-7.919 0-14.339-6.42-14.339-14.339" fill="#96DAFB"/><path d="M326.932 171.634l88.251-.072c5.822-.004 10.547 4.712 10.551 10.536l.143 175.057c.005 5.824-4.712 10.548-10.535 10.553l-88.25.071c-5.823.005-10.548-4.712-10.553-10.534l-.143-175.058c-.004-5.824 4.712-10.548 10.536-10.553" fill="#283040"/><path d="M329.148 181.218l83.832-.068c4.523-.004 8.192 3.833 8.195 8.57l.133 162.468c.004 4.737-3.66 8.58-8.181 8.583l-83.832.069c-4.522.004-8.191-3.833-8.194-8.569l-.133-162.47c-.004-4.737 3.659-8.579 8.18-8.583" fill="#FFFFFE"/><path d="M355.339 177.074a1.367 1.367 0 011.367-1.369l28.719-.024a1.367 1.367 0 11.002 2.736l-28.719.024a1.369 1.369 0 01-1.369-1.367" fill="#442B70"/><path d="M410.423 266.043h-25.234a3.383 3.383 0 01-3.384-3.384v-25.234a3.384 3.384 0 013.384-3.384h25.234a3.385 3.385 0 013.384 3.384v25.234a3.385 3.385 0 01-3.384 3.384" fill="#96DAFB"/><path d="M374.31 240.279h-44.903a2.795 2.795 0 01-2.794-2.795v-.648a2.795 2.795 0 012.794-2.795h44.903a2.795 2.795 0 012.794 2.795v.648a2.795 2.795 0 01-2.794 2.795M374.31 248.867h-44.903a2.794 2.794 0 01-2.794-2.795v-.648a2.794 2.794 0 012.794-2.794h44.903a2.794 2.794 0 012.794 2.794v.648a2.794 2.794 0 01-2.794 2.795M360.207 257.455h-30.8a2.794 2.794 0 01-2.794-2.795v-.648a2.794 2.794 0 012.794-2.794h30.8a2.794 2.794 0 012.794 2.794v.648a2.794 2.794 0 01-2.794 2.795M350.715 266.043h-21.308a2.794 2.794 0 01-2.794-2.794v-.648a2.794 2.794 0 012.794-2.795h21.308a2.795 2.795 0 012.795 2.795v.648a2.795 2.795 0 01-2.795 2.794M374.31 266.043h-11.521a2.794 2.794 0 01-2.795-2.794v-.648a2.795 2.795 0 012.795-2.795h11.521a2.794 2.794 0 012.794 2.795v.648a2.794 2.794 0 01-2.794 2.794" fill="#E7E9EC"/><path d="M410.423 347.923h-25.234a3.384 3.384 0 01-3.384-3.384v-25.234a3.383 3.383 0 013.384-3.384h25.234a3.385 3.385 0 013.384 3.384v25.234a3.385 3.385 0 01-3.384 3.384" fill="#96DAFB"/><path d="M374.31 322.158h-44.903a2.794 2.794 0 01-2.794-2.795v-.648a2.794 2.794 0 012.794-2.794h44.903a2.794 2.794 0 012.794 2.794v.648a2.794 2.794 0 01-2.794 2.795M374.31 330.746h-44.903a2.794 2.794 0 01-2.794-2.794v-.648a2.794 2.794 0 012.794-2.795h44.903a2.794 2.794 0 012.794 2.795v.648a2.794 2.794 0 01-2.794 2.794M360.207 347.923h-30.8a2.795 2.795 0 01-2.794-2.795v-.649a2.794 2.794 0 012.794-2.794h30.8a2.794 2.794 0 012.794 2.794v.649a2.795 2.795 0 01-2.794 2.795M350.715 339.334h-21.308a2.794 2.794 0 01-2.794-2.794v-.648a2.794 2.794 0 012.794-2.795h21.308a2.795 2.795 0 012.795 2.795v.648a2.795 2.795 0 01-2.795 2.794M374.31 339.334h-11.521a2.794 2.794 0 01-2.795-2.794v-.648a2.795 2.795 0 012.795-2.795h11.521a2.794 2.794 0 012.794 2.795v.648a2.794 2.794 0 01-2.794 2.794" fill="#E7E9EC"/><path d="M410.423 306.982h-25.234a3.382 3.382 0 01-3.384-3.383v-25.235a3.383 3.383 0 013.384-3.383h25.234a3.384 3.384 0 013.384 3.383v25.235a3.384 3.384 0 01-3.384 3.383" fill="#96DAFB"/><path d="M374.31 281.219h-44.903a2.794 2.794 0 01-2.794-2.795v-.649a2.794 2.794 0 012.794-2.794h44.903a2.794 2.794 0 012.794 2.794v.649a2.794 2.794 0 01-2.794 2.795M374.31 289.807h-44.903a2.794 2.794 0 01-2.794-2.795v-.649a2.794 2.794 0 012.794-2.794h44.903a2.794 2.794 0 012.794 2.794v.649a2.794 2.794 0 01-2.794 2.795M360.207 298.395h-30.8a2.794 2.794 0 01-2.794-2.794v-.649a2.794 2.794 0 012.794-2.795h30.8a2.794 2.794 0 012.794 2.795v.649a2.794 2.794 0 01-2.794 2.794M350.715 306.982h-21.308a2.794 2.794 0 01-2.794-2.794v-.648a2.794 2.794 0 012.794-2.795h21.308a2.795 2.795 0 012.795 2.795v.648a2.795 2.795 0 01-2.795 2.794M394.5 197h-47a3.5 3.5 0 110-7h47a3.5 3.5 0 110 7M408.5 210h-75a3.5 3.5 0 110-7h75a3.5 3.5 0 110 7M408.5 222h-75a3.5 3.5 0 110-7h75a3.5 3.5 0 110 7" fill="#E7E9EC"/><path d="M434.716 142h-69.432c-2.918 0-5.284-3.236-5.284-7.226V69.226c0-3.99 2.366-7.226 5.284-7.226h69.432c2.918 0 5.284 3.236 5.284 7.226v65.548c0 3.99-2.366 7.226-5.284 7.226" fill="#639"/><path d="M434.716 142h-69.432c-2.918 0-5.284-3.236-5.284-7.226V69.226c0-3.99 2.366-7.226 5.284-7.226h69.432c2.918 0 5.284 3.236 5.284 7.226v65.548c0 3.99-2.366 7.226-5.284 7.226" fill="#639"/><path d="M164.793 148h-53.586c-1.771 0-3.207-2.74-3.207-6.121V94.12c0-3.38 1.436-6.12 3.207-6.12h53.586c1.771 0 3.207 2.74 3.207 6.12v47.759c0 3.38-1.436 6.121-3.207 6.121" fill="#00AD9F"/><path d="M146.54 112.187l-.014-.006c-.008-.003-.016-.006-.023-.013a.109.109 0 01-.028-.092l.767-4.684 3.597 3.594-3.74 1.59a.083.083 0 01-.033.005h-.015a.104.104 0 01-.02-.016 1.702 1.702 0 00-.491-.378zm5.217-.285l3.845 3.84c.799.8 1.199 1.198 1.344 1.66.022.068.04.137.054.207l-9.19-3.888a.72.72 0 00-.015-.006c-.037-.015-.08-.032-.08-.07 0-.037.044-.055.08-.07l.013-.005 3.949-1.668zm5.086 6.94c-.198.373-.585.759-1.24 1.414l-4.336 4.33-5.607-1.166-.03-.006c-.05-.008-.102-.017-.102-.062a1.69 1.69 0 00-.65-1.182c-.023-.023-.017-.059-.01-.091 0-.005 0-.01.002-.014l1.055-6.468.004-.022c.006-.05.015-.107.06-.107a1.717 1.717 0 001.15-.659c.009-.01.015-.02.027-.026.032-.015.07 0 .102.013l9.574 4.046h.001zm-6.573 6.74l-7.13 7.122 1.221-7.493.002-.01a.134.134 0 01.006-.028c.01-.024.036-.034.06-.044l.012-.005c.268-.114.504-.29.69-.512.024-.028.053-.055.09-.06a.09.09 0 01.028 0l5.02 1.031.001-.001zm-8.638 8.63l-.804.802-8.885-12.826a.421.421 0 00-.01-.014c-.013-.019-.028-.038-.025-.06 0-.016.01-.03.022-.041l.01-.013c.026-.04.05-.08.074-.122l.02-.035.003-.003c.014-.024.027-.046.05-.06.021-.01.05-.005.073 0l9.843 2.028a.163.163 0 01.075.032c.013.013.016.027.019.043.14.526.517.957 1.02 1.164.028.014.016.045.003.078a.236.236 0 00-.015.044c-.124.753-1.188 7.233-1.473 8.982zm-1.679 1.675c-.592.586-.942.896-1.336 1.02-.39.124-.808.124-1.197 0-.462-.146-.862-.544-1.66-1.343l-8.923-8.913 2.33-3.61a.148.148 0 01.04-.047c.025-.017.06-.01.09 0 .535.162 1.11.133 1.626-.082.026-.01.053-.017.074.002.01.01.02.02.028.032l8.928 12.942v-.001zm-13.976-10.095l-2.047-2.044 4.042-1.723a.083.083 0 01.033-.007c.033 0 .053.034.071.065.04.062.084.123.13.182l.012.016c.012.017.004.034-.008.05l-2.232 3.461h-.001zm-2.953-2.95l-2.59-2.586c-.44-.44-.76-.759-.982-1.034l7.874 1.632.03.005c.048.008.102.017.102.062 0 .05-.059.072-.108.091l-.023.01-4.303 1.82zm-4.024-4.95a1.98 1.98 0 01.09-.49c.146-.462.545-.86 1.345-1.66l3.313-3.31c1.526 2.213 3.056 4.422 4.59 6.628.027.036.057.075.026.105-.145.16-.29.334-.392.523a.159.159 0 01-.05.062c-.013.008-.026.005-.041.002h-.002l-8.879-1.86zm5.635-6.345l4.456-4.451c.419.183 1.943.826 3.306 1.401 1.032.436 1.972.833 2.268.962.03.012.056.023.07.053.007.018.003.04 0 .06a1.984 1.984 0 00.518 1.811c.03.03 0 .073-.026.11l-.013.02-4.525 7a.137.137 0 01-.042.05c-.024.014-.058.007-.086 0a2.258 2.258 0 00-.538-.073c-.163 0-.34.03-.518.063h-.001c-.02.002-.038.006-.054-.005a.208.208 0 01-.044-.051l-4.77-6.95zm5.356-5.35l5.768-5.762c.799-.798 1.199-1.197 1.661-1.343.39-.123.807-.123 1.197 0 .462.146.862.545 1.66 1.343l1.25 1.249-4.102 6.347a.154.154 0 01-.04.047c-.025.017-.06.01-.09 0a2.082 2.082 0 00-1.905.367c-.027.028-.066.012-.1-.003-.536-.233-4.703-1.992-5.3-2.245zm12.408-3.643l3.788 3.784-.913 5.647V112a.134.134 0 01-.008.037c-.01.02-.03.024-.05.03a1.816 1.816 0 00-.563.287c-.011.012-.022.023-.04.025a.114.114 0 01-.043-.007l-5.772-2.45-.01-.005c-.037-.014-.081-.032-.081-.07a2.177 2.177 0 00-.308-.907c-.027-.045-.058-.093-.034-.14l4.034-6.246zm-3.901 8.529l5.41 2.29c.03.013.063.026.076.057a.105.105 0 010 .056c-.016.08-.03.17-.03.26v.153c0 .037-.038.053-.074.068l-.011.004a7540.48 7540.48 0 01-12.052 5.127c-.016 0-.034 0-.051-.017-.03-.03 0-.072.027-.11a.754.754 0 00.014-.02l4.446-6.877.008-.012c.026-.042.056-.088.103-.088l.045.007c.101.014.19.027.28.027.676 0 1.3-.328 1.678-.89a.159.159 0 01.033-.039c.027-.02.067-.01.098.004zm-6.197 9.103l12.183-5.19s.018 0 .035.016c.066.067.123.111.177.153l.027.017c.025.014.05.03.052.055 0 .01 0 .016-.002.025l-1.044 6.404-.004.026c-.007.05-.014.106-.06.106a1.716 1.716 0 00-1.363.84l-.005.008c-.013.022-.026.044-.05.056-.02.01-.047.006-.069.001l-9.716-2.002c-.01-.002-.15-.514-.161-.515z" fill="#FFF" fill-rule="nonzero"/><g fill-rule="nonzero"><path d="M419.643 102h-12.5v3.571h8.571c-1.25 5.358-5.178 9.822-10.357 11.608l-20.536-20.536c2.143-6.25 8.215-10.714 15.179-10.714 5.357 0 10.179 2.678 13.214 6.785l2.679-2.321c-3.572-4.822-9.286-8.036-15.893-8.036-9.286 0-17.143 6.607-19.107 15.357l23.571 23.572c8.572-2.143 15.179-10 15.179-19.286zm-39.286.179c0 5 1.964 9.821 5.714 13.571 3.75 3.75 8.75 5.714 13.572 5.714l-19.286-19.285z" fill="#639"/><path d="M400 77c-13.75 0-25 11.25-25 25s11.25 25 25 25 25-11.25 25-25-11.25-25-25-25zm-13.929 38.929c-3.75-3.75-5.714-8.75-5.714-13.572l19.464 19.286c-5-.179-10-1.964-13.75-5.714zm18.215 5.178l-23.393-23.393c1.964-8.75 9.821-15.357 19.107-15.357 6.607 0 12.321 3.214 15.893 8.036l-2.679 2.321c-3.035-4.107-7.857-6.785-13.214-6.785-6.964 0-12.857 4.464-15.179 10.714l20.536 20.536c5.179-1.786 9.107-6.25 10.357-11.608h-8.571V102h12.5c0 9.286-6.607 17.143-15.357 19.107z" fill="#FFF"/></g><path d="M339.716 278h-69.432c-2.918 0-5.284-3.236-5.284-7.226v-65.548c0-3.99 2.366-7.226 5.284-7.226h69.432c2.918 0 5.284 3.236 5.284 7.226v65.548c0 3.99-2.366 7.226-5.284 7.226" fill="#000"/><path d="M123.773 339H68.227c-2.334 0-4.227-2.588-4.227-5.78v-52.44c0-3.192 1.893-5.78 4.227-5.78h55.546c2.334 0 4.227 2.588 4.227 5.78v52.44c0 3.192-1.893 5.78-4.227 5.78" fill="#FF4088"/><g fill-rule="nonzero"><path d="M112.237 313.656v-12.604a4.623 4.623 0 00-2.28-3.985l-11.673-6.858a5.426 5.426 0 00-5.595.06c-2.905 1.79-7.435 4.584-10.36 6.388a5.972 5.972 0 00-2.838 5.084v12.904a5.784 5.784 0 002.865 4.993l10.795 6.31a4.7 4.7 0 004.66.05l11.953-6.658a4.815 4.815 0 002.47-4.206v-1.478h.003z" fill="#FF4088"/><path d="M95.55 288.07h.2l.026.001h.003l.025.001h.003l.026.001h.002l.026.001h.003l.025.001h.003l.024.001h.002l.026.001h.003l.026.002h.003l.025.002h.002l.025.002h.003l.026.002h.002l.024.003h.003l.026.002h.003l.026.002h.003l.026.002h.003l.025.002h.003l.025.002h.003l.026.002h.003l.025.003h.003l.026.003h.002l.025.003h.003l.025.003h.003l.026.003h.003l.026.003h.002l.024.004h.004l.025.003h.003l.025.004h.003l.026.005h.003l.025.004h.002l.026.004h.003l.025.004h.003l.024.004h.002l.026.005h.003l.025.004h.003l.025.005h.003l.025.006h.003l.025.004h.003l.024.005h.003l.026.005h.002l.025.006h.003l.025.005h.002l.026.005h.003l.026.006h.002l.024.006.003.001.025.006h.003l.026.007h.002l.025.006h.003l.025.006.002.001.025.006h.003l.024.006.003.001.025.007h.002l.026.007h.002l.025.007.003.001.025.006h.002l.024.008h.004l.025.006h.003l.025.007h.003l.025.007.003.001.025.007.003.001.025.008h.003l.025.008h.002l.024.008.003.001.025.007.003.001.025.008h.003l.025.009h.002l.025.01h.003l.024.007h.004l.024.009h.003l.025.009.003.001.025.008.002.001.025.009h.003l.025.009h.002l.024.01h.002l.024.008.003.001.024.009h.003l.024.01.003.001.025.01h.003l.023.01h.002l.025.009h.002l.025.01.003.001.025.01h.003l.024.01h.003l.023.011.003.001.024.01h.003l.024.01.003.002.025.01.003.001.025.01.002.001.025.01.002.002.023.01.002.001.024.01.002.001.025.01.002.002.024.01.003.001.023.01.004.002.023.01h.002l.024.012.003.001.024.012h.003l.024.012.002.001.023.011.003.001.023.012h.003l.024.012.003.001.024.011.003.001.024.012h.002l.023.013.002.002.024.012h.002l.023.013.003.001.024.011.002.001.023.013h.004l.022.013.003.002.024.013h.003l.024.013.002.001.023.012.003.002.023.013.002.002.023.013.002.002.023.014h.003l.023.014.002.001.022.014.002.002.023.013.003.002.022.014h.002l11.68 6.862.02.012.002.002.02.011.003.001.018.013.002.002.019.011.002.002.019.011.002.001.018.012h.002l.019.012.002.001.018.012h.003l.019.013h.002l.019.013.003.001.018.012h.002l.019.013.002.002.019.013.002.002.017.01.003.002.019.012.002.001.018.013h.002l.018.013.002.001.018.013h.002l.017.013.002.002.018.012.002.001.017.014.003.002.018.012.002.001.018.013h.002l.017.013.002.002.018.012.002.001.017.013.002.002.018.012.002.002.017.014.004.002.016.013.003.002.018.014h.003l.017.014.002.002.018.014.002.002.016.013.004.002.017.015.003.003.033.026.004.004.033.027.004.003.034.028.005.003.034.028.004.003.033.028.004.004.033.028.004.003.032.03.004.002.032.029.004.003.032.03.004.003.031.029.004.003.032.03.004.004.031.03.004.004.031.03.004.004.03.03.004.004.03.031.004.004.03.031.003.004.03.031.004.004.03.031.003.004.03.031.003.004.03.031.003.004.03.032.003.005.028.033.003.004.03.032.003.004.028.033.004.004.028.033.003.004.028.033.004.004.027.033.003.004.027.033.004.004.027.034.003.004.026.034.003.005.025.034.004.004.025.034.003.005.026.035.003.004.026.034.003.005.025.035.003.004.025.035.003.005.025.035.003.005.023.035.003.005.024.036.003.005.023.035.003.004.023.035.003.005.024.036.003.004.022.036.003.005.022.036.003.005.023.036.003.006.022.036.003.005.021.037.003.004.021.037.003.005.02.037.004.006.02.037.004.005.02.037.002.005.02.038.003.005.02.039.002.005.02.038.002.004.019.04.002.004.02.038.002.006.018.038.003.005.018.04.002.004.017.04.002.005.018.039.002.005.017.039.003.005.016.04.002.005.017.039.002.005.015.04.002.005.016.04.002.005.015.04.002.005.016.04.002.005.015.04.002.006.015.04.002.005.013.04.002.005.014.04.002.006.013.04.002.005.014.041v.005l.013.04.002.006.012.041.001.005.013.041.002.006.012.04.002.006.012.041.002.005.011.042.001.005.01.041.002.006.012.042v.006l.011.042.002.005.01.042.002.005.01.043v.006l.01.042.001.005.01.043v.005l.009.042v.005l.009.042.001.006.008.042.001.005.008.043v.005l.008.043v.006l.008.043.001.006.006.044.001.006.006.042v.004l.004.023v.002l.002.022v.003l.003.021v.003l.003.021v.003l.003.022v.003l.004.022v.003l.002.021.001.002.002.022.001.003.002.022v.003l.002.022.001.003.002.021.001.003.002.022v.003l.003.022v.003l.002.022v.003l.002.021v.003l.002.022V300.599l.002.023v.003l.002.022v.027l.002.022v.003l.001.022v.003l.001.021v.003l.001.023v.003l.001.022v.003l.001.022v.002l.001.021V315.29l-.002.023v.003l-.001.023v.002l-.001.024v.003l-.001.023v.002l-.001.022v.003l-.001.023-.001.003-.001.023v.003l-.001.023v.002l-.001.023v.004l-.002.023v.002l-.002.024v.003l-.002.023v.003l-.001.023v.003l-.003.022v.003l-.002.023v.003l-.002.023v.003l-.002.023v.002l-.003.023v.004l-.003.022v.003l-.002.023-.001.003-.003.023v.003l-.003.023v.002l-.003.022v.003l-.003.023-.001.003-.003.024-.001.003-.004.023v.003l-.004.022v.003l-.003.023v.003l-.003.023v.003l-.004.023-.001.003-.004.022v.003l-.003.022v.002l-.004.023-.001.003-.004.023v.003l-.004.023v.002l-.004.022v.002l-.004.023v.002l-.004.023v.003l-.004.021-.001.004-.004.021-.001.003-.004.023-.001.003-.006.023v.002l-.005.023v.002l-.004.021v.003l-.005.023v.002l-.004.023-.001.002-.005.021v.003l-.006.021v.003l-.005.022v.003l-.006.022v.003l-.006.021-.001.002-.005.022-.001.002-.005.022-.001.003-.007.022v.003l-.006.021v.003l-.007.022v.003l-.006.023-.001.003-.006.022v.003l-.007.021v.003l-.007.022v.003l-.007.023-.001.002-.006.022-.001.002-.006.021-.002.003-.007.022v.003l-.007.022-.001.002-.006.021-.001.004-.006.021-.001.002-.008.022v.003l-.008.022v.003l-.008.021-.001.003-.007.022-.001.003-.008.022v.002l-.008.022v.003l-.008.021-.001.003-.007.022-.001.002-.008.022v.003l-.008.022v.003l-.01.02v.003l-.007.02-.001.004-.008.02v.004l-.008.021v.003l-.01.022v.003l-.008.02-.001.004-.009.02v.004l-.009.02-.001.003-.008.021-.001.003-.009.02v.004l-.009.02v.002l-.01.021-.001.003-.01.022v.003l-.009.02v.004l-.01.02-.001.003-.01.021v.003l-.01.02v.003l-.01.02-.001.003-.01.021v.002l-.01.02v.003l-.01.02v.002l-.01.021-.001.002-.01.02-.002.003-.01.02v.003l-.01.02-.001.002-.01.02-.002.003-.009.02v.003l-.011.02-.001.003-.01.02-.002.003-.01.02v.002l-.011.02-.001.003-.01.02-.002.004-.01.02-.002.004-.01.02-.001.001-.01.021-.002.003-.01.02-.001.004-.011.02-.002.001-.012.02v.002l-.012.02-.001.002-.011.02-.001.001-.012.02v.002l-.012.02-.001.003-.012.02v.001l-.012.02-.001.003-.011.02-.002.002-.012.02-.002.001-.011.02-.001.002-.011.02-.002.003-.012.02v.001l-.012.019-.001.003-.012.019-.002.002-.012.02-.001.002-.012.019-.003.002-.012.018v.003l-.013.02-.002.002-.013.019-.002.002-.012.018-.001.002-.013.02v.002l-.013.019-.002.002-.013.018-.001.002-.013.019v.002l-.014.019-.001.002-.013.018-.002.002-.012.019-.002.002-.014.018-.002.002-.012.019-.001.002-.013.019-.002.003-.013.018-.002.002-.013.019-.002.002-.014.018-.002.003-.013.018-.002.002-.014.019v.002l-.014.017-.002.002-.014.018v.002l-.015.017-.002.003-.014.017v.002l-.014.019-.002.002-.014.018-.003.002-.014.018-.002.002-.014.017-.001.003-.015.017-.002.002-.014.018-.002.002-.015.017-.002.002-.014.018-.002.002-.015.017v.002l-.015.018-.002.002-.016.018-.002.002-.014.017-.002.002-.015.018-.002.002-.014.017-.002.002-.015.018-.002.002-.014.017-.002.002-.016.017-.002.002-.014.018-.002.002-.016.017-.002.002-.014.018-.002.002-.016.016-.002.002-.015.017-.003.002-.015.017-.002.002-.016.016-.002.002-.015.017-.002.002-.016.016-.002.002-.015.017-.002.002-.016.016-.002.002-.016.017-.002.002-.016.016-.002.002-.015.016-.002.002-.017.017-.003.002-.016.016-.002.002-.017.016-.002.002-.016.016-.003.002-.016.016-.002.002-.017.015-.002.002-.016.016-.002.002-.017.015-.002.002-.016.016-.002.002-.017.015-.002.002-.017.016h-.002l-.017.016-.002.002-.018.016-.002.002-.017.015-.002.001-.018.016-.002.002-.017.014-.003.002-.018.015-.002.002-.018.015-.002.002-.017.016-.002.002-.018.015-.002.003-.017.014-.002.002-.019.014-.002.001-.017.015-.003.002-.017.014-.003.002-.018.015-.002.002-.017.014-.002.002-.018.015-.002.002-.018.014-.003.002-.017.014-.002.002-.019.014-.002.002-.018.015-.002.002-.019.014-.002.002-.019.015h-.002l-.018.014-.002.001-.019.014h-.002l-.018.014-.004.001-.018.014-.002.002-.019.013-.002.002-.018.013-.002.003-.019.013-.003.002-.019.013-.002.001-.02.014h-.002l-.02.014-.002.002-.02.014-.002.002-.02.012-.001.002-.02.014-.002.002-.018.013-.004.002-.02.013h-.001l-.02.013-.003.001-.02.012-.002.002-.02.013-.001.002-.02.012-.002.001-.02.013h-.003l-.02.013-.001.002-.02.012-.003.001-.02.013-.003.002-.02.012-.002.002-.02.013-.003.002-.02.011-.003.001-.02.011-.001.003-.02.012-.004.002-.02.011-.003.002-.02.012h-.002l-.02.012-.004.001-.02.011-.003.001-.02.012-11.952 6.66-.02.012-.003.001-.02.011-.002.002-.02.01-.003.002-.02.01-.002.001-.02.01-.002.001-.02.01-.003.002-.02.01-.003.001-.02.01-.001.001-.02.01-.002.002-.02.01h-.002l-.02.01-.002.002-.02.01-.002.002-.02.01h-.002l-.02.01h-.001l-.02.01-.002.002-.02.01h-.002l-.02.01h-.002l-.02.01h-.003l-.02.01-.001.001-.02.01-.003.001-.02.01h-.003l-.02.009h-.003l-.02.01-.002.002-.02.01h-.004l-.02.009h-.002l-.02.01-.002.001-.02.008-.003.001-.02.009h-.003l-.02.009-.003.001-.02.008-.004.001-.02.009h-.004l-.02.009h-.001l-.021.008-.002.001-.02.008-.004.001-.02.009h-.003l-.021.009h-.003l-.02.008-.004.001-.02.008-.004.001-.02.008h-.002l-.02.008-.004.001-.02.007-.004.001-.02.007-.003.001-.021.008H97.5l-.02.008-.021.007-.003.001-.022.006-.003.001-.02.007h-.003l-.02.008h-.003l-.021.007-.003.001-.02.006-.004.001-.02.006-.004.001-.021.008h-.004l-.042.013-.005.002-.042.013h-.005l-.043.013-.005.001-.042.011-.005.002-.042.012h-.006l-.042.012-.006.001-.042.01-.005.001-.043.01-.006.002-.042.01-.005.001-.043.01h-.005l-.043.01h-.006l-.044.01-.005.001-.043.008-.005.001-.042.008h-.006l-.042.009h-.005l-.043.008-.005.001-.044.007-.005.001-.043.007h-.005l-.044.007h-.005l-.043.007-.005.001-.044.006-.006.001-.043.005-.005.001-.043.006h-.006l-.043.006-.043.004h-.005l-.044.003-.005.001-.043.003h-.005l-.044.003h-.005l-.043.003-.006.001-.044.003h-.005l-.043.002h-.005l-.043.003H95.7l-.043.002h-.245l-.043-.001h-.006l-.043-.001h-.001l-.044-.003h-.005l-.043-.003h-.005l-.044-.002h-.005l-.043-.003h-.005l-.044-.003h-.005l-.043-.005-.006-.001-.043-.004-.007-.001-.043-.004-.005-.001-.043-.004h-.006l-.043-.005h-.005l-.043-.006h-.006l-.044-.005-.006-.001-.043-.006-.005-.001-.044-.006-.005-.001-.043-.007h-.005l-.044-.007h-.005l-.042-.008h-.003l-.043-.008-.006-.001-.042-.009h-.005l-.043-.009h-.005l-.042-.01h-.006l-.043-.008-.005-.001-.043-.01-.006-.002-.042-.01h-.005l-.043-.01-.005-.002-.043-.01-.005-.003-.042-.011-.005-.001-.042-.012-.006-.002-.042-.011-.005-.002-.042-.011-.005-.002-.043-.013-.006-.002-.042-.012-.005-.002-.043-.013-.005-.002-.042-.012-.005-.001-.041-.014h-.004l-.022-.008h-.003l-.02-.006-.003-.001-.021-.007-.003-.001-.02-.007-.004-.001-.02-.008h-.004l-.02-.008-.003-.001-.02-.007-.003-.001-.02-.007-.003-.001-.02-.008h-.002l-.02-.009-.004-.001-.02-.008-.004-.001-.02-.009h-.002l-.021-.009h-.003l-.02-.01h-.003l-.02-.008-.004-.001-.02-.009h-.002l-.02-.009h-.003l-.02-.01h-.004l-.02-.008-.003-.002-.02-.008h-.004l-.02-.009-.004-.001-.02-.008-.002-.001-.021-.01H93.1l-.02-.01-.002-.001-.02-.01h-.002l-.021-.01h-.002l-.02-.009h-.004l-.02-.01-.003-.001-.02-.01h-.003l-.02-.01-.002-.002-.02-.01h-.002l-.02-.01h-.001l-.02-.01-.003-.002-.02-.01-.003-.002-.02-.01h-.002l-.02-.01-.003-.002-.02-.01-.003-.001-.02-.01-.002-.001-.02-.01-.003-.002-.02-.01-.002-.001-.02-.01-.002-.003-.02-.01h-.002l-.02-.011-.002-.001-.02-.01-.002-.003-.02-.01h-.002l-.02-.012-.003-.002-.02-.01-.002-.002-.02-.01-.003-.001-.02-.01-.003-.001-.02-.012h-.002l-.019-.012-.003-.001-.018-.011-.002-.001-10.804-6.307-.023-.014-.002-.001-.023-.014h-.003l-.024-.014-.003-.001-.023-.014-.002-.001-.022-.015-.002-.002-.023-.014-.002-.002-.023-.015h-.003l-.023-.014-.003-.002-.022-.015-.003-.002-.022-.014h.005l-.023-.015-.003-.002-.022-.014-.002-.002-.023-.015-.003-.002-.023-.015-.003-.002-.022-.016-.003-.002-.022-.014-.002-.002-.023-.016-.002-.002-.023-.015-.002-.002-.021-.016-.004-.002-.022-.015-.002-.002-.021-.016-.003-.002-.022-.015-.002-.002-.022-.016-.002-.001-.022-.015-.002-.002-.021-.016-.002-.002-.021-.015-.004-.002-.021-.015-.002-.002-.022-.017-.002-.002-.022-.015-.002-.002-.022-.017-.003-.002-.02-.016-.002-.002-.02-.017h-.003l-.02-.017-.003-.002-.02-.017-.002-.002-.021-.016-.002-.002-.02-.017-.003-.002-.02-.016-.002-.003-.021-.016-.002-.002-.02-.018h-.003l-.02-.017-.002-.002-.02-.017-.002-.002-.021-.017-.002-.002-.02-.017-.003-.002-.02-.017-.003-.001-.02-.017-.002-.002-.02-.017-.001-.002-.02-.017-.002-.002-.02-.018-.002-.002-.02-.017-.001-.002-.02-.018-.002-.002-.02-.017-.002-.003-.02-.018-.001-.001-.02-.018-.003-.002-.02-.018-.001-.002-.02-.018-.002-.002-.019-.018-.002-.003-.019-.018-.002-.002-.018-.019-.002-.002-.02-.018-.002-.002-.02-.019-.002-.001-.018-.019-.002-.002-.019-.018-.002-.002-.018-.019-.002-.002-.019-.018-.002-.002-.019-.019-.002-.002-.018-.019-.002-.002-.018-.018-.002-.002-.018-.019-.003-.002-.018-.02-.002-.002-.018-.02-.002-.001-.017-.02-.002-.002-.019-.02-.002-.002-.017-.02-.003-.001-.017-.02-.002-.002-.018-.02-.002-.001-.017-.02-.002-.002-.018-.02v-.002l-.017-.02-.002-.001-.018-.02-.002-.002-.019-.02-.002-.003-.017-.02-.002-.001-.018-.021-.002-.002-.016-.02-.001-.002-.017-.02-.002-.001-.016-.021-.002-.002-.018-.02-.002-.003-.016-.02-.003-.001-.017-.02-.002-.002-.017-.02-.002-.002-.016-.02-.002-.002-.017-.021-.002-.002-.016-.02-.002-.003-.017-.02-.002-.002-.016-.021-.001-.002-.016-.02-.002-.003-.015-.02-.001-.002-.016-.021-.002-.002-.015-.022-.003-.002-.015-.02-.002-.003-.016-.02v-.002l-.016-.022-.001-.002-.015-.022-.002-.002-.015-.02-.001-.002-.015-.02-.003-.003-.015-.022-.002-.002-.016-.021-.002-.003-.014-.022-.002-.002-.015-.022-.002-.002-.014-.021-.002-.003-.015-.021v-.002l-.015-.022-.002-.003-.014-.022-.003-.002-.014-.021-.002-.002-.014-.022-.003-.002-.014-.022-.002-.002-.013-.022-.001-.002-.014-.021-.002-.003-.014-.022-.002-.003-.015-.022v-.002l-.015-.022-.001-.004-.014-.021-.002-.002-.013-.022-.002-.002-.014-.023-.002-.003-.013-.021-.001-.002-.014-.023v-.002l-.014-.022-.002-.003-.013-.023-.003-.003-.013-.022-.002-.003-.012-.023-.002-.002-.014-.023v-.002l-.013-.023-.001-.002-.013-.022v-.003l-.013-.023-.002-.003-.012-.023-.001-.003-.013-.024v-.002l-.013-.022-.001-.004-.013-.022v-.003l-.013-.023-.001-.003-.011-.024-.001-.002-.013-.024v-.003l-.013-.023-.002-.002-.012-.024v-.002l-.012-.023-.001-.003-.011-.024v.001l-.012-.023-.002-.003-.011-.024-.001-.003-.012-.023v-.003l-.012-.024v-.002l-.012-.024-.001-.002-.01-.023-.002-.002-.011-.024-.001-.002-.011-.024-.001-.002-.012-.024v-.003l-.011-.023-.001-.003-.011-.023-.001-.003-.012-.024v-.002l-.011-.024-.001-.002-.01-.024-.001-.003-.01-.023-.002-.002-.01-.024v-.002l-.01-.024-.001-.003-.01-.025v-.002l-.011-.024-.001-.003-.01-.022v-.003l-.01-.025-.002-.002-.01-.025v-.003l-.01-.025v-.002l-.01-.025v-.003l-.01-.024-.001-.002-.01-.025v-.002l-.009-.025v-.003l-.01-.025v-.002l-.01-.025v-.003l-.008-.025-.001-.003-.01-.024v-.003l-.009-.025-.001-.002-.008-.025-.001-.002-.009-.025v-.003l-.009-.025v-.003l-.01-.024v-.004l-.008-.024-.001-.003-.009-.025v-.003l-.008-.025v-.002l-.01-.026v-.003l-.007-.026-.001-.003-.008-.024v-.003l-.008-.025v-.003l-.008-.026-.001-.003-.007-.026-.001-.002-.008-.026-.008-.027v-.002l-.007-.024-.001-.002-.006-.025v-.002l-.008-.026v-.003l-.006-.025v-.003l-.007-.025v-.003l-.007-.026-.005-.025-.001-.002-.006-.026-.002-.002-.006-.026v-.002l-.007-.026h.001l-.006-.027-.001-.003-.006-.026-.001-.003-.005-.025-.002-.003-.006-.026v-.002l-.006-.026v-.003l-.006-.026-.001-.003-.005-.026-.005-.026v-.003l-.006-.026v-.004l-.005-.025v-.003l-.007-.025v-.003l-.005-.028-.001-.003-.005-.027-.001-.003-.004-.026-.001-.003-.005-.026v-.003l-.004-.026v-.003l-.004-.025v-.004l-.005-.025-.004-.025v-.002l-.004-.026v-.003l-.004-.026v-.003l-.004-.026v-.002l-.004-.027v-.003l-.003-.025v-.002l-.004-.027v-.003l-.004-.026v-.003l-.003-.027-.001-.003-.003-.027v-.003l-.003-.027-.001-.003-.003-.027v-.003l-.003-.027-.001-.002-.004-.026-.002-.027v-.003l-.003-.027v-.003l-.004-.027v-.003l-.002-.027v-.003l-.003-.027v-.003l-.002-.027v-.003l-.002-.027-.002-.026v-.004l-.002-.026v-.003l-.002-.027v-.034l-.001-.026v-.003l-.001-.027v-.003l-.001-.027-.001-.003-.001-.027v-.029l-.001-.027v-.003l-.002-.027v-13.051l.002-.026v-.155l.002-.026v-.032l.002-.027v-.032l.002-.027v-.033l.003-.028v-.003l.002-.027v-.032l.003-.026v-.003l.001-.027v-.003l.001-.027v-.003l.002-.027v-.003l.002-.027v-.003l.003-.027v-.003l.002-.027.001-.002.002-.027v-.002l.003-.027v-.002l.004-.026v-.003l.004-.027v-.003l.003-.027v-.002l.003-.027v-.002l.003-.027.001-.003.003-.027v-.003l.003-.026v-.003l.003-.027v-.003l.003-.026.001-.004.003-.025v-.003l.005-.027v-.003l.003-.027v-.003l.004-.026v-.003l.005-.027.001-.002.004-.027v-.002l.004-.027v-.002l.004-.025.001-.004.005-.025v-.003l.007-.027v-.003l.005-.026v-.003l.005-.026v-.002l.005-.026v-.002l.005-.027.001-.002.006-.025v-.003l.006-.025v-.003l.006-.026.001-.003.005-.026v-.003l.005-.026v-.002l.005-.026.001-.002.006-.026v-.002l.007-.025v-.004l.006-.025.001-.003.005-.026.001-.003.006-.026v-.003l.007-.026v-.003l.007-.026v-.003l.006-.026.001-.002.006-.025v-.003l.006-.025.001-.003.008-.026v-.002l.007-.026v-.002l.007-.026.001-.003.007-.026v-.003l.008-.026v-.003l.008-.024v-.002l.008-.026.001-.003.007-.026.001-.003.008-.025v-.002l.009-.026v-.002l.008-.024.001-.003.007-.025.001-.002.008-.025v-.003l.009-.025v-.004l.01-.024v-.002l.007-.025v-.003l.009-.025v-.002l.009-.025v-.003l.01-.025v-.003l.008-.024.001-.003.009-.025v-.002l.01-.025.001-.002.008-.025.001-.002.009-.025v-.002l.01-.025v-.002l.01-.025v-.002l.01-.025v-.002l.01-.024v-.003l.01-.025.001-.002.01-.025v-.003l.01-.024.002-.002.01-.025.001-.002.01-.024.001-.004.01-.024.002-.003.01-.025.001-.003.01-.025.001-.003.01-.025.002-.003.01-.025.001-.002.01-.024.002-.003.01-.024v-.003l.011-.025.001-.002.012-.024v-.002l.012-.024v-.002l.011-.024.001-.003.012-.024v-.002l.012-.023.001-.003.011-.023.001-.002.012-.024v-.003l.012-.024.001-.002.011-.024.001-.003.012-.023v-.002l.012-.024.001-.002.012-.024v-.002l.012-.024.001-.002.012-.022.001-.003.013-.023.002-.003.012-.024.001-.002.013-.024v-.003l.013-.023.001-.002.012-.022.001-.002.013-.023v-.003l.013-.023.002-.002.013-.023v-.003l.013-.022.002-.002.012-.023.001-.002.013-.023.002-.003.013-.023.001-.002.013-.022v-.002l.014-.023.001-.002.014-.023v-.002l.014-.023.002-.002.013-.022.002-.002.013-.023.002-.002.013-.023.001-.002.014-.023.002-.002.013-.022.001-.002.015-.023.002-.003.014-.023.001-.002.014-.022.002-.002.014-.021.002-.002.014-.023v-.002l.015-.022.001-.002.015-.021.002-.002.014-.023.002-.002.015-.022v-.003l.015-.022.001-.002.014-.021.002-.002.015-.022.002-.002.014-.022.003-.002.015-.021.001-.002.015-.022.002-.002.015-.022.001-.002.015-.022.003-.002.015-.021.001-.002.016-.022.002-.002.015-.02.001-.003.016-.021.002-.002.015-.021.002-.002.016-.02.002-.003.015-.02.002-.002.016-.021v-.002l.016-.02.002-.003.017-.02.002-.003.016-.02.002-.002.017-.02.002-.003.016-.02.002-.003.017-.02.002-.003.016-.02.001-.003.017-.02.002-.003.017-.02.002-.002.016-.02.002-.002.017-.02.002-.003.016-.02.002-.002.018-.02.002-.002.016-.02.002-.003.017-.02.002-.001.016-.02.003-.003.017-.02.001-.003.018-.02.002-.001.017-.02.002-.002.018-.02.002-.002.017-.02.001-.001.018-.02.002-.002.018-.02.002-.002.017-.02.001-.001.018-.02.002-.002.018-.02.001-.002.019-.02.002-.001.02-.019.002-.002.018-.02.002-.001.019-.02.002-.002.018-.019.002-.002.019-.018.002-.002.019-.019.002-.002.02-.018.001-.003.019-.018.002-.002.019-.019.002-.002.018-.018.002-.002.019-.019.002-.002.018-.019.002-.002.019-.018.002-.002.019-.019.002-.002.02-.017.001-.002.02-.018.002-.002.02-.019.002-.002.02-.018.001-.001.02-.018h.002l.02-.018.002-.002.02-.018.001-.002.02-.018.002-.002.02-.017.002-.001.02-.018.002-.002.02-.017.003-.002.02-.018.003-.002.02-.016.002-.002.02-.017.003-.002.02-.017.002-.002.02-.016.002-.002.02-.017h.003l.02-.017.003-.002.02-.017.002-.002.02-.016.003-.002.022-.017.002-.002.02-.016.002-.002.022-.017.002-.002.022-.016.002-.003.02-.016.002-.001.022-.017.002-.002.02-.016.003-.002.021-.016.003-.002.021-.016.002-.002.022-.016h.002l.022-.016.003-.002.021-.016h.002l.022-.016.002-.002.022-.017h.002l.023-.016.002-.002.021-.016h.003l.022-.016.002-.001.022-.016h.002l.022-.016.003-.002.021-.016h.002l.023-.015.002-.001.022-.016.003-.002.022-.014.002-.002.023-.016.002-.002.023-.014.003-.001.023-.015.002-.002.022-.014.002-.001.023-.015h.002l.023-.015.002-.001.023-.015h.003l.022-.014h.001l10.362-6.392h.001l.022-.014.002-.001.023-.015.003-.002.022-.013.004-.002.022-.014.003-.002.023-.013.003-.001.024-.014.002-.002.023-.013.003-.001.022-.013.002-.001.024-.013.002-.002.024-.012.002-.002.023-.013h.003l.023-.013.002-.002.023-.013.003-.002.023-.012.003-.002.023-.012.002-.002.023-.013h.003l.022-.013.003-.001.023-.013h.003l.024-.013.003-.001.024-.012.002-.002.023-.01.003-.002.024-.011.003-.001.023-.012h.003l.024-.012.002-.001.024-.011.003-.001.023-.012.003-.002.024-.011.003-.001.024-.011.003-.002.024-.01h.003l.024-.011.002-.002.023-.01.002-.002.024-.01.003-.002.024-.01.003-.001.024-.01.003-.002.024-.01h.003l.023-.011.003-.001.024-.01.003-.002.024-.009h.003l.024-.011.003-.001.025-.01.003-.002.024-.01.003-.002.024-.01h.002l.025-.01h.003l.024-.01h.002l.025-.01.003-.001.024-.008.004-.002.024-.009h.003l.025-.01.003-.001.025-.008.003-.001.025-.009h.003l.024-.009.003-.001.024-.008.004-.001.023-.008.003-.002.025-.008h.002l.025-.009.003-.001.025-.008.003-.001.025-.009h.003l.024-.008h.002l.025-.008.003-.001.025-.007h.003l.025-.008h.003l.025-.008h.002l.024-.008.003-.001.024-.007.003-.001.025-.008h.003l.025-.008h.003l.025-.007.003-.001.025-.006.002-.001.024-.007.003-.002.026-.006h.002l.024-.007h.004l.025-.006.003-.001.026-.006.003-.001.025-.007h.003l.026-.006h.003l.024-.006h.004l.024-.006.003-.001.025-.006.003-.001.025-.005h.003l.025-.006h.003l.025-.006h.002l.024-.005.004-.001.025-.005h.002l.026-.005.002-.001.026-.006h.003l.026-.006h.003l.026-.005h.003l.025-.004.003-.001.025-.005.003-.001.026-.004h.003l.025-.004.003-.001.026-.005h.003l.025-.005h.002l.025-.004h.003l.025-.004.004-.001.025-.004h.003l.026-.004h.003l.026-.004h.003l.026-.003h.003l.025-.004h.003l.026-.003h.003l.026-.004h.002l.025-.003h.003l.025-.003h.003l.025-.003h.003l.026-.003h.003l.026-.003h.003l.025-.002h.003l.025-.003.004-.001.025-.003h.003l.026-.003h.003l.026-.002H95l.025-.002h.029l.003-.002.026-.002h.002l.026-.002h.003l.026-.002h.002l.026-.001h.003l.026-.001h.003l.025-.001h.004l.025-.001.003-.001.026-.001h.003l.026-.001h.003l.026-.001h.003l.026-.001h.003l.026-.001h.002l.026-.001h.031l.026-.001h.06l.006-.01zm-.023 2.783h-.068l-.018.001h-.017l-.018.002h-.017l-.018.002h-.016l-.018.002h-.016l-.017.002-.016.001-.018.001-.016.001-.018.002-.018.002-.016.002-.018.002-.017.002-.018.002-.016.002-.018.003-.016.002-.017.002-.017.002-.017.002-.016.002-.017.002-.016.002-.018.002-.016.003-.017.002-.017.003-.017.003-.016.003-.017.004-.016.003-.017.003-.016.003-.017.002-.017.003-.017.003-.017.003-.017.003-.016.003-.017.003-.016.005-.017.004-.016.004-.017.003-.016.003-.017.004-.016.004-.017.004-.016.005-.017.004-.016.004-.017.004-.016.004-.017.004-.016.004-.017.005-.016.005-.017.005-.015.005-.017.005-.016.005-.017.005-.016.005-.017.006-.015.005-.016.005-.017.006-.016.005-.017.005-.016.007-.017.005-.016.005-.016.005-.016.006-.017.006-.016.007-.016.006-.016.006-.016.006-.015.006-.017.008-.016.006-.017.006-.016.006-.016.007-.015.007-.017.007-.015.007-.016.007-.015.007-.017.008-.015.007-.017.007-.015.007-.015.007-.016.008-.016.007-.016.007-.015.007-.016.009-.015.008-.016.007-.015.008-.016.008-.015.008-.016.008-.015.008-.016.009-.015.008-.015.01-.015.007-.015.009-.015.008-.015.01-.016.008-.015.01-.015.008-.015.01-.014.008-.016.01-.015.009-.017.01-10.35 6.38-.018.011-.016.01-.016.01-.015.01-.016.011-.015.01-.016.01-.015.011-.016.01-.015.01-.016.011-.015.01-.016.012-.014.01-.014.01-.016.01-.014.011-.015.01-.014.01-.015.01-.014.011-.014.01-.015.012-.014.01-.015.012-.014.01-.015.012-.014.012-.015.01-.014.012-.013.012-.015.01-.014.012-.014.012-.014.01-.014.012-.014.012-.014.011-.014.011-.013.012-.014.012-.013.012-.013.012-.014.011-.013.012-.014.013-.013.012-.013.013-.014.012-.013.012-.014.013-.013.012-.013.012-.014.013-.013.012-.013.013-.013.012-.012.013-.014.013-.012.013-.012.012-.013.014-.012.012-.013.014-.012.013-.013.013-.013.013-.012.013-.012.014-.013.013-.011.013-.013.014-.012.013-.012.014-.013.014-.012.013-.011.014-.012.013-.012.015-.011.013-.013.013-.011.015-.011.013-.012.015-.011.014-.011.015-.012.014-.011.014-.011.015-.01.014-.012.015-.011.014-.012.015-.011.014-.01.015-.01.014-.011.014-.01.016-.01.014-.011.015-.01.015-.01.015-.01.014-.011.014-.01.015-.01.015-.01.016-.01.014-.01.016-.01.015-.01.015-.009.015-.009.016-.01.015-.008.015-.01.016-.011.015-.01.016-.009.015-.009.016-.01.015-.008.016-.01.015-.009.016-.01.015-.009.016-.009.015-.01.017-.008.015-.01.015-.009.017-.008.015-.008.017-.009.016-.008.017-.008.015-.008.016-.009.016-.008.016-.008.016-.007.016-.009.016-.008.017-.008.016-.008.017-.009.016-.007.017-.007.016-.007.017-.008.016-.007.017-.007.016-.007.017-.007.016-.008.017-.006.016-.007.017-.007.017-.007.017-.008.016-.007.017-.006.016-.007.018-.007.016-.007.017-.006.017-.006.017-.006.017-.006.017-.007.017-.006.018-.006.017-.005.018-.006.016-.006.018-.006.017-.005.017-.005.017-.006.018-.005.016-.005.017-.006.017-.006.018-.005.017-.005.017-.005.018-.005.017-.006.018-.005.017-.005.018-.004.017-.004.018-.005.017-.004.018-.006.017-.004.018-.004.017-.004.019-.004.017-.004.018-.004.017-.004.018-.005.017-.004.018-.003.018-.004.017-.003.018-.003.018-.003.019-.003.018-.003.019-.003.017-.004.018-.003.018-.003.019-.003.018-.003.017-.003.018-.003.018-.002.019-.002.018-.002.018-.003.018-.003.018-.003.018-.002.019-.002.019-.002.018-.002.019-.002.018-.002.018-.002.018-.002.019-.001.018-.002.019-.002.018-.001.019-.001.019-.001.018-.001.019-.001.018-.001.019-.001.018-.001.019-.001.018-.001.02v.018l-.002.018v.037l-.002.019v13.072l.001.019v.055l.001.018.002.018v.019l.002.018v.019l.002.019v.018l.002.019v.018l.003.019v.018l.002.019v.018l.003.018.002.019.002.017.001.019.002.017.002.018.002.017.002.018.002.018.002.018.003.017.002.019.002.018.002.018.002.019.003.017.003.018.003.017.003.018.003.018.003.018.003.017.004.018.003.017.004.018.003.017.003.018.003.017.004.018.004.017.003.018.004.017.005.018.004.018.004.017.004.018.004.017.004.018.004.016.006.017.004.017.004.018.004.017.005.018.004.016.004.018.004.016.006.018.004.016.005.018.005.017.005.017.005.017.005.018.006.016.005.018.006.016.006.017.006.016.007.017.005.016.006.018.006.016.006.017.006.016.007.017.006.016.006.017.006.016.006.017.007.016.007.017.007.016.006.017.006.016.007.017.006.016.006.017.007.016.007.017.008.016.007.017.007.016.007.017.007.016.008.017.007.016.007.017.007.016.007.016.009.016.008.016.008.016.008.016.009.015.008.016.008.015.008.015.009.016.009.015.008.016.008.015.009.016.009.015.01.016.008.015.008.016.008.015.01.016.008.015.009.014.01.016.008.014.01.016.009.015.01.015.009.014.009.015.01.014.008.015.01.016.01.014.01.015.008.015.01.015.009.014.01.015.01.014.011.015.01.015.01.014.01.015.011.014.01.015.01.014.011.015.011.014.012.014.01.015.01.014.01.015.011.014.011.014.012.013.011.014.011.014.012.014.011.014.011.013.012.013.011.014.011.013.012.014.011.013.011.013.012.014.011.013.011.014.013.013.012.013.012.014.012.012.012.014.013.012.012.013.011.014.013.013.012.013.013.012.012.012.012.013.013.013.012.012.012.013.013.012.012.013.012.012.014.012.012.013.013.012.013.012.012.013.013.012.013.013.014.01.013.012.013.013.014.012.013.011.014.012.013.012.013.012.014.012.014.011.015.011.014.012.013.011.014.011.014.012.014.011.014.01.014.012.014.011.014.011.015.012.013.01.015.011.014.01.015.012.014.011.014.01.015.011.015.01.015.01.014.01.015.011.014.01.014.01.015.011.015.01.016.01.015.01.015.01.015.01.016.011.014.01.016.009.015.009.016.01.015.008.015.01.017.009.015.01.016.008.017.01 10.792 6.31.014.008.01.007.013.006.013.006.012.006.011.007.013.006.012.007.012.006.013.007.012.006.013.006.012.007.012.006.013.006.012.006.012.006.013.007.011.006.012.006.013.006.012.005.013.006.012.006.012.005.013.005.012.006.012.006.013.005.012.007.013.005.012.005.012.005.013.005.012.005.012.006.013.005.012.005.013.005.012.004.013.005.013.005.012.006.012.005.013.005.012.004.013.005.012.004.012.004.014.005.012.004.011.004.027.008.026.008.026.008.026.007.025.007.026.007.026.007.026.008.025.007.026.006.026.006.026.006.025.006.026.006.026.005.026.005.026.005.025.004.026.005.026.005.026.004.026.004.026.004.027.003.027.003.027.003.026.002.026.002.027.002.026.002.027.003.026.002.026.002h.026l.026.002h.212l.027-.001.027-.001.027-.002.026-.002.027-.001.027-.003.027-.002.027-.002.025-.002.027-.003.027-.003.026-.003.027-.003.025-.004.027-.004.026-.004.027-.005.025-.004.026-.005.026-.004.027-.005.026-.005.025-.007.026-.005.026-.006.026-.006.025-.006.026-.006.026-.008.026-.007.026-.007.025-.007.027-.009.012-.004.013-.004.012-.004.014-.004.012-.004.013-.004.013-.004.012-.005.014-.004.012-.004.012-.004.014-.005.012-.004.013-.004.013-.005.012-.005.013-.004.012-.004.013-.005.013-.004.012-.005.012-.005.013-.006.012-.005.013-.005.012-.005.012-.005.013-.005.012-.005.012-.006.013-.006.012-.006.013-.005.012-.006.012-.007.013-.005.012-.006.012-.006.013-.006.011-.006.012-.007.013-.006.012-.006.013-.006.012-.006.012-.007.013-.006.012-.006.011-.006.013-.006.012-.006.014-.008 11.955-6.663.015-.007.013-.007.012-.007.013-.007.012-.008.013-.008.013-.007.012-.007.013-.008.012-.007.012-.008.013-.008.012-.007.013-.008.012-.007.012-.008.013-.008.012-.008.012-.008.013-.007.011-.008.011-.009.012-.008.011-.008.011-.008.013-.009.011-.008.013-.008.01-.008.012-.009.012-.008.01-.008.012-.008.013-.009.011-.009.011-.008.012-.01.011-.008.011-.009.012-.01.011-.008.011-.009.012-.008.011-.01.01-.008.012-.01.011-.009.01-.008.012-.01.011-.01.01-.01.012-.008.01-.01.01-.009.01-.01.012-.01.01-.01.01-.01.01-.01.011-.01.01-.01.01-.01.011-.009.01-.01.01-.01.011-.01.01-.01.01-.011.01-.01.01-.01.01-.011.01-.01.01-.01.01-.011.009-.01.009-.01.01-.011.01-.01.009-.01.01-.01.008-.011.01-.01.009-.01.01-.011.008-.01.01-.012.009-.011.01-.011.009-.01.009-.011.01-.01.008-.012.01-.01.009-.011.008-.01.008-.012.009-.011.008-.01.01-.012.008-.011.008-.012.008-.011.008-.011.008-.012.009-.011.008-.011.008-.012.008-.011.009-.011.008-.012.008-.011.007-.011.008-.013.008-.012.008-.012.007-.01.008-.012.008-.013.008-.01.007-.012.008-.013.007-.012.007-.012.007-.013.007-.011.008-.012.007-.013.007-.011.007-.013.007-.012.008-.012.006-.013.006-.012.007-.012.007-.013.007-.012.007-.013.007-.012.006-.012.006-.013.007-.013.006-.012.007-.013.007-.012.006-.013.007-.012.006-.012.006-.014.006-.012.006-.012.007-.014.006-.012.006-.013.006-.013.006-.013.007-.014.006-.012.005-.012.005-.014.005-.013.005-.014.005-.012.006-.013.005-.014.005-.013.005-.013.005-.013.005-.013.006-.014.005-.013.005-.014.004-.013.004-.013.004-.014.004-.013.006-.014.005-.013.005-.013.005-.014.004-.013.005-.014.004-.013.004-.013.006-.014.004-.013.004-.014.004-.013.004-.013.003-.014.004-.013.004-.014.005-.013.004-.014.003-.013.003-.014.004-.014.003-.013.003-.015.004-.013.003-.013.004-.014.003-.013.003-.015.003-.013.003-.013.002-.015.003-.014.003-.014.002-.014.003-.014.003-.014.003-.014.004-.014.003-.014.002-.015.003-.014.002-.013.003-.014.002-.014.002-.015.002-.014.002-.015.002-.014.002-.014.002-.015.001-.014.003-.014v-.014l.003-.015.002-.013.002-.014v-.015l.002-.014v-.015l.002-.014.002-.015v-.014l.002-.014.001-.015.001-.014.001-.015.001-.014.001-.015.001-.014.001-.015.001-.014.001-.014v-.03l.001-.014V300.956l-.002-.013v-.04l-.002-.014v-.026l-.002-.013v-.013l-.002-.014-.001-.013-.001-.012-.001-.014-.001-.012-.001-.014-.002-.013-.001-.012-.001-.013-.002-.012-.001-.012-.002-.014-.001-.012-.002-.013-.003-.013v-.013l-.002-.013-.002-.011-.004-.027-.003-.026-.004-.027-.004-.026-.005-.026-.005-.026-.005-.025-.005-.026-.006-.026-.006-.026-.006-.025-.006-.026-.007-.026-.006-.026-.006-.026-.007-.025-.007-.026-.008-.026-.008-.026-.007-.024-.008-.025-.009-.025-.008-.025-.008-.024-.01-.025-.009-.025-.009-.024-.01-.024-.009-.025-.009-.025-.01-.024-.01-.024-.01-.024-.01-.024-.01-.023-.012-.024-.01-.024-.011-.024-.012-.023-.011-.023-.012-.024-.012-.023-.012-.024-.012-.023-.013-.022-.012-.023-.013-.023-.012-.022-.013-.023-.014-.023-.013-.022-.015-.023-.013-.022-.013-.021-.015-.022-.014-.022-.015-.021-.014-.022-.015-.022-.014-.021-.015-.021-.016-.02-.015-.021-.016-.02-.015-.021-.017-.021-.016-.02-.017-.021-.016-.02-.017-.02-.017-.02-.017-.02-.017-.02-.018-.019-.017-.02-.018-.02-.017-.019-.019-.018-.019-.019-.018-.018-.019-.019-.018-.018-.02-.019-.02-.019-.019-.017-.02-.018-.02-.017-.019-.018-.02-.017-.02-.018-.02-.016-.021-.017-.02-.016-.021-.018-.01-.007-.01-.008-.01-.008-.01-.009-.01-.008-.011-.007-.01-.008-.01-.009-.012-.008-.012-.008-.01-.008-.01-.009-.01-.008-.01-.007-.011-.008-.011-.009-.01-.007-.011-.007-.011-.008-.012-.007-.011-.008-.01-.007-.012-.007-.011-.007-.011-.008-.012-.007-.011-.007-.011-.007-.012-.007-.011-.008-.011-.007-.012-.006-.011-.006-.013-.007-11.666-6.845-.017-.01-.015-.008-.015-.01-.016-.009-.015-.008-.015-.008-.015-.009-.016-.008-.015-.008-.016-.008-.015-.009-.015-.008-.016-.008-.015-.008-.016-.009-.015-.008-.016-.008-.015-.007-.016-.009-.015-.007-.016-.007-.015-.008-.016-.007-.016-.008-.015-.007-.016-.007-.016-.007-.015-.007-.016-.007-.016-.007-.015-.007-.016-.006-.016-.007-.016-.006-.016-.007-.016-.006-.017-.007-.016-.007-.016-.006-.016-.006-.017-.006-.016-.006-.017-.006-.015-.007-.015-.005-.016-.005-.016-.006-.017-.005-.015-.005-.017-.006-.016-.005-.016-.005-.016-.005-.017-.005-.016-.005-.016-.006-.016-.005-.017-.005-.016-.005-.017-.004-.016-.005-.017-.004-.016-.006-.017-.004-.016-.004-.017-.004-.016-.005-.017-.004-.016-.004-.017-.003-.016-.005-.017-.004-.016-.004-.017-.003-.016-.004-.017-.003-.016-.003-.017-.004-.016-.003-.017-.003-.016-.004-.017-.003-.016-.003-.017-.003-.017-.003-.017-.002-.016-.002-.017-.002-.016-.002-.017-.003-.016-.003-.017-.002-.017-.004-.017-.002-.016-.003-.017-.002-.016-.002-.017-.002-.016-.002-.017-.002-.017-.002-.017-.001-.016-.002-.017-.002-.016-.001-.017-.001-.016-.001-.017-.001-.016-.001-.018-.001-.017-.001-.017-.001-.016-.001h-.017l-.016-.002h-.034l-.017-.002h-.016l-.016-.002h-.05l-.017-.002h-.033l-.016.007z" fill="#C9177E"/><path fill="#FFF" d="M87.681 318.61v-21.363h4.47v7.781h7.414v-7.781h4.482v21.363h-4.482v-9.34H92.15v9.34z"/></g><path d="M315.17 256.378c-.157.082-.143.109.006.032a.407.407 0 00.125-.08c0-.027 0-.027-.131.048zm.315-.171c-.075.062-.075.062.014.02a.326.326 0 00.09-.06c0-.036-.022-.028-.104.04zm.204-.123c-.074.061-.074.061.015.02a.323.323 0 00.089-.062c0-.033-.021-.027-.104.042zm.208-.122c-.075.061-.075.061.012.02.048-.027.089-.055.089-.062 0-.033-.021-.027-.101.042zm.28-.186c-.144.096-.194.158-.062.09.087-.054.237-.172.21-.172-.056.02-.103.056-.15.082h.001zm-12.552-38.766c-.096.006-.383.032-.635.053-5.97.541-11.554 3.754-15.093 8.704a20.776 20.776 0 00-3.707 9.173c-.169 1.155-.19 1.496-.19 3.062 0 1.565.021 1.9.19 3.056 1.143 7.89 6.756 14.512 14.363 16.967 1.368.437 2.803.739 4.437.924.635.068 3.382.068 4.017 0 2.825-.315 5.21-1.012 7.57-2.216.362-.183.43-.232.381-.273a447.422 447.422 0 01-3.424-4.587l-3.356-4.532-4.204-6.228a546.522 546.522 0 00-4.238-6.227c-.014 0-.032 2.768-.04 6.144-.015 5.913-.015 6.153-.09 6.29a.75.75 0 01-.362.377c-.13.061-.247.074-.867.074h-.71l-.185-.115a.78.78 0 01-.273-.3l-.09-.186.007-8.23.014-8.232.13-.164a.989.989 0 01.3-.245c.173-.083.241-.096.951-.096.833 0 .971.033 1.19.273a791.28 791.28 0 015.065 7.629c2.729 4.137 6.454 9.782 8.284 12.551l3.33 5.04.164-.11a21.454 21.454 0 004.312-3.787 20.915 20.915 0 004.944-10.732c.169-1.155.19-1.498.19-3.062 0-1.566-.021-1.9-.19-3.056-1.143-7.89-6.756-14.512-14.363-16.968a22.289 22.289 0 00-4.367-.915c-.398-.04-3.112-.09-3.453-.054l-.002-.002zm8.593 12.701a.817.817 0 01.416.478c.035.11.042 2.392.035 7.534l-.014 7.381-1.298-1.995-1.306-1.996v-5.36c0-3.473.014-5.421.033-5.517a.878.878 0 01.41-.518c.163-.083.226-.09.876-.09.608 0 .71.007.847.083z" fill="#FFF" fill-rule="nonzero"/></g></svg>