<svg xmlns="http://www.w3.org/2000/svg" xmlns:xlink="http://www.w3.org/1999/xlink" width="73" height="73" version="1.1" viewBox="0 0 73 73"><title>web-components/html-templates</title><desc>Created with Sketch.</desc><g id="web-components/html-templates" fill="none" fill-rule="evenodd" stroke="none" stroke-width="1"><g id="container" fill-rule="nonzero" transform="translate(2.000000, 2.000000)"><rect id="mask" width="71" height="71" x="-1" y="-1" fill="#FFF" stroke="#375E87" stroke-width="2" rx="14"/><g id="web-design" transform="translate(11.000000, 12.000000)"><path id="Shape" fill="#87CED9" d="M42.1161565,44.5459286 C42.1161565,45.8879864 41.0284422,46.9757007 39.6863844,46.9757007 L7.28931633,46.9757007 C5.9472585,46.9757007 4.85954422,45.8879864 4.85954422,44.5459286 L4.85954422,2.42977211 C4.85954422,1.08771429 5.9472585,0 7.28931633,0 L39.6863844,0 C41.0284422,0 42.1161565,1.08771429 42.1161565,2.42977211 L42.1161565,44.5459286 Z"/><path id="Shape" fill="#4398D1" d="M39.6863844,46.9757806 L2.42977211,46.9757806 C1.08771429,46.9757806 0,45.8879864 0,44.5459286 L0,42.1161565 L37.2566122,42.1161565 L37.2566122,44.5459286 C37.2566122,45.8879864 38.3443265,46.9757806 39.6863844,46.9757806 Z"/><rect id="Rectangle-path" width="16.199" height="9.719" x="0" y="12.959" fill="#FDA72F"/><path id="Shape" fill="#FF8A3D" d="M4.28691156,19.456881 L2.66709014,17.8370595 C2.35119898,17.5211684 2.35119898,17.0076854 2.66709014,16.6917942 L4.28691156,15.0719728 L5.43217687,16.2172381 L4.38490816,17.2645068 L5.43217687,18.3116156 L4.28691156,19.456881 Z"/><path id="Shape" fill="#FF8A3D" d="M11.9116224,19.456881 L10.7663571,18.3116156 L11.8136259,17.2643469 L10.7663571,16.2170782 L11.9116224,15.0718129 L13.5314439,16.6916344 C13.847335,17.0075255 13.847335,17.5210085 13.5314439,17.8368997 L11.9116224,19.456881 Z"/><rect id="Rectangle-path" width="5.123" height="1.62" x="5.537" y="16.455" fill="#FF8A3D" transform="translate(8.098304, 17.264943) rotate(-71.554180) translate(-8.098304, -17.264943)"/><rect id="Rectangle-path" width="27.538" height="16.199" x="19.438" y="4.86" fill="#4398D1"/><polygon id="Shape" fill="#3269A1" points="46.976 17.818 41.306 14.579 35.052 17.818 27.538 12.959 19.438 17.818 19.438 21.058 46.976 21.058"/><circle id="Oval" cx="37.662" cy="10.124" r="2.025" fill="#E34B87"/><rect id="Rectangle-path" width="20.248" height="9.719" x="8.099" y="25.918" fill="#E34B87"/><rect id="Rectangle-path" width="3.24" height="1.62" x="10.529" y="28.347" fill="#BF3D75"/><rect id="Rectangle-path" width="7.289" height="1.62" x="15.389" y="28.347" fill="#BF3D75"/><rect id="Rectangle-path" width="1.62" height="1.62" x="24.298" y="28.347" fill="#BF3D75"/><rect id="Rectangle-path" width="9.719" height="1.62" x="10.529" y="31.587" fill="#BF3D75"/><rect id="Rectangle-path" width="4.05" height="1.62" x="21.868" y="31.587" fill="#BF3D75"/><rect id="Rectangle-path" width="1.62" height="1.62" x="7.289" y="2.43" fill="#5EB3D1"/><rect id="Rectangle-path" width="1.62" height="1.62" x="10.529" y="2.43" fill="#5EB3D1"/><rect id="Rectangle-path" width="1.62" height="1.62" x="13.769" y="2.43" fill="#5EB3D1"/><rect id="Rectangle-path" width="9.719" height="1.62" x="7.289" y="5.669" fill="#5EB3D1"/><rect id="Rectangle-path" width="15.389" height="9.719" x="31.587" y="29.157" fill="#E34B87"/><rect id="Rectangle-path" width="1.62" height="1.62" x="34.017" y="31.587" fill="#BF3D75"/><rect id="Rectangle-path" width="1.62" height="1.62" x="34.017" y="34.827" fill="#BF3D75"/><rect id="Rectangle-path" width="7.289" height="1.62" x="37.257" y="31.587" fill="#BF3D75"/><rect id="Rectangle-path" width="7.289" height="1.62" x="37.257" y="34.827" fill="#BF3D75"/><rect id="Rectangle-path" width="21.058" height="1.62" x="21.058" y="21.058" fill="#71C4D1"/><rect id="Rectangle-path" width="8.909" height="1.62" x="33.207" y="38.877" fill="#71C4D1"/><polygon id="Shape" fill="#71C4D1" points="16.199 14.579 16.199 22.678 4.86 22.678 4.86 24.298 17.818 24.298 17.818 14.579"/><polygon id="Shape" fill="#71C4D1" points="28.347 27.538 28.347 35.637 9.719 35.637 9.719 37.257 29.967 37.257 29.967 27.538"/></g></g></g></svg>