<svg xmlns="http://www.w3.org/2000/svg" xmlns:xlink="http://www.w3.org/1999/xlink" width="73" height="73" version="1.1" viewBox="0 0 73 73"><title>the-modern-web/browser-extensions</title><desc>Created with Sketch.</desc><defs><rect id="path-1" width="69" height="69" x="6" y="0" rx="14"/></defs><g id="the-modern-web/browser-extensions" fill="none" fill-rule="evenodd" stroke="none" stroke-width="1"><g id="container" transform="translate(-4.000000, 2.000000)"><rect id="mask" width="71" height="71" x="5" y="-1" fill="#FFF" fill-rule="nonzero" stroke="#61130D" stroke-width="2" rx="14"/><mask id="mask-2" fill="#fff"><use xlink:href="#path-1"/></mask><rect width="71" height="71" x="5" y="-1" stroke="#61130D" stroke-width="2" rx="14"/><g id="electric-car" fill-rule="nonzero" mask="url(#mask-2)"><g transform="translate(0.000000, 11.000000)"><polygon id="Shape" fill="#C7463B" points="62.682 27.975 56.786 27.975 63.103 13.234 64.884 12.128 67.661 12.137 69 13.234"/><path id="Shape" fill="#F55648" d="M64.0862069,29.9404818 L64.0862069,36.5741025 L56.2241379,36.6969473 L56.2241379,29.9404818 C56.2241379,27.7694314 57.984122,26.0094473 60.1551724,26.0094473 C62.3262228,26.0094473 64.0862069,27.7694314 64.0862069,29.9404818 Z"/><path id="Shape" fill="#C3C3C3" d="M38.5344828,24.0439301 C37.9917202,24.0439301 37.5517241,23.6039341 37.5517241,23.0611715 L37.5517241,19.130137 C37.5517241,18.5873744 37.9917202,18.1473784 38.5344828,18.1473784 C39.0772454,18.1473784 39.5172414,18.5873744 39.5172414,19.130137 L39.5172414,23.0611715 C39.5172414,23.6039341 39.0772454,24.0439301 38.5344828,24.0439301 Z"/><path id="Shape" fill="#EAEAE8" d="M46.3965517,30.9232404 L44.9245022,31.3471779 L26.8213513,31.6603094 L24.7758621,30.9232404 L29.1512263,27.4228999 C29.4999003,27.1439663 29.9331575,26.9920664 30.3796746,26.992206 L41.4827586,26.992206 L46.3965517,30.9232404 Z"/><path id="Shape" fill="#6CBAE5" d="M48.362069,32.8887577 L48.362069,36.8197922 C48.362069,37.9053174 47.4820769,38.7853094 46.3965517,38.7853094 L12,38.7853094 L12,37.3111715 C12,33.7832146 14.8599741,30.9232404 18.387931,30.9232404 L46.3965517,30.9232404 C47.4820769,30.9232404 48.362069,31.8032325 48.362069,32.8887577 Z"/><polygon id="Shape" fill="#C7463B" points="54.259 35.837 66.052 35.837 66.052 43.179 54.259 43.179"/><path id="Shape" fill="#4799CF" d="M36.5689655,30.9232404 L36.5689655,34.8542749 C36.5688229,35.0068518 36.5335123,35.1573425 36.4657759,35.2940594 L34.7201509,38.7853094 L32.5224569,38.7853094 L34.6034483,34.6220982 L34.6034483,30.9232404 L36.5689655,30.9232404 Z"/><polygon id="Shape" fill="#4799CF" points="23.793 30.923 25.759 30.923 25.759 38.785 23.793 38.785"/><polygon id="Shape" fill="#DBDBDB" points="37.552 26.992 39.517 26.992 39.517 30.923 37.552 30.923"/><polygon id="Shape" fill="#C7463B" points="41.483 14.216 35.586 14.216 35.586 5.372 41.483 6.354"/><polygon id="Shape" fill="#C7463B" points="36.569 16.182 36.569 19.13 38.534 21.096 40.5 19.13 40.5 16.182"/><path id="Shape" fill="#F55648" d="M63.1034483,13.2335853 L41.4827586,6.35427492 L35.5862069,6.35427492 L35.5862069,2.42324043 C35.5862069,1.33771524 36.4661989,0.457723193 37.5517241,0.457723193 L41.4827586,0.457723193 L67.6364224,8.86411759 C68.4490612,9.12554974 69.0000417,9.881634 69,10.73529 L69,13.2335853 L63.1034483,13.2335853 Z"/><polygon id="Shape" fill="#428DC5" points="0 41.734 91 41.734 91 76 0 76"/><polygon id="Shape" fill="#3775A4" points="2 41.734 82 41.734 82 43.699 2 43.699"/><polygon id="Shape" fill="#4799CF" points="27.724 33.872 31.655 33.872 31.655 35.837 27.724 35.837"/><polygon id="Shape" fill="#DC4D41" points="57.207 35.837 59.172 35.837 59.172 41.734 57.207 41.734"/><circle id="Oval" cx="19.862" cy="37.803" r="3.931" fill="#C3C3C3"/><circle id="Oval" cx="19.862" cy="37.803" r="1.966" fill="#EAEAE8"/><circle id="Oval" cx="42.466" cy="37.803" r="3.931" fill="#C3C3C3"/><circle id="Oval" cx="42.466" cy="37.803" r="1.966" fill="#EAEAE8"/><circle id="Oval" cx="38.534" cy="14.216" r="2.948" fill="#F55648"/><polygon id="Shape" fill="#B94137" points="35.586 6.354 41.483 6.354 41.483 8.32 35.586 8.32"/></g></g></g></g></svg>