<svg xmlns="http://www.w3.org/2000/svg" xmlns:xlink="http://www.w3.org/1999/xlink" width="73" height="73" version="1.1" viewBox="0 0 73 73"><title>the-modern-web/device-orientation-and-motion</title><desc>Created with Sketch.</desc><g id="the-modern-web/device-orientation-and-motion" fill="none" fill-rule="evenodd" stroke="none" stroke-width="1"><g id="container" fill="#FFF" fill-rule="nonzero" stroke="#574B40" stroke-width="2" transform="translate(2.000000, 2.000000)"><rect id="mask" width="71" height="71" x="-1" y="-1" rx="14"/></g><g id="map" fill-rule="nonzero" transform="translate(15.000000, 15.000000)"><polygon id="Shape" fill="#AB927A" points="0 0 44 0 44 36.667 0 36.667"/><polygon id="Shape" fill="#BA9A52" points="27.867 41.067 39.6 41.067 39.6 44 27.867 44"/><polygon id="Shape" fill="#F8CD6D" points="27.867 41.067 37.4 41.067 37.4 44 27.867 44"/><polygon id="Shape" fill="#8B733E" points="29.333 38.133 41.067 38.133 41.067 41.067 29.333 41.067"/><polygon id="Shape" fill="#BA9A52" points="29.333 38.133 38.867 38.133 38.867 41.067 29.333 41.067"/><polygon id="Shape" fill="#BA9A52" points="29.333 35.2 41.067 35.2 41.067 38.133 29.333 38.133"/><polygon id="Shape" fill="#F8CD6D" points="29.333 35.2 38.867 35.2 38.867 38.133 29.333 38.133"/><polygon id="Shape" fill="#8B733E" points="27.867 32.267 39.6 32.267 39.6 35.2 27.867 35.2"/><polygon id="Shape" fill="#BA9A52" points="27.867 32.267 37.4 32.267 37.4 35.2 27.867 35.2"/><polygon id="Shape" fill="#BA9A52" points="28.6 29.333 40.333 29.333 40.333 32.267 28.6 32.267"/><polygon id="Shape" fill="#F8CD6D" points="28.6 29.333 38.133 29.333 38.133 32.267 28.6 32.267"/><polygon id="Shape" fill="#7ECB92" points="8.067 6.6 11.733 2.933 17.6 8.8 10.267 8.8"/><polygon id="Shape" fill="#7ECB92" points="10.267 8.8 6.6 5.133 2.933 8.8"/><polygon id="Shape" fill="#4A92BB" points="10.267 16.133 11.733 14.667 13.2 14.667 14.667 16.133 16.133 16.133 17.6 17.6 17.6 19.067 16.133 20.533 14.667 20.533 13.2 19.067 11.733 19.067 10.267 17.6"/><polygon id="Shape" fill="#7ECB92" points="15.4 36.667 11.733 33 8.8 33 7.333 31.533 5.867 31.533 4.4 30.067 0 30.067 0 36.667"/><polygon id="Shape" fill="#4A92BB" points="26.4 17.6 24.933 16.133 24.933 14.667 23.467 13.2 24.933 11.733 26.4 11.733 27.867 13.2 29.333 13.2 30.8 11.733 33.733 11.733 36.667 14.667 36.667 16.133 35.2 17.6 33.733 17.6 32.267 19.067 29.333 19.067 27.867 20.533 26.4 20.533"/><polygon id="Shape" fill="#7ECB92" points="23.467 0 27.867 4.4 27.867 5.867 30.8 8.8 33.733 8.8 35.2 7.333 36.667 7.333 38.133 5.867 44 5.867 44 0"/><g id="Group" fill="#FFF" transform="translate(2.200000, 11.000000)"><polygon id="Shape" points="33.12 11.735 37.268 11.735 37.268 13.201 33.12 13.201" transform="translate(35.193659, 12.467874) rotate(-45.000000) translate(-35.193659, -12.467874)"/><polygon id="Shape" points="34.46 10.394 35.927 10.394 35.927 14.542 34.46 14.542" transform="translate(35.193659, 12.468393) rotate(-45.000000) translate(-35.193659, -12.468393)"/><path id="Shape" d="M17.6,22 C15.9822667,22 14.6666667,20.6844 14.6666667,19.0666667 L14.6666667,14.6666667 C14.6666667,13.8578 14.0088667,13.2 13.2,13.2 C12.3911333,13.2 11.7333333,13.8578 11.7333333,14.6666667 L11.7333333,15.0333333 C11.7333333,16.8527333 10.2527333,18.3333333 8.43333333,18.3333333 C6.61393333,18.3333333 5.13333333,16.8527333 5.13333333,15.0333333 L5.13333333,13.5666667 C5.13333333,12.5561333 4.31053333,11.7333333 3.3,11.7333333 C1.4806,11.7333333 0,10.2527333 0,8.43333333 L0,0 L1.46666667,0 L1.46666667,8.43333333 C1.46666667,9.44386667 2.28946667,10.2666667 3.3,10.2666667 C5.1194,10.2666667 6.6,11.7472667 6.6,13.5666667 L6.6,15.0333333 C6.6,16.0438667 7.4228,16.8666667 8.43333333,16.8666667 C9.44386667,16.8666667 10.2666667,16.0438667 10.2666667,15.0333333 L10.2666667,14.6666667 C10.2666667,13.0489333 11.5822667,11.7333333 13.2,11.7333333 C14.8177333,11.7333333 16.1333333,13.0489333 16.1333333,14.6666667 L16.1333333,19.0666667 C16.1333333,19.8755333 16.7911333,20.5333333 17.6,20.5333333 C18.4088667,20.5333333 19.0666667,19.8755333 19.0666667,19.0666667 L19.0666667,16.8666667 C19.0666667,15.6537333 20.0537333,14.6666667 21.2666667,14.6666667 L22,14.6666667 C22.4040667,14.6666667 22.7333333,14.3374 22.7333333,13.9333333 C22.7333333,12.7204 23.7204,11.7333333 24.9333333,11.7333333 L31.5333333,11.7333333 L31.5333333,13.2 L24.9333333,13.2 C24.5292667,13.2 24.2,13.5292667 24.2,13.9333333 C24.2,15.1462667 23.2129333,16.1333333 22,16.1333333 L21.2666667,16.1333333 C20.8626,16.1333333 20.5333333,16.4626 20.5333333,16.8666667 L20.5333333,19.0666667 C20.5333333,20.6844 19.2177333,22 17.6,22 Z"/></g></g></g></svg>