<svg xmlns="http://www.w3.org/2000/svg" xmlns:xlink="http://www.w3.org/1999/xlink" width="73" height="73" version="1.1" viewBox="0 0 73 73"><title>the-modern-web/gamepad-api</title><desc>Created with Sketch.</desc><g id="the-modern-web/gamepad-api" fill="none" fill-rule="evenodd" stroke="none" stroke-width="1"><g id="container" fill="#FFF" fill-rule="nonzero" stroke="#25394A" stroke-width="2" transform="translate(2.000000, 2.000000)"><rect id="mask" width="71" height="71" x="-1" y="-1" rx="14"/></g><g id="game-pad" fill-rule="nonzero" transform="translate(12.000000, 21.000000)"><path id="Shape" fill="#3A556A" d="M47.8544756,11.0932415 C45.4195341,2.55421463 39.7979195,-1.12783659 34.5825268,0.359134146 C33.2301268,0.7448 32.0431317,1.44621707 31.0636098,2.41641707 C30.502022,2.97274634 29.7603293,3.30881463 28.9698756,3.30881463 L19.9818415,3.30881463 C19.1912683,3.30881463 18.4494561,2.9723878 17.8877488,2.41617805 C16.9083463,1.44621707 15.7215902,0.7448 14.3691902,0.359014634 C9.15403659,-1.12783659 3.53242195,2.55421463 1.0976,11.0932415 C-1.33746098,19.6322683 0.336307317,29.7943902 5.5517,31.2816 C9.48520488,32.403222 14.308,28.2679805 17.4864268,22.5046244 C17.8238098,21.892722 18.4777805,21.5233098 19.1763293,21.5233098 L29.7759854,21.5233098 C30.4745341,21.5233098 31.1285049,21.892722 31.4658878,22.5046244 C34.6441951,28.267861 39.4669902,32.403222 43.4004951,31.2816 C48.6156488,29.7945098 50.2894171,19.6322683 47.8544756,11.0932415 Z"/><circle id="Oval" cx="37.038" cy="7.203" r="2.448" fill="#FCD462"/><circle id="Oval" cx="37.038" cy="16.039" r="2.448" fill="#44C4A1"/><circle id="Oval" cx="41.456" cy="11.621" r="2.448" fill="#27A2DB"/><circle id="Oval" cx="32.627" cy="11.621" r="2.448" fill="#E56353"/><path id="Shape" fill="#EBF0F3" d="M16.2849707,10.1856659 L12.6557439,10.1856659 L12.6557439,6.5562 C12.6557439,6.17639024 12.347761,5.8682878 11.9678317,5.8682878 L8.97895122,5.8682878 C8.59902195,5.8682878 8.29103902,6.17639024 8.29103902,6.5562 L8.29103902,10.1856659 L4.66169268,10.1856659 C4.28176341,10.1856659 3.97378049,10.4935293 3.97378049,10.873578 L3.97378049,13.8624585 C3.97378049,14.2422683 4.28176341,14.5503707 4.66169268,14.5503707 L8.29091951,14.5503707 L8.29091951,18.1795976 C8.29091951,18.5594073 8.59890244,18.8675098 8.97883171,18.8675098 L11.9677122,18.8675098 C12.3476415,18.8675098 12.6556244,18.5594073 12.6556244,18.1795976 L12.6556244,14.5503707 L16.2848512,14.5503707 C16.6647805,14.5503707 16.9727634,14.2422683 16.9727634,13.8624585 L16.9727634,10.873578 C16.9728829,10.4935293 16.6649,10.1856659 16.2849707,10.1856659 Z"/><g id="Group" fill="#E1E6E9" transform="translate(4.541463, 6.453659)"><polygon id="Shape" points="5.932 .065 4.87 1.127 6.994 1.127"/><polygon id="Shape" points="5.932 11.764 6.994 10.701 4.87 10.701"/><polygon id="Shape" points="11.781 5.914 10.719 4.852 10.719 6.976"/><polygon id="Shape" points=".082 5.914 1.145 6.976 1.145 4.852"/></g><rect id="Rectangle-path" width="4.139" height="1.723" x="19.468" y="5.484" fill="#FCD462"/><rect id="Rectangle-path" width="4.139" height="1.723" x="25.345" y="5.484" fill="#44C4A1"/></g></g></svg>