<svg xmlns="http://www.w3.org/2000/svg" xmlns:xlink="http://www.w3.org/1999/xlink" width="73" height="73" version="1.1" viewBox="0 0 73 73"><title>the-modern-web/generators</title><desc>Created with Sketch.</desc><g id="the-modern-web/generators" fill="none" fill-rule="evenodd" stroke="none" stroke-width="1"><g id="container" fill="#FFF" fill-rule="nonzero" stroke="#343B3F" stroke-width="2" transform="translate(2.000000, 2.000000)"><rect id="mask" width="71" height="71" x="-1" y="-1" rx="14"/></g><g id="generator" fill-rule="nonzero" transform="translate(14.000000, 15.000000)"><path id="Shape" fill="#575F64" d="M15.9734786,0.0438596491 C15.5910773,0.0438596491 -0.43517,0.0438596491 0.100740175,0.0438596491 L0.100740175,2.67475333 L2.81935307,2.67475333 L2.81935307,6.62075105 L13.342585,6.62075105 L13.342585,2.67475333 L15.9734786,2.67475333 L15.9734786,0.0438596491 Z"/><polygon id="Shape" fill="#575F64" points="45 32.929 45 42.137 35.152 42.137 32.521 39.506 12.58 39.506 9.949 42.137 .101 42.137 .101 32.929 22.55 31.614"/><polygon id="Shape" fill="#474F54" points="45 32.929 45 42.137 35.152 42.137 32.521 39.506 22.55 39.506 22.55 31.614"/><polygon id="Shape" fill="#FFE17A" points=".101 5.305 45 5.305 45 32.929 .101 32.929"/><polygon id="Shape" fill="#FDBF00" points="22.55 5.305 45 5.305 45 32.929 22.55 32.929"/><path id="Shape" fill="#575F64" d="M22.5503701,10.5670916 C17.4729304,10.5670916 13.342585,14.6974369 13.342585,19.7748767 C13.342585,24.8523163 17.4729304,28.9826618 22.5503701,28.9826618 C27.6278097,28.9826618 31.7581552,24.8523163 31.7581552,19.7748767 C31.7581552,14.6974369 27.6278097,10.5670916 22.5503701,10.5670916 Z"/><path id="Shape" fill="#474F54" d="M31.7581552,19.7748767 C31.7581552,24.8523163 27.6278097,28.9826618 22.5503701,28.9826618 L22.5503701,10.5670916 C27.6278097,10.5670916 31.7581552,14.6974369 31.7581552,19.7748767 Z"/><polygon id="Shape" fill="#D1ECFF" points="25.681 18.459 23.787 24.142 21.314 23.3 22.05 21.09 19.42 21.09 21.314 15.408 23.787 16.25 23.05 18.459"/><polygon id="Shape" fill="#CBD7F1" points="25.681 18.459 23.787 24.142 22.55 23.721 22.55 15.829 23.787 16.25 23.05 18.459"/></g></g></svg>