<svg xmlns="http://www.w3.org/2000/svg" xmlns:xlink="http://www.w3.org/1999/xlink" width="73" height="73" version="1.1" viewBox="0 0 73 73"><title>the-modern-web/payment-request-api</title><desc>Created with Sketch.</desc><g id="the-modern-web/payment-request-api" fill="none" fill-rule="evenodd" stroke="none" stroke-width="1"><g id="container" fill="#FFF" fill-rule="nonzero" stroke="#34180A" stroke-width="2" transform="translate(2.000000, 2.000000)"><rect id="mask" width="71" height="71" x="-1" y="-1" rx="14"/></g><g id="debit-card" fill-rule="nonzero" transform="translate(15.000000, 14.000000)"><path id="Shape" fill="#FFB782" d="M41.3153241,12.5251003 L33.3794605,4.57413959 L33.3794605,36.4360484 L44,36.4360484 L44,18.9808646 C44,16.5571949 43.0334935,14.2336887 41.3153241,12.5251003 Z"/><path id="Shape" fill="#DE4C3C" d="M6.20288744,30.6303315 L0.203520885,15.0559016 C-0.398622236,13.4924778 0.380331541,11.7362753 1.94462623,11.1338418 L30.2616132,0.226456926 C31.8250369,-0.37568627 33.5812394,0.403267507 34.1833826,1.96756227 L40.1827492,17.5419922 C40.7848924,19.105416 40.0059386,20.8616185 38.4416438,21.4640519 L10.1255279,32.3714369 C8.56123311,32.97358 6.80590157,32.1937553 6.20288744,30.6303315 Z"/><polygon id="Shape" fill="#7A4930" points="36.345 7.578 2.393 20.739 4.654 26.608 38.608 13.453"/><path id="Shape" fill="#4398D1" d="M0.000290329392,19.7464633 L0.000290329392,3.05687815 C0.000290329392,1.3810969 1.35903186,0.0223553446 3.03481311,0.0223553446 L33.3794605,0.0223553446 C35.0552418,0.0223553446 36.4139833,1.3810969 36.4139833,3.05687815 L36.4139833,19.7464633 C36.4139833,21.4222445 35.0552418,22.780986 33.3794605,22.780986 L3.03481311,22.780986 C1.35903186,22.780986 0.000290329392,21.4222445 0.000290329392,19.7464633 Z"/><path id="Shape" fill="#3E8CC7" d="M33.3794605,0.0223553446 L30.1553526,0.0223553446 L7.3967219,22.780986 L33.3794605,22.780986 C35.0552418,22.780986 36.4139833,21.4222445 36.4139833,19.7464633 L36.4139833,3.05687815 C36.4139833,1.3810969 35.0552418,0.0223553446 33.3794605,0.0223553446 Z"/><polygon id="Shape" fill="#5EB3D1" points="3.035 12.16 6.069 12.16 6.069 13.677 3.035 13.677"/><polygon id="Shape" fill="#5EB3D1" points="3.035 16.712 6.069 16.712 6.069 18.229 3.035 18.229"/><polygon id="Shape" fill="#5EB3D1" points="16.69 16.712 19.724 16.712 19.724 18.229 16.69 18.229"/><polygon id="Shape" fill="#5EB3D1" points="7.587 12.16 10.621 12.16 10.621 13.677 7.587 13.677"/><polygon id="Shape" fill="#5EB3D1" points="12.138 12.16 15.173 12.16 15.173 13.677 12.138 13.677"/><polygon id="Shape" fill="#5EB3D1" points="16.69 12.16 19.724 12.16 19.724 13.677 16.69 13.677"/><polygon id="Shape" fill="#5EB3D1" points="31.104 3.057 32.621 3.057 32.621 5.333 31.104 5.333"/><polygon id="Shape" fill="#5EB3D1" points="28.069 3.057 29.586 3.057 29.586 5.333 28.069 5.333"/><polygon id="Shape" fill="#5EB3D1" points="25.035 3.057 26.552 3.057 26.552 5.333 25.035 5.333"/><polygon id="Shape" fill="#5EB3D1" points="22 3.057 23.517 3.057 23.517 5.333 22 5.333"/><polygon id="Shape" fill="#88B337" points="30.345 36.436 44 36.436 44 44.022 30.345 44.022"/><path id="Shape" fill="#FFB782" d="M28.1184016,13.7267736 C26.8316617,12.4446791 24.7494194,12.4484533 23.4673248,13.7351932 C22.2276182,14.9792546 22.1846495,16.9781725 23.3694837,18.2747836 L29.586307,25.0568781 C27.7177471,28.3271484 27.7975876,32.3598237 29.7933119,35.5537373 L30.3449377,36.4360484 L40.2068465,36.4360484 L40.2068465,25.8155089 L28.1184016,13.7267736 Z"/><polygon id="Shape" fill="#6B962A" points="32.621 38.712 34.138 38.712 34.138 40.229 32.621 40.229"/><path id="Shape" fill="#FDB62F" d="M3.03481311,7.91205659 L3.03481311,4.27074539 C3.03481311,3.60008446 3.57801943,3.05687815 4.24868028,3.05687815 L7.88999155,3.05687815 C8.56065249,3.05687815 9.10356841,3.60008446 9.10356841,4.27074539 L9.10356841,7.91205659 C9.10356841,8.58271745 8.56065249,9.12592376 7.88999155,9.12592376 L4.24868028,9.12592376 C3.57801943,9.12592376 3.03481311,8.58271745 3.03481311,7.91205659 Z"/><polygon id="Shape" fill="#FD7B2F" points="3.035 5.333 5.311 5.333 5.311 6.85 3.035 6.85"/><polygon id="Shape" fill="#FD7B2F" points="6.828 5.333 9.104 5.333 9.104 6.85 6.828 6.85"/><path id="Shape" fill="#F2A46F" d="M39.4482158,25.8155089 C39.2473079,25.8155089 39.0539485,25.7356683 38.9119774,25.5931166 L35.8774546,22.5585938 C35.5862542,22.2575222 35.5946738,21.7773173 35.8966163,21.4858266 C36.1910104,21.2021748 36.6566987,21.2021748 36.9502217,21.4858266 L39.9847445,24.5203494 C40.2805901,24.8170661 40.2805901,25.2972709 39.9847445,25.5931166 C39.8419025,25.7356683 39.6494141,25.8155089 39.4482158,25.8155089 Z"/></g></g></svg>