<svg xmlns="http://www.w3.org/2000/svg" xmlns:xlink="http://www.w3.org/1999/xlink" width="73" height="73" version="1.1" viewBox="0 0 73 73"><title>the-modern-web/picture-in-picture</title><desc>Created with Sketch.</desc><g id="the-modern-web/picture-in-picture" fill="none" fill-rule="evenodd" stroke="none" stroke-width="1"><g id="container" fill="#FFF" fill-rule="nonzero" stroke="#3E3D3D" stroke-width="2" transform="translate(2.000000, 2.000000)"><rect id="mask" width="71" height="71" x="-1" y="-1" rx="14"/></g><g id="Group-2" fill-rule="nonzero" transform="translate(15.000000, 15.000000)"><g id="music-and-multimedia"><polygon id="Shape" fill="#FF493B" points="0 0 0 36 36 36 36 0"/><rect id="Rectangle-path" width="27.422" height="13.268" x="4.289" y="4.289" fill="#DEECF1"/><g id="Group" fill="#5A5A5A" transform="translate(4.289063, 27.492187)"><rect id="Rectangle-path" width="3.164" height="2.109" x="0" y="0"/><rect id="Rectangle-path" width="20.039" height="2.109" x="7.383" y="0"/></g><circle id="Oval" cx="9.563" cy="28.547" r="3.164" fill="#DEECF1"/><polygon id="Shape" fill="#5A5A5A" points="31.711 17.557 31.711 23.273 4.289 23.273 4.289 17.557 13.781 8.065 20.109 14.393 24.328 10.174"/></g><g id="music-and-multimedia" transform="translate(21.000000, 26.000000)"><polygon id="Shape" fill="#5A5A5A" points="0 0 0 17.773 23 17.773 23 0"/><rect id="Rectangle-path" width="17.52" height="8.477" x="2.74" y="2.74" fill="#DEECF1"/><polygon id="Shape" fill="#FF493B" points="20.26 11.217 20.26 14.869 2.74 14.869 2.74 11.217 8.805 5.152 12.848 9.195 15.543 6.5"/></g></g></g></svg>