<svg xmlns="http://www.w3.org/2000/svg" xmlns:xlink="http://www.w3.org/1999/xlink" width="73" height="73" version="1.1" viewBox="0 0 73 73"><title>the-modern-web/pointer-lock-api</title><desc>Created with Sketch.</desc><g id="the-modern-web/pointer-lock-api" fill="none" fill-rule="evenodd" stroke="none" stroke-width="1"><g id="container" fill="#FFF" fill-rule="nonzero" stroke="#32434A" stroke-width="2" transform="translate(2.000000, 2.000000)"><rect id="mask" width="71" height="71" x="-1" y="-1" rx="14"/></g><g id="lock" fill-rule="nonzero" transform="translate(17.000000, 15.000000)"><path id="Shape" fill="#77959E" d="M7.8875,0 C4.98232218,0 2.62916667,2.35315552 2.62916667,5.25833333 L2.62916667,10.5166667 L13.1458333,10.5166667 L13.1458333,5.25833333 C13.1458333,2.35315552 10.7926778,0 7.8875,0 Z M10.5166667,7.8875 L5.25833333,7.8875 L5.25833333,5.25833333 C5.25833333,3.81216333 6.44133,2.62916667 7.8875,2.62916667 C9.33367,2.62916667 10.5166667,3.81216333 10.5166667,5.25833333 L10.5166667,7.8875 Z"/><path id="Shape" fill="#ECCE93" d="M35.49375,42.0666667 L17.0895833,42.0666667 L17.0895833,39.9134588 L9.44792586,30.7428278 C7.93467867,28.9272522 8.16351115,26.1995559 9.95790458,24.6628799 C10.7454991,23.9885783 11.7484467,23.6166051 12.7831676,23.6166051 C14.0765686,23.6166051 15.2939061,24.1869211 16.1219396,25.1795985 L18.4041667,27.9191696 L18.4041667,10.5166667 C18.4041667,8.34227649 20.1735265,6.57291667 22.3479167,6.57291667 C24.5223068,6.57291667 26.2916667,8.34227649 26.2916667,10.5166667 L26.2916667,18.7408361 L39.4375,22.6845861 L39.4375,34.618217 L35.49375,39.8765503 L35.49375,42.0666667 Z"/><polygon id="Shape" fill="#62808C" points="13.146 5.258 13.146 10.517 2.629 10.517 2.629 5.258 5.258 5.258 5.258 7.888 10.517 7.888 10.517 5.258"/><polygon id="Shape" fill="#00DDC2" points="0 7.888 15.775 7.888 15.775 21.033 0 21.033"/><g id="Group" fill="#FFF" transform="translate(6.572917, 13.145833)"><polygon id="Shape" points="0 0 2.629 0 2.629 2.629 0 2.629"/><polygon id="Shape" points="15.775 19.719 18.404 19.719 18.404 22.348 15.775 22.348"/><polygon id="Shape" points="21.033 19.719 23.663 19.719 23.663 22.348 21.033 22.348"/></g><polygon id="Shape" fill="#0AC1A7" points="0 18.404 15.775 18.404 15.775 21.033 0 21.033"/></g></g></svg>