<svg xmlns="http://www.w3.org/2000/svg" xmlns:xlink="http://www.w3.org/1999/xlink" width="73" height="73" version="1.1" viewBox="0 0 73 73"><title>the-modern-web/resize-observer</title><desc>Created with Sketch.</desc><g id="the-modern-web/resize-observer" fill="none" fill-rule="evenodd" stroke="none" stroke-width="1"><g id="container" fill="#FFF" fill-rule="nonzero" stroke="#021F34" stroke-width="2" transform="translate(2.000000, 2.000000)"><rect id="mask" width="71" height="71" x="-1" y="-1" rx="14"/></g><g id="fat" fill-rule="nonzero" transform="translate(15.000000, 15.000000)"><path id="Shape" fill="#1D5C88" d="M43.9053937,27.2527484 L10.5978418,27.2527484 C10.5934022,31.872086 12.5135054,36.2845763 15.8967742,39.4296774 L15.8967742,43.9065118 L40.1204301,43.9065118 L40.1204301,37.8218323 C42.5725075,34.8460129 43.9109591,31.1086624 43.9053937,27.2527484 Z"/><path id="Shape" fill="#2BB3CE" d="M31.7935484,37.8505978 C28.867028,37.8505978 26.4946237,35.4781935 26.4946237,32.5516731 L26.4946237,31.7946839 L31.7935484,31.7946839 L31.7935484,37.8505978 Z"/><path id="Shape" fill="#9A615B" d="M21.1956989,27.2527484 L21.1956989,31.7946839 L43.2725333,31.7946839 C43.6930409,30.3173247 43.9067957,28.7887742 43.9076473,27.2527484 L21.1956989,27.2527484 Z"/><polygon id="Shape" fill="#1D5C88" points="34.824 27.253 37.852 27.253 37.852 34.066 34.824 34.066"/><polygon id="Shape" fill="#1473A8" points="31.039 31.795 32.553 31.795 32.553 43.907 31.039 43.907"/><path id="Shape" fill="#F8C09C" d="M43.9053763,0.00113548387 L17.4107527,0.00113548387 C7.79509677,0.00113548387 9.99276108e-16,7.79623226 9.99276108e-16,17.4118882 L9.99276108e-16,18.1688774 C-0.00378494624,26.9446538 7.10737204,34.0618667 15.8831484,34.0656516 C21.0858409,34.0679226 25.9600946,31.5230194 28.932129,27.2527484 L43.9053763,27.2527484 L43.9053763,0.00113548387 Z"/><path id="Shape" fill="#7D8F9F" d="M21.9526882,18.9258667 C25.3456086,22.3187871 29.9474409,24.224886 34.7458065,24.2247914 L43.9053763,24.1702882 L43.9053763,0.00113548387 L17.4107527,0.00113548387 C9.25372043,0.00151397849 2.19034839,5.66492903 0.417101075,13.6269419 L9.15956989,13.6269419 C13.9579355,13.6268473 18.5597677,15.5329462 21.9526882,18.9258667 Z"/><path id="Shape" fill="#EF937D" d="M4.16344086,22.7108129 L4.16344086,21.1968344 C4.79051183,21.1968344 5.29892473,20.6884215 5.29892473,20.0613505 C5.29892473,19.4342796 4.79051183,18.9258667 4.16344086,18.9258667 L4.16344086,17.4118882 C5.62670108,17.4118882 6.81290323,18.5980903 6.81290323,20.0613505 C6.81290323,21.5246108 5.62670108,22.7108129 4.16344086,22.7108129 Z"/><polygon id="Shape" fill="#FFD884" points=".002 8.328 43.908 8.328 43.908 13.627 .002 13.627"/><g id="Group" fill="#EA676B" transform="translate(3.784946, 10.597849)"><polygon id="Shape" points="3.03 .758 4.544 .758 4.544 3.029 3.03 3.029"/><polygon id="Shape" points="6.058 .758 7.572 .758 7.572 3.029 6.058 3.029"/><polygon id="Shape" points="9.086 .758 10.6 .758 10.6 3.029 9.086 3.029"/><polygon id="Shape" points="12.114 .001 13.628 .001 13.628 3.029 12.114 3.029"/><polygon id="Shape" points=".002 .001 1.516 .001 1.516 3.029 .002 3.029"/><polygon id="Shape" points="15.142 .758 16.656 .758 16.656 3.029 15.142 3.029"/><polygon id="Shape" points="18.17 .758 19.684 .758 19.684 3.029 18.17 3.029"/><polygon id="Shape" points="21.198 .758 22.712 .758 22.712 3.029 21.198 3.029"/><polygon id="Shape" points="24.226 .001 25.74 .001 25.74 3.029 24.226 3.029"/><polygon id="Shape" points="27.254 .758 28.768 .758 28.768 3.029 27.254 3.029"/><polygon id="Shape" points="30.282 .758 31.796 .758 31.796 3.029 30.282 3.029"/><polygon id="Shape" points="33.31 .758 34.824 .758 34.824 3.029 33.31 3.029"/><polygon id="Shape" points="36.338 .001 37.852 .001 37.852 3.029 36.338 3.029"/></g></g></g></svg>