<svg xmlns="http://www.w3.org/2000/svg" xmlns:xlink="http://www.w3.org/1999/xlink" width="73" height="73" version="1.1" viewBox="0 0 73 73"><title>the-modern-web/screen-capture</title><desc>Created with Sketch.</desc><g id="the-modern-web/screen-capture" fill="none" fill-rule="evenodd" stroke="none" stroke-width="1"><g id="container" fill="#FFF" fill-rule="nonzero" stroke="#35353A" stroke-width="2" transform="translate(2.000000, 2.000000)"><rect id="mask" width="71" height="71" x="-1" y="-1" rx="14"/></g><g id="computer" fill-rule="nonzero" transform="translate(11.000000, 12.000000)"><polygon id="Shape" fill="#D8D9DD" points="34.198 47.732 16.743 47.732 18.925 37.837 32.016 37.837"/><rect id="Rectangle-path" width="21.815" height="2.024" x="14.563" y="46.608" fill="#D8D9DD"/><path id="Shape" fill="#59595A" d="M48.6410564,7.25029718 C48.6423839,7.25029718 48.6660586,7.26567462 48.6660586,7.26700217 L48.6660586,35.5877115 L2.27475488,35.5877115 L2.27475488,7.26700217 C2.27475488,7.26567462 2.29123861,7.25029718 2.29256616,7.25029718 L48.6410564,7.25029718 Z M50.9151475,21.4188937 L50.9151475,7.26301952 C50.9151475,6.06302603 49.8451432,5.00131887 48.645039,5.00131887 L2.28858351,5.00131887 C1.08859002,5.00131887 0.0257765727,6.06302603 0.0257765727,7.26301952 L0.0257765727,21.4188937 L0.0257765727,21.4192256 L0.0257765727,35.5752104 C0.0257765727,36.7753145 1.08859002,37.8369111 2.28858351,37.8369111 L48.645039,37.8369111 C49.8451432,37.8369111 50.9151475,36.7752039 50.9151475,35.5752104 L50.9151475,21.4192256 L50.9151475,21.4188937 Z"/><path id="Shape" fill="#90C5FF" d="M48.6410564,7.25029718 C48.6423839,7.25029718 48.6660586,7.26567462 48.6660586,7.26700217 L48.6660586,35.5877115 L2.27475488,35.5877115 L2.27475488,7.26700217 C2.27475488,7.26567462 2.29123861,7.25029718 2.29256616,7.25029718 L48.6410564,7.25029718 Z"/><rect id="Rectangle-path" width="21.815" height="2.024" x="14.563" y="46.608" fill="#5B5B5F" opacity=".4"/><g id="Group" fill="#FFF" opacity=".2"><polygon id="Shape" points="19.947 38.955 16.922 40.287 0 1.885 3.024 .552"/><polygon id="Shape" points="25.702 38.474 22.676 39.805 5.754 1.404 8.776 .071"/></g></g></g></svg>