<svg xmlns="http://www.w3.org/2000/svg" xmlns:xlink="http://www.w3.org/1999/xlink" width="73" height="73" version="1.1" viewBox="0 0 73 73"><title>the-modern-web/streams</title><desc>Created with Sketch.</desc><defs><rect id="path-1" width="69" height="69" x="0" y="0" rx="14"/></defs><g id="the-modern-web/streams" fill="none" fill-rule="evenodd" stroke="none" stroke-width="1"><g id="container" transform="translate(2.000000, 2.000000)"><rect id="mask" width="71" height="71" x="-1" y="-1" fill="#FFF" fill-rule="nonzero" stroke="#5F3B00" stroke-width="2" rx="14"/><mask id="mask-2" fill="#fff"><use xlink:href="#path-1"/></mask><rect width="71" height="71" x="-1" y="-1" stroke="#5F3B00" stroke-width="2" rx="14"/><g id="slide" mask="url(#mask-2)"><g transform="translate(5.000000, 18.000000)"><polygon id="Shape" fill="#FBB540" fill-rule="nonzero" points="14.879 5.389 7.694 5.389 7.694 .898 11.287 0 14.879 .898"/><polygon id="Shape" fill="#EA9D2D" fill-rule="nonzero" points="7.694 2.694 14.879 2.694 14.879 4.491 7.694 4.491"/><polygon id="Shape" fill="#F3AF3E" fill-rule="nonzero" points="7.694 11.676 11.287 11.676 11.287 52.091 7.694 52.091"/><polygon id="Shape" fill="#D18D28" fill-rule="nonzero" points="19.37 12.574 5.898 12.574 5.898 4.491 18.472 4.491"/><polygon id="Shape" fill="#C38325" fill-rule="nonzero" points="8.593 8.981 10.389 8.981 10.389 10.778 8.593 10.778"/><polygon id="Shape" fill="#C38325" fill-rule="nonzero" points="12.185 8.981 15.778 8.981 15.778 10.778 12.185 10.778"/><polygon id="Shape" fill="#D18D28" fill-rule="nonzero" points="17.574 18.861 33.326 8.083 41.823 11.676 41.574 17.043 32.842 22.453 17.574 22.453"/><polygon id="Shape" fill="#D18D28" fill-rule="nonzero" points="17.574 32.333 32.842 21.886 41.823 25.148 41.574 30.515 31.046 35.925 17.574 35.925"/><polygon id="Shape" fill="#F55648" fill-rule="nonzero" points="27.453 12.574 31.046 12.574 31.046 52.091 27.453 52.091"/><path id="Shape" fill="#FBB540" fill-rule="nonzero" d="M46.3139293,41.3139293 C46.3157188,42.1968987 45.9205556,43.0339164 45.2376587,43.5936394 C44.5547617,44.1533625 43.6564541,44.3765127 42.7910187,44.2014137 L18.0655301,39.2572141 C15.9189911,38.8281543 14.526699,36.7402189 14.9557588,34.5936798 C15.3848186,32.4471408 17.4727541,31.0548487 19.6192931,31.4839085 L31.045738,33.7696466 C31.0466466,36.3802088 32.8891188,38.6276303 35.448815,39.1404574 L35.5307692,39.1572973 L46.3139293,41.3139293 Z"/><path id="Shape" fill="#FBB540" fill-rule="nonzero" d="M14.8794179,21.9270312 C14.8794609,20.7397485 15.4118204,19.615032 16.3300217,18.8623391 C17.2482231,18.1096463 18.4555231,17.8082819 19.6197422,18.0411642 L43.1282661,22.7427568 C44.9805956,23.1132839 46.3139145,24.7397111 46.3139293,26.628736 C46.3139536,27.816058 45.7816227,28.9408376 44.8634123,29.6935814 C43.9452018,30.4463252 42.7378626,30.7477175 41.573605,30.5148274 L18.0650811,25.8131227 C16.2127102,25.4425872 14.8793792,23.8160982 14.8794179,21.9270312 Z"/><path id="Shape" fill="#FBB540" fill-rule="nonzero" d="M14.8794179,8.45509771 C14.8794609,7.267815 15.4118204,6.14309852 16.3300217,5.39040567 C17.2482231,4.63771282 18.4555231,4.33634846 19.6197422,4.56923077 L43.1282661,9.27082328 C44.9805956,9.64135042 46.3139145,11.2677777 46.3139293,13.1568025 C46.3139536,14.3441245 45.7816227,15.4689041 44.8634123,16.2216479 C43.9452018,16.9743917 42.7378626,17.275784 41.573605,17.042894 L18.0650811,12.3411892 C16.2127102,11.9706538 14.8793792,10.3441647 14.8794179,8.45509771 Z"/><g id="Group" fill="none" fill-rule="evenodd" stroke-width="1" transform="translate(22.738046, 8.756757)"><polygon id="Shape" fill="#FBEDBF" fill-rule="nonzero" points=".227 .225 2.024 .225 2.024 2.058 .227 2.058" transform="translate(1.125883, 1.141240) rotate(-78.701300) translate(-1.125883, -1.141240)"/><polygon id="Shape" fill="#FBEDBF" fill-rule="nonzero" points="7.861 -1.459 9.658 -1.459 9.658 6.788 7.861 6.788" transform="translate(8.759428, 2.664433) rotate(-78.701300) translate(-8.759428, -2.664433)"/><polygon id="Shape" fill="#FBEDBF" fill-rule="nonzero" points=".233 13.639 2.03 13.639 2.03 15.471 .233 15.471" transform="translate(1.131451, 14.555022) rotate(-78.701300) translate(-1.131451, -14.555022)"/><polygon id="Shape" fill="#FBEDBF" fill-rule="nonzero" points="7.867 11.955 9.663 11.955 9.663 20.201 7.867 20.201" transform="translate(8.764998, 16.078080) rotate(-78.701300) translate(-8.764998, -16.078080)"/><polygon id="Shape" fill="#FBEDBF" fill-rule="nonzero" points=".239 27.109 2.036 27.109 2.036 28.942 .239 28.942" transform="translate(1.137065, 28.025720) rotate(-78.701300) translate(-1.137065, -28.025720)"/><path id="Shape" fill="#FBEDBF" fill-rule="nonzero" d="M12.7927235,30.4005405 L12.622079,31.253763 L4.53891892,29.637131 L4.89143451,27.8756757 L9.90523909,28.8782121 C10.6697529,29.6480605 11.6466081,30.1722553 12.7107692,30.3837006 L12.7927235,30.4005405 Z"/></g><path id="Shape" fill="#C0F5F9" fill-rule="nonzero" d="M56.1405821,41.3130312 C55.9442957,41.3130779 55.7485741,41.2920002 55.5567983,41.2501622 L55.5378254,41.2457838 L47.8993514,39.4009148 L48.3210229,37.6549522 L55.9488316,39.4970146 C56.2059631,39.5509816 56.47396,39.495841 56.6888995,39.3447449 C56.9038391,39.1936488 57.046451,38.9601436 57.0827193,38.6999252 C57.1488441,38.2098234 56.8288345,37.7506602 56.3461414,37.643052 L55.2417796,37.4015676 L55.6252807,35.646736 L56.7297547,35.8882204 C58.0997554,36.1871902 59.0239039,37.4710152 58.8726118,38.8650725 C58.7213197,40.2591297 57.5432727,41.3148108 56.1410312,41.3129189 L56.1405821,41.3130312 Z"/><polygon id="Shape" fill="#C0F5F9" fill-rule="nonzero" points="43.178 36.178 44.974 36.178 44.974 38.949 43.178 38.949" transform="translate(44.076048, 37.563472) rotate(-76.408440) translate(-44.076048, -37.563472)"/><polygon id="Shape" fill="#C0F5F9" fill-rule="nonzero" points="38.238 35.447 40.034 35.447 40.034 37.295 38.238 37.295" transform="translate(39.136062, 36.371306) rotate(-76.408440) translate(-39.136062, -36.371306)"/><polygon id="Shape" fill="#DC4D41" fill-rule="nonzero" points="7.694 17.963 11.287 16.166 11.287 12.574 7.694 12.574"/><polygon id="Shape" fill="#DC4D41" fill-rule="nonzero" points="11.287 25.148 7.694 26.944 7.694 22.453 11.287 20.657"/><polygon id="Shape" fill="#DC4D41" fill-rule="nonzero" points="11.287 34.129 7.694 35.925 7.694 31.435 11.287 29.638"/><polygon id="Shape" fill="#DC4D41" fill-rule="nonzero" points="11.287 43.11 7.694 44.906 7.694 40.416 11.287 38.62"/><polygon id="Shape" fill="#DC4D41" fill-rule="nonzero" points="7.694 49.397 11.287 47.601 11.287 52.091 7.694 52.091"/><path id="Shape" fill="#4799CF" fill-rule="nonzero" d="M58.8877339,50.7442827 L58.8877339,52.989605 L5,52.989605 L0.525539904,50.2952183 C2.14485426,48.4989605 3.93571726,47.6008316 5.8981289,47.6008316 C8.84174636,47.6008316 8.84174636,50.7442827 11.7853638,50.7442827 C14.7289813,50.7442827 14.7289813,47.6008316 17.6737214,47.6008316 C20.6184615,47.6008316 20.6173389,50.7442827 23.5609563,50.7442827 C26.5045738,50.7442827 26.5045738,47.6008316 29.4481913,47.6008316 C32.3918087,47.6008316 32.3918087,50.7442827 35.3354262,50.7442827 C38.2790437,50.7442827 38.2801663,47.6008316 41.2237838,47.6008316 C44.1674012,47.6008316 44.1674012,50.7442827 47.1110187,50.7442827 C50.0546362,50.7442827 50.0557588,47.6008316 52.9993763,47.6008316"/><path id="Shape" fill="#428DC5" fill-rule="nonzero" d="M58.8877339,52.5405405 L58.8877339,52.989605 L5,52.989605 L5,49.3970894 L5.8981289,49.3970894 C8.84174636,49.3970894 8.84174636,52.5405405 11.7853638,52.5405405 C14.7289813,52.5405405 14.7289813,49.3970894 17.6737214,49.3970894 C20.6184615,49.3970894 20.6173389,52.5405405 23.5609563,52.5405405 C26.5045738,52.5405405 26.5045738,49.3970894 29.4481913,49.3970894 C32.3918087,49.3970894 32.3918087,52.5405405 35.3354262,52.5405405 C38.2790437,52.5405405 38.2801663,49.3970894 41.2237838,49.3970894 C44.1674012,49.3970894 44.1674012,52.5405405 47.1110187,52.5405405 C50.0546362,52.5405405 50.0557588,49.3970894 52.9993763,49.3970894 C55.9429938,49.3970894 55.9441164,52.5405405 58.8877339,52.5405405 Z"/><polygon id="Shape" fill="#C7463B" fill-rule="nonzero" points="7.694 12.574 11.287 12.574 11.287 13.472 7.694 13.472"/></g></g></g></g></svg>