<svg xmlns="http://www.w3.org/2000/svg" xmlns:xlink="http://www.w3.org/1999/xlink" width="73" height="73" version="1.1" viewBox="0 0 73 73"><title>the-modern-web/variable-fonts</title><desc>Created with Sketch.</desc><g id="the-modern-web/variable-fonts" fill="none" fill-rule="evenodd" stroke="none" stroke-width="1"><g id="container" fill="#FFF" fill-rule="nonzero" stroke="#04376E" stroke-width="2" transform="translate(2.000000, 2.000000)"><rect id="mask" width="71" height="71" x="-1" y="-1" rx="14"/></g><g id="edit-text" fill-rule="nonzero" transform="translate(15.000000, 14.000000)"><polygon id="Shape" fill="#3EA7FF" points="44 0 0 0 0 44 7.586 44 7.586 7.586 44 7.586"/><path id="Shape" fill="#EB352F" d="M15.1724138,15.1724138 L15.1724138,23.5172414 L18.2068966,23.5172414 C18.2068966,21.8413428 19.5654808,20.4827586 21.2413793,20.4827586 L24.2758621,20.4827586 L24.2758621,37.9310345 C24.2758621,39.606933 22.9172779,40.9655172 21.2413793,40.9655172 L21.2413793,44 L33.3793103,44 L33.3793103,40.9655172 C31.7034118,40.9655172 30.3448276,39.606933 30.3448276,37.9310345 L30.3448276,20.4827586 L33.3793103,20.4827586 C35.0552089,20.4827586 36.4137931,21.8413428 36.4137931,23.5172414 L39.4482759,23.5172414 L39.4482759,15.1724138 L15.1724138,15.1724138 Z"/><g id="Group" fill="#65DCFF" transform="translate(7.586207, 7.586207)"><polygon id="Shape" points="31.103 0 32.621 0 32.621 2.276 31.103 2.276"/><polygon id="Shape" points="6.828 0 8.345 0 8.345 2.276 6.828 2.276"/><polygon id="Shape" points="3.793 6.828 5.31 6.828 5.31 8.345 3.793 8.345"/><polygon id="Shape" points="6.828 3.793 8.345 3.793 8.345 5.31 6.828 5.31"/><polygon id="Shape" points="31.103 3.793 32.621 3.793 32.621 5.31 31.103 5.31"/><polygon id="Shape" points="0 6.828 2.276 6.828 2.276 8.345 0 8.345"/><polygon id="Shape" points="3.793 15.172 5.31 15.172 5.31 16.69 3.793 16.69"/><polygon id="Shape" points="0 15.172 2.276 15.172 2.276 16.69 0 16.69"/><polygon id="Shape" points="3.793 32.621 5.31 32.621 5.31 34.138 3.793 34.138"/><polygon id="Shape" points="0 32.621 2.276 32.621 2.276 34.138 0 34.138"/><polygon id="Shape" points="3.793 35.655 5.31 35.655 5.31 37.172 3.793 37.172"/><polygon id="Shape" points="6.828 35.655 8.345 35.655 8.345 37.172 6.828 37.172"/><polygon id="Shape" points="0 35.655 2.276 35.655 2.276 37.172 0 37.172"/><polygon id="Shape" points="6.828 32.621 8.345 32.621 8.345 34.138 6.828 34.138"/><polygon id="Shape" points="9.862 35.655 11.379 35.655 11.379 37.172 9.862 37.172"/><polygon id="Shape" points="9.862 32.621 11.379 32.621 11.379 34.138 9.862 34.138"/></g><polygon id="Shape" fill="#2B7CD4" points="3.034 40.207 7.586 40.207 7.586 41.724 3.034 41.724"/><polygon id="Shape" fill="#2B7CD4" points="3.034 35.655 7.586 35.655 7.586 37.172 3.034 37.172"/><polygon id="Shape" fill="#2B7CD4" points="3.034 31.103 7.586 31.103 7.586 32.621 3.034 32.621"/><polygon id="Shape" fill="#2B7CD4" points="3.034 26.552 7.586 26.552 7.586 28.069 3.034 28.069"/><polygon id="Shape" fill="#2B7CD4" points="3.034 22 7.586 22 7.586 23.517 3.034 23.517"/><polygon id="Shape" fill="#2B7CD4" points="3.034 17.448 7.586 17.448 7.586 18.966 3.034 18.966"/><polygon id="Shape" fill="#2B7CD4" points="3.034 12.897 7.586 12.897 7.586 14.414 3.034 14.414"/><polygon id="Shape" fill="#2B7CD4" points="3.034 8.345 7.586 8.345 7.586 9.862 3.034 9.862"/><polygon id="Shape" fill="#2B7CD4" points="40.207 3.034 41.724 3.034 41.724 7.586 40.207 7.586"/><polygon id="Shape" fill="#2B7CD4" points="35.655 3.034 37.172 3.034 37.172 7.586 35.655 7.586"/><polygon id="Shape" fill="#2B7CD4" points="31.103 3.034 32.621 3.034 32.621 7.586 31.103 7.586"/><polygon id="Shape" fill="#2B7CD4" points="26.552 3.034 28.069 3.034 28.069 7.586 26.552 7.586"/><polygon id="Shape" fill="#2B7CD4" points="22 3.034 23.517 3.034 23.517 7.586 22 7.586"/><polygon id="Shape" fill="#2B7CD4" points="17.448 3.034 18.966 3.034 18.966 7.586 17.448 7.586"/><polygon id="Shape" fill="#2B7CD4" points="12.897 3.034 14.414 3.034 14.414 7.586 12.897 7.586"/><polygon id="Shape" fill="#2B7CD4" points="8.345 3.034 9.862 3.034 9.862 7.586 8.345 7.586"/></g></g></svg>