<svg xmlns="http://www.w3.org/2000/svg" xmlns:xlink="http://www.w3.org/1999/xlink" width="73" height="73" version="1.1" viewBox="0 0 73 73"><title>fundamentals/the-browser/debugging</title><desc>Created with Sketch.</desc><g id="fundamentals/the-browser/debugging" fill="none" fill-rule="evenodd" stroke="none" stroke-width="1"><g id="container" fill-rule="nonzero" transform="translate(2.000000, 2.000000)"><rect id="mask" width="71" height="71" x="-1" y="-1" fill="#FFF" stroke="#031E28" stroke-width="2" rx="14"/><g id="virus" transform="translate(9.000000, 12.000000)"><polygon id="Shape" fill="#03232E" points="25.5 44.696 51 44.696 51 12.757 23.506 10.763"/><polygon id="Shape" fill="#07485E" points="0 12.757 0 44.696 25.5 44.696 25.5 10.763"/><polygon id="Shape" fill="#B4D2D7" points="25.5 .05 23.506 6.403 25.5 12.757 51 12.757 51 .05"/><polygon id="Shape" fill="#E1EBF0" points="0 .05 25.5 .05 25.5 12.757 0 12.757"/><polygon id="Shape" fill="#FF4A4A" points="4.765 4.909 7.942 4.909 7.942 7.898 4.765 7.898"/><polygon id="Shape" fill="#FFD422" points="11.119 4.909 14.296 4.909 14.296 7.898 11.119 7.898"/><polygon id="Shape" fill="#00CC76" points="17.472 4.909 20.649 4.909 20.649 7.898 17.472 7.898"/><polygon id="Shape" fill="#FF9F22" points="16.287 27.233 22.114 27.233 22.114 30.221 16.287 30.221"/><polygon id="Shape" fill="#FF9F22" points="22.195 33.117 24.308 35.23 20.188 39.35 18.075 37.237"/><polygon id="Shape" fill="#FF4A4A" points="28.805 33.117 32.926 37.237 30.812 39.35 26.692 35.23"/><polygon id="Shape" fill="#FF9F22" points="20.188 18.102 24.308 22.222 22.195 24.335 18.075 20.215"/><polygon id="Shape" fill="#FF4A4A" points="30.812 18.102 32.925 20.215 28.805 24.335 26.692 22.222"/><polygon id="Shape" fill="#FF4A4A" points="28.886 27.233 34.713 27.233 34.713 30.221 28.886 30.221"/><path id="Shape" fill="#FF9F22" d="M25.5,20.1487198 L23.5062561,28.7264099 L25.5,37.3044891 C28.4657136,37.3044891 30.8785172,34.8912964 30.8785172,31.9255828 L30.8785172,25.527237 C30.8785172,22.5615234 28.4657136,20.1487198 25.5,20.1487198 Z"/><path id="Shape" fill="#FFD422" d="M20.1214828,25.5276261 L20.1214828,31.9255828 C20.1214828,34.8916855 22.5342864,37.3044891 25.5,37.3044891 L25.5,20.1487198 C22.5342864,20.1487198 20.1214828,22.5615234 20.1214828,25.5276261 Z"/></g></g></g></svg>