<svg xmlns="http://www.w3.org/2000/svg" xmlns:xlink="http://www.w3.org/1999/xlink" width="73" height="73" version="1.1" viewBox="0 0 73 73"><title>progressive-webapps/security/clickjacking</title><desc>Created with Sketch.</desc><g id="progressive-webapps/security/clickjacking" fill="none" fill-rule="evenodd" stroke="none" stroke-width="1"><g id="container" fill="#FFF" fill-rule="nonzero" stroke="#353E89" stroke-width="2" transform="translate(2.000000, 2.000000)"><rect id="mask" width="71" height="71" x="-1" y="-1" rx="14"/></g><g id="id-card" fill-rule="nonzero" transform="translate(15.000000, 15.000000)"><path id="Shape" fill="#EA3D2C" d="M31.109375,3.8671875 C31.109375,1.73482031 29.3745547,0 27.2421875,0 C25.1098203,0 23.375,1.73482031 23.375,3.8671875 C23.375,5.51538281 24.4118359,6.92527344 25.8671875,7.48085937 L25.8671875,13.4921875 L28.4453125,13.4921875 L28.4453125,7.54178906 C29.9902109,7.03467187 31.109375,5.57957813 31.109375,3.8671875 Z M27.2421875,5.15625 C26.5313984,5.15625 25.953125,4.57797656 25.953125,3.8671875 C25.953125,3.15639844 26.5313984,2.578125 27.2421875,2.578125 C27.9529766,2.578125 28.53125,3.15639844 28.53125,3.8671875 C28.53125,4.57797656 27.9529766,5.15625 27.2421875,5.15625 Z"/><path id="Shape" fill="#E1E4F9" d="M40.9921875,44 L3.0078125,44 C1.34930469,44 0,42.6506953 0,40.9921875 L0,16.0703125 C0,14.4118047 1.34930469,13.0625 3.0078125,13.0625 L40.9921875,13.0625 C42.6506953,13.0625 44,14.4118047 44,16.0703125 L44,40.9921875 C44,42.6506953 42.6506953,44 40.9921875,44 Z"/><path id="Shape" fill="#D6DAF6" d="M40.9921875,13.0625 L22,13.0625 L22,44 L40.9921875,44 C42.6506953,44 44,42.6506953 44,40.9921875 L44,16.0703125 C44,14.4118047 42.6506953,13.0625 40.9921875,13.0625 Z"/><path id="Shape" fill="#F0725F" d="M22.4726562,21.2265625 C18.6580625,21.2265625 15.5546875,18.1231875 15.5546875,14.3085938 L15.5546875,6.6171875 C15.5546875,5.47121094 16.9452422,4.8956875 17.7552031,5.70573437 L20.3333281,8.28385937 C20.83675,8.78719531 20.83675,9.60342969 20.3333281,10.1068516 C19.8299922,10.6102734 19.0137578,10.6102734 18.5103359,10.1068516 L18.1328125,9.72924219 L18.1328125,14.3085938 C18.1328125,16.7016094 20.0796406,18.6484375 22.4726562,18.6484375 C23.1845625,18.6484375 23.7617188,19.2255938 23.7617188,19.9375 C23.7617188,20.6494063 23.1845625,21.2265625 22.4726562,21.2265625 Z"/><path id="Shape" fill="#4B5ADD" d="M37.46875,25.953125 L24.6640625,25.953125 C23.9521563,25.953125 23.375,25.3759687 23.375,24.6640625 C23.375,23.9521563 23.9521563,23.375 24.6640625,23.375 L37.46875,23.375 C38.1806562,23.375 38.7578125,23.9521563 38.7578125,24.6640625 C38.7578125,25.3759687 38.1806562,25.953125 37.46875,25.953125 Z"/><path id="Shape" fill="#4B5ADD" d="M37.46875,31.109375 L24.578125,31.109375 C23.8662188,31.109375 23.2890625,30.5322187 23.2890625,29.8203125 C23.2890625,29.1084063 23.8662188,28.53125 24.578125,28.53125 L37.46875,28.53125 C38.1806562,28.53125 38.7578125,29.1084063 38.7578125,29.8203125 C38.7578125,30.5322187 38.1806562,31.109375 37.46875,31.109375 Z"/><path id="Shape" fill="#4B5ADD" d="M34.890625,36.265625 L24.6640625,36.265625 C23.9521563,36.265625 23.375,35.6884687 23.375,34.9765625 C23.375,34.2646563 23.9521563,33.6875 24.6640625,33.6875 L34.890625,33.6875 C35.6025312,33.6875 36.1796875,34.2646563 36.1796875,34.9765625 C36.1796875,35.6884687 35.6025312,36.265625 34.890625,36.265625 Z"/><path id="Shape" fill="#7A86E8" d="M19.421875,38.84375 L6.53125,38.84375 C5.81934375,38.84375 5.2421875,38.2665937 5.2421875,37.5546875 L5.2421875,36.265625 C5.2421875,32.0008906 8.71182813,28.53125 12.9765625,28.53125 C17.2412969,28.53125 20.7109375,32.0008906 20.7109375,36.265625 L20.7109375,37.5546875 C20.7109375,38.2665937 20.1337812,38.84375 19.421875,38.84375 Z"/><path id="Shape" fill="#7A86E8" d="M12.9765625,31.109375 C10.1334063,31.109375 7.8203125,28.7962812 7.8203125,25.953125 C7.8203125,23.1099688 10.1334063,20.796875 12.9765625,20.796875 C15.8197187,20.796875 18.1328125,23.1099688 18.1328125,25.953125 C18.1328125,28.7962812 15.8197187,31.109375 12.9765625,31.109375 Z"/><path id="Shape" fill="#EA3D2C" d="M22.4726562,18.6484375 C22.3128984,18.6484375 22.155375,18.6391562 22,18.6222266 L22,21.2086016 C22.1564062,21.2192578 22.3135859,21.2265625 22.4726562,21.2265625 C23.1845625,21.2265625 23.7617188,20.6494062 23.7617188,19.9375 C23.7617188,19.2255938 23.1845625,18.6484375 22.4726562,18.6484375 Z"/></g></g></svg>