<svg
  width="24"
  height="24"
  viewBox="0 0 24 24"
  fill="none"
  xmlns="http://www.w3.org/2000/svg"
>
  <path
    fill-rule="evenodd"
    clip-rule="evenodd"
    d="M12.0575 6.36074e-06C9.19512 -0.00296524 6.42524 1.03535 4.24425 2.92889C2.06326 4.82242 0.61373 7.4474 0.155424 10.3334C-0.302881 13.2194 0.259995 16.1778 1.74318 18.6784C3.22637 21.179 5.53292 23.0584 8.24948 23.9798C8.85581 24.0931 9.07024 23.7079 9.07024 23.3831C9.07024 23.0584 9.07024 22.3182 9.07024 21.291C5.70585 22.0387 4.996 19.637 4.996 19.637C4.77281 18.8926 4.29863 18.2531 3.65764 17.8319C2.57068 17.0766 3.74637 17.0766 3.74637 17.0766C4.1274 17.1316 4.49118 17.2744 4.81017 17.4942C5.12916 17.7141 5.395 18.0052 5.58754 18.3455C5.75115 18.6485 5.97172 18.9155 6.23661 19.1312C6.5015 19.347 6.80549 19.5071 7.13113 19.6026C7.45677 19.698 7.79765 19.7268 8.13422 19.6874C8.47079 19.6479 8.79642 19.541 9.09242 19.3726C9.13883 18.7513 9.40107 18.1674 9.83185 17.7262C7.15513 17.4165 4.34531 16.3591 4.34531 11.684C4.32693 10.4627 4.76906 9.28099 5.58015 8.38349C5.21891 7.3216 5.26113 6.15988 5.69846 5.12828C5.69846 5.12828 6.71147 4.79596 9.01109 6.38958C10.9858 5.83579 13.0701 5.83579 15.0448 6.38958C17.3444 4.79596 18.35 5.12828 18.35 5.12828C18.7935 6.14897 18.8462 7.30235 18.4979 8.36083C19.309 9.25834 19.7511 10.4401 19.7328 11.6614C19.7328 16.3893 16.9156 17.4241 14.2314 17.7035C14.5192 17.999 14.7415 18.3543 14.8831 18.7452C15.0247 19.1361 15.0824 19.5536 15.0522 19.9693C15.0522 21.6158 15.0522 22.9451 15.0522 23.3454C15.0522 23.7456 15.2666 24.0553 15.8804 23.9345C18.566 22.9888 20.838 21.1041 22.295 18.6132C23.752 16.1223 24.3002 13.1856 23.8428 10.3219C23.3854 7.45814 21.9518 4.85167 19.7953 2.96295C17.6388 1.07422 14.8982 0.024771 12.0575 6.36074e-06Z"
    fill="url(#paint0_linear)"
  />
  <defs>
    <linearGradient
      id="paint0_linear"
      x1="3.45"
      y1="3.45"
      x2="21.107"
      y2="22.6608"
      gradientUnits="userSpaceOnUse"
    >
      <stop stop-color="#FFAD33" />
      <stop offset="1" stop-color="#FF8A00" />
    </linearGradient>
  </defs>
</svg>
