<svg
  width="24"
  height="24"
  viewBox="0 0 24 24"
  fill="none"
  xmlns="http://www.w3.org/2000/svg"
>
  <path
    fill-rule="evenodd"
    clip-rule="evenodd"
    d="M0 12C0 5.37258 5.37258 0 12 0C18.6274 0 24 5.37258 24 12C24 18.6274 18.6274 24 12 24C5.37258 24 0 18.6274 0 12ZM11.6406 9.75375L11.6658 10.169L11.2461 10.1181C9.71843 9.92323 8.38383 9.26226 7.25067 8.15216L6.69668 7.60135L6.55399 8.0081C6.25181 8.91482 6.44487 9.87239 7.0744 10.5164C7.41015 10.8723 7.33461 10.9232 6.75544 10.7113C6.55399 10.6435 6.37772 10.5927 6.36093 10.6181C6.30218 10.6774 6.50363 11.4486 6.66311 11.7536C6.88134 12.1773 7.32621 12.5925 7.81305 12.8383L8.22435 13.0332L7.73751 13.0417C7.26746 13.0417 7.25067 13.0501 7.30103 13.2281C7.46891 13.7789 8.13201 14.3636 8.87066 14.6178L9.39108 14.7958L8.93781 15.067C8.26631 15.4568 7.4773 15.6771 6.68829 15.694C6.31057 15.7025 6 15.7364 6 15.7618C6 15.8466 7.02404 16.3211 7.61999 16.5075C9.40786 17.0584 11.5315 16.8211 13.1263 15.8805C14.2595 15.211 15.3926 13.8806 15.9214 12.5925C16.2068 11.9062 16.4922 10.652 16.4922 10.0503C16.4922 9.66054 16.5174 9.60969 16.9874 9.14362C17.2644 8.87245 17.5246 8.57586 17.575 8.49112C17.6589 8.33011 17.6505 8.33011 17.2224 8.47417C16.509 8.72839 16.4083 8.6945 16.7608 8.31317C17.021 8.042 17.3316 7.5505 17.3316 7.40645C17.3316 7.38102 17.2057 7.42339 17.063 7.49966C16.9119 7.5844 16.5761 7.71151 16.3243 7.78778L15.8711 7.93184L15.4598 7.65219C15.2331 7.49966 14.9142 7.33018 14.7463 7.27934C14.3182 7.1607 13.6635 7.17765 13.2774 7.31323C12.2282 7.69456 11.5651 8.67755 11.6406 9.75375Z"
    fill="url(#paint0_linear)"
  />
  <defs>
    <linearGradient
      id="paint0_linear"
      x1="3.45"
      y1="3.45"
      x2="21.107"
      y2="22.6608"
      gradientUnits="userSpaceOnUse"
    >
      <stop stop-color="#FFAD33" />
      <stop offset="1" stop-color="#FF8A00" />
    </linearGradient>
  </defs>
</svg>
