<svg xmlns="http://www.w3.org/2000/svg" xmlns:xlink="http://www.w3.org/1999/xlink" width="73" height="73" version="1.1" viewBox="0 0 73 73"><title>progressive-webapps/rendering-performance/css-containment</title><desc>Created with Sketch.</desc><g id="progressive-webapps/rendering-performance/css-containment" fill="none" fill-rule="evenodd" stroke="none" stroke-width="1"><g id="container" fill-rule="nonzero" transform="translate(2.000000, 2.000000)"><rect id="mask" width="71" height="71" x="-1" y="-1" fill="#FFF" stroke="#422F1E" stroke-width="2" rx="14"/><g id="bag" transform="translate(12.000000, 14.000000)"><rect id="Rectangle-path" width="43.448" height="10.862" x=".776" y="0" fill="#E0C6A9"/><polyline id="Shape" fill="#FFECD7" points="38.793 4.655 43.448 0 45 0 45 10.862 43.448 10.862 38.793 4.655"/><polygon id="Shape" fill="#CCB297" points="38.793 4.655 38.793 10.862 43.448 10.862"/><polyline id="Shape" fill="#FFECD7" points="6.207 4.655 1.552 0 0 0 0 10.862 1.552 10.862 6.207 4.655"/><polygon id="Shape" fill="#CCB297" points="6.207 4.655 6.207 10.862 1.552 10.862"/><path id="Shape" fill="#F0D7B8" d="M42.0967241,41.8965517 L2.90327586,41.8965517 C1.29956897,41.8965517 0,40.5969828 0,38.9932759 L0,10.862069 L45,10.862069 L45,38.9932759 C45,40.5969828 43.700431,41.8965517 42.0967241,41.8965517 Z"/><circle id="Oval" cx="13.19" cy="17.069" r="2.328" fill="#72543A"/><circle id="Oval" cx="31.81" cy="17.069" r="2.328" fill="#72543A"/><path id="Shape" fill="#CEB69E" d="M22.5,31.8103448 C16.9386207,31.8103448 12.4137931,27.2855172 12.4137931,21.7241379 L12.4137931,17.0689655 C12.4137931,16.6399138 12.7606034,16.2931034 13.1896552,16.2931034 C13.6187069,16.2931034 13.9655172,16.6399138 13.9655172,17.0689655 L13.9655172,21.7241379 C13.9655172,26.4297414 17.7943966,30.2586207 22.5,30.2586207 C27.2056034,30.2586207 31.0344828,26.4297414 31.0344828,21.7241379 L31.0344828,17.0689655 C31.0344828,16.6399138 31.3812931,16.2931034 31.8103448,16.2931034 C32.2393966,16.2931034 32.5862069,16.6399138 32.5862069,17.0689655 L32.5862069,21.7241379 C32.5862069,27.2855172 28.0613793,31.8103448 22.5,31.8103448 Z"/></g></g></g></svg>