<svg xmlns="http://www.w3.org/2000/svg" xmlns:xlink="http://www.w3.org/1999/xlink" width="73" height="73" version="1.1" viewBox="0 0 73 73"><title>progressive-webapps/rendering-performance/heap</title><desc>Created with Sketch.</desc><g id="progressive-webapps/rendering-performance/heap" fill="none" fill-rule="evenodd" stroke="none" stroke-width="1"><g id="container" fill-rule="nonzero" transform="translate(2.000000, 2.000000)"><rect id="mask" width="71" height="71" x="-1" y="-1" fill="#FFF" stroke="#2C576A" stroke-width="2" rx="14"/><g id="Group-3" transform="translate(9.000000, 10.000000)"><g id="plate" transform="translate(4.000000, 0.000000)"><path id="Shape" fill="#B4E7FD" d="M42,21.0051727 C42,32.5766602 32.6190491,41.957611 21.0475617,41.957611 C9.47566226,41.957611 0.0951233437,32.5766602 0.0951233437,21.0051727 C0.0951233437,9.43327329 9.47566226,0.052734375 21.0475617,0.052734375 C32.6190491,0.052734375 42,9.43327329 42,21.0051727 Z"/><path id="Shape" fill="#93DCFC" d="M32.6264648,21.0051727 C32.6264648,27.4000397 27.4424286,32.5840759 21.0475617,32.5840759 C14.6526947,32.5840759 9.4686585,27.4000397 9.4686585,21.0051727 C9.4686585,14.6103058 14.6526947,9.42626953 21.0475617,9.42626953 C27.4424286,9.42626953 32.6264648,14.6103058 32.6264648,21.0051727 Z"/><path id="Shape" fill="#93DCFC" d="M35.1317596,5.49220279 C38.5112915,9.21286005 40.571228,14.1542358 40.571228,19.5764007 C40.571228,31.1483001 31.1906891,40.5288392 19.6187897,40.5288392 C14.1966247,40.5288392 9.25524902,38.4689026 5.53459165,35.0893708 C9.36772153,39.3085327 14.8982391,41.957611 21.0475617,41.957611 C32.6194611,41.957611 42,32.5766602 42,21.0051727 C42,14.8558502 39.3509216,9.32533267 35.1317596,5.49220279 Z"/></g><g id="Group" fill="#FFF" transform="translate(2.000000, 14.000000)"><polygon id="Path-10" points="24.497 30.422 17.714 17.546 .451 7.735 2.355 27.648 24.497 35.21"/><polyline id="Path-4" points="46.199 2.389 32.972 3.904 23.199 12.885 9.016 26.419 8 24.544 20.6 12.885 32.972 0 48.223 .949"/></g><g id="Group-2" transform="translate(0.000000, 26.000000)"><path id="Path-5" fill="#B4E7FD" d="M16.0486241,11.3682436 L21.982251,18.729686 C19.1389113,19.5721276 16.278636,19.5721276 13.4014251,18.729686 C10.5242142,17.8872445 8.3830482,16.4228326 6.97792704,14.3364503 L16.0486241,11.3682436 Z" transform="translate(14.480089, 15.364880) rotate(-32.000000) translate(-14.480089, -15.364880)"/><polygon id="Path-6" fill="#93DCFC" points="9.252 13.104 7 16.376 7 12"/><polygon id="Path-7" fill="#93DCFC" points="9.376 9.196 9.376 5.188 4 0 4 6.145"/><polygon id="Path-8" fill="#B4E7FD" points="16.553 6 16.553 8.787 14 7.393 15.277 6"/><polygon id="Path-9" fill="#93DCFC" points="2.097 8 0 15.747 3.903 13.927"/></g></g></g></g></svg>