<svg xmlns="http://www.w3.org/2000/svg" xmlns:xlink="http://www.w3.org/1999/xlink" width="73" height="73" version="1.1" viewBox="0 0 73 73"><title>progressive-webapps/rendering-performance/layers</title><desc>Created with Sketch.</desc><g id="progressive-webapps/rendering-performance/layers" fill="none" fill-rule="evenodd" stroke="none" stroke-width="1"><g id="container" fill="#FFF" fill-rule="nonzero" stroke="#556080" stroke-width="2" transform="translate(2.000000, 2.000000)"><rect id="mask" width="71" height="71" x="-1" y="-1" rx="14"/></g><g id="layers" fill-rule="nonzero" transform="translate(14.000000, 14.000000)"><polygon id="Shape" fill="#694F87" points="23 26.157 8.749 18.015 .04 22.96 23 36.078 45.96 22.96 37.251 18.015"/><polygon id="Shape" fill="#556080" points="23 36.078 8.749 27.936 .04 32.882 23 46 45.96 32.882 37.251 27.936"/><g id="Group" fill="#BF4D90" transform="translate(5.411765, 18.039216)"><circle id="Oval" cx="30.706" cy=".902" r="1"/><circle id="Oval" cx="33.412" cy="3.608" r="1"/><circle id="Oval" cx="3.648" cy=".902" r="1"/><circle id="Oval" cx="28" cy="3.608" r="1"/><circle id="Oval" cx=".942" cy="3.608" r="1"/><circle id="Oval" cx="6.353" cy="3.608" r="1"/><circle id="Oval" cx="3.648" cy="6.314" r="1"/><circle id="Oval" cx="9.059" cy="6.314" r="1"/><circle id="Oval" cx="9.059" cy="11.725" r="1"/><circle id="Oval" cx="6.353" cy="9.02" r="1"/><circle id="Oval" cx="11.765" cy="9.02" r="1"/><circle id="Oval" cx="14.471" cy="11.725" r="1"/><circle id="Oval" cx="19.883" cy="11.725" r="1"/><circle id="Oval" cx="17.177" cy="9.02" r="1"/><circle id="Oval" cx="22.589" cy="9.02" r="1"/><circle id="Oval" cx="17.177" cy="14.431" r="1"/><circle id="Oval" cx="25.295" cy="6.314" r="1"/><circle id="Oval" cx="30.706" cy="6.314" r="1"/><circle id="Oval" cx="25.295" cy="11.725" r="1"/><circle id="Oval" cx="28" cy="9.02" r="1"/><circle id="Oval" cx="36.118" cy="6.314" r="1"/></g><polygon id="Shape" fill="#BF4D90" points="45.96 13.039 23 26.157 .04 13.039 23 0"/></g></g></svg>