<svg xmlns="http://www.w3.org/2000/svg" xmlns:xlink="http://www.w3.org/1999/xlink" width="73" height="73" version="1.1" viewBox="0 0 73 73"><title>progressive-webapps/rendering-performance/layout-trashing</title><desc>Created with Sketch.</desc><g id="progressive-webapps/rendering-performance/layout-trashing" fill="none" fill-rule="evenodd" stroke="none" stroke-width="1"><g id="container" fill="#FFF" fill-rule="nonzero" stroke="#333A50" stroke-width="2" transform="translate(2.000000, 2.000000)"><rect id="mask" width="71" height="71" x="-1" y="-1" rx="14"/></g><g id="garbage" fill-rule="nonzero" transform="translate(20.000000, 12.000000)"><path id="Shape" fill="#556080" d="M32.2071538,12.7803077 L0.366384615,8.305 L0.771692308,5.41961538 C0.938384615,4.23669231 2.03161538,3.41169231 3.21538462,3.57838462 L30.7712308,7.45123077 C31.9541538,7.61792308 32.7791538,8.71115385 32.6124615,9.89492308 L32.2071538,12.7803077 Z"/><path id="Shape" fill="#FFF" stroke="#7383BF" stroke-linecap="round" stroke-width="2" d="M11.9654615,4.80869231 L12.4367692,1.45707692 C12.5662308,0.535615385 13.4267692,-0.112538462 14.3482308,0.0169230769 L21.0514615,0.958692308 C21.9729231,1.08815385 22.6210769,1.94869231 22.4916154,2.87015385 L22.0203077,6.22176923 L11.9654615,4.80869231 Z"/><path id="Shape" fill="#EBBA16" d="M2.19746154,16.0769231 L11.1895385,16.0769231 L11.4797692,15.7866923 L6.69307692,11 L2.123,15.5700769 C2.00369231,15.6893846 2.00369231,15.8831538 2.123,16.0024615 L2.19746154,16.0769231 Z"/><rect id="Rectangle-path" width="6.769" height="2.538" x="12.326" y="13.538" fill="#DD352E"/><rect id="Rectangle-path" width="4.231" height="2.538" x="21.634" y="13.538" fill="#694F87"/><path id="Shape" fill="#556080" d="M27.786,49.0769231 L3.63592308,49.0769231 C2.36076923,49.0769231 1.32676923,48.0429231 1.32676923,46.7677692 L1.32676923,16.0769231 L30.096,16.0769231 L30.096,46.7677692 C30.0951538,48.0429231 29.0611538,49.0769231 27.786,49.0769231 Z"/><g id="Group" fill="#7383BF" transform="translate(4.230769, 19.461538)"><circle id="Oval" cx="1.326" cy="3.385" r="1"/><circle id="Oval" cx="1.326" cy="8.462" r="1"/><circle id="Oval" cx="3.864" cy=".846" r="1"/><circle id="Oval" cx="8.941" cy=".846" r="1"/><circle id="Oval" cx="3.864" cy="5.923" r="1"/><circle id="Oval" cx="8.941" cy="5.923" r="1"/><circle id="Oval" cx="6.403" cy="3.385" r="1"/><circle id="Oval" cx="11.48" cy="3.385" r="1"/><circle id="Oval" cx="6.403" cy="8.462" r="1"/><circle id="Oval" cx="11.48" cy="8.462" r="1"/><circle id="Oval" cx="14.018" cy=".846" r="1"/><circle id="Oval" cx="19.095" cy=".846" r="1"/><circle id="Oval" cx="14.018" cy="5.923" r="1"/><circle id="Oval" cx="19.095" cy="5.923" r="1"/><circle id="Oval" cx="16.557" cy="3.385" r="1"/><circle id="Oval" cx="21.634" cy="3.385" r="1"/><circle id="Oval" cx="16.557" cy="8.462" r="1"/><circle id="Oval" cx="21.634" cy="8.462" r="1"/><circle id="Oval" cx="1.326" cy="13.538" r="1"/><circle id="Oval" cx="1.326" cy="18.615" r="1"/><circle id="Oval" cx="3.864" cy="11" r="1"/><circle id="Oval" cx="8.941" cy="11" r="1"/><circle id="Oval" cx="3.864" cy="16.077" r="1"/><circle id="Oval" cx="8.941" cy="16.077" r="1"/><circle id="Oval" cx="6.403" cy="13.538" r="1"/><circle id="Oval" cx="11.48" cy="13.538" r="1"/><circle id="Oval" cx="6.403" cy="18.615" r="1"/><circle id="Oval" cx="11.48" cy="18.615" r="1"/><circle id="Oval" cx="14.018" cy="11" r="1"/><circle id="Oval" cx="19.095" cy="11" r="1"/><circle id="Oval" cx="14.018" cy="16.077" r="1"/><circle id="Oval" cx="19.095" cy="16.077" r="1"/><circle id="Oval" cx="16.557" cy="13.538" r="1"/><circle id="Oval" cx="21.634" cy="13.538" r="1"/><circle id="Oval" cx="16.557" cy="18.615" r="1"/><circle id="Oval" cx="21.634" cy="18.615" r="1"/><circle id="Oval" cx="1.326" cy="23.692" r="1"/><circle id="Oval" cx="3.864" cy="21.154" r="1"/><circle id="Oval" cx="8.941" cy="21.154" r="1"/><circle id="Oval" cx="3.864" cy="26.231" r="1"/><circle id="Oval" cx="8.941" cy="26.231" r="1"/><circle id="Oval" cx="6.403" cy="23.692" r="1"/><circle id="Oval" cx="11.48" cy="23.692" r="1"/><circle id="Oval" cx="14.018" cy="21.154" r="1"/><circle id="Oval" cx="19.095" cy="21.154" r="1"/><circle id="Oval" cx="14.018" cy="26.231" r="1"/><circle id="Oval" cx="19.095" cy="26.231" r="1"/><circle id="Oval" cx="16.557" cy="23.692" r="1"/><circle id="Oval" cx="21.634" cy="23.692" r="1"/></g><path id="Shape" fill="#556080" d="M32.2071538,12.7803077 L0.366384615,8.305 L0.771692308,5.41961538 C0.938384615,4.23669231 2.03161538,3.41169231 3.21538462,3.57838462 L30.7712308,7.45123077 C31.9541538,7.61792308 32.7791538,8.71115385 32.6124615,9.89492308 L32.2071538,12.7803077 Z"/><path id="Shape" fill="#FFF" stroke="#7383BF" stroke-linecap="round" stroke-width="2" d="M11.9654615,4.80869231 L12.4367692,1.45707692 C12.5662308,0.535615385 13.4267692,-0.112538462 14.3482308,0.0169230769 L21.0514615,0.958692308 C21.9729231,1.08815385 22.6210769,1.94869231 22.4916154,2.87015385 L22.0203077,6.22176923 L11.9654615,4.80869231 Z"/><path id="Shape" fill="#EBBA16" d="M2.19746154,16.0769231 L11.1895385,16.0769231 L11.4797692,15.7866923 L6.69307692,11 L2.123,15.5700769 C2.00369231,15.6893846 2.00369231,15.8831538 2.123,16.0024615 L2.19746154,16.0769231 Z"/><rect id="Rectangle-path" width="6.769" height="2.538" x="12.326" y="13.538" fill="#DD352E"/><rect id="Rectangle-path" width="4.231" height="2.538" x="21.634" y="13.538" fill="#694F87"/><path id="Shape" fill="#556080" d="M27.786,49.0769231 L3.63592308,49.0769231 C2.36076923,49.0769231 1.32676923,48.0429231 1.32676923,46.7677692 L1.32676923,16.0769231 L30.096,16.0769231 L30.096,46.7677692 C30.0951538,48.0429231 29.0611538,49.0769231 27.786,49.0769231 Z"/><g id="Group" fill="#7383BF" transform="translate(4.230769, 19.461538)"><circle id="Oval" cx="1.326" cy="3.385" r="1"/><circle id="Oval" cx="1.326" cy="8.462" r="1"/><circle id="Oval" cx="3.864" cy=".846" r="1"/><circle id="Oval" cx="8.941" cy=".846" r="1"/><circle id="Oval" cx="3.864" cy="5.923" r="1"/><circle id="Oval" cx="8.941" cy="5.923" r="1"/><circle id="Oval" cx="6.403" cy="3.385" r="1"/><circle id="Oval" cx="11.48" cy="3.385" r="1"/><circle id="Oval" cx="6.403" cy="8.462" r="1"/><circle id="Oval" cx="11.48" cy="8.462" r="1"/><circle id="Oval" cx="14.018" cy=".846" r="1"/><circle id="Oval" cx="19.095" cy=".846" r="1"/><circle id="Oval" cx="14.018" cy="5.923" r="1"/><circle id="Oval" cx="19.095" cy="5.923" r="1"/><circle id="Oval" cx="16.557" cy="3.385" r="1"/><circle id="Oval" cx="21.634" cy="3.385" r="1"/><circle id="Oval" cx="16.557" cy="8.462" r="1"/><circle id="Oval" cx="21.634" cy="8.462" r="1"/><circle id="Oval" cx="1.326" cy="13.538" r="1"/><circle id="Oval" cx="1.326" cy="18.615" r="1"/><circle id="Oval" cx="3.864" cy="11" r="1"/><circle id="Oval" cx="8.941" cy="11" r="1"/><circle id="Oval" cx="3.864" cy="16.077" r="1"/><circle id="Oval" cx="8.941" cy="16.077" r="1"/><circle id="Oval" cx="6.403" cy="13.538" r="1"/><circle id="Oval" cx="11.48" cy="13.538" r="1"/><circle id="Oval" cx="6.403" cy="18.615" r="1"/><circle id="Oval" cx="11.48" cy="18.615" r="1"/><circle id="Oval" cx="14.018" cy="11" r="1"/><circle id="Oval" cx="19.095" cy="11" r="1"/><circle id="Oval" cx="14.018" cy="16.077" r="1"/><circle id="Oval" cx="19.095" cy="16.077" r="1"/><circle id="Oval" cx="16.557" cy="13.538" r="1"/><circle id="Oval" cx="21.634" cy="13.538" r="1"/><circle id="Oval" cx="16.557" cy="18.615" r="1"/><circle id="Oval" cx="21.634" cy="18.615" r="1"/><circle id="Oval" cx="1.326" cy="23.692" r="1"/><circle id="Oval" cx="3.864" cy="21.154" r="1"/><circle id="Oval" cx="8.941" cy="21.154" r="1"/><circle id="Oval" cx="3.864" cy="26.231" r="1"/><circle id="Oval" cx="8.941" cy="26.231" r="1"/><circle id="Oval" cx="6.403" cy="23.692" r="1"/><circle id="Oval" cx="11.48" cy="23.692" r="1"/><circle id="Oval" cx="14.018" cy="21.154" r="1"/><circle id="Oval" cx="19.095" cy="21.154" r="1"/><circle id="Oval" cx="14.018" cy="26.231" r="1"/><circle id="Oval" cx="19.095" cy="26.231" r="1"/><circle id="Oval" cx="16.557" cy="23.692" r="1"/><circle id="Oval" cx="21.634" cy="23.692" r="1"/></g></g></g></svg>