<svg xmlns="http://www.w3.org/2000/svg" xmlns:xlink="http://www.w3.org/1999/xlink" width="73" height="73" version="1.1" viewBox="0 0 73 73"><title>progressive-webapps/rendering-performance/requestidlecallback</title><desc>Created with Sketch.</desc><g id="progressive-webapps/rendering-performance/requestidlecallback" fill="none" fill-rule="evenodd" stroke="none" stroke-width="1"><g id="container" fill="#FFF" fill-rule="nonzero" stroke="#896B0F" stroke-width="2" transform="translate(2.000000, 2.000000)"><rect id="mask" width="71" height="71" x="-1" y="-1" rx="14"/></g><g id="moon" fill-rule="nonzero" transform="translate(9.000000, 9.000000)"><path id="Shape" fill="#FFD93B" d="M16.45056,42.059136 C30.593024,42.059136 42.056448,30.59392 42.056448,16.451456 C42.056448,10.184832 39.798528,4.452224 36.062208,0.000896 C47.606272,3.706752 55.965952,14.51968 55.965952,27.294848 C55.965952,43.130752 43.129856,55.966848 27.293952,55.966848 C14.518784,55.966848 3.705856,47.607168 2.84217094e-14,36.063104 C4.451328,39.801216 10.185728,42.059136 16.45056,42.059136 Z"/><path id="Shape" fill="#F4C534" d="M45.01504,4.790912 C48.84992,9.66336 51.154432,15.797376 51.154432,22.481536 C51.154432,38.31744 38.318336,51.153536 22.482432,51.153536 C15.798272,51.153536 9.664256,48.849024 4.791808,45.014144 C10.038784,51.675008 18.158336,55.966848 27.295744,55.966848 C43.131648,55.966848 55.967744,43.130752 55.967744,27.294848 C55.967744,18.15744 51.675904,10.03968 45.01504,4.790912 Z"/><g id="Group" fill="#FFD83B" transform="translate(4.704000, 9.184000)"><polygon id="Shape" points="9.646 2.01 12.6 7.997 19.205 8.956 14.426 13.615 15.553 20.193 9.646 17.088 3.738 20.193 4.865 13.615 .086 8.956 6.691 7.997"/><polygon id="Shape" points="26.305 .094 27.835 3.198 31.26 3.694 28.781 6.11 29.367 9.518 26.305 7.909 23.242 9.518 23.828 6.11 21.35 3.694 24.774 3.198"/></g></g></g></svg>