<svg xmlns="http://www.w3.org/2000/svg" xmlns:xlink="http://www.w3.org/1999/xlink" width="73" height="73" version="1.1" viewBox="0 0 73 73"><title>progressive-webapps/rendering-performance/style-calculations</title><desc>Created with Sketch.</desc><g id="progressive-webapps/rendering-performance/style-calculations" fill="none" fill-rule="evenodd" stroke="none" stroke-width="1"><g id="container" fill="#FFF" fill-rule="nonzero" stroke="#3A4863" stroke-width="2" transform="translate(2.000000, 2.000000)"><rect id="mask" width="71" height="71" x="-1" y="-1" rx="14"/></g><g id="tuxedo" fill-rule="nonzero" transform="translate(10.000000, 16.000000)"><polygon id="Shape" fill="#C7E2FC" points="20.324 .897 19.439 .899 7.936 3.576 14.166 21.269 14.197 38.089 38.984 38.043 38.953 21.223 45.117 3.506 33.603 .872 32.718 .874 26.526 3.541"/><polyline id="Shape" fill="#4D5D7A" points="12.385 15.961 6.231 39.922 0 38.113 7.936 3.576"/><polygon id="Shape" fill="#8892A0" points=".809 34.592 0 38.113 6.231 39.922 7.14 36.387"/><polyline id="Shape" fill="#4D5D7A" points="40.74 15.961 46.893 39.922 53.124 38.113 45.189 3.576"/><polygon id="Shape" fill="#8892A0" points="52.315 34.592 53.124 38.113 46.893 39.922 45.986 36.387"/><path id="Shape" fill="#4D5D7A" d="M26.557377,15.9344262 C26.2988852,15.9344262 26.0536721,15.8211148 25.8854754,15.6245902 L20.574,9.42786885 L21.9178033,8.27616393 L26.557377,13.6894426 L31.1969508,8.27704918 L32.5407541,9.4287541 L27.2292787,15.6254754 C27.061082,15.8211148 26.8158689,15.9344262 26.557377,15.9344262 Z"/><path id="Shape" fill="#8892A0" d="M22.1408852,25.8243934 L22.1152131,1.77845902 L20.3243607,0.896754098 L19.4391148,0.89852459 L7.93622951,3.5755082 L14.1657049,21.268918 L14.1966885,38.0885902 L14.4967869,38.0877049 L19.8799672,31.7502295 C21.3397377,30.1222623 22.1453115,28.0109508 22.1408852,25.8243934 Z"/><path id="Shape" fill="#8892A0" d="M30.9836066,25.8243934 L31.0092787,1.77845902 L32.8001311,0.896754098 L33.685377,0.89852459 L45.1882623,3.5755082 L38.9596721,21.268918 L38.9286885,38.0885902 L38.6285902,38.0877049 L33.2454098,31.7502295 C31.7847541,30.1222623 30.9791803,28.0109508 30.9836066,25.8243934 Z"/><g id="Group" fill="#4D5D7A" transform="translate(19.475410, 0.000000)"><polygon id="Shape" points="7.051 3.541 13.242 .874 13.256 7.956 7.055 6.197 .862 7.979 .849 .897"/><polygon id="Shape" points="14.164 14.164 19.475 14.164 19.475 15.934 14.164 15.934"/></g></g></g></svg>