<svg xmlns="http://www.w3.org/2000/svg" xmlns:xlink="http://www.w3.org/1999/xlink" width="73" height="73" version="1.1" viewBox="0 0 73 73"><title>design-and-ux/design-systems</title><desc>Created with Sketch.</desc><g id="design-and-ux/design-systems" fill="none" fill-rule="evenodd" stroke="none" stroke-width="1"><g id="container" fill="#FFF" fill-rule="nonzero" stroke="#03232E" stroke-width="2" transform="translate(2.000000, 2.000000)"><rect id="mask" width="71" height="71" x="-1" y="-1" rx="14"/></g><g id="window" fill-rule="nonzero" transform="translate(14.000000, 17.000000)"><polygon id="Shape" fill="#B4D2D7" points="22.5 0 20.741 12.971 45 11.212 45 0"/><polygon id="Shape" fill="#E1EBF0" points="22.5 0 0 0 0 11.212 22.5 12.971"/><polygon id="Shape" fill="#FF3939" points="4.205 4.288 7.008 4.288 7.008 6.924 4.205 6.924"/><polygon id="Shape" fill="#FF9F22" points="9.811 4.288 12.614 4.288 12.614 6.924 9.811 6.924"/><polygon id="Shape" fill="#15CCC2" points="15.417 4.288 18.22 4.288 18.22 6.924 15.417 6.924"/><polygon id="Shape" fill="#03232E" points="22.5 39.243 45 39.243 45 11.212 22.5 11.212 20.741 25.228"/><polygon id="Shape" fill="#07485E" points="0 11.212 22.5 11.212 22.5 39.243 0 39.243"/><g id="Group" fill="#EFE2DD" transform="translate(31.376953, 21.093750)"><polygon id="Shape" points=".075 .012 9.418 .012 9.418 2.649 .075 2.649"/><polygon id="Shape" points=".075 5.618 9.418 5.618 9.418 8.255 .075 8.255"/><polygon id="Shape" points=".075 11.225 9.418 11.225 9.418 13.861 .075 13.861"/></g><polygon id="Shape" fill="#15CCC2" points="40.795 15.5 22.5 15.5 21.62 16.818 22.5 18.137 40.795 18.137"/><polygon id="Shape" fill="#7ED8F6" points="28.813 34.955 28.813 21.106 22.5 21.106 20.741 28.031 22.5 34.955"/><polygon id="Shape" fill="#6FE8D5" points="4.205 15.5 22.5 15.5 22.5 18.137 4.205 18.137"/><polygon id="Shape" fill="#BEEBFA" points="4.205 21.106 22.5 21.106 22.5 34.955 4.205 34.955"/></g></g></svg>