<svg xmlns="http://www.w3.org/2000/svg" xmlns:xlink="http://www.w3.org/1999/xlink" width="73" height="73" version="1.1" viewBox="0 0 73 73"><title>design-and-ux/error-handling</title><desc>Created with Sketch.</desc><g id="design-and-ux/error-handling" fill="none" fill-rule="evenodd" stroke="none" stroke-width="1"><g id="container" fill="#FFF" fill-rule="nonzero" stroke="#000" stroke-width="2" transform="translate(2.000000, 2.000000)"><rect id="mask" width="71" height="71" x="-1" y="-1" rx="14"/></g><g id="ant" fill-rule="nonzero" transform="translate(14.000000, 18.000000)"><g id="Group" fill="#414141" transform="translate(3.164062, 14.677734)"><path id="Shape" d="M30.5189648,1.94616211 C24.9732422,1.94616211 20.629248,4.87836914 20.629248,8.62163086 C20.629248,12.3648926 24.9733301,15.2971875 30.5189648,15.2971875 C36.0646875,15.2971875 40.4086816,12.3649805 40.4086816,8.62163086 C40.4087695,4.87836914 36.0646875,1.94616211 30.5189648,1.94616211 Z"/><path id="Shape" d="M27.5276074,19.6917188 L23.0559082,8.51238281 C23.5714746,7.66494141 23.8686328,6.67063477 23.8686328,5.60830078 C23.8686328,2.51824219 21.3546973,0.00421875 18.2645508,0.00421875 C15.1744043,0.00421875 12.6604687,2.5181543 12.6604687,5.60830078 C12.6604687,6.49256836 12.8670996,7.32928711 13.2334277,8.07380859 L12.2153906,10.6187695 L7.92966797,8.4759082 L3.4434668,19.6917188 L0.0502734375,19.6917188 L0.0502734375,22.3284375 L5.22852539,22.3284375 L9.31359375,12.1157227 L13.5993164,14.258584 L15.1872363,10.2885645 C16.0711523,10.8717188 17.1285645,11.2123828 18.2644629,11.2123828 C19.260791,11.2123828 20.1963867,10.9498535 21.0079687,10.4921191 L25.7424609,22.3284375 L30.7198828,22.3284375 L30.7198828,19.6917188 L27.5276074,19.6917188 Z"/></g><path id="Shape" fill="#000" d="M30.6916699,34.3694531 L26.2199707,23.1901172 C26.7355371,22.3426758 27.0326953,21.3483691 27.0326953,20.2860352 C27.0326953,17.1959766 24.5187598,14.6819531 21.4286133,14.6819531 C21.4286133,18.1013379 21.4286133,22.5837598 21.4286133,25.8901172 C22.4249414,25.8901172 23.3605371,25.6275879 24.1721191,25.1698535 L28.9066113,37.0061719 L33.8840332,37.0061719 L33.8840332,34.3694531 L30.6916699,34.3694531 Z"/><polygon id="Shape" fill="#000" points="13.87 7.437 11.039 2.72 0 2.72 0 .084 12.532 .084 16.13 6.081"/><path id="Shape" fill="#666" d="M20.982832,7.25739258 C19.8342773,5.87425781 18.0166113,5.17297852 15.5803711,5.17297852 C13.4932324,5.17297852 10.9705078,6.17405273 8.0821582,8.14842773 C6.01330078,9.56267578 4.51705078,10.9627734 4.45438477,11.0216602 L3.43212891,11.9823047 L4.45438477,12.9429492 C4.51705078,13.0018359 6.01330078,14.4020215 8.0821582,15.8161816 C10.9705078,17.7905566 13.4932324,18.7916309 15.5803711,18.7916309 C18.0166113,18.7916309 19.8341895,18.0903516 20.982832,16.7072168 C21.929502,15.5671875 22.3897852,14.0216309 22.3897852,11.9822168 C22.3897852,9.94280273 21.9295898,8.39742187 20.982832,7.25739258 Z"/><rect id="Rectangle-path" width="2.637" height="2.637" x="13.125" y="10.283" fill="#000"/><polygon id="Shape" fill="#000" points="41.61 34.369 34.638 16.775 30.35 22.557 32.358 24.276 33.933 22.152 39.819 37.006 45 37.006 45 34.369"/></g></g></svg>