<svg xmlns="http://www.w3.org/2000/svg" xmlns:xlink="http://www.w3.org/1999/xlink" width="73" height="73" version="1.1" viewBox="0 0 73 73"><title>design-and-ux/line-spacing</title><desc>Created with Sketch.</desc><g id="design-and-ux/line-spacing" fill="none" fill-rule="evenodd" stroke="none" stroke-width="1"><g id="container" fill="#FFF" fill-rule="nonzero" stroke="#202A2D" stroke-width="2" transform="translate(2.000000, 2.000000)"><rect id="mask" width="71" height="71" x="-1" y="-1" rx="14"/></g><g id="space" fill-rule="nonzero" transform="translate(13.000000, 13.000000)"><polygon id="Shape" fill="#FFCB5A" points="3.415 2.963 6.378 2.963 6.378 14.813 3.415 14.813"/><g id="Group" fill="#D7DEE2" transform="translate(13.729515, 0.000000)"><path id="Shape" d="M31.1624438,2.96265841 L1.53657981,2.96265841 C0.718798275,2.96265841 0.0550706528,2.29893079 0.0550706528,1.48114925 C0.0550706528,0.663727623 0.718798275,0 1.53657981,0 L31.1624438,0 C31.9802253,0 32.643593,0.663727623 32.643593,1.48114925 C32.643593,2.29893079 31.9802253,2.96265841 31.1624438,2.96265841 Z"/><path id="Shape" d="M31.1624438,10.3691244 L1.53657981,10.3691244 C0.718798275,10.3691244 0.0550706528,9.70539676 0.0550706528,8.88797513 C0.0550706528,8.07019359 0.718798275,7.40646597 1.53657981,7.40646597 L31.1624438,7.40646597 C31.9802253,7.40646597 32.643593,8.07019359 32.643593,8.88797513 C32.643593,9.70539676 31.9802253,10.3691244 31.1624438,10.3691244 Z"/><path id="Shape" d="M11.9057042,17.7755903 L1.53657981,17.7755903 C0.718798275,17.7755903 0.0550706528,17.1118627 0.0550706528,16.2944412 C0.0550706528,15.4766597 0.718798275,14.8129319 1.53657981,14.8129319 L11.9057042,14.8129319 L11.9057042,17.7755903 Z"/><path id="Shape" d="M31.1624438,32.5885224 L1.53657981,32.5885224 C0.718798275,32.5885224 0.0550706528,31.9251547 0.0550706528,31.1073731 C0.0550706528,30.2895916 0.718798275,29.625864 1.53657981,29.625864 L31.1624438,29.625864 C31.9802253,29.625864 32.643593,30.2895916 32.643593,31.1073731 C32.643593,31.9251547 31.9802253,32.5885224 31.1624438,32.5885224 Z"/><path id="Shape" d="M31.1624438,39.9949884 L1.53657981,39.9949884 C0.718798275,39.9949884 0.0550706528,39.3316206 0.0550706528,38.5138391 C0.0550706528,37.6960576 0.718798275,37.0323299 1.53657981,37.0323299 L31.1624438,37.0323299 C31.9802253,37.0323299 32.643593,37.6960576 32.643593,38.5138391 C32.643593,39.3316206 31.9802253,39.9949884 31.1624438,39.9949884 Z"/><path id="Shape" d="M11.9057042,47.4014543 L1.53657981,47.4014543 C0.718798275,47.4014543 0.0550706528,46.7380866 0.0550706528,45.9203051 C0.0550706528,45.1025235 0.718798275,44.4391559 1.53657981,44.4391559 L11.9057042,44.4391559 L11.9057042,47.4014543 Z"/></g><polygon id="Shape" fill="#E76E54" points="3.415 17.776 6.378 17.776 6.378 20.738 3.415 20.738"/><polygon id="Shape" fill="#FFCB5A" points="3.415 32.589 6.378 32.589 6.378 44.439 3.415 44.439"/><polygon id="Shape" fill="#E76E54" points="3.415 26.664 6.378 26.664 6.378 29.626 3.415 29.626"/><polygon id="Shape" fill="#77959E" points="28.598 14.813 31.56 14.813 31.56 17.776 28.598 17.776"/><polygon id="Shape" fill="#77959E" points="34.523 14.813 37.485 14.813 37.485 17.776 34.523 17.776"/><polygon id="Shape" fill="#77959E" points="28.598 44.439 31.56 44.439 31.56 47.401 28.598 47.401"/><polygon id="Shape" fill="#77959E" points="34.523 44.439 37.485 44.439 37.485 47.401 34.523 47.401"/><path id="Shape" fill="#E76E54" d="M7.24629311,7.40646597 L4.89697086,5.05714372 L2.5476487,7.40646597 C1.96994644,7.98416823 1.03050555,7.98416823 0.452803289,7.40646597 C-0.124898876,6.82876381 -0.124898876,5.88968283 0.452803289,5.31198066 L4.89697086,0.868173008 L9.34077851,5.31198066 C9.91848068,5.88968283 9.91848068,6.82876381 9.34077851,7.40646597 C8.76163659,7.98416823 7.82399528,7.98416823 7.24629311,7.40646597 Z"/><path id="Shape" fill="#E76E54" d="M4.89697086,46.5336412 L0.452803289,42.0898337 C-0.124898876,41.5121315 -0.124898876,40.5726905 0.452803289,39.9949884 C1.03050555,39.4172862 1.96994644,39.4172862 2.5476487,39.9949884 L4.89697086,42.3443106 L7.24629311,39.9949884 C7.82399528,39.4172862 8.76307626,39.4172862 9.34077851,39.9949884 C9.91848068,40.5726905 9.91848068,41.5121315 9.34077851,42.0898337 L4.89697086,46.5336412 Z"/></g></g></svg>