<svg xmlns="http://www.w3.org/2000/svg" xmlns:xlink="http://www.w3.org/1999/xlink" width="73" height="73" version="1.1" viewBox="0 0 73 73"><title>design-and-ux/the-golden-ratio</title><desc>Created with Sketch.</desc><g id="design-and-ux/the-golden-ratio" fill="none" fill-rule="evenodd" stroke="none" stroke-width="1"><g id="container" fill="#FFF" fill-rule="nonzero" stroke="#442929" stroke-width="2" transform="translate(2.000000, 2.000000)"><rect id="mask" width="71" height="71" x="-1" y="-1" rx="14"/></g><g id="golden-ratio" fill-rule="nonzero" transform="translate(13.000000, 13.000000)"><path id="Shape" fill="#67D3FB" d="M15.3561562,48 L0.9375,48 C0.41971875,48 0,47.5802812 0,47.0625 L0,0.9375 C0,0.41971875 0.41971875,0 0.9375,0 L15.3561562,0 L15.3561562,48 Z"/><path id="Shape" fill="#734A4A" d="M48,15.3561562 L0,15.3561562 L0,0.9375 C0,0.41971875 0.41971875,0 0.9375,0 L47.0625,0 C47.5802812,0 48,0.41971875 48,0.9375 L48,15.3561562 Z"/><path id="Shape" fill="#FBD560" d="M47.0625,48 L15.3561562,48 L15.3561562,0 L47.0625,0 C47.5802812,0 48,0.41971875 48,0.9375 L48,47.0625 C48,47.5802812 47.5802812,48 47.0625,48 Z"/><path id="Shape" fill="#FFBD00" d="M45.1026562,0 L45.1026562,48 L47.0625,48 C47.5802812,48 48,47.5802812 48,47.0625 L48,0.9375 C48,0.41971875 47.5802812,0 47.0625,0 L45.1026562,0 Z"/><circle id="Oval" cx="31.678" cy="16.322" r="16.322" fill="#67D3FB"/><path id="Shape" fill="#6576D3" d="M48,16.3219687 C48,19.7727187 46.9289063,22.9724062 45.1026563,25.6090312 C42.156,29.8605 37.2420938,32.6438437 31.678125,32.6438437 C22.6634063,32.6438437 15.3561562,25.3365937 15.3561562,16.321875 C15.3561562,7.30715625 22.6633125,0 31.6780313,0 C37.242,0 42.1559063,2.7834375 45.1025625,7.0348125 C46.9289063,9.6714375 48,12.871125 48,16.3219687 Z"/><path id="Shape" fill="#5361AC" d="M48,16.3219687 C48,19.7727187 46.9289062,22.9724062 45.1026562,25.6090312 L45.1026562,7.0348125 C46.9289062,9.6714375 48,12.871125 48,16.3219687 Z"/><circle id="Oval" cx="31.678" cy="40.322" r="7.678" fill="#FF6242"/><circle id="Oval" cx="7.678" cy="7.678" r="7.678" fill="#FF7E91"/><path id="Shape" fill="#6E6E6E" d="M0,15.3561562 L15.3561562,48 L0.9375,48 C0.41971875,48 0,47.5802812 0,47.0625 L0,15.3561562 Z"/></g></g></svg>