<svg xmlns="http://www.w3.org/2000/svg" xmlns:xlink="http://www.w3.org/1999/xlink" width="73" height="73" version="1.1" viewBox="0 0 73 73"><title>algorithms-and-data-structures/data-structures/binary-indexed-tree</title><desc>Created with Sketch.</desc><g id="algorithms-and-data-structures/data-structures/binary-indexed-tree" fill="none" fill-rule="evenodd" stroke="none" stroke-width="1"><g id="container" fill="#FFF" fill-rule="nonzero" stroke="#3E1E1A" stroke-width="2" transform="translate(2.000000, 2.000000)"><rect id="mask" width="71" height="71" x="-1" y="-1" rx="14"/></g><g id="plant" fill-rule="nonzero" transform="translate(19.000000, 14.000000)"><path id="Shape" fill="#CDEEF6" d="M18,0 C26.2122341,1.04264423e-15 32.8695652,6.65733111 32.8695652,14.8695652 L32.8695652,36 L3.13043478,36 L3.13043478,14.8695652 C3.13043478,6.65733111 9.78776589,2.43283654e-15 18,0 Z"/><polygon id="Shape" fill="#FFD782" points="0 40.696 36 40.696 36 45.391 0 45.391"/><polygon id="Shape" fill="#F9BB4B" points="1.565 36 34.435 36 34.435 40.696 1.565 40.696"/><path id="Shape" fill="#8EC13F" d="M7.04347826,9.39130435 L11.7391304,9.39130435 C15.1969132,9.39130435 18,12.1943911 18,15.6521739 L18,17.2173913 L13.3043478,17.2173913 C9.84656504,17.2173913 7.04347826,14.4143045 7.04347826,10.9565217 L7.04347826,9.39130435 Z"/><polygon id="Shape" fill="#C8D952" points="13.702 10.643 15.267 10.643 15.267 19.109 13.702 19.109" transform="translate(14.484456, 14.876043) rotate(-56.294043) translate(-14.484456, -14.876043)"/><path id="Shape" fill="#55B56A" d="M24.2608696,10.173913 L28.9565217,10.173913 L28.9565217,11.7391304 C28.9565217,15.1969132 26.153435,18 22.6956522,18 L18,18 L18,16.4347826 C18,12.9769998 20.8030868,10.173913 24.2608696,10.173913 Z" transform="translate(23.478261, 14.086957) rotate(-180.000000) translate(-23.478261, -14.086957)"/><polygon id="Shape" fill="#C8D952" points="17.293 14.859 25.759 14.859 25.759 16.425 17.293 16.425" transform="translate(21.525978, 15.642174) rotate(-33.705957) translate(-21.525978, -15.642174)"/><path id="Shape" fill="#55B56A" d="M11.7391304,20.3478261 L14.0869565,20.3478261 C16.2480708,20.3478261 18,22.0997553 18,24.2608696 L18,25.0434783 L15.6521739,25.0434783 C13.4910597,25.0434783 11.7391304,23.291549 11.7391304,21.1304348 L11.7391304,20.3478261 Z"/><path id="Shape" fill="#8EC13F" d="M21.9130435,21.1304348 L24.2608696,21.1304348 L24.2608696,21.9130435 C24.2608696,24.0741577 22.5089403,25.826087 20.3478261,25.826087 L18,25.826087 L18,25.0434783 C18,22.882364 19.7519292,21.1304348 21.9130435,21.1304348 Z" transform="translate(21.130435, 23.478261) rotate(-180.000000) translate(-21.130435, -23.478261)"/><polygon id="Shape" fill="#66342E" points="7.826 36 8.609 32.87 10.957 30.522 14.087 30.522 16.435 28.957 19.565 28.957 22.696 30.522 26.609 30.522 28.957 32.087 29.739 36"/><polygon id="Shape" fill="#995F5B" points="15.652 32.087 17.217 32.087 17.217 33.652 15.652 33.652"/><polygon id="Shape" fill="#995F5B" points="20.348 32.087 21.913 32.087 21.913 33.652 20.348 33.652"/><path id="Shape" fill="#F4F4E6" d="M9.98843478,7.54904348 L8.79417391,6.53791304 C11.044312,3.73760033 14.4977996,2.18203297 18.086087,2.35252174 L17.9162609,3.90834783 C14.8453957,3.79384845 11.9027923,5.14518027 9.98843478,7.54904348 Z"/><polygon id="Shape" fill="#F4F4E6" points="5.478 16.435 7.043 16.435 7.043 28.174 5.478 28.174"/><polygon id="Shape" fill="#F4F4E6" points="5.478 29.739 7.043 29.739 7.043 31.304 5.478 31.304"/><g id="Group" fill="#FFF69A" transform="translate(4.695652, 38.347826)"><polygon id="Shape" points="0 4.696 1.565 4.696 1.565 7.043 0 7.043"/><polygon id="Shape" points="5.478 4.696 7.043 4.696 7.043 7.043 5.478 7.043"/><polygon id="Shape" points="17.217 4.696 18.783 4.696 18.783 7.043 17.217 7.043"/><polygon id="Shape" points="23.478 0 25.043 0 25.043 2.348 23.478 2.348"/><polygon id="Shape" points="9.391 0 10.957 0 10.957 2.348 9.391 2.348"/></g><path id="Shape" fill="#3A8448" d="M18.7826087,28.9565217 L17.2173913,28.9565217 L17.2173913,15.6521739 C17.2173913,15.2199511 17.5677772,14.8695652 18,14.8695652 C18.4322228,14.8695652 18.7826087,15.2199511 18.7826087,15.6521739 L18.7826087,28.9565217 Z"/></g></g></svg>