<svg xmlns="http://www.w3.org/2000/svg" xmlns:xlink="http://www.w3.org/1999/xlink" width="73" height="73" version="1.1" viewBox="0 0 73 73"><title>build-tools/module-bundlers</title><desc>Created with Sketch.</desc><g id="build-tools/module-bundlers" fill="none" fill-rule="evenodd" stroke="none" stroke-width="1"><g id="container" fill-rule="nonzero" transform="translate(2.000000, 2.000000)"><rect id="mask" width="71" height="71" x="-1" y="-1" fill="#FFF" stroke="#6C500A" stroke-width="2" rx="14"/><g id="taco" transform="translate(8.000000, 19.000000)"><path id="Shape" fill="#CEAB4A" d="M53.29422,30.815964 C50.87502,12.671964 39.90222,0.057564 26.76942,0.057564 C13.63662,0.057564 2.57742,12.671964 0.15822,30.815964 L53.29422,30.815964 Z"/><path id="Shape" fill="#B28E32" d="M0.15822,30.815964 L53.29422,30.815964 C50.87502,12.671964 39.90222,0.057564 26.76942,0.057564"/><polygon id="Shape" fill="#88C600" points="10.958 13.709 9.144 19.325 3.441 17.51 3.269 8.006"/><polygon id="Shape" fill="#3AAD0B" points="10.958 13.709 9.144 19.325 7.329 15.523 3.269 8.006"/><polygon id="Shape" fill="#88C600" points="7.07 18.547 7.243 22.435 3.355 22.608 1.109 16.733"/><polygon id="Shape" fill="#3AAD0B" points="7.07 18.547 7.243 22.435 5.256 20.448 1.109 16.733"/><path id="Shape" fill="#722F01" d="M29.53422,17.855964 C29.53422,23.126364 25.12782,27.359964 19.85742,27.359964 L18.90702,27.359964 C13.63662,27.359964 9.66222,23.212764 9.66222,17.855964 L9.66222,14.399964 C9.66222,9.129564 13.63662,4.895964 18.90702,4.895964 L19.85742,4.895964 C25.12782,4.895964 29.53422,9.129564 29.53422,14.399964 L29.53422,17.855964 Z"/><path id="Shape" fill="#562300" d="M19.16622,4.895964 L19.85742,4.895964 C25.12782,4.895964 29.53422,9.129564 29.53422,14.399964 L29.53422,17.855964 C29.53422,23.126364 25.12782,27.359964 19.85742,27.359964 L19.16622,27.359964"/><ellipse id="Oval" cx="13.855" cy="9.504" fill="#994207" rx="3.456" ry="1.469" transform="translate(13.855219, 9.503590) rotate(130.912651) translate(-13.855219, -9.503590)"/><path id="Shape" fill="#722F01" d="M35.84142,21.916764 C32.99022,26.409564 27.02862,27.705564 22.62222,24.854364 L21.75822,24.335964 C17.26542,21.484764 15.96942,15.609564 18.82062,11.116764 L20.72142,8.179164 C23.57262,3.686364 29.44782,2.390364 33.94062,5.241564 L34.71822,5.759964 C39.21102,8.611164 40.50702,14.486364 37.65582,18.979164 L35.84142,21.916764 Z"/><path id="Shape" fill="#562300" d="M33.94062,5.241564 L34.71822,5.759964 C39.21102,8.611164 40.50702,14.486364 37.65582,18.979164 L35.75502,21.916764 C32.99022,26.409564 27.02862,27.705564 22.62222,24.854364 L21.75822,24.335964"/><ellipse id="Oval" cx="27.038" cy="6.459" fill="#994207" rx="3.456" ry="1.469" transform="translate(27.037814, 6.459035) rotate(163.250268) translate(-27.037814, -6.459035)"/><path id="Shape" fill="#EF112C" d="M42.75342,11.375964 C41.11182,16.214364 38.69262,19.670364 37.31022,19.238364 C35.92782,18.806364 36.10062,14.486364 37.74222,9.734364 C39.38382,4.895964 40.67982,4.723164 42.06222,5.155164 C43.44462,5.587164 44.39502,6.623964 42.75342,11.375964 Z"/><g id="Group" fill="#B20026" transform="translate(37.260000, 5.076000)"><path id="Shape" d="M4.88862,0.079164 C6.27102,0.511164 7.13502,1.547964 5.57982,6.299964 C3.93822,11.138364 1.51902,14.594364 0.13662,14.162364"/><ellipse id="Oval" cx="3.858" cy="3.016" rx="1" ry="1.555" transform="translate(3.857608, 3.015659) rotate(-71.416485) translate(-3.857608, -3.015659)"/><ellipse id="Oval" cx="3.162" cy="5.184" rx="1" ry="1.555" transform="translate(3.161994, 5.184151) rotate(-71.403798) translate(-3.161994, -5.184151)"/><ellipse id="Oval" cx="2.385" cy="7.328" rx="1" ry="1.555" transform="translate(2.384747, 7.327713) rotate(-71.416485) translate(-2.384747, -7.327713)"/><ellipse id="Oval" cx="1.684" cy="9.495" rx="1" ry="1.555" transform="translate(1.683945, 9.495420) rotate(-71.403798) translate(-1.683945, -9.495420)"/></g><ellipse id="Oval" cx="40.635" cy="5.944" fill="#F97A90" rx="1" ry="1" transform="translate(40.635181, 5.944308) rotate(148.089966) translate(-40.635181, -5.944308)"/><path id="Shape" fill="#EF112C" d="M9.48942,24.595164 C4.91022,26.668764 0.67662,27.359964 0.07182,25.977564 C-0.53298,24.681564 2.75022,21.916764 7.32942,19.756764 C11.90862,17.683164 13.03182,18.460764 13.63662,19.756764 C14.24142,21.139164 14.06862,22.521564 9.48942,24.595164 Z"/><g id="Group" fill="#B20026" transform="translate(0.000000, 19.440000)"><path id="Shape" d="M13.63662,0.403164 C14.24142,1.699164 14.15502,3.081564 9.48942,5.155164 C4.91022,7.228764 0.67662,7.919964 0.07182,6.537564"/><ellipse id="Oval" cx="10.775" cy="1.721" rx="1" ry="1.555" transform="translate(10.774519, 1.720783) rotate(-24.476200) translate(-10.774519, -1.720783)"/><ellipse id="Oval" cx="8.694" cy="2.658" rx="1" ry="1.555" transform="translate(8.693718, 2.657774) rotate(-24.437790) translate(-8.693718, -2.657774)"/><ellipse id="Oval" cx="6.618" cy="3.591" rx="1" ry="1.555" transform="translate(6.618038, 3.591224) rotate(-24.476200) translate(-6.618038, -3.591224)"/><ellipse id="Oval" cx="4.536" cy="4.531" rx="1" ry="1.555" transform="translate(4.535851, 4.530754) rotate(-24.450593) translate(-4.535851, -4.530754)"/></g><ellipse id="Oval" cx="12.04" cy="19.321" fill="#F97A90" rx="1" ry="1" transform="translate(12.039696, 19.321032) rotate(-164.989603) translate(-12.039696, -19.321032)"/><path id="Shape" fill="#82C60A" d="M53.12142,8.783964 C49.14702,10.425564 45.69102,8.179164 42.58062,11.721564 C40.76622,13.795164 41.63022,16.646364 42.49422,19.843164 L42.40782,19.843164 C45.60462,20.707164 48.36942,21.311964 50.44302,19.497564 C53.89902,16.300764 51.47982,12.758364 53.12142,8.783964 Z"/><path id="Shape" fill="#5EA304" d="M42.49422,19.583964 L42.49422,19.843164 L42.40782,19.843164 C45.60462,20.707164 48.36942,21.311964 50.44302,19.497564 C53.98542,16.300764 51.56622,12.758364 53.20782,8.783964 L53.29422,8.697564"/><g id="Group" fill="#74B208" transform="translate(43.956000, 10.800000)"><polygon id="Shape" points="4.327 2.909 3.722 .058 3.722 3.6 7.265 3.514"/><polygon id="Shape" points=".698 6.624 .093 3.773 .093 7.229 3.636 7.229"/><polygon id="Shape" points="2.599 4.723 1.821 1.44 1.821 5.414 5.796 5.414"/></g><path id="Shape" fill="#F4F1E6" d="M27.11502,8.524764 C31.86702,8.265564 35.92782,10.339164 36.70542,13.103964 C36.79182,12.758364 36.79182,12.499164 36.79182,12.153564 C36.61902,8.870364 32.29902,6.364764 27.02862,6.623964 C21.75822,6.883164 17.61102,9.734364 17.78382,13.017564 C17.78382,13.363164 17.87022,13.622364 17.95662,13.967964 C18.47502,11.116764 22.36302,8.697564 27.11502,8.524764 Z"/><path id="Shape" fill="#82C60A" d="M53.89902,18.892764 C49.92462,20.534364 46.46862,18.287964 43.35822,21.830364 C41.54382,23.903964 42.49422,26.755164 43.35822,29.951964 L43.18542,29.951964 C46.38222,30.815964 49.14702,31.420764 51.13422,29.606364 C54.67662,26.409564 52.25742,22.780764 53.89902,18.892764 Z"/><path id="Shape" fill="#5EA304" d="M43.35822,29.951964 L43.18542,29.951964 C46.38222,30.815964 49.14702,31.420764 51.13422,29.606364 C54.67662,26.409564 52.25742,22.867164 53.89902,18.892764 L53.81262,18.892764 L53.98542,18.979164"/><g id="Group" fill="#74B208" transform="translate(44.712000, 20.844000)"><polygon id="Shape" points="4.349 2.887 3.657 .036 3.744 3.578 7.2 3.492"/><polygon id="Shape" points=".72 6.602 .029 3.751 .115 7.294 3.571 7.207"/><polygon id="Shape" points="2.621 4.702 1.843 1.505 1.843 5.479 5.817 5.393"/></g><path id="Shape" fill="#FFDC6C" d="M53.29422,30.815964 C50.87502,19.583964 39.90222,11.116764 26.76942,11.116764 C13.63662,11.116764 2.57742,19.583964 0.15822,30.815964 L53.29422,30.815964 Z"/><path id="Shape" fill="#EABB47" d="M15.71022,30.815964 L53.29422,30.815964 C50.87502,19.583964 39.72942,11.116764 26.51022,11.116764"/><circle id="Oval" cx="9.23" cy="21.917" r="1.037" fill="#F4CB56"/><g id="Group" fill="#FFDC6C" transform="translate(26.568000, 21.384000)"><circle id="Oval" cx="1.065" cy="5.026" r="1.037"/><circle id="Oval" cx="16.013" cy="4.075" r="1.037"/><circle id="Oval" cx="5.04" cy="1.138" r="1.037"/></g><circle id="Oval" cx="41.889" cy="21.226" r="1.037" fill="#B28E32"/><g id="Group" fill="#FFDC6C" transform="translate(26.676000, 16.200000)"><circle id="Oval" cx="7.61" cy="1.829" r="1.728"/><circle id="Oval" cx="9.511" cy="6.754" r="1"/><circle id="Oval" cx=".612" cy="3.125" r="1"/></g><circle id="Oval" cx="17.784" cy="18.461" r="1.037" fill="#F4CB56"/><circle id="Oval" cx="20.203" cy="15.005" r="1.037" fill="#CEAB4A"/><g id="Group" fill="#B28E32" transform="translate(21.708000, 15.228000)"><circle id="Oval" cx="26.057" cy="11.959" r="1.296"/><circle id="Oval" cx="13.701" cy="11.873" r="1"/><circle id="Oval" cx=".569" cy="11.786" r="1"/><circle id="Oval" cx="7.308" cy=".554" r="1"/></g><circle id="Oval" cx="11.649" cy="26.237" r="1" fill="#F4CB56"/><g id="Group" fill="#CEAB4A" transform="translate(4.320000, 22.680000)"><circle id="Oval" cx="9.921" cy=".533" r="1"/><circle id="Oval" cx="1.195" cy="5.026" r="1.123"/></g><path id="Shape" fill="#F4F1E6" d="M30.74382,4.809564 C34.80462,6.364764 37.31022,9.734364 36.87822,12.671964 C37.05102,12.412764 37.22382,12.153564 37.31022,11.894364 C38.51982,8.783964 35.84142,4.895964 31.43502,3.167964 C26.94222,1.439964 22.36302,2.476764 21.15342,5.587164 C21.06702,5.846364 20.98062,6.191964 20.89422,6.451164 C22.53582,3.945564 26.68302,3.167964 30.74382,4.809564 Z"/></g></g></g></svg>