<svg xmlns="http://www.w3.org/2000/svg" xmlns:xlink="http://www.w3.org/1999/xlink" width="73" height="73" version="1.1" viewBox="0 0 73 73"><title>build-tools/npm</title><desc>Created with Sketch.</desc><g id="build-tools/npm" fill="none" fill-rule="evenodd" stroke="none" stroke-width="1"><g id="container" fill-rule="nonzero" transform="translate(2.000000, 2.000000)"><rect id="mask" width="71" height="71" x="-1" y="-1" fill="#CB3837" stroke="#5B0403" stroke-width="2" rx="14"/><g id="Npm-logo" transform="translate(10.000000, 25.000000)"><path id="Shape" fill="#CB3837" d="M0,0 L50,0 L50,16.6666667 L25,16.6666667 L25,19.4444444 L13.8888889,19.4444444 L13.8888889,16.6666667 L0,16.6666667 L0,0 Z M2.77777778,13.8888889 L8.33333333,13.8888889 L8.33333333,5.55555556 L11.1111111,5.55555556 L11.1111111,13.8888889 L13.8888889,13.8888889 L13.8888889,2.77777778 L2.77777778,2.77777778 L2.77777778,13.8888889 Z M16.6666667,2.77777778 L16.6666667,16.6666667 L22.2222222,16.6666667 L22.2222222,13.8888889 L27.7777778,13.8888889 L27.7777778,2.77777778 L16.6666667,2.77777778 Z M22.2222222,5.55555556 L25,5.55555556 L25,11.1111111 L22.2222222,11.1111111 L22.2222222,5.55555556 Z M30.5555556,2.77777778 L30.5555556,13.8888889 L36.1111111,13.8888889 L36.1111111,5.55555556 L38.8888889,5.55555556 L38.8888889,13.8888889 L41.6666667,13.8888889 L41.6666667,5.55555556 L44.4444444,5.55555556 L44.4444444,13.8888889 L47.2222222,13.8888889 L47.2222222,2.77777778 L30.5555556,2.77777778 Z"/><polygon id="Shape" fill="#FFF" points="2.778 13.889 8.333 13.889 8.333 5.556 11.111 5.556 11.111 13.889 13.889 13.889 13.889 2.778 2.778 2.778"/><path id="Shape" fill="#FFF" d="M16.6666667,2.77777778 L16.6666667,16.6666667 L22.2222222,16.6666667 L22.2222222,13.8888889 L27.7777778,13.8888889 L27.7777778,2.77777778 L16.6666667,2.77777778 Z M25,11.1111111 L22.2222222,11.1111111 L22.2222222,5.55555556 L25,5.55555556 L25,11.1111111 Z"/><polygon id="Shape" fill="#FFF" points="30.556 2.778 30.556 13.889 36.111 13.889 36.111 5.556 38.889 5.556 38.889 13.889 41.667 13.889 41.667 5.556 44.444 5.556 44.444 13.889 47.222 13.889 47.222 2.778"/></g></g></g></svg>