<svg xmlns="http://www.w3.org/2000/svg" xmlns:xlink="http://www.w3.org/1999/xlink" width="73" height="73" version="1.1" viewBox="0 0 73 73"><title>build-tools/parcel</title><desc>Created with Sketch.</desc><g id="build-tools/parcel" fill="none" fill-rule="evenodd" stroke="none" stroke-width="1"><g id="container" fill="#FFF" fill-rule="nonzero" stroke="#2D1C05" stroke-width="2" transform="translate(2.000000, 2.000000)"><rect id="mask" width="71" height="71" x="-1" y="-1" rx="14"/></g><g id="package" fill-rule="nonzero" transform="translate(11.000000, 14.000000)"><polygon id="Shape" fill="#D38C0D" points="33.479 20.194 50.918 10.077 33.479 .041 16.123 10.241"/><g id="Group" fill="#EFBB67"><polygon id="Shape" points="17.521 20.194 34.795 10.159 17.521 .041 0 10.159"/><polygon id="Shape" points="42.774 35.001 25.5 45.119 8.226 35.001 8.226 14.848 25.5 4.73 42.774 14.848"/></g><polyline id="Shape" fill="#D38C0D" points="25.5 4.73 42.774 14.848 42.774 35.001 25.5 45.119"/><polygon id="Shape" fill="#EFBB67" points="33.561 29.49 50.918 19.536 33.479 9.419 16.04 19.536"/><polygon id="Shape" fill="#D38C0D" points="17.521 29.654 34.877 19.454 17.521 9.419 0 19.536"/><polygon id="Shape" fill="#704A0E" points="25.582 24.965 42.774 14.848 25.582 4.73 8.061 14.848"/><polyline id="Shape" fill="#513307" points="25.582 24.965 42.774 14.848 25.582 4.73"/><polygon id="Shape" fill="#2D1C05" points="25.582 24.965 29.284 22.744 25.582 20.606 21.881 22.744"/><g id="Group" fill="#0DD396" transform="translate(37.838710, 27.556452)"><polygon id="Shape" points="0 8.596 4.113 6.21 4.113 4.894 0 7.28"/><polygon id="Shape" points="0 6.21 4.113 3.825 4.113 2.509 0 4.894"/><polygon id="Shape" points="0 3.825 4.113 1.44 4.113 .041 0 2.509"/></g></g></g></svg>