<svg xmlns="http://www.w3.org/2000/svg" xmlns:xlink="http://www.w3.org/1999/xlink" width="73" height="73" version="1.1" viewBox="0 0 73 73"><title>build-tools/prettier</title><desc>Created with Sketch.</desc><g id="build-tools/prettier" fill="none" fill-rule="evenodd" stroke="none" stroke-width="1"><g id="container" fill="#FFF" fill-rule="nonzero" stroke="#B33F3F" stroke-width="2" transform="translate(2.000000, 2.000000)"><rect id="mask" width="71" height="71" x="-1" y="-1" rx="14"/></g><g id="68747470733a2f2f63646e2e7261776769742e636f6d2f70726574746965722f70726574746965722d6c6f676f2f6d61737465722f696d616765732f70726574746965722d69636f6e2d6c696768742e737667" fill-rule="nonzero" transform="translate(15.000000, 15.000000)"><g id="line-11" transform="translate(0.000000, 41.904762)"><rect id="line-11-dash-3" width="12.571" height="2.095" x="31.429" y="0" fill="#CFD4D7" opacity=".5" rx="1.048"/><rect id="line-11-dash-2" width="14.667" height="2.095" x="14.667" y="0" fill="#CFD4D7" opacity=".5" rx="1.048"/><rect id="line-11-dash-1" width="12.571" height="2.095" x="0" y="0" fill="#EA5E5E" rx="1.048"/></g><g id="line-10" transform="translate(0.000000, 37.714286)"><rect id="line-10-dash-5" width="10.476" height="2.095" x="33.524" y="0" fill="#CFD4D7" opacity=".5" rx="1.048"/><rect id="line-10-dash-4" width="4.19" height="2.095" x="27.238" y="0" fill="#CFD4D7" opacity=".5" rx="1.048"/><rect id="line-10-dash-3" width="10.476" height="2.095" x="14.667" y="0" fill="#CFD4D7" opacity=".5" rx="1.048"/><rect id="line-10-dash-2" width="4.19" height="2.095" x="8.381" y="0" fill="#F7B93E" rx="1.048"/><rect id="line-10-dash-1" width="6.286" height="2.095" x="0" y="0" fill="#56B3B4" rx="1.048"/></g><g id="line-9" transform="translate(0.000000, 33.523810)"><rect id="line-9-dash-3" width="20.952" height="2.095" x="23.048" y="0" fill="#CFD4D7" opacity=".5" rx="1.048"/><rect id="line-9-dash-2" width="6.286" height="2.095" x="14.667" y="0" fill="#CFD4D7" opacity=".5" rx="1.048"/><rect id="line-9-dash-1" width="12.571" height="2.095" x="0" y="0" fill="#BF85BF" rx="1.048"/></g><g id="line-8" transform="translate(0.000000, 29.333333)"><rect id="line-8-dash-4" width="6.286" height="2.095" x="37.714" y="0" fill="#CFD4D7" opacity=".5" rx="1.048"/><rect id="line-8-dash-3" width="6.286" height="2.095" x="29.333" y="0" fill="#CFD4D7" opacity=".5" rx="1.048"/><rect id="line-8-dash-2" width="20.952" height="2.095" x="6.286" y="0" fill="#F7B93E" rx="1.048"/><rect id="line-8-dash-1" width="4.19" height="2.095" x="0" y="0" fill="#BF85BF" rx="1.048"/></g><g id="line-7" transform="translate(0.000000, 25.142857)"><rect id="line-7-dash-4" width="8.381" height="2.095" x="35.619" y="0" fill="#CFD4D7" opacity=".5" rx="1.048"/><rect id="line-7-dash-3" width="8.381" height="2.095" x="25.143" y="0" fill="#BF85BF" rx="1.048"/><rect id="line-7-dash-2" width="10.476" height="2.095" x="12.571" y="0" fill="#EA5E5E" rx="1.048"/><rect id="line-7-dash-1" width="10.476" height="2.095" x="0" y="0" fill="#56B3B4" rx="1.048"/></g><g id="line-6" transform="translate(0.000000, 20.952381)"><rect id="line-6-dash-4" width="6.286" height="2.095" x="37.714" y="0" fill="#CFD4D7" opacity=".5" rx="1.048"/><rect id="line-6-dash-3" width="18.857" height="2.095" x="16.762" y="0" fill="#56B3B4" rx="1.048"/><rect id="line-6-dash-2" width="8.381" height="2.095" x="6.286" y="0" fill="#F7B93E" rx="1.048"/><rect id="line-6-dash-1" width="4.19" height="2.095" x="0" y="0" fill="#EA5E5E" rx="1.048"/></g><g id="line-5" transform="translate(0.000000, 16.761905)"><rect id="line-5-dash-4" width="4.19" height="2.095" x="39.81" y="0" fill="#CFD4D7" opacity=".5" rx="1.048"/><rect id="line-5-dash-3" width="12.571" height="2.095" x="25.143" y="0" fill="#F7B93E" rx="1.048"/><rect id="line-5-dash-2" width="8.381" height="2.095" x="14.667" y="0" fill="#CFD4D7" opacity=".5" rx="1.048"/><rect id="line-5-dash-1" width="12.571" height="2.095" x="0" y="0" fill="#BF85BF" rx="1.048"/></g><g id="line-4" transform="translate(0.000000, 12.571429)"><rect id="line-4-dash-5" width="4.19" height="2.095" x="39.81" y="0" fill="#CFD4D7" opacity=".5" rx="1.048"/><rect id="line-4-dash-4" width="12.571" height="2.095" x="25.143" y="0" fill="#EA5E5E" rx="1.048"/><rect id="line-4-dash-3" width="8.381" height="2.095" x="14.667" y="0" fill="#CFD4D7" opacity=".5" rx="1.048"/><rect id="line-4-dash-2" width="4.19" height="2.095" x="8.381" y="0" fill="#56B3B4" rx="1.048"/><rect id="line-4-dash-1" width="6.286" height="2.095" x="0" y="0" fill="#F7B93E" rx="1.048"/></g><g id="line-3" transform="translate(0.000000, 8.380952)"><rect id="line-3-dash-4" width="6.286" height="2.095" x="37.714" y="0" fill="#CFD4D7" opacity=".5" rx="1.048"/><rect id="line-3-dash-3" width="4.19" height="2.095" x="31.429" y="0" fill="#56B3B4" rx="1.048"/><rect id="line-3-dash-2" width="10.476" height="2.095" x="18.857" y="0" fill="#BF85BF" rx="1.048"/><rect id="line-3-dash-1" width="16.762" height="2.095" x="0" y="0" fill="#56B3B4" rx="1.048"/></g><g id="line-2" transform="translate(0.000000, 4.190476)"><rect id="line-2-dash-3" width="8.381" height="2.095" x="35.619" y="0" fill="#CFD4D7" opacity=".5" rx="1.048"/><rect id="line-2-dash-2" width="23.048" height="2.095" x="10.476" y="0" fill="#F7B93E" rx="1.048"/><rect id="line-2-dash-1" width="8.381" height="2.095" x="0" y="0" fill="#EA5E5E" rx="1.048"/></g><g id="line-1"><rect id="line-1-dash-2" width="14.667" height="2.095" x="29.333" y="0" fill="#CFD4D7" opacity=".5" rx="1.048"/><rect id="line-1-dash-1" width="27.238" height="2.095" x="0" y="0" fill="#56B3B4" rx="1.048"/></g></g></g></svg>