<svg xmlns="http://www.w3.org/2000/svg" xmlns:xlink="http://www.w3.org/1999/xlink" width="73" height="73" version="1.1" viewBox="0 0 73 73"><title>build-tools/rollup</title><desc>Created with Sketch.</desc><defs><linearGradient id="linearGradient-1" x1="26.824%" x2="67.576%" y1="48.224%" y2="55.339%"><stop offset="0%" stop-color="#FF6533"/><stop offset="15.7%" stop-color="#FF5633"/><stop offset="43.4%" stop-color="#FF4333"/><stop offset="71.4%" stop-color="#FF3733"/><stop offset="100%" stop-color="#F33"/></linearGradient><linearGradient id="linearGradient-2" x1="20.45%" x2="93.486%" y1="38.133%" y2="80.432%"><stop offset="0%" stop-color="#BF3338"/><stop offset="100%" stop-color="#F33"/></linearGradient><linearGradient id="linearGradient-3" x1="32.293%" x2="45.556%" y1="39.497%" y2="48.914%"><stop offset="0%" stop-color="#FF6533"/><stop offset="15.7%" stop-color="#FF5633"/><stop offset="43.4%" stop-color="#FF4333"/><stop offset="71.4%" stop-color="#FF3733"/><stop offset="100%" stop-color="#F33"/></linearGradient><linearGradient id="linearGradient-4" x1="51.564%" x2="48.518%" y1="78.344%" y2="41.663%"><stop offset="0%" stop-color="#FF6533"/><stop offset="15.7%" stop-color="#FF5633"/><stop offset="43.4%" stop-color="#FF4333"/><stop offset="71.4%" stop-color="#FF3733"/><stop offset="100%" stop-color="#F33"/></linearGradient><linearGradient id="linearGradient-5" x1="40.201%" x2="53.975%" y1="47.215%" y2="54.535%"><stop offset="0%" stop-color="#FBB040"/><stop offset="100%" stop-color="#FB8840"/></linearGradient><linearGradient id="linearGradient-6" x1="55.222%" x2="40.926%" y1="5.888%" y2="128.016%"><stop offset="0%" stop-color="#FFF"/><stop offset="100%" stop-color="#FFF" stop-opacity="0"/></linearGradient></defs><g id="build-tools/rollup" fill="none" fill-rule="evenodd" stroke="none" stroke-width="1"><g id="container" fill="#FFF" fill-rule="nonzero" stroke="#E83334" stroke-width="2" transform="translate(2.000000, 2.000000)"><rect id="mask" width="71" height="71" x="-1" y="-1" rx="14"/></g><g id="download" fill-rule="nonzero" transform="translate(21.000000, 16.000000)"><g id="XMLID_14_" fill="url(#linearGradient-1)" transform="translate(4.167621, 4.238259)"><path id="XMLID_15_" d="M26.7010299,9.0416186 C26.7010299,6.66819372 26.0794186,4.44310789 24.9845351,2.51470017 C22.0813279,-0.473272224 15.7663224,-1.16552115 14.1981667,2.50057264 C12.5876284,6.25849537 16.9035885,10.440244 18.7896137,10.108247 C21.1912936,9.68442117 18.3657878,4.17468484 18.3657878,4.17468484 C22.0389453,11.0971741 21.1912936,8.97804472 14.5513549,15.3354328 C7.91141627,21.6928209 1.13020232,35.1069097 0.141275291,35.6720109 C0.0988927034,35.7002659 0.0565101162,35.7214572 0.00706376453,35.7426485 L26.0511636,35.7426485 C26.5103083,35.7426485 26.8069864,35.2552488 26.6021372,34.8455504 L19.7926682,21.3678877 C19.6443292,21.0782734 19.7502856,20.7180214 20.0328362,20.5555548 C24.0167994,18.2668951 26.7010299,13.9721262 26.7010299,9.0416186 Z"/></g><g id="XMLID_2_" fill="url(#linearGradient-2)" transform="translate(4.167621, 4.238259)"><path id="XMLID_10_" d="M26.7010299,9.0416186 C26.7010299,6.66819372 26.0794186,4.44310789 24.9845351,2.51470017 C22.0813279,-0.473272224 15.7663224,-1.16552115 14.1981667,2.50057264 C12.5876284,6.25849537 16.9035885,10.440244 18.7896137,10.108247 C21.1912936,9.68442117 18.3657878,4.17468484 18.3657878,4.17468484 C22.0389453,11.0971741 21.1912936,8.97804472 14.5513549,15.3354328 C7.91141627,21.6928209 1.13020232,35.1069097 0.141275291,35.6720109 C0.0988927034,35.7002659 0.0565101162,35.7214572 0.00706376453,35.7426485 L26.0511636,35.7426485 C26.5103083,35.7426485 26.8069864,35.2552488 26.6021372,34.8455504 L19.7926682,21.3678877 C19.6443292,21.0782734 19.7502856,20.7180214 20.0328362,20.5555548 C24.0167994,18.2668951 26.7010299,13.9721262 26.7010299,9.0416186 Z"/></g><path id="XMLID_3_" fill="url(#linearGradient-3)" d="M4.30889636,39.9102696 C5.2978234,39.3451684 12.0790373,25.9240158 18.718976,19.5666278 C25.3589147,13.2092397 26.2065664,15.328369 22.5334089,8.40587979 C22.5334089,8.40587979 8.47651744,28.1137828 3.39060697,37.8617779"/><g id="XMLID_7_" fill="url(#linearGradient-4)" transform="translate(1.059565, 0.000000)"><path id="XMLID_12_" d="M5.22718575,22.2508583 C14.7208853,4.79629612 15.9641078,3.03741875 20.908743,3.03741875 C23.5082084,3.03741875 26.128865,4.21000366 27.8241685,6.2938142 C25.5143175,2.57121029 21.4243978,0.0777014098 16.7411219,0.00706376453 L0.614547514,0.00706376453 C0.275486817,0.00706376453 0,0.282550581 0,0.621611279 L0,33.1290556 C0.960671976,30.6496743 2.59240158,27.1036645 5.22718575,22.2508583 Z"/></g><path id="XMLID_6_" fill="url(#linearGradient-5)" d="M18.718976,19.5666278 C12.0790373,25.9240158 5.2978234,39.3451684 4.30889636,39.9102696 C3.31996933,40.4753708 1.65998466,40.5460084 0.777014098,39.5570814 C-0.162466584,38.5045805 -1.62466584,36.8022132 6.28675043,22.2508583 C15.78045,4.79629612 17.0236725,3.03741875 21.9683077,3.03741875 C24.567773,3.03741875 27.1884297,4.21000366 28.8837332,6.2938142 C28.9755621,6.44215325 29.067391,6.59755607 29.15922,6.75295889 C26.2560128,3.76498649 19.9410073,3.07273757 18.3728515,6.73883136 C16.7623132,10.4967541 21.0782734,14.6785027 22.9642985,14.3465058 C25.3659784,13.9226799 22.5404726,8.41294356 22.5404726,8.41294356 C26.2065664,15.328369 25.3589147,13.2092397 18.718976,19.5666278 Z"/><path id="XMLID_13_" fill="url(#linearGradient-6)" d="M7.06376453,23.0278724 C16.5574641,5.57331021 17.8006866,3.81443285 22.7453218,3.81443285 C24.8856424,3.81443285 27.0400906,4.61263824 28.678884,6.0536462 C26.9835805,4.11817472 24.4688803,3.03741875 21.9683077,3.03741875 C17.0236725,3.03741875 15.78045,4.79629612 6.28675043,22.2508583 C-1.62466584,36.8022132 -0.162466584,38.5045805 0.777014098,39.5570814 C0.911225624,39.7054204 1.06662844,39.8325682 1.22909503,39.9385247 C0.402634578,38.7376847 0.0353188227,35.9474977 7.06376453,23.0278724 Z" opacity=".3"/></g></g></svg>