<svg xmlns="http://www.w3.org/2000/svg" xmlns:xlink="http://www.w3.org/1999/xlink" width="73" height="73" version="1.1" viewBox="0 0 73 73"><title>build-tools/snowpack</title><desc>Created with Sketch.</desc><defs><linearGradient id="linearGradient-1" x1="50%" x2="50%" y1="0%" y2="100%"><stop offset="0%" stop-color="#585FFF"/><stop offset="100%" stop-color="#62CAFF"/></linearGradient></defs><g id="build-tools/snowpack" fill="none" fill-rule="evenodd" stroke="none" stroke-width="1"><g id="container" fill="#FFF" fill-rule="nonzero" stroke="#3E4184" stroke-width="2" transform="translate(2.000000, 2.000000)"><rect id="mask" width="71" height="71" x="-1" y="-1" rx="14"/></g><g id="Group" fill-rule="nonzero" transform="translate(10.000000, 12.000000)"><path id="Rectangle-8" fill="url(#linearGradient-1)" d="M28.3579303,1.07633205 L51.9096939,37.1890361 C52.81478,38.5768348 52.4234641,40.4355852 51.0356654,41.3406713 C50.5482124,41.6585755 49.9788188,41.8278395 49.3968621,41.8278395 L2.1225101,41.8278395 C1.0179406,41.8278395 0.122510103,40.932409 0.122510103,39.8278395 C0.122510103,39.4398684 0.235352788,39.0602726 0.447288909,38.7353039 L25.007488,1.07633205 C25.6108787,0.151132936 26.8500456,-0.109744308 27.7752447,0.493646421 C28.0078145,0.645322346 28.2062544,0.843762302 28.3579303,1.07633205 Z"/><polygon id="Path-23" fill="#FFF" points="21.436 24.103 26.725 18.914 33.621 18.914 26.725 8.314 18.3 21.11"/></g></g></svg>