<svg xmlns="http://www.w3.org/2000/svg" xmlns:xlink="http://www.w3.org/1999/xlink" width="73" height="73" version="1.1" viewBox="0 0 73 73"><title>databases-and-servers/databases/functional-dependencies</title><desc>Created with Sketch.</desc><g id="databases-and-servers/databases/functional-dependencies" fill="none" fill-rule="evenodd" stroke="none" stroke-width="1"><g id="container" fill="#FFF" fill-rule="nonzero" stroke="#03465C" stroke-width="2" transform="translate(2.000000, 2.000000)"><rect id="mask" width="71" height="71" x="-1" y="-1" rx="14"/></g><g id="blockchain" fill-rule="nonzero" transform="translate(10.000000, 9.000000)"><polygon id="Shape" fill="#FFC119" points="31.655 47.483 42.828 54 54 47.483 54 33.517 42.828 27 31.655 33.517"/><polygon id="Shape" fill="#EA732D" points="54 47.483 42.828 54 42.828 40.034 54 33.517"/><polygon id="Shape" fill="#FAAC2B" points="31.655 47.483 42.828 54 42.828 40.034 31.655 33.517"/><polygon id="Shape" fill="#FFC119" points="0 47.483 11.172 54 22.345 47.483 22.345 33.517 11.172 27 0 33.517"/><polygon id="Shape" fill="#EA732D" points="22.345 47.483 11.172 54 11.172 40.034 22.345 33.517"/><polygon id="Shape" fill="#FAAC2B" points="0 47.483 11.172 54 11.172 40.034 0 33.517"/><polygon id="Shape" fill="#FFC119" points="15.828 20.483 27 27 38.172 20.483 38.172 6.517 27 0 15.828 6.517"/><polygon id="Shape" fill="#047FA7" points="3.724 45.343 3.724 40.001 7.448 42.174 7.448 47.516"/><polygon id="Shape" fill="#06687F" points="50.276 45.343 50.276 40.001 46.552 42.174 46.552 47.516"/><polygon id="Shape" fill="#EA732D" points="38.172 20.483 27 27 27 13.034 38.172 6.517"/><polygon id="Shape" fill="#FAAC2B" points="15.828 20.483 27 27 27 13.034 15.828 6.517"/><g id="Group" fill="#0093BA" transform="translate(10.357759, 4.306034)"><polygon id="Shape" points="12.86 2.211 16.642 .005 20.424 2.211 16.642 4.417"/><polygon id="Shape" points="21.435 12.938 23.024 11.967 23.934 13.456 22.345 14.427"/><polygon id="Shape" points="23.199 15.828 24.788 14.857 31.551 25.924 29.962 26.895"/><polygon id="Shape" points="30.717 28.177 32.306 27.207 33.236 28.731 31.648 29.701"/><polygon id="Shape" points="9.353 13.455 10.263 11.967 11.852 12.938 10.941 14.426"/><polygon id="Shape" points="1.733 25.924 8.495 14.856 10.084 15.827 3.322 26.895"/><polygon id="Shape" points=".02 28.725 .951 27.201 2.539 28.172 1.608 29.696"/><polygon id="Shape" points="26.884 38.522 28.746 38.522 28.746 40.384 26.884 40.384"/><polygon id="Shape" points="8.263 38.522 25.022 38.522 25.022 40.384 8.263 40.384"/><polygon id="Shape" points="4.539 38.522 6.401 38.522 6.401 40.384 4.539 40.384"/></g></g></g></svg>