<svg xmlns="http://www.w3.org/2000/svg" xmlns:xlink="http://www.w3.org/1999/xlink" width="73" height="73" version="1.1" viewBox="0 0 73 73"><title>databases-and-servers/databases/indexing</title><desc>Created with Sketch.</desc><g id="databases-and-servers/databases/indexing" fill="none" fill-rule="evenodd" stroke="none" stroke-width="1"><g id="container" fill="#FFF" fill-rule="nonzero" stroke="#314149" stroke-width="2" transform="translate(2.000000, 2.000000)"><rect id="mask" width="71" height="71" x="-1" y="-1" rx="14"/></g><g id="post-it" fill-rule="nonzero" transform="translate(11.000000, 13.000000)"><path id="Shape" fill="#FFA000" d="M39.4463626,42.3064386 L26.445538,9.43311111 C26.3017836,9.07114035 25.9712281,8.8171345 25.5845029,8.77140351 L5.43632164,6.40035088 C4.86448538,6.32002339 4.33579532,6.71847953 4.25546784,7.29031579 C4.25367836,7.30323977 4.25208772,7.31626316 4.25069591,7.32928655 L0.00904678363,41.2629766 C-0.0668070175,41.8436608 0.342385965,42.3760292 0.923070175,42.451883 C0.931520468,42.4529766 0.940070175,42.4539708 0.948520468,42.4548655 L38.0634971,46.696614 L38.184386,46.696614 C38.7332573,46.699 39.1932515,46.2822515 39.244848,45.7358655 L39.5205263,42.794269 C39.5346433,42.6280468 39.509193,42.4609298 39.4463626,42.3064386 Z"/><path id="Shape" fill="#FFE082" d="M46.667883,7.32928655 C46.599883,6.74760819 46.0730819,6.33115789 45.4914035,6.39925731 C45.4883216,6.39965497 45.4853392,6.39995322 45.4822573,6.40035088 L36.3626023,7.47353801 L9.42774269,10.642 C8.85103509,10.7075146 8.43418713,11.2245731 8.49244444,11.802076 L11.673731,45.7357661 C11.7253275,46.282152 12.1853216,46.6989006 12.734193,46.6965146 L12.8550819,46.6965146 L49.9700585,42.4547661 C50.5519357,42.3880585 50.9694795,41.8622515 50.9027719,41.2803743 C50.9022749,41.2759006 50.9017778,41.2715263 50.9011813,41.2670526 L46.667883,7.32928655 Z"/><path id="Shape" fill="#455A64" d="M30.7614503,14.8837485 C30.1757953,14.8848421 29.700193,14.4108304 29.6990994,13.8251754 C29.6986023,13.5428363 29.8107427,13.2719298 30.0106667,13.0725029 L35.3127778,7.77039181 C35.7196842,7.34916959 36.3909357,7.3374386 36.8122573,7.74434503 C37.2334795,8.15125146 37.2451111,8.82250292 36.8383041,9.24382456 C36.8297544,9.25267251 36.8211053,9.26132164 36.8122573,9.26987135 L31.5101462,14.5719825 C31.3118129,14.7710117 31.0424971,14.883152 30.7614503,14.8837485 Z"/><circle id="Oval" cx="39.245" cy="5.34" r="5.302" fill="#F44336"/></g></g></svg>