<svg xmlns="http://www.w3.org/2000/svg" xmlns:xlink="http://www.w3.org/1999/xlink" width="73" height="73" version="1.1" viewBox="0 0 73 73"><title>databases-and-servers/databases/non-relational-databases</title><desc>Created with Sketch.</desc><g id="databases-and-servers/databases/non-relational-databases" fill="none" fill-rule="evenodd" stroke="none" stroke-width="1"><g id="container" fill="#FFF" fill-rule="nonzero" stroke="#03232E" stroke-width="2" transform="translate(2.000000, 2.000000)"><rect id="mask" width="71" height="71" x="-1" y="-1" rx="14"/></g><g id="server-(1)" fill-rule="nonzero" transform="translate(14.000000, 14.000000)"><polygon id="Shape" fill="#03232E" points="42.197 11.263 20.741 9.504 20.741 35.496 42.197 33.737"/><g id="Group" fill="#07485E" transform="translate(2.724609, 0.000000)"><polygon id="Shape" points=".079 11.263 .079 33.737 19.776 35.496 19.776 9.504"/><polygon id="Shape" points="42.275 0 19.776 0 18.016 5.631 19.776 11.263 42.275 11.263"/><polygon id="Shape" points="42.275 28.131 42.275 16.869 19.776 16.869 18.016 22.5 19.776 28.131"/><polygon id="Shape" points="42.275 45 42.275 33.737 19.776 33.737 18.016 39.369 19.776 45"/></g><polygon id="Shape" fill="#0B799D" points="0 0 22.5 0 22.5 11.263 0 11.263"/><polygon id="Shape" fill="#0B799D" points="0 16.869 22.5 16.869 22.5 28.131 0 28.131"/><polygon id="Shape" fill="#0B799D" points="0 33.737 22.5 33.737 22.5 45 0 45"/><polygon id="Shape" fill="#B4D2D7" points="28.659 4.313 40.795 4.313 40.795 6.95 28.659 6.95"/><polygon id="Shape" fill="#B4D2D7" points="28.659 21.182 40.795 21.182 40.795 23.818 28.659 23.818"/><polygon id="Shape" fill="#B4D2D7" points="28.659 38.05 40.795 38.05 40.795 40.687 28.659 40.687"/><polygon id="Shape" fill="#00FF94" points="4.205 4.313 7.008 4.313 7.008 6.95 4.205 6.95"/><polygon id="Shape" fill="#FFD422" points="9.811 4.313 12.614 4.313 12.614 6.95 9.811 6.95"/><polygon id="Shape" fill="#00FF94" points="4.205 21.182 7.008 21.182 7.008 23.818 4.205 23.818"/><polygon id="Shape" fill="#FFD422" points="9.811 21.182 12.614 21.182 12.614 23.818 9.811 23.818"/><polygon id="Shape" fill="#00FF94" points="4.205 38.05 7.008 38.05 7.008 40.687 4.205 40.687"/><polygon id="Shape" fill="#FFD422" points="9.811 38.05 12.614 38.05 12.614 40.687 9.811 40.687"/></g></g></svg>