<svg xmlns="http://www.w3.org/2000/svg" xmlns:xlink="http://www.w3.org/1999/xlink" width="73" height="73" version="1.1" viewBox="0 0 73 73"><title>databases-and-servers/databases/normalization</title><desc>Created with Sketch.</desc><g id="databases-and-servers/databases/normalization" fill="none" fill-rule="evenodd" stroke="none" stroke-width="1"><g id="container" fill-rule="nonzero" transform="translate(2.000000, 2.000000)"><rect id="mask" width="71" height="71" x="-1" y="-1" fill="#FFF" stroke="#394D5C" stroke-width="2" rx="14"/><g id="selfie-stick" transform="translate(11.000000, 9.000000)"><rect id="Rectangle-path" width="41.891" height="19.2" x="0" y="2.618" fill="#7D8D9C" rx="2"/><polygon id="Shape" fill="#87CEE9" points="6.982 2.618 34.909 2.618 34.909 21.818 6.982 21.818"/><path id="Shape" fill="#2D75BB" d="M45.3818182,28.8 L23.5636364,28.8 L23.5636364,27.0545455 L45.3818182,27.0545455 C45.8638121,27.0545455 46.2545455,26.6638121 46.2545455,26.1818182 L46.2545455,7.85454545 C46.2545455,7.37255149 45.8638121,6.98181818 45.3818182,6.98181818 L41.8909091,6.98181818 L41.8909091,5.23636364 L45.3818182,5.23636364 C46.8278001,5.23636364 48,6.40856356 48,7.85454545 L48,26.1818182 C48,27.6278001 46.8278001,28.8 45.3818182,28.8 Z"/><polygon id="Shape" fill="#394D5C" points="13.091 19.2 28.8 19.2 28.8 24.436 13.091 24.436"/><polygon id="Shape" fill="#7D8D9C" points="18.327 24.436 23.564 24.436 23.564 27.927 18.327 27.927"/><polygon id="Shape" fill="#AABECE" points="18.327 27.927 23.564 27.927 23.564 31.418 18.327 31.418"/><g id="Group" fill="#394D5C" transform="translate(2.618182, 0.000000)"><polygon id="Shape" points="13.964 31.418 22.691 31.418 22.691 50.618 13.964 50.618"/><polygon id="Shape" points="10.473 0 26.182 0 26.182 5.236 10.473 5.236"/><circle id="Oval" cx="35.782" cy="12.218" r="1.745"/><polygon id="Shape" points="0 15.709 1.745 15.709 1.745 17.455 0 17.455"/><polygon id="Shape" points="0 6.982 1.745 6.982 1.745 13.964 0 13.964"/></g><polygon id="Shape" fill="#CFDFE8" points="15.709 21.818 17.455 21.818 17.455 24.436 15.709 24.436"/><polygon id="Shape" fill="#CFDFE8" points="20.073 21.818 21.818 21.818 21.818 24.436 20.073 24.436"/><polygon id="Shape" fill="#CFDFE8" points="24.436 21.818 26.182 21.818 26.182 24.436 24.436 24.436"/><polygon id="Shape" fill="#55B56A" points="20.073 46.255 21.818 46.255 21.818 48 20.073 48"/><polygon id="Shape" fill="#E1462B" points="20.073 42.764 21.818 42.764 21.818 44.509 20.073 44.509"/><polygon id="Shape" fill="#F4F4E6" points="13.312 11.783 21.95 11.783 21.95 13.528 13.312 13.528" transform="translate(17.631269, 12.655858) rotate(-45.000000) translate(-17.631269, -12.655858)"/><polygon id="Shape" fill="#F4F4E6" points="19.676 10.911 28.314 10.911 28.314 12.656 19.676 12.656" transform="translate(23.995328, 11.783872) rotate(-45.000000) translate(-23.995328, -11.783872)"/></g></g></g></svg>