<svg xmlns="http://www.w3.org/2000/svg" xmlns:xlink="http://www.w3.org/1999/xlink" width="73" height="73" version="1.1" viewBox="0 0 73 73"><title>databases-and-servers/databases/normal-forms</title><desc>Created with Sketch.</desc><g id="databases-and-servers/databases/normal-forms" fill="none" fill-rule="evenodd" stroke="none" stroke-width="1"><g id="container" fill="#FFF" fill-rule="nonzero" stroke="#233643" stroke-width="2" transform="translate(2.000000, 2.000000)"><rect id="mask" width="71" height="71" x="-1" y="-1" rx="14"/></g><g id="share" fill-rule="nonzero" transform="translate(11.000000, 11.000000)"><ellipse id="Oval" cx="14.071" cy="25.76" fill="#FFD15C" rx="14.071" ry="14.179"/><ellipse id="Oval" cx="14.071" cy="25.76" fill="#FFF" rx="8.984" ry="9.092"/><ellipse id="Oval" cx="41.888" cy="10.174" fill="#84DBFF" rx="10.066" ry="10.174"/><circle id="Oval" cx="41.888" cy="10.174" r="6.061" fill="#FFF"/><ellipse id="Oval" cx="41.888" cy="41.779" fill="#FF7058" rx="10.066" ry="10.174"/><g id="Group" fill="#40596B" transform="translate(24.549801, 12.430279)"><path id="Shape" d="M10.1940717,4.77933865 L8.67871713,5.64521116 L2.72575299,9.00055777 C2.18462151,7.26881275 1.21039841,5.64521116 0.128031873,4.23810359 L6.08099602,0.882756972 L7.5963506,0.0168844622 C8.02933865,1.85698008 9.00345817,3.48047809 10.1940717,4.77933865 Z"/><path id="Shape" d="M10.3023187,22.2053466 C9.00345817,23.5042072 8.02933865,25.1277052 7.59645418,26.9678008 L6.0810996,26.1019283 L0.0198884462,22.5300876 C1.21050199,21.1229801 2.0763745,19.4994821 2.72575299,17.7676335 L8.78696414,21.3394741 L10.3023187,22.2053466 Z"/></g><g id="Group" fill="#334A5E" transform="translate(30.557769, 12.430279)"><path id="Shape" d="M4.18610359,4.77933865 L2.670749,5.64521116 C1.48013546,4.3463506 0.506015936,2.72285259 0.0730278884,0.882860558 L1.58838247,0.0169880478 C2.02137052,1.85698008 2.99549004,3.48047809 4.18610359,4.77933865 Z"/><path id="Shape" d="M4.2943506,22.2053466 C2.99549004,23.5042072 2.02137052,25.1277052 1.58848606,26.9678008 L0.0731314741,26.1019283 C0.614262948,24.2619363 1.58848606,22.6383347 2.77899602,21.3394741 L4.2943506,22.2053466 Z"/></g><circle id="Oval" cx="41.888" cy="41.779" r="6.061" fill="#FFF"/></g></g></svg>