<svg xmlns="http://www.w3.org/2000/svg" xmlns:xlink="http://www.w3.org/1999/xlink" width="73" height="73" version="1.1" viewBox="0 0 73 73"><title>databases-and-servers/databases/precedence-graph</title><desc>Created with Sketch.</desc><g id="databases-and-servers/databases/precedence-graph" fill="none" fill-rule="evenodd" stroke="none" stroke-width="1"><g id="container" fill="#FFF" fill-rule="nonzero" stroke="#28272C" stroke-width="2" transform="translate(2.000000, 2.000000)"><rect id="mask" width="71" height="71" x="-1" y="-1" rx="14"/></g><g id="data-(2)" fill-rule="nonzero" transform="translate(13.000000, 13.000000)"><path id="Shape" fill="#A7A9AC" d="M3.24137931,0 L43.7586207,0 C45.5486598,0 47,1.45134025 47,3.24137931 L47,32.4137931 C47,34.2038322 45.5486598,35.6551724 43.7586207,35.6551724 L3.24137931,35.6551724 C1.45134025,35.6551724 0,34.2038322 0,32.4137931 L0,3.24137931 C0,1.45134025 1.45134025,0 3.24137931,0 Z"/><polygon id="Shape" fill="#787680" points="17.017 35.655 29.983 35.655 29.983 42.138 17.017 42.138"/><path id="Shape" fill="#57565C" d="M12.1551724,42.137931 C10.3651334,42.137931 8.9137931,43.5892713 8.9137931,45.3793103 L8.9137931,47 L38.0862069,47 L38.0862069,45.3793103 C38.0862069,43.5892713 36.6348666,42.137931 34.8448276,42.137931 L12.1551724,42.137931 Z"/><polygon id="Shape" fill="#BDDBFF" points="3.241 3.241 43.759 3.241 43.759 29.172 3.241 29.172"/><path id="Shape" fill="#ED1C24" d="M25.1206897,32.4137931 C25.1206897,33.3088127 24.3950196,34.0344828 23.5,34.0344828 C22.6049804,34.0344828 21.8793103,33.3088127 21.8793103,32.4137931 C21.8793103,31.5187735 22.6049804,30.7931034 23.5,30.7931034 C24.3950196,30.7931034 25.1206897,31.5187735 25.1206897,32.4137931 Z"/><polygon id="Shape" fill="#7ED63E" points="23.5 11.345 27.552 11.345 27.552 6.483 19.448 6.483 19.448 11.345"/><polygon id="Shape" fill="#ED1C24" points="23.5 19.448 19.448 19.448 19.448 24.31 27.552 24.31 27.552 19.448"/><polygon id="Shape" fill="#006DF0" points="32.414 19.448 32.414 24.31 40.517 24.31 40.517 19.448"/><path id="Shape" fill="#9BC9FF" d="M3.24137931,12.1551724 L3.24137931,29.1724138 L23.5,29.1724138 C12.3027596,29.1724138 3.24137931,21.560791 3.24137931,12.1551724 Z"/><polygon id="Shape" fill="#FFCD00" points="10.534 19.448 6.483 19.448 6.483 24.31 14.586 24.31 14.586 19.448"/><g id="Group" fill="#F1F2F2" transform="translate(9.724138, 8.103448)"><polygon id="Shape" points="12.966 3.241 14.586 3.241 14.586 11.345 12.966 11.345"/><polygon id="Shape" points="4.862 12.966 9.724 12.966 9.724 14.586 4.862 14.586"/><polygon id="Shape" points="17.828 12.966 22.69 12.966 22.69 14.586 17.828 14.586"/><path id="Shape" d="M27.5517241,11.3448276 L25.9310345,11.3448276 L25.9310345,4.05172414 C25.9310345,2.70919487 24.8425293,1.62068966 23.5,1.62068966 L17.8275862,1.62068966 L17.8275862,0 L23.5,0 C25.7367575,0.00276975862 27.5489544,1.81496669 27.5517241,4.05172414 L27.5517241,11.3448276 Z"/><path id="Shape" d="M1.62068966,11.3448276 L0,11.3448276 L0,4.05172414 C0.00276975862,1.81496669 1.81496669,0.00276975862 4.05172414,0 L9.72413793,0 L9.72413793,1.62068966 L4.05172414,1.62068966 C2.70919487,1.62068966 1.62068966,2.70919487 1.62068966,4.05172414 L1.62068966,11.3448276 Z"/></g></g></g></svg>