<svg xmlns="http://www.w3.org/2000/svg" xmlns:xlink="http://www.w3.org/1999/xlink" width="73" height="73" version="1.1" viewBox="0 0 73 73"><title>algorithms-and-data-structures/analysis/big-o-notation</title><desc>Created with Sketch.</desc><g id="algorithms-and-data-structures/analysis/big-o-notation" fill="none" fill-rule="evenodd" stroke="none" stroke-width="1"><g id="container" fill="#FFF" fill-rule="nonzero" stroke="#2E2D2C" stroke-width="2" transform="translate(2.000000, 2.000000)"><rect id="mask" width="71" height="71" x="-1" y="-1" rx="14"/></g><g id="letter-o-sign" fill="#000" fill-rule="nonzero" transform="translate(13.000000, 13.000000)"><path id="Shape" d="M23.4670507,46.9340192 C36.4266434,46.9340192 46.9340192,36.4266434 46.9340192,23.4670507 C46.9340192,10.5073759 36.4266434,0 23.4670507,0 C10.5073759,0 0,10.5073759 0,23.4671329 C0,36.4266434 10.5073759,46.9340192 23.4670507,46.9340192 Z M17.5628811,11.7708706 C17.5628811,8.5113549 20.2036731,5.86670105 23.4670507,5.86670105 C26.7303462,5.86670105 29.3711381,8.51127273 29.3711381,11.7708706 L29.3711381,35.1630664 C29.3711381,38.4228287 26.7303462,41.0674003 23.4670507,41.0674003 C20.2036731,41.0674003 17.5628811,38.4227465 17.5628811,35.1632308 L17.5628811,11.7708706 Z"/></g></g></svg>