<svg xmlns="http://www.w3.org/2000/svg" xmlns:xlink="http://www.w3.org/1999/xlink" width="73" height="73" version="1.1" viewBox="0 0 73 73"><title>algorithms-and-data-structures/analysis/time-complexity</title><desc>Created with Sketch.</desc><g id="algorithms-and-data-structures/analysis/time-complexity" fill="none" fill-rule="evenodd" stroke="none" stroke-width="1"><g id="container" fill="#FFF" fill-rule="nonzero" stroke="#012455" stroke-width="2" transform="translate(2.000000, 2.000000)"><rect id="mask" width="71" height="71" x="-1" y="-1" rx="14"/></g><g id="chronometer" fill-rule="nonzero" transform="translate(17.000000, 15.000000)"><polygon id="Shape" fill="#B4D2D7" points="34.098 7.901 35.877 9.681 32.138 13.42 30.359 11.64"/><polygon id="Shape" fill="#E1EBF0" points="4.451 7.902 8.189 11.64 6.41 13.42 2.671 9.681"/><polygon id="Shape" fill="#87A0AF" points="33.205 5.23 38.548 10.573 36.769 12.352 31.426 7.01"/><polygon id="Shape" fill="#B4D2D7" points="5.343 5.231 7.122 7.01 1.78 12.352 0 10.573"/><polygon id="Shape" fill="#B4D2D7" points="23.47 1.259 17.595 1.259 19.274 10.088 23.47 10.088"/><polygon id="Shape" fill="#E1EBF0" points="15.078 1.259 19.274 1.259 19.274 10.088 15.078 10.088"/><path id="Shape" fill="#005FE1" d="M32.3153954,11.463392 C28.8316514,7.97997562 24.2004214,6.06149176 19.2739644,6.06149176 L17.5950042,24.504823 L19.2739644,42.9478266 C24.2004214,42.9478266 28.8316514,41.0293427 32.3153954,37.5459263 C35.7988118,34.0625101 37.716968,29.4309524 37.716968,24.504823 C37.716968,19.578366 35.7988118,14.9468083 32.3153954,11.463392 Z"/><path id="Shape" fill="#69B1E9" d="M6.23286105,11.463392 C2.7494447,14.9468083 0.830960757,19.578366 0.830960757,24.504823 C0.830960757,29.4309524 2.7494447,34.0625101 6.23286105,37.5459263 C9.71627732,41.0293427 14.347835,42.9478266 19.2739644,42.9478266 L19.2739644,6.06149176 C14.347835,6.06149176 9.71627732,7.97997562 6.23286105,11.463392 Z"/><path id="Shape" fill="#EFE2DD" d="M17.5950042,22.8258629 L19.2739644,38.0767452 C26.7578539,38.0767452 32.8458865,31.9883848 32.8458865,24.504823 L17.5950042,22.8258629 Z"/><path id="Shape" fill="#00CC76" d="M32.8458865,24.504823 C32.8458865,17.0212612 26.7575262,10.9329009 19.2739644,10.9329009 L17.5950042,24.504823 L32.8458865,24.504823 Z"/><polygon id="Shape" fill="#87A0AF" points="25.99 0 19.274 0 18.434 1.259 19.274 2.516 25.99 2.516"/><polygon id="Shape" fill="#B4D2D7" points="12.558 0 19.274 0 19.274 2.516 12.558 2.516"/><path id="Shape" fill="#FFF5F5" d="M19.2739644,10.9325732 C11.7904026,10.9325732 5.70204219,17.0209335 5.70204219,24.504823 C5.70204219,31.9883848 11.7904026,38.0767452 19.2739644,38.0767452 L19.2739644,10.9325732 Z"/><path id="Shape" fill="#005FE1" d="M19.2739644,20.7278181 L17.5950042,24.504823 L19.2739644,28.2815003 C21.3566089,28.2815003 23.0506417,26.5871399 23.0506417,24.504823 C23.0506417,22.4221785 21.3566089,20.7278181 19.2739644,20.7278181 Z"/><path id="Shape" fill="#69B1E9" d="M15.4972871,24.504823 C15.4972871,26.5871399 17.1916475,28.2815003 19.2739644,28.2815003 L19.2739644,20.7278181 C17.1916475,20.7278181 15.4972871,22.4221785 15.4972871,24.504823 Z"/></g></g></svg>