<svg xmlns="http://www.w3.org/2000/svg" xmlns:xlink="http://www.w3.org/1999/xlink" width="73" height="73" version="1.1" viewBox="0 0 73 73"><title>frameworks-and-libraries/angular</title><desc>Created with Sketch.</desc><g id="frameworks-and-libraries/angular" fill="none" fill-rule="evenodd" stroke="none" stroke-width="1"><g id="container" fill="#FFF" fill-rule="nonzero" stroke="#78011E" stroke-width="2" transform="translate(2.000000, 2.000000)"><rect id="mask" width="71" height="71" x="-1" y="-1" rx="14"/></g><g id="Angular_full_color_logo" fill-rule="nonzero" transform="translate(13.000000, 11.000000)"><polygon id="Shape" fill="#DD0031" points="23.81 0 23.81 0 23.81 0 .228 8.409 3.825 39.59 23.81 50.66 23.81 50.66 23.81 50.66 43.795 39.59 47.392 8.409"/><polygon id="Shape" fill="#C3002F" points="23.81 0 23.81 5.623 23.81 5.598 23.81 31.257 23.81 31.257 23.81 50.66 23.81 50.66 43.795 39.59 47.392 8.409"/><path id="Shape" fill="#FFF" d="M23.81,5.59788298 L9.06806383,38.6532553 L14.5646277,38.6532553 L17.5282128,31.2569574 L30.0411277,31.2569574 L33.0047128,38.6532553 L38.5012766,38.6532553 L23.81,5.59788298 Z M28.1160638,26.6975957 L19.5039362,26.6975957 L23.81,16.3377128 L28.1160638,26.6975957 Z"/></g></g></svg>