<svg xmlns="http://www.w3.org/2000/svg" xmlns:xlink="http://www.w3.org/1999/xlink" width="73" height="73" version="1.1" viewBox="0 0 73 73"><title>frameworks-and-libraries/lit-element</title><desc>Created with Sketch.</desc><g id="frameworks-and-libraries/lit-element" fill="none" fill-rule="evenodd" stroke="none" stroke-width="1"><g id="container" fill="#FFF" fill-rule="nonzero" stroke="#212E82" stroke-width="2" transform="translate(2.000000, 2.000000)"><rect id="mask" width="71" height="71" x="-1" y="-1" rx="14"/></g><g id="logo-polymer" transform="translate(10.000000, 18.000000)"><polygon id="Shape" fill="#FF4081" fill-rule="nonzero" points="32.358 37.252 10.924 .127 21.642 .127 43.076 37.252"/><polygon id="Shape" fill="#FFF" fill-opacity=".2" fill-rule="nonzero" points="32.358 37.252 37.716 27.97 43.076 37.252"/><polygon id="Shape" fill="#FFF" fill-opacity=".1" fill-rule="nonzero" points="27 27.97 32.358 37.252 37.716 27.97"/><polygon id="Shape" fill="#000" fill-opacity=".1" fill-rule="nonzero" points="21.642 18.689 27 27.97 32.358 18.689 21.642 18.689"/><polygon id="Shape" fill="#000" fill-opacity=".2" fill-rule="nonzero" points="21.642 18.689 27 9.408 32.358 18.689 21.642 18.689"/><polygon id="Shape" fill="#000" fill-opacity=".3" fill-rule="nonzero" points="16.284 9.408 21.642 18.689 27 9.408 16.284 9.408"/><polygon id="Shape" fill="#000" fill-opacity=".4" fill-rule="nonzero" points="16.284 9.408 21.642 .127 27 9.408 16.284 9.408"/><polygon id="Shape" fill="#000" fill-opacity=".5" fill-rule="nonzero" points="10.924 .127 16.284 9.408 21.642 .127 10.925 .127"/><g id="Group" transform="translate(0.000000, 9.209302)"><polygon id="Shape" fill="#536DFE" fill-rule="nonzero" points="10.924 28.042 .207 9.48 5.566 .198 21.642 28.042 10.924 28.042"/><polygon id="Shape" fill="#FFF" fill-opacity=".2" fill-rule="nonzero" points="10.924 28.042 16.284 18.761 21.642 28.042 10.925 28.042"/><polygon id="Shape" fill="#FFF" fill-opacity=".1" fill-rule="nonzero" points="5.566 18.761 10.924 28.042 16.284 18.761"/><polygon id="Shape" points="5.566 18.761 10.924 9.48 16.284 18.761"/><polygon id="Shape" fill="#000" fill-opacity=".1" fill-rule="nonzero" points=".207 9.48 5.566 18.761 10.924 9.48 .207 9.48"/><polygon id="Shape" fill="#000" fill-opacity=".2" fill-rule="nonzero" points=".207 9.48 5.566 .198 10.924 9.48 .207 9.48"/></g><g id="Group" fill-rule="nonzero" transform="translate(5.441860, 0.000000)"><polygon id="Shape" fill="#303F9F" points="5.482 18.689 .124 9.408 5.482 .127 10.842 9.408"/><polygon id="Shape" fill="#000" fill-opacity=".2" points="10.842 9.408 5.482 .127 .124 9.408"/></g><g id="Group" fill-rule="nonzero" transform="translate(37.674419, 18.627907)"><polygon id="Shape" fill="#3F51B5" points="5.401 18.624 .042 9.342 5.401 .061 10.759 9.342 5.401 18.624"/><polygon id="Shape" fill="#000" fill-opacity=".2" points="10.76 9.342 5.401 18.624 .042 9.342"/></g><g id="Group" fill-rule="nonzero" transform="translate(32.232558, 0.000000)"><polygon id="Shape" fill="#7986CB" points="16.201 27.97 .126 .127 10.843 .127 21.561 18.689 16.202 27.97"/><polygon id="Shape" fill="#FFF" fill-opacity=".2" points="10.843 18.689 16.201 27.97 21.561 18.689 10.843 18.689"/><polygon id="Shape" fill="#FFF" fill-opacity=".1" points="10.843 18.689 16.201 9.408 21.561 18.689 10.843 18.689"/><polygon id="Shape" fill="#000" fill-opacity=".1" points="5.484 9.408 10.843 .127 16.201 9.408"/><polygon id="Shape" fill="#000" fill-opacity=".2" points=".126 .127 5.484 9.408 10.844 .127"/></g></g></g></svg>