<svg xmlns="http://www.w3.org/2000/svg" xmlns:xlink="http://www.w3.org/1999/xlink" width="73" height="73" version="1.1" viewBox="0 0 73 73"><title>frameworks-and-libraries/stencil</title><desc>Created with Sketch.</desc><g id="frameworks-and-libraries/stencil" fill="none" fill-rule="evenodd" stroke="none" stroke-width="1"><g id="container" fill="#FFF" fill-rule="nonzero" stroke="#16161D" stroke-width="2" transform="translate(2.000000, 2.000000)"><rect id="mask" width="71" height="71" x="-1" y="-1" rx="14"/></g><g id="101_stencil-icon.4544b30b5e" fill="#16161D" fill-rule="nonzero" stroke-linecap="round" stroke-linejoin="round" transform="translate(12.000000, 12.000000)"><g id="A-link" transform="translate(0.384615, 0.384615)"><g id="A"><path id="Shape" d="M32.3515385,0 L16.8792308,0 C7.59538462,0 0,7.59538462 0,16.8792308 L0,32.3515385 C0,41.6353846 7.59538462,49.2307692 16.8792308,49.2307692 L32.3515385,49.2307692 C41.6353846,49.2307692 49.2307692,41.6353846 49.2307692,32.3515385 L49.2307692,16.8792308 C49.2307692,7.59538462 41.6353846,0 32.3515385,0 Z M34.4615385,31.5076923 C34.4615385,33.7053846 31.2438462,35.5076923 29.0461538,35.5076923 L20.1846154,35.5076923 C17.9692308,35.5076923 14.7692308,33.7153846 14.7692308,31.5076923 L14.7692308,31.2969231 L34.4615385,31.2969231 L34.4615385,31.5076923 Z M34.4615385,26.7253846 L20.1846154,26.7253846 C17.9869231,26.7253846 14.7692308,24.9146154 14.7692308,22.7253846 L14.7692308,22.5146154 L29.0461538,22.5146154 C31.2438462,22.5146154 34.4615385,24.3253846 34.4615385,26.5146154 L34.4615385,26.7253846 Z M34.4615385,17.9330769 L14.7692308,17.9330769 L14.7692308,17.7223077 C14.7692308,15.5246154 17.9692308,13.7223077 20.1846154,13.7223077 L29.0461538,13.7223077 C31.2615385,13.7223077 34.4615385,15.5146154 34.4615385,17.7223077 L34.4615385,17.9330769 Z"/></g></g><g id="A"><path id="Shape" d="M32.3515385,0 L16.8792308,0 C7.59538462,0 0,7.59538462 0,16.8792308 L0,32.3515385 C0,41.6353846 7.59538462,49.2307692 16.8792308,49.2307692 L32.3515385,49.2307692 C41.6353846,49.2307692 49.2307692,41.6353846 49.2307692,32.3515385 L49.2307692,16.8792308 C49.2307692,7.59538462 41.6353846,0 32.3515385,0 Z M34.4615385,31.5076923 C34.4615385,33.7053846 31.2438462,35.5076923 29.0461538,35.5076923 L20.1846154,35.5076923 C17.9692308,35.5076923 14.7692308,33.7153846 14.7692308,31.5076923 L14.7692308,31.2969231 L34.4615385,31.2969231 L34.4615385,31.5076923 Z M34.4615385,26.7253846 L20.1846154,26.7253846 C17.9869231,26.7253846 14.7692308,24.9146154 14.7692308,22.7253846 L14.7692308,22.5146154 L29.0461538,22.5146154 C31.2438462,22.5146154 34.4615385,24.3253846 34.4615385,26.5146154 L34.4615385,26.7253846 Z M34.4615385,17.9330769 L14.7692308,17.9330769 L14.7692308,17.7223077 C14.7692308,15.5246154 17.9692308,13.7223077 20.1846154,13.7223077 L29.0461538,13.7223077 C31.2615385,13.7223077 34.4615385,15.5146154 34.4615385,17.7223077 L34.4615385,17.9330769 Z"/></g></g></g></svg>