<svg xmlns="http://www.w3.org/2000/svg" xmlns:xlink="http://www.w3.org/1999/xlink" width="73" height="73" version="1.1" viewBox="0 0 73 73"><title>architecture-and-paradigms/architecture/bridge</title><desc>Created with Sketch.</desc><defs><rect id="path-1" width="69" height="69" x="3" y="0" rx="14"/></defs><g id="architecture-and-paradigms/architecture/bridge" fill="none" fill-rule="evenodd" stroke="none" stroke-width="1"><g id="container" transform="translate(-1.000000, 2.000000)"><rect id="mask" width="71" height="71" x="2" y="-1" fill="#FFF" fill-rule="nonzero" stroke="#252D35" stroke-width="2" rx="14"/><mask id="mask-2" fill="#fff"><use xlink:href="#path-1"/></mask><rect width="71" height="71" x="2" y="-1" stroke="#252D35" stroke-width="2" rx="14"/><g id="bridge" fill-rule="nonzero" mask="url(#mask-2)"><g id="Shape" transform="translate(0.000000, 6.000000)"><polygon fill="#414952" points="8.826 16.805 13.22 16.805 13.22 28.674 8.826 28.674"/><polygon fill="#414952" points="26.477 16.805 30.872 16.805 30.872 28.674 26.477 28.674"/><polygon fill="#23272B" points="44.128 16.805 48.523 16.805 48.523 28.674 44.128 28.674"/><polygon fill="#23272B" points="61.78 16.805 66.174 16.805 66.174 28.674 61.78 28.674"/><polygon fill="#414952" points="35.303 19.849 39.697 19.849 39.697 28.674 35.303 28.674"/><polygon fill="#23272B" points="70.605 19.849 75 19.849 75 28.674 70.605 28.674"/><polygon fill="#414952" points="17.651 2.197 22.046 2.197 22.046 28.674 17.651 28.674"/><polygon fill="#23272B" points="52.954 2.197 57.349 2.197 57.349 28.674 52.954 28.674"/><polygon fill="#414952" points="0 19.849 4.395 19.849 4.395 28.674 0 28.674"/><polygon fill="#23272B" points="37.5 19.849 39.697 19.849 39.697 28.674 37.5 28.674"/><path fill="#FA5D0F" d="M72.8027344,22.0458984 C66.4911621,22.0458984 61.045459,18.6338379 57.0543457,12.178418 C56.3043457,10.9652344 55.6740234,9.75498047 55.1513672,8.625 C54.6287109,9.75498047 53.9983887,10.9653809 53.2483887,12.178418 C49.2572754,18.6338379 43.8115723,22.0458984 37.5,22.0458984 C31.1884277,22.0458984 25.7427246,18.6338379 21.7517578,12.178418 C21.0017578,10.9652344 20.3714355,9.75498047 19.8486328,8.625 C19.3258301,9.75498047 18.6955078,10.9653809 17.9455078,12.178418 C13.954541,18.6338379 8.50883789,22.0458984 2.19726563,22.0458984 C0.983789063,22.0458984 0,21.0621094 0,19.8486328 C0,18.6351563 0.983789063,17.6513672 2.19726563,17.6513672 C13.8013184,17.6513672 17.6726074,1.85112305 17.7104004,1.69145508 C17.9447754,0.700195313 18.8299805,0 19.8486328,0 C20.8672852,0 21.7524902,0.700195313 21.9868652,1.69145508 C21.9960938,1.73027344 23.0116699,5.89672852 25.5459961,9.95830078 C28.7312988,15.0631348 32.7531738,17.6513672 37.5,17.6513672 C49.1041992,17.6513672 52.9753418,1.85112305 53.0129883,1.69145508 C53.2475098,0.700195313 54.1327148,0 55.1513672,0 C56.1700195,0 57.0552246,0.700195313 57.2897461,1.69145508 C57.2989746,1.73027344 58.3144043,5.89672852 60.8487305,9.95830078 C64.0340332,15.0631348 68.0559082,17.6513672 72.8027344,17.6513672 C74.0162109,17.6513672 75,18.6351563 75,19.8486328 C75,21.0621094 74.0162109,22.0458984 72.8027344,22.0458984 Z"/><path fill="#EB0404" d="M53.2483887,12.178418 C53.9983887,10.9652344 54.6287109,9.75498047 55.1513672,8.625 C55.6740234,9.75498047 56.3043457,10.9653809 57.0543457,12.178418 C61.045459,18.6338379 66.4911621,22.0458984 72.8027344,22.0458984 C74.0162109,22.0458984 75,21.0621094 75,19.8486328 C75,18.6351563 74.0162109,17.6513672 72.8027344,17.6513672 C68.0559082,17.6513672 64.0340332,15.0631348 60.8487305,9.95830078 C58.3144043,5.89672852 57.2989746,1.73027344 57.2897461,1.69145508 C57.0552246,0.700195313 56.1700195,0 55.1513672,0 C54.1327148,0 53.2475098,0.700195313 53.0129883,1.69145508 C52.9753418,1.85112305 49.1041992,17.6513672 37.5,17.6513672 L37.5,22.0458984 C43.8115723,22.0458984 49.2572754,18.6338379 53.2483887,12.178418 Z"/><polygon fill="#FA5D0F" points="17.651 28.674 22.046 28.674 22.046 46.326 17.651 46.326"/><polygon fill="#EB0404" points="52.954 28.674 57.349 28.674 57.349 46.326 52.954 46.326"/><path fill="#EB0404" d="M72.8027344,39.6972656 L2.19726563,39.6972656 C0.983789063,39.6972656 0,38.7134766 0,37.5 L0,30.871582 C0,29.6581055 75,30.0854004 75,31.298877 L75,37.5 C75,38.7134766 74.0162109,39.6972656 72.8027344,39.6972656 Z"/><path fill="#C10000" d="M37.5,28.6743164 L37.5,39.6972656 L72.8027344,39.6972656 C74.0162109,39.6972656 75,38.7134766 75,37.5 L75,30.871582 L37.5,28.6743164 Z"/><polygon fill="#FA5D0F" points="0 26.477 75 26.477 75 30.872 0 30.872"/><polygon fill="#EB0404" points="37.5 26.477 75 26.477 75 30.872 37.5 30.872"/><path fill="#96E8FF" d="M0,48.5229492 L0,72.8027344 C0,74.0162109 0.983789063,75 2.19726563,75 L72.8027344,75 C74.0162109,75 75,74.0162109 75,72.8027344 L75,48.5229492 C75,47.3094727 74.0162109,46.3256836 72.8027344,46.3256836 L2.19726563,46.3256836 C0.983789063,46.3256836 0,47.3094727 0,48.5229492 Z"/><path fill="#19CFFC" d="M37.5,75 L72.8027344,75 C74.0162109,75 75,74.0162109 75,72.8027344 L75,48.5229492 C75,47.3094727 74.0162109,46.3256836 72.8027344,46.3256836 L37.5,46.3256836 L37.5,75 Z"/><path fill="#19CFFC" d="M55.1513672,52.9541016 L37.5,52.9541016 C36.2865234,52.9541016 35.3027344,53.9378906 35.3027344,55.1513672 C35.3027344,56.3648438 36.2865234,57.3486328 37.5,57.3486328 L55.1513672,57.3486328 C56.3648438,57.3486328 57.3486328,56.3648438 57.3486328,55.1513672 C57.3486328,53.9378906 56.3648438,52.9541016 55.1513672,52.9541016 Z"/><path fill="#33B1FF" d="M55.1513672,57.3486328 C56.3648438,57.3486328 57.3486328,56.3648438 57.3486328,55.1513672 C57.3486328,53.9378906 56.3648438,52.9541016 55.1513672,52.9541016 L37.5,52.9541016 L37.5,57.3486328 L55.1513672,57.3486328 Z"/><path fill="#19CFFC" d="M19.8486328,52.9541016 L0,52.9541016 L0,57.3486328 L19.8486328,57.3486328 C21.0621094,57.3486328 22.0458984,56.3648438 22.0458984,55.1513672 C22.0458984,53.9378906 21.0621094,52.9541016 19.8486328,52.9541016 Z"/><path fill="#33B1FF" d="M55.1513672,63.2446289 C53.9378906,63.2446289 52.9541016,64.228418 52.9541016,65.4418945 C52.9541016,66.6553711 53.9378906,67.6391602 55.1513672,67.6391602 L75,67.6391602 L75,63.2446289 L55.1513672,63.2446289 Z"/><path fill="#19CFFC" d="M11.0229492,63.2446289 L0,63.2446289 L0,67.6391602 L11.0229492,67.6391602 C12.2364258,67.6391602 13.2202148,66.6553711 13.2202148,65.4418945 C13.2202148,64.228418 12.2364258,63.2446289 11.0229492,63.2446289 Z"/><path fill="#19CFFC" d="M33.0871582,63.2446289 L24.2614746,63.2446289 C23.047998,63.2446289 22.064209,64.228418 22.064209,65.4418945 C22.064209,66.6553711 23.047998,67.6391602 24.2614746,67.6391602 L33.0871582,67.6391602 C34.3006348,67.6391602 35.2844238,66.6553711 35.2844238,65.4418945 C35.2844238,64.228418 34.3006348,63.2446289 33.0871582,63.2446289 Z"/><path fill="#33B1FF" d="M63.9770508,52.9541016 C62.7635742,52.9541016 61.7797852,53.9378906 61.7797852,55.1513672 C61.7797852,56.3648438 62.7635742,57.3486328 63.9770508,57.3486328 L75,57.3486328 L75,52.9541016 L63.9770508,52.9541016 Z"/></g></g></g></g></svg>