<svg xmlns="http://www.w3.org/2000/svg" xmlns:xlink="http://www.w3.org/1999/xlink" width="73" height="73" version="1.1" viewBox="0 0 73 73"><title>architecture-and-paradigms/architecture/css-methodologies</title><desc>Created with Sketch.</desc><g id="architecture-and-paradigms/architecture/css-methodologies" fill="none" fill-rule="evenodd" stroke="none" stroke-width="1"><g id="container" fill="#FFF" fill-rule="nonzero" stroke="#00415E" stroke-width="2" transform="translate(2.000000, 2.000000)"><rect id="mask" width="71" height="71" x="-1" y="-1" rx="14"/></g><g id="fabric" fill-rule="nonzero" transform="translate(11.000000, 11.000000)"><path id="Shape" fill="#40C4FF" d="M25.9467343,51.1596747 L0,33.7302777 L25.9467343,16.3004831 L35.8362585,22.9451749 C39.6248777,25.4915912 44.1870413,26.4392429 48.6792442,25.6168053 L51.9356043,25.0193554 L50.421508,27.9632767 C46.9453278,34.7184748 41.7773667,40.5260213 35.4765166,44.7562683 L25.9467343,51.1596747 Z"/><path id="Shape" fill="#FFEE58" d="M25.9467343,43.0187745 L0,25.5893775 L25.9467343,8.15958295 L35.8362585,14.8042747 C39.6248777,17.350691 44.1870413,18.2983427 48.6792442,17.4759051 L51.9356043,16.8784552 L50.421508,19.8223765 C46.9453278,26.5775746 41.7773667,32.3851211 35.4765166,36.6153681 L25.9467343,43.0187745 Z"/><path id="Shape" fill="#FE9D58" d="M25.9467343,34.8778743 L0,17.4484773 L25.9467343,0.0186827554 L35.8362585,6.66337454 C39.6248777,9.20979083 44.1870413,10.1574425 48.6792442,9.33500489 L51.9356043,8.73755501 L50.421508,11.6814763 C46.9453278,18.4366744 41.7773667,24.2442209 35.4765166,28.4744679 L25.9467343,34.8778743 Z"/><g id="Group" fill="#F9873A" transform="translate(12.821918, 9.056751)"><polygon id="Shape" points=".099 6.532 3.356 6.532 3.356 9.789 .099 9.789"/><polygon id="Shape" points="6.612 3.276 9.868 3.276 9.868 6.532 6.612 6.532"/><polygon id="Shape" points="11.497 .019 14.753 .019 14.753 3.276 11.497 3.276"/><polygon id="Shape" points="6.612 9.789 9.868 9.789 9.868 13.045 6.612 13.045"/><polygon id="Shape" points="11.497 14.673 14.753 14.673 14.753 17.929 11.497 17.929"/><polygon id="Shape" points="13.125 6.532 16.381 6.532 16.381 9.789 13.125 9.789"/><polygon id="Shape" points="18.009 3.276 21.266 3.276 21.266 6.532 18.009 6.532"/><polygon id="Shape" points="18.009 9.789 21.266 9.789 21.266 13.045 18.009 13.045"/></g><polygon id="Shape" fill="#FFF" points="40.6 12.333 43.857 12.333 43.857 15.589 40.6 15.589"/></g></g></svg>