<svg xmlns="http://www.w3.org/2000/svg" xmlns:xlink="http://www.w3.org/1999/xlink" width="73" height="73" version="1.1" viewBox="0 0 73 73"><title>architecture-and-paradigms/architecture/design-patterns</title><desc>Created with Sketch.</desc><defs><rect id="path-1" width="69" height="69" x="2" y="4" rx="14"/></defs><g id="architecture-and-paradigms/architecture/design-patterns" fill="none" fill-rule="evenodd" stroke="none" stroke-width="1"><g id="container" transform="translate(0.000000, -2.000000)"><rect id="mask" width="71" height="71" x="1" y="3" fill="#FFF" fill-rule="nonzero" stroke="#512504" stroke-width="2" rx="14"/><mask id="mask-2" fill="#fff"><use xlink:href="#path-1"/></mask><rect width="71" height="71" x="1" y="3" stroke="#512504" stroke-width="2" rx="14"/><g id="parquet" fill-rule="nonzero" mask="url(#mask-2)"><polygon id="Shape" fill="#9E5A23" points="30.207 12.586 41.534 0 17.872 0 29.2 12.586"/><polygon id="Shape" fill="#844414" points="29.703 40.276 6.545 17.117 13.719 10.069 36.878 33.228"/><g id="Group" fill="#9E5A23" transform="translate(6.416016, 2.851562)"><polygon id="Shape" points="23.287 23.202 46.446 .043 53.494 7.217 30.336 30.376"/><polygon id="Shape" points="23.287 51.647 .129 28.488 7.303 21.314 30.462 44.473"/></g><g id="Group" fill="#CE8D5B" transform="translate(6.416016, 17.109375)"><polygon id="Shape" points="23.287 23.167 46.446 .008 53.62 7.182 30.336 30.341"/><polygon id="Shape" points="23.287 51.611 .129 28.453 7.303 21.279 30.336 44.563"/></g><polygon id="Shape" fill="#9E5A23" points="29.703 54.498 52.862 31.34 60.036 38.514 36.752 61.672"/><polygon id="Shape" fill="#CE8D5B" points="13.719 66.959 7.678 73 19.634 73"/><polygon id="Shape" fill="#844414" points="13.719 52.736 6.545 59.91 19.634 73 33.857 73"/><polygon id="Shape" fill="#CE8D5B" points="39.647 73 53.869 73 59.91 66.959 52.862 59.91"/><g id="Group" fill="#844414" transform="translate(29.656250, 0.000000)"><polygon id="Shape" points="36.296 73 30.254 66.959 24.213 73"/><polygon id="Shape" points=".047 11.831 7.221 19.005 26.227 0 11.878 0"/></g><polygon id="Shape" fill="#CE8D5B" points="6.545 2.895 29.703 26.053 36.878 18.879 17.998 0 9.44 0"/><g id="Group" fill="#844414"><polygon id="Shape" points="29.703 68.721 33.857 73 39.772 73 60.036 52.736 52.862 45.688"/><polygon id="Shape" points="6.545 2.895 9.44 0 0 0 0 9.44"/></g><polygon id="Shape" fill="#9E5A23" points="0 23.662 13.719 10.069 6.545 2.895 0 9.44"/><polygon id="Shape" fill="#CE8D5B" points="0 37.884 13.719 24.165 6.545 16.991 0 23.662"/><polygon id="Shape" fill="#844414" points="0 52.107 13.719 38.388 6.545 31.214 0 37.884"/><polygon id="Shape" fill="#9E5A23" points="0 66.455 13.719 52.736 6.545 45.562 0 52.107"/><polygon id="Shape" fill="#844414" points="6.545 59.91 0 66.455 0 73 7.678 73 13.719 66.959"/><polygon id="Shape" fill="#CE8D5B" points="73 8.81 64.19 0 55.757 0 52.862 3.021 73 23.159"/><polygon id="Shape" fill="#844414" points="73 23.159 59.91 10.069 52.862 17.117 73 37.255"/><polygon id="Shape" fill="#9E5A23" points="73 37.255 60.036 24.166 52.862 31.34 73 51.478"/><polygon id="Shape" fill="#CE8D5B" points="73 51.478 60.036 38.514 52.862 45.688 73 65.826"/><g id="Group" fill="#9E5A23" transform="translate(52.753906, 0.000000)"><polygon id="Shape" points="7.156 52.736 .108 59.91 13.198 73 20.246 73 20.246 65.826"/><polygon id="Shape" points="11.436 0 20.246 8.81 20.246 0"/></g></g></g></g></svg>